<?xml version="1.0" encoding="utf-8"?>
<!-- Generator: Adobe Illustrator 28.1.0, SVG Export Plug-In . SVG Version: 6.00 Build 0)  -->
<svg version="1.1" id="Layer_1" xmlns="http://www.w3.org/2000/svg" xmlns:xlink="http://www.w3.org/1999/xlink" x="0px" y="0px"
	 viewBox="0 0 435 450" style="enable-background:new 0 0 435 450;" xml:space="preserve">
<style type="text/css">
	.st0{fill:#FFFFFF;}
	.st1{fill:none;stroke:#FFFFFF;stroke-width:14;stroke-miterlimit:10;}
	.st2{fill:#193E5F;}
	.st3{fill:#FBD42C;}
	.st4{fill:#0063A6;}
	.st5{fill:#F7EBBC;}
</style>
<g>
	
		<image style="overflow:visible;opacity:0.3;" width="384" height="402" xlink:href="9B2543DD5C55FA87.png"  transform="matrix(1 0 0 1 26 15.52)">
	</image>
	<g>
		<g>
			<g>
				<g>
					<g>
						<path class="st0" d="M323.9,274.2c0-0.2,0-0.4,0-0.6c5.2,4.9,20.1,9,37.2,5.9c10.7-2,19.1-7.5,17.9-7.4
							c0.5-0.9,0.9-1.8,1.3-2.8c0,0.4,0.1,0.8,0,1.2c-0.1,2.2-1.1,4.3-1,7.2s2,4.4,1.9,7.4c0,1.8-0.6,3.6-1.5,5.1
							c-0.4-0.8-0.9-1.6-1.6-2.4c-0.1-0.1-5.2-4.2-5-8.1l-1.7-0.4c-0.1,0.3-2.5,7,0.2,12.3v0c0.9,1.7,0.6,3.6-0.1,5.4
							c-1.9,0.9-4,1.7-6.3,2.3c0-2-0.5-4.3-2.4-6.3c-0.1-0.1-5.2-4.2-5-8.1l-1.7-0.3c-0.1,0.3-2.5,7,0.2,12.3c0.6,1.3,0.6,2.6,0.4,4
							c-2.5,0.2-5.1,0.3-7.7,0.2c-0.6,0-1.3-0.1-1.9-0.2c0.7-2.1,0.9-4.7-0.6-7.3c-0.1-0.2-4.1-5.2-2.9-9l-1.6-0.7
							c-0.2,0.3-4.1,6.3-2.8,12c0.3,1.2,0.1,2.3-0.4,3.2c-3.2-1.1-6.2-2.5-8.7-4.2c1.4-6.2-0.6-9.4-0.7-9.5l-1.3-2l-0.3,2.3
							c-0.2,1.8-1.3,3.7-2.4,5.3c-2.9-3.1-4.6-6.5-4.5-10C321.3,277.9,323.6,277.3,323.9,274.2z"/>
						<path class="st0" d="M136.5,287.7l-0.4,3.5l1.4,0.1l-2,20.2l2.9,3c0,0,3.9-0.6,5-0.7c1.1-0.1,4.2-0.3,4.2-0.3l3.4-2.5
							l1.6-16.4l1.2,0.4l0.3-3.3c0,0-2.5-0.9-3.3-1.1c-0.8-0.2-3-0.9-3-0.9l-0.3,3.2l1.2,0.3l-1.5,15.1l-1.4,1.2l-4.7,0.3l-1.4-1.5
							l1.6-16.5l1.3,0.2l0.4-3.6c0,0-2.3-0.4-3.2-0.5C139.1,288.1,136.5,287.7,136.5,287.7z M380.4,306.2c-0.1,14-3,28.5-7.7,40.4
							c-4.4,11.1-12.6,24.1-21.3,33.3c-0.5,1.2-0.9,2.3-1.2,3.3c-2.4,2-5.3,3.6-8.6,4.9c-2,1.2-4,2.2-5.8,2.7c-3,0.9-7.5,1.4-12,0.8
							c-9.7,0.4-20-1.6-28.5-6.4c-12.4-7.1-27.3-24.9-32.7-37.8c-0.1-0.1-0.2-0.3-0.3-0.4c-5.6-11.7-18.6-21-31-17.5
							c0,0,9.8,6.8,13.9,16.5c-2.1,4.9-5.1,9.4-9,13.1c-20.9,19.8-60.2,12.2-87.8-16.9c-22.6-23.8-30.3-54.6-20.9-75.9
							c0.2-0.4,0.2-0.9,0.2-1.4c2.1-3.6,4-6.9,4.7-11.7c1.8-13.1-3-17.3-3-17.3s-1.2,11.9-3,16.7c-0.9,2.3-2.3,5-3.9,7.3
							c-3.1-0.7-6.1-1.6-9-2.5c1.8-7.5,1.8-15.3,0.3-22.5c-2.1-4.1-5.8-8.5-12.7-10.5c1.6,1.7,2.7,3.6,3.6,5.2
							c4.3,8.3,4.8,19,1.5,29.5c-0.8,2.5-1.8,4.9-2.9,7.1c-4.2-10.4-15.1-18.2-28.2-19c-7-0.4-13.6,1.4-19.1,4.6
							c0.3-2.7,0.9-5.4,1.8-8.1c3.5-11,10.6-19.4,18.6-23.4c2.5-2.9,5.8-5.9,9.9-8.6c4.1-2.7,9-5.1,14.9-6.6
							c10.6-3.1,24.2-4.2,39.3-2.1c12.3,1.7,22.9,5.2,31.6,9.5c-0.2,2-0.4,4.1-0.4,6.3c-5.2,3.4-8.9,7.8-10.4,13.1
							c-0.6,2-0.8,4-0.8,6c-2.3,2.7-4,5.7-4.9,9c-5,17.8,13.2,37.7,40.7,44.5c25.9,6.4,62.7-7.1,71-23.6c6.1,0.6,12.5,2.6,17.2,5.6
							c5.3,3.4,13.7,16,16.1,21.4c1.7,3.8,3.4,10.3,6.1,15.7c-0.1,0.2-0.3,0.5-0.4,0.7c-12.9,23.3-13.9,48.7-4.2,63.8
							c-0.1-0.4-0.2-0.7-0.2-1.1c-2.2-12.1,3.3-39.8,13.4-58.2c2.6-4.7,5.5-9.2,8.6-13.5c7.3,5,17.5,8.4,28.9,9.1
							c4.3,0.3,8.5,0.1,12.5-0.4C370.7,309.9,375.9,308.4,380.4,306.2z M220.5,339.4l-2.3-6.8c0,0-3.4-3.4-4.2-4.2
							c-0.7-0.7-4.3-3.8-4.3-3.8l-3.3,1.1l0,0l-1.6,15.9l2.3,5.6c0,0,1.5,1.7,4.2,5.3c2.6,3.4,4.2,5.6,4.2,5.6l3,0.5l0.5-5.2
							l-3.2-4.4l-0.2,2.6l-1.6,0l-4.2-5.3l-1.2-2.9l1.3-12.9l1.6-0.6l4.3,4.1l1.1,3l-0.3,3l3.5,4L220.5,339.4z M202.1,321.6l0.3-3.2
							c-1.9-1.4-6-4.4-7.9-5.6l-0.3,3l2.3,1.6l-7.8,1.8l0.7-6.8l1.2,0.8l0.3-2.9c-2.8-1.9-2.9-2-6-3.9v0l0,0c0,0,0,0,0,0l-0.3,3
							l1.2,0.8l-1.3,13.1l-1.2-0.9l-0.3,2.9c2.6,1.9,3.6,2.6,6,4.5l0.3-3.1l-1.3-1l0.3-3.1l2.7-0.6l3.8,9.3l-2-1.8l-0.3,3.1
							c1.4,1.2,5.5,5,7.6,7.4l0.4-3.6l-1.4-1.4l-5.7-13.5l6.6-1.4L202.1,321.6z M179.7,306.4l0.3-2.9l-4.8-2.6l-6.8,7l-4.7-12.5
							l-4.9-2.1h0l-0.3,3.1l1.2,0.5l-1.4,14.2l-1.1-0.2l-0.3,3.3c0,0,2.8,0.6,3.6,0.8c0.8,0.2,2.9,0.8,2.9,0.8l0.3-3.1l-1.3-0.5
							l1-9.8l4.6,11.8l6.7-6.6l-0.9,9l-1.2-0.5l-0.3,3.3c0,0,2.3,1,3,1.4s3.1,1.7,3.1,1.7l0.3-3.2l-1.3-0.7l1.2-12.7L179.7,306.4z"
							/>
						<path class="st0" d="M368.9,233.8c4.7,7.5,7.6,20.6,2.5,27.8c-4,5.5-13.5,9.1-19.5,10.4c-23.3,4.9-33.6-11.4-33.8-29.4
							c0,0-6.9,3.6-1.9,15.4c0,0-13.4-5.1-8.4-22.3c0.6-2.1,2.7-6,5.8-7.8c7.6-4.8,13-0.8,14.8-3.8c1.3-2.2-3.6-3.1-8.3-3.3
							c0-2.5,0.8-6,8.3-8.7c7.5-2.7,14.1,1.9,15.9-0.4c1.1-1.5-1.2-2.8-4.3-3.7c3.5-1.2,7-1.8,10.1-1.3
							C365,209.1,364,225.9,368.9,233.8L368.9,233.8z"/>
						<path class="st0" d="M265.1,104.6C265,104.6,265,104.6,265.1,104.6L265.1,104.6C265,104.6,265,104.6,265.1,104.6z"/>
						<path class="st0" d="M272.9,83.6c0.6,14.8-7.6,20.8-7.8,21c0,0,0,0,0,0l0,0c0,0,0,0,0,0c3.1,0.5,7.5-2.1,7.5-2.1
							c-2.4,8.3-8.4,12.3-11.6,14.2c4.1-10.8,1.8-19.5,0.7-23.6l0.1-0.5C267.9,91.9,272.9,83.6,272.9,83.6z"/>
						<path class="st0" d="M256.6,264.9c0.2-0.1,4-1.6,7.1-6.1c0.1,1,0,2.1-0.3,3.2c-0.9,3.3-3.8,6.8-8,10.1
							c-1.3-1.6-3.4-2.4-4.8-2.7c-0.4-0.1-0.8,0.1-1,0.5c-0.2,0.3-0.2,0.8,0,1.1c1.1,1.7,1.4,3,1.2,4.3c-1.4,0.9-2.8,1.7-4.4,2.5
							c-0.8-2.3-3.2-3.8-4.7-4.3c-0.4-0.1-0.8,0-1.1,0.3c-0.3,0.3-0.3,0.7-0.2,1.1c1.1,2.5,0.9,4-0.1,5.7c-0.5,0.2-1,0.4-1.5,0.6
							c-0.9,0.4-1.9,0.7-2.9,1c-0.4-2.9-3.2-4.7-4.9-5.3c-0.4-0.1-0.8,0-1.1,0.3c-0.3,0.3-0.3,0.7-0.2,1.1c1.2,2.6,0.8,4.1-0.2,5.8
							c-1.8,0.5-3.6,0.8-5.4,1.2c0.4-3.3-2.5-5.7-4.3-6.5c-0.4-0.2-0.8-0.1-1.1,0.2c-0.3,0.3-0.4,0.7-0.3,1c1,2.9,0.3,4.5-1.2,6.2
							c0,0,0,0,0,0.1c-2.2,0.2-4.3,0.3-6.4,0.3c-0.6-1.8-1.5-5-1.5-6.9c0-0.4-0.2-0.8-0.6-0.9c-0.4-0.1-0.8,0-1.1,0.3
							c-0.1,0.1-2.9,3.2-3.7,7.2c-2.2-0.2-4.4-0.6-6.5-1.1c-0.3-1.9-0.7-5.2-0.4-7.2c0.1-0.4-0.1-0.8-0.5-1
							c-0.4-0.2-0.8-0.2-1.1,0.1c-0.1,0.1-3.1,2.6-4.5,6.1c-2.4-0.8-4.6-1.8-6.8-2.8c-0.1-1.8-0.1-4.4,1.2-6.6
							c0.2-0.4,0.2-0.8-0.1-1.2c-0.3-0.3-0.8-0.4-1.1-0.2c-0.2,0.1-3.9,1.8-5.7,4.9c-1.5-0.9-2.9-1.9-4.3-2.9c0-1.6,0.2-3.6,1.2-5.3
							c0.2-0.4,0.2-0.9-0.1-1.2s-0.7-0.4-1.1-0.2c-0.1,0.1-2.5,1.1-4.3,3.1c-1.2-1.1-2.2-2.2-3.2-3.4c0.1-1.3,0.4-2.7,1.2-4
							c0.2-0.4,0.2-0.8-0.1-1.1c-0.3-0.3-0.8-0.4-1.2-0.3c-0.1,0.1-1.3,0.6-2.7,1.6c-0.3-0.4-0.6-0.8-0.8-1.2
							c-0.4-0.6-0.7-1.4-1.1-2.1c0.3-1,0.7-1.9,1.4-2.7c0.3-0.4,0.3-0.8,0-1.2c-0.2-0.4-0.7-0.5-1.1-0.4c-0.1,0-0.8,0.2-1.7,0.7
							c-0.8-3-1.2-6.4-0.2-9.9c0.3-1,0.7-2,1.2-2.9c2.3,7.2,8.2,14.2,16.8,19.7c-4.4-4.2-7.8-8.9-9.9-13.8
							c-1.8-4.3-3.4-10.7-0.7-17.1c1-2.3,2.5-4.4,4.3-6.2c0.3,2.9,0.7,5.8,1.5,8.9c1.3,5,1.2,8.8,0.1,9.9
							c2.9,7.3,13.7,19.4,27.5,23.5c15.7,4.6,34.2,1.1,45.2-5.3c5.5-4.1,11-10.5,15.6-17.5c0.5,0.9,1.2,2.2,1.6,4
							C263.1,253,261.9,259.1,256.6,264.9z"/>
						<path class="st0" d="M247,172.6c-3.1-1.2-6.9-2.1-11.8-2.3l0,0c-18.7-1-19.8,8.3-22.2,15.1c-2.2,0.4-4.7,1-6.5,2.3h0
							c-0.3-0.4-0.8-0.5-1.2-0.4c-0.6,0.2-5.5,2.9-8.5,7.1C180,181.3,182,170.9,182,170.9c0.7-14.3,7.7-28,18.1-37.5
							c1.2-2.9,0.4-6.5,0.4-6.5c-0.4-5.3-3.3-10-5.5-13.7c-4.5-7.4-7.2-16-7.9-25c-1.3-16,3.8-30.9,13.1-40.7
							c2.1,9.4,8,19.7,7.2,30.9c-0.4,5.9-1.9,10.2-3.2,14.2c-5.6-1.7-9.8-9.1-9.8-9.1c-1.1,14.2,7.5,21.8,8.3,22.5
							c0,0.1,0,0.1,0,0.1c-3.1,0.4-7.4-1-7.4-1c2.8,11.3,10.3,13.1,12.4,13.4c0.3,0.4,0.6,0.8,1,1.2c-3.1,4-3.2,8.4-3.2,8.4
							s9.8-7.3,26.9-7.5c1.7,0,3.4,0.5,5.1,1.1c2.1-0.9,4.1-2.1,6-3.7c5.1-4.3,5-12.6,4.8-17.6c-0.1-3-0.9-6-2.3-8.6l-0.1-0.5
							c-0.6-1-0.9-2.2-1-3.6c-0.4-5.6,3-13.4,6.3-21.1c2.1-4.8,4.2-9.8,5.7-14.7c6.2,8.1-5.3,21.8-4.5,32.8
							c0.6,7.8,4.4,8.2,5.2,18.2c0.5,6.1-0.6,13.3-3.7,17.6c-2.1,2.9-3.5,5.9-4.1,8.8c3.4,3.2,6.7,7.2,9.5,11.6
							c-4.9,1.9-14.9,7.5-16.2,21.7l0,0C242.8,166.5,244.6,169.5,247,172.6c3.8,5.1,9,10.7,8.5,20.3c-0.2,4.7-1.3,7.3-2.5,9.4h0
							c1.2-2.1,2.3-4.8,2.5-9.4C256,183.3,250.8,177.7,247,172.6z M227.1,163.6c0.1-1.3-0.2-2.6-0.8-3.8c-0.2-0.4-0.6-0.6-1.1-0.7
							c-0.5,0-0.9,0.2-1.1,0.6c-1.1,1.8-1.8,1.7-2.1,1.7c-1.9-0.1-3.3-4.4-4.9-9c-1.1-3.3-2.2-6.4-3.4-7.8
							c-4.5-5.2-8.9-5.2-11.7-4.3c-3.2,1-5.2,3.4-5.9,4.6c-0.2,0.4-0.2,0.9,0,1.3c0.2,0.4,0.6,0.6,1.1,0.7l0.5,0c2.4,0,6.3,0,10,3.5
							c-0.2,0-0.4-0.2-0.7-0.1c-2.5,0.6-4.3,5-3.5,8.2l0,0c0.8,3.1,3.5,5.2,6,4.6c1.8-0.4,3-2.1,3.3-4.1c0.1,0.4,0.3,0.7,0.4,1.1
							c0.4,1.1,3.4,6.8,5,7.6c2.3,1.2,5.5,1.6,7.6-0.9C226.5,165.8,226.9,164.7,227.1,163.6z"/>
						<path class="st0" d="M252,208.2L252,208.2c-0.3,1.2-0.9,2.8-2.2,4.1C251.1,211,251.7,209.4,252,208.2z"/>
						<path class="st0" d="M262.3,182.4c-4.2-8.1-14-11.7-13.6-19.6c0-0.4,0.1-0.7,0.2-1.1c0.1,2,0.9,3.7,2.5,4.4
							c2.4,1,5.3-0.6,6.6-3.7c1.3-3.1,0.2-7.8-2.2-8.8c-0.1,0-0.2,0-0.3,0c3.2-1.5,6.9-1.5,9.9,1.7c1.1,4.8,2,10.9,1.5,17.3
							C266.7,177,265.2,182.4,262.3,182.4z"/>
						<path class="st0" d="M248.6,226L248.6,226c-0.5,0.7-1,1.3-1.6,1.8C247.5,227.3,248.1,226.7,248.6,226z"/>
						<path class="st0" d="M247,227.8c0.6-0.6,1.1-1.2,1.6-1.8c0,0-0.3,14.6-13.1,27.5l0,0c0,0,9-1.6,17.9-11.3
							c-0.4,1.2-8.3,22.9-39.8,18.4c0,0-0.3,0-1-0.1c-0.1,0-0.1,0-0.2,0c-0.4-0.1-0.9-0.1-1.5-0.2c0,0-0.1,0-0.1,0
							c-0.2,0-0.4-0.1-0.6-0.1c-0.2,0-0.4-0.1-0.6-0.1c-1-0.2-2.3-0.6-3.6-1.1c-0.3-0.1-0.6-0.2-0.9-0.3c-0.3-0.1-0.6-0.2-0.9-0.3
							c-0.2-0.1-0.4-0.2-0.6-0.3c-0.3-0.1-0.6-0.2-0.8-0.4c-0.1,0-0.2-0.1-0.3-0.1c0,0,0,0,0,0c-11.2-15.3-3.9-31.9-3.9-31.9
							l-8.6,7.4c-2.9-13,2.1-22.6,4.3-26.1c0.3,0.9,0.9,2.4,2.1,3.8c0,0,0,0,0,0c0.2,0.2,0.4,0.5,0.7,0.7c0,0,0,0,0.1,0.1
							c0.2,0.2,0.4,0.4,0.6,0.5c0.1,0.1,0.2,0.2,0.3,0.3c0.2,0.2,0.4,0.4,0.7,0.5c0.1,0.1,0.2,0.2,0.4,0.2c0.1,0.1,0.3,0.2,0.4,0.2
							c0.1,0.1,0.3,0.2,0.4,0.2c0.4,0.2,0.9,0.4,1.3,0.6c0.2,0.1,0.3,0.1,0.5,0.2c0.2,0.1,0.3,0.1,0.5,0.2c0,0,4.9,6.7,9.5,11.3
							c0.4,0.4,0.8,0.8,1.2,1.1c0.6,0.5,1.1,1,1.7,1.4c0.2,0.1,0.4,0.3,0.5,0.4c0.3,0.2,0.7,0.4,1,0.6c0.2,0.1,0.3,0.1,0.5,0.2
							C222.9,232.3,238.2,236.6,247,227.8z"/>
						<path class="st0" d="M246.6,180.5c0.1-1.2-0.2-2-0.7-2.5h0C246.4,178.5,246.6,179.4,246.6,180.5c-0.1,1.3-1,2.8-2.7,4.5
							C245.6,183.3,246.5,181.8,246.6,180.5z"/>
						<path class="st0" d="M245.4,214.9L245.4,214.9c-0.5,2.7-1.7,4.7-3.1,6.1C243.7,219.5,244.8,217.5,245.4,214.9z"/>
						<path class="st0" d="M241.8,203.9c0.3,0.2,0.7,0.3,1,0.4C242.5,204.3,242.2,204.1,241.8,203.9z"/>
						<path class="st0" d="M242.7,186.1c-0.4,0.4-0.8,0.7-1.3,1.1C241.9,186.8,242.3,186.4,242.7,186.1z"/>
						<path class="st0" d="M253.3,242.2c-8.8,9.7-17.9,11.3-17.9,11.3l0,0C235.5,253.5,244.5,251.9,253.3,242.2
							C253.4,242.2,253.4,242.2,253.3,242.2z"/>
						<path class="st0" d="M240.6,203.1c0.4,0.3,0.8,0.6,1.3,0.9C241.4,203.7,241,203.4,240.6,203.1z"/>
						<path class="st0" d="M241.4,187.2c-0.5,0.4-1,0.8-1.5,1.2C240.4,187.9,241,187.6,241.4,187.2z"/>
						<path class="st0" d="M239.9,188.3C239.9,188.3,239.9,188.3,239.9,188.3L239.9,188.3L239.9,188.3z"/>
						<path class="st0" d="M239.9,188.4C239.9,188.4,239.9,188.4,239.9,188.4C239.9,188.4,239.9,188.4,239.9,188.4z"/>
						<path class="st0" d="M239.9,188.4C239.9,188.4,239.8,188.4,239.9,188.4C239.8,188.4,239.9,188.4,239.9,188.4z"/>
						<path class="st0" d="M239.8,188.4C239.8,188.4,239.8,188.5,239.8,188.4C239.8,188.5,239.8,188.4,239.8,188.4z"/>
						<path class="st0" d="M239.8,188.5C239.8,188.5,239.7,188.5,239.8,188.5C239.7,188.5,239.8,188.5,239.8,188.5z"/>
						<path class="st0" d="M239.7,188.6C239.7,188.6,239.6,188.6,239.7,188.6C239.6,188.6,239.7,188.6,239.7,188.6z"/>
						<path class="st0" d="M237.7,198.4c0.6,2,1.6,3.6,2.9,4.7C239.3,202,238.3,200.3,237.7,198.4z"/>
						<path class="st0" d="M239.2,189.1c-0.7,0.7-1.3,1.3-1.6,2.4C237.9,190.4,238.5,189.7,239.2,189.1z"/>
						<path class="st0" d="M237.6,191.4c-0.2,0.6-0.3,1.3-0.4,2.1c0,0,0,0.8,0,0.8c0,1.1,0.1,2.1,0.3,3.1c-0.2-1-0.3-2-0.3-3.1
							c0,0,0-0.8,0-0.8C237.2,192.7,237.3,192,237.6,191.4z"/>
						<path class="st0" d="M234.2,204.6c0.4,0.6,0.8,1.1,1.3,1.6C235,205.6,234.6,205.1,234.2,204.6l-0.5-0.7l0,0L234.2,204.6z"/>
						<path class="st0" d="M226.5,215.8c0.2,0.7,0.8,1.1,1.5,1.1l10.3-0.2c0.7,0,1.3-0.5,1.5-1.1c0.2-0.6,0-1.4-0.6-1.8
							c-5.1-3.6-10.2-1.4-12.3,0.2C226.5,214.5,226.3,215.2,226.5,215.8z M232.8,193c-0.2,2.5-1.2,4.9-3.1,6.8
							c-0.1,0.1-0.3,0.2-0.4,0.4c-2.3,2-5.4,3.6-8.4,2.9c-2-0.5-9.8-7.5-11.9-5.1h0c-0.4,0.5,0.5,1.8,2,3.3c3.3,3.2,9.6,7.5,12,7.6
							c3.8,0.2,6.6-0.8,9.2-3.3c0.4-0.3,0.7-0.7,1-1.1l0.5-0.6l0.5,0.7c0.4,0.6,0.8,1.1,1.3,1.6c2.1,2.1,5.2,3.4,8.6,3.6
							c2.4,0.1,5.6-0.4,7.9-1.5c-0.3,1.2-0.9,2.8-2.2,4.1c-1,1-2.4,2-4.4,2.6h0c-0.5,2.7-1.7,4.7-3.1,6.1c-4.3,4.4-11.2,4-11.2,4
							c-6.7-0.2-10.8-2.1-13.7-4.9c-2.9-2.8-4.7-6.6-6.8-10.7c-0.4-0.8-0.9-1.6-1.4-2.2c-0.1-0.2-0.2-0.3-0.3-0.4
							c-0.1-0.1-0.2-0.2-0.2-0.3c-0.1-0.1-0.2-0.2-0.2-0.3c0,0,0,0,0,0h0c-1.6-0.3-3-1.1-4-2c-0.8-0.8-1.4-1.6-1.7-2.6
							c0,0,0-0.1,0-0.1c-0.2-0.5-0.3-1.1-0.4-1.6c-0.1-0.6-0.1-1.4-0.1-2.1c0-0.1,0.1-0.1,0.1-0.1c0-0.2,0-0.3,0-0.5
							c0-0.3,0.1-0.6,0.1-1s0.1-0.7,0.2-1c0.4-1.4,1.1-2.8,2.3-4.2c0.1-0.2,0.3-0.3,0.5-0.5c0.2-0.2,0.3-0.4,0.5-0.5
							c0.2-0.2,0.4-0.4,0.5-0.5h0c0.1-0.1,0.2-0.3,0.2-0.4c0.2-0.3,0.2-0.7,0-1.1h0c0,0-0.1-0.1-0.1-0.1c0,0-0.1,0-0.1-0.1
							c1.7-1.3,4.3-1.9,6.5-2.3c2.4-6.8,3.5-16.1,22.2-15.1l0,0c4.9,0.3,8.7,1.1,11.8,2.3c3.8,5.1,8.9,10.7,8.5,20.3
							c-0.2,4.7-1.3,7.3-2.5,9.4c-2,1.7-6.8,2.4-8.6,2.3c-0.5,0-1-0.1-1.5-0.3c-0.4-0.1-0.7-0.3-1-0.4c0,0,0,0,0,0
							c-0.4-0.2-0.9-0.5-1.3-0.9c0,0,0,0,0,0c-1.3-1.1-2.3-2.7-2.9-4.7c-0.1-0.3-0.2-0.6-0.2-0.9c-0.2-1-0.3-2-0.3-3.1
							c0,0,0-0.8,0-0.8c0-0.8,0.2-1.5,0.4-2.1c0.4-1,1-1.7,1.6-2.4c0.1-0.1,0.3-0.3,0.4-0.4c0,0,0,0,0,0c0,0,0,0,0-0.1
							c0,0,0,0,0.1,0c0,0,0,0,0.1-0.1c0,0,0,0,0.1-0.1c0,0,0,0,0.1-0.1c0,0,0,0,0,0c0,0,0,0,0,0c0.5-0.4,1-0.8,1.5-1.2c0,0,0,0,0,0
							c0.5-0.4,0.9-0.7,1.3-1.1c0.4-0.4,0.8-0.7,1.1-1.1c1.7-1.7,2.6-3.2,2.7-4.5c0.1-1.2-0.2-2-0.7-2.5h0c-0.9-0.9-2.2,1-4.2,1.1
							c0,0-2.9,0.8-4.6,0.7c-1.5-0.1-3.1-0.4-4.5-0.6c-2.7-0.5-4.8-3.2-6.1-2.1c-0.1,0.1-0.1,0.1-0.2,0.2c-0.5,0.5-0.8,1.1-0.8,2
							c-0.1,1.8,1.4,4.3,4.6,7.5c0.4,0.4,0.9,0.9,1.4,1.3l0.1,0.1l0.1,0.1C232.4,189.8,232.9,190.6,232.8,193z"/>
						<path class="st0" d="M227,214c2-1.6,7.2-3.8,12.3-0.2c0.6,0.4,0.8,1.1,0.6,1.8c-0.2,0.7-0.8,1.1-1.5,1.1l-10.3,0.2
							c-0.7,0-1.3-0.4-1.5-1.1C226.3,215.2,226.5,214.5,227,214z"/>
						<path class="st0" d="M233.2,204.5c-0.3,0.4-0.7,0.8-1,1.1C232.5,205.2,232.8,204.9,233.2,204.5l0.5-0.6L233.2,204.5z"/>
						<path class="st0" d="M232.8,193c-0.1,2.5-1.3,4.9-3.1,6.8C231.5,198,232.6,195.6,232.8,193c0.1-2.4-0.4-3.3-1.3-4.8l-0.1-0.1
							l-0.1-0.1h0l0.1,0.1l0.1,0.1C232.5,189.8,233,190.6,232.8,193z"/>
						<path class="st0" d="M224,159.7c0.2-0.4,0.7-0.6,1.1-0.6c0.4,0,0.9,0.3,1.1,0.7c0.7,1.2,1,2.6,0.8,3.8
							c-0.1,1.2-0.6,2.2-1.4,3.1c-2.1,2.4-5.3,2.1-7.6,0.9c-1.6-0.8-4.6-6.5-5-7.6c-0.1-0.4-0.3-0.7-0.4-1.1c-0.3,2-1.5,3.7-3.3,4.1
							c-2.5,0.6-5.2-1.4-6-4.6l0,0c-0.8-3.1,1-7.5,3.5-8.2c0.2-0.1,0.5,0.1,0.7,0.1c-3.7-3.5-7.6-3.5-10-3.5l-0.5,0
							c-0.5,0-0.9-0.2-1.1-0.7c-0.2-0.4-0.2-0.9,0-1.3c0.7-1.2,2.8-3.6,5.9-4.6c2.9-0.9,7.2-0.9,11.7,4.3c1.2,1.4,2.3,4.5,3.4,7.8
							c1.6,4.6,3,8.9,4.9,9C222.2,161.4,222.9,161.5,224,159.7z"/>
						<path class="st0" d="M226.2,177.3c-0.5,0.5-0.7,1.1-0.8,2c-0.1,1.8,1.4,4.3,4.6,7.5c-3.2-3.1-4.7-5.6-4.6-7.5
							C225.5,178.4,225.8,177.8,226.2,177.3z"/>
						<path class="st0" d="M213.5,260.6c31.5,4.5,39.4-17.1,39.8-18.4c0,0,0,0,0,0C253.2,242.8,245.5,265.2,213.5,260.6
							c0,0-0.3,0-1-0.1C213.2,260.6,213.5,260.6,213.5,260.6z"/>
						<path class="st0" d="M215,228.6c0.3,0.2,0.7,0.4,1,0.6C215.7,229.1,215.4,228.9,215,228.6z"/>
						<path class="st0" d="M212.8,226.8c0.6,0.5,1.1,1,1.7,1.4C213.9,227.8,213.4,227.4,212.8,226.8z"/>
						<path class="st0" d="M210.9,260.2c0.6,0.1,1.1,0.2,1.5,0.2C211.9,260.4,211.4,260.3,210.9,260.2z"/>
						<path class="st0" d="M210.6,209.3c2.1,4.1,3.9,7.9,6.8,10.7C214.4,217.3,212.6,213.5,210.6,209.3c-0.4-0.8-1-1.6-1.4-2.2
							C209.6,207.7,210.2,208.6,210.6,209.3z"/>
						<path class="st0" d="M210.7,260.2c-0.2,0-0.4-0.1-0.6-0.1C210.4,260.1,210.5,260.1,210.7,260.2z"/>
						<path class="st0" d="M218.2,332.5l2.3,6.8l-0.4,4.4l-3.5-4l0.3-3l-1.1-3l-4.3-4.1l-1.6,0.6l-1.3,12.9l1.2,2.9l4.2,5.3l1.6,0
							l0.2-2.6l3.2,4.4l-0.5,5.2l-3-0.5c0,0-1.6-2.2-4.2-5.6c-2.8-3.5-4.2-5.3-4.2-5.3l-2.3-5.6l1.6-15.9l0,0l3.3-1.1
							c0,0,3.6,3.1,4.3,3.8C214.7,329.1,218.2,332.5,218.2,332.5z"/>
						<path class="st0" d="M208.9,198L208.9,198c-0.4,0.5,0.5,1.8,2,3.3C209.4,199.8,208.4,198.5,208.9,198z"/>
						<path class="st0" d="M208.6,206.4c0.1,0.1,0.2,0.2,0.2,0.3C208.8,206.6,208.7,206.5,208.6,206.4z"/>
						<path class="st0" d="M208.6,206.4c-0.1-0.1-0.2-0.2-0.2-0.3C208.4,206.1,208.5,206.2,208.6,206.4z"/>
						<path class="st0" d="M208.4,206.1C208.4,206.1,208.4,206.1,208.4,206.1C208.4,206.1,208.4,206.1,208.4,206.1L208.4,206.1z"/>
						<path class="st0" d="M202.2,214.4c0,0,4.9,6.7,9.5,11.3C207.1,221.2,202.2,214.4,202.2,214.4L202.2,214.4z"/>
						<path class="st0" d="M205.9,258.8c1.4,0.5,2.6,0.9,3.6,1.1C208.5,259.7,207.3,259.3,205.9,258.8z"/>
						<path class="st0" d="M206.7,187.9C206.7,187.8,206.7,187.8,206.7,187.9C206.7,187.8,206.7,187.8,206.7,187.9z"/>
						<path class="st0" d="M206.7,188.9c0.2-0.3,0.2-0.7,0-1.1h0C206.9,188.2,206.9,188.6,206.7,188.9c-0.1,0.1-0.1,0.3-0.2,0.4h0
							C206.6,189.2,206.6,189.1,206.7,188.9z"/>
						<path class="st0" d="M205.9,189.9c-0.2,0.2-0.3,0.3-0.5,0.5C205.6,190.2,205.7,190,205.9,189.9z"/>
						<path class="st0" d="M204.2,258.1c0.3,0.1,0.6,0.2,0.9,0.3C204.7,258.4,204.5,258.2,204.2,258.1z"/>
						<path class="st0" d="M202.7,257.5c0.3,0.1,0.6,0.3,0.8,0.4C203.3,257.7,203,257.6,202.7,257.5z"/>
						<path class="st0" d="M205,190.9c-1.2,1.4-1.9,2.8-2.3,4.2C203.1,193.7,203.8,192.3,205,190.9z"/>
						<path class="st0" d="M202.7,195.1c-0.1,0.3-0.2,0.7-0.2,1C202.5,195.7,202.6,195.4,202.7,195.1z"/>
						<path class="st0" d="M202.4,196.1c-0.1,0.3-0.1,0.6-0.1,1C202.3,196.7,202.4,196.4,202.4,196.1z"/>
						<path class="st0" d="M202.3,199.7c0.1,0.6,0.2,1.1,0.4,1.6c0,0,0,0.1,0,0.1c0.4,0.9,0.9,1.8,1.7,2.6c-0.8-0.8-1.4-1.6-1.7-2.6
							c0,0,0-0.1,0-0.1C202.5,200.9,202.4,200.3,202.3,199.7c-0.1-0.6-0.1-1.4-0.1-2.1c0-0.1,0-0.1,0.1-0.1c0-0.2,0-0.3,0-0.5
							c0,0.2,0,0.3,0,0.5c0,0.1-0.1,0.1-0.1,0.1C202.2,198.4,202.2,199.1,202.3,199.7z"/>
						<path class="st0" d="M201.2,214.1c0.2,0.1,0.3,0.1,0.5,0.2C201.5,214.2,201.3,214.1,201.2,214.1z"/>
						<path class="st0" d="M199.4,213.2c0.1,0.1,0.3,0.2,0.4,0.2C199.7,213.3,199.5,213.3,199.4,213.2z"/>
						<path class="st0" d="M199,212.9c0.1,0.1,0.2,0.2,0.4,0.2C199.3,213.1,199.2,213,199,212.9z"/>
						<path class="st0" d="M189.8,232.8l8.6-7.4c0,0-7.2,16.6,3.9,31.9c-3.6-1.7-7.8-4.2-12.3-8c-13.1-11.1-8.9-45.4-2.4-49l6.3,5.5
							c0,0,0.1,0.4,0.2,1C192,210.2,187,219.8,189.8,232.8z"/>
						<path class="st0" d="M198,212.2c0.2,0.2,0.4,0.3,0.7,0.5C198.4,212.5,198.2,212.4,198,212.2z"/>
						<path class="st0" d="M197.6,211.9c0.1,0.1,0.2,0.2,0.3,0.3C197.9,212.1,197.7,212,197.6,211.9z"/>
						<path class="st0" d="M197.6,211.9c-0.2-0.2-0.4-0.4-0.6-0.5C197.2,211.6,197.4,211.8,197.6,211.9z"/>
						<path class="st0" d="M197,211.3c-0.2-0.2-0.5-0.5-0.7-0.7C196.5,210.9,196.7,211.1,197,211.3z"/>
						<path class="st0" d="M196.3,210.6c-1.2-1.4-1.8-2.9-2.1-3.8c0,0,0,0,0,0C194.5,207.7,195.1,209.1,196.3,210.6z"/>
						<path class="st0" d="M196.6,317.5l-2.3-1.6l0.3-3c1.9,1.2,6,4.2,7.9,5.6l-0.3,3.2l-2.1-1.4l-6.6,1.4l5.7,13.5l1.4,1.4
							l-0.4,3.6c-2.1-2.4-6.2-6.2-7.6-7.4l0.3-3.1l2,1.8l-3.8-9.3l-2.7,0.6l-0.3,3.1l1.3,1l-0.3,3.1c-2.4-1.9-3.4-2.7-6-4.5l0.3-2.9
							l1.2,0.9l1.3-13.1l-1.2-0.8l0.3-3c3.1,1.9,3.2,2,6,3.9l-0.3,2.9l-1.2-0.8l-0.7,6.8L196.6,317.5z"/>
						<path class="st0" d="M185,306.5L185,306.5C185,306.5,185,306.5,185,306.5L185,306.5z"/>
						<path class="st0" d="M84.7,256.3c-2.9-1.3-6.1-2.1-9.6-2.4c-2.4,2.2-3.9,4.6-4.8,6.2c2.9-0.6,6.1-0.2,9.3,1
							C80.9,258.9,83,257.3,84.7,256.3z M94.9,264.8c-1.4-2-3.1-3.8-5.1-5.4c-2.8,1-5,2.5-6.5,3.6c1.5,0.9,2.9,1.9,4.1,3
							C90,264.8,92.8,264.6,94.9,264.8z M95.1,294.2c2.4-0.6,4.5-0.6,5.8,0.5c0.1,0.1,0.2,0.2,0.3,0.4c0.3-1.4,0.4-2.7,0.2-4h0
							c-0.2-2-1-4.8-3.6-6.8c-1.5-1.2-3.2-1.7-4.7-1.9c0.8,3,0.9,6-0.3,8.4C93.8,291.7,94.6,292.9,95.1,294.2z M96,296.8L96,296.8
							c0.9,4.7-0.2,10.1-3.8,14.5c-1.6,2-3.8,4.8-6.7,7.3c3.9,0.6,8.4-1.3,11.5-5.2c4.3-5.4,4.2-12.6-0.1-16
							C96.6,297.2,96.3,297,96,296.8z M262.3,182.4c2.9,0,4.4-5.4,4.7-9.8c0.4-6.4-0.5-12.5-1.5-17.3c-3-3.2-6.7-3.2-9.9-1.7
							c0.1,0,0.2,0,0.3,0c2.4,1,3.4,5.8,2.2,8.8c-1.3,3-4.2,4.7-6.6,3.7c-1.6-0.7-2.5-2.4-2.5-4.4c-0.1,0.4-0.1,0.7-0.2,1.1
							C248.3,170.7,258.1,174.3,262.3,182.4z M233.7,203.9l-0.6,0.6c-0.3,0.4-0.7,0.7-1,1.1c-2.7,2.6-5.4,3.5-9.2,3.3
							c-2.4-0.1-8.6-4.4-12-7.6c-1.6-1.5-2.5-2.8-2-3.3c2.2-2.4,9.9,4.6,11.9,5.1c3,0.8,6.2-0.9,8.4-2.9c0.1-0.1,0.3-0.2,0.4-0.4
							c1.9-1.8,3-4.2,3.1-6.8c0.2-2.4-0.3-3.3-1.2-4.8l-0.1-0.1l-0.1-0.1h0c-0.5-0.4-1-0.9-1.4-1.3c-3.2-3.1-4.7-5.6-4.6-7.5
							c0-0.9,0.3-1.5,0.8-2c0.1-0.1,0.1-0.1,0.2-0.2c1.3-1,3.5,1.6,6.1,2.1c1.5,0.3,3,0.6,4.5,0.6c1.7,0.1,4.6-0.7,4.6-0.7
							c1.9-0.2,3.3-2,4.2-1.1c0.6,0.5,0.8,1.3,0.7,2.5c-0.1,1.3-1,2.8-2.7,4.5c-0.4,0.3-0.7,0.7-1.1,1.1s-0.8,0.7-1.3,1.1
							c0,0,0,0,0,0c-0.5,0.4-1,0.8-1.5,1.2h0v0c0,0,0,0,0,0c0,0,0,0-0.1,0.1c0,0,0,0-0.1,0.1c0,0,0,0-0.1,0.1c0,0,0,0-0.1,0
							c0,0,0,0,0,0.1c0,0,0,0,0,0c-0.2,0.1-0.3,0.3-0.4,0.4c-0.7,0.6-1.3,1.3-1.6,2.4c-0.2,0.6-0.3,1.3-0.4,2.1c0,0,0,0.8,0,0.8
							c0,1.1,0.1,2.1,0.3,3.1c0.1,0.3,0.2,0.6,0.2,0.9c0.6,2,1.6,3.6,2.9,4.7c0,0,0,0,0,0c0.4,0.3,0.8,0.6,1.3,0.9c0,0,0,0,0,0
							c0.3,0.2,0.7,0.3,1,0.4c0.5,0.2,1,0.2,1.5,0.3c1.8,0.1,6.6-0.6,8.6-2.3h0c1.2-2.1,2.3-4.8,2.5-9.4c0.4-9.7-4.7-15.3-8.5-20.3
							c-2.4-3.2-4.3-6.1-3.9-9.7l0,0c1.3-14.2,11.3-19.8,16.2-21.7c-2.9-4.4-6.1-8.4-9.5-11.6c0.7-2.8,2.1-5.9,4.1-8.8
							c3.1-4.3,4.2-11.5,3.7-17.6c-0.8-10-4.6-10.5-5.2-18.2c-0.9-11.1,10.7-24.7,4.5-32.8c-1.5,4.9-3.6,9.9-5.7,14.7
							c-3.3,7.6-6.7,15.5-6.3,21.1c0.1,1.3,0.4,2.5,1,3.6l0.1,0.5c1.4,2.6,2.3,5.6,2.3,8.6c0.2,5,0.3,13.3-4.8,17.6
							c-1.8,1.5-3.8,2.8-6,3.7c-1.7-0.6-3.4-1.2-5.1-1.1c-17.1,0.2-26.9,7.5-26.9,7.5s0.1-4.4,3.2-8.4c-0.3-0.3-0.7-0.8-1-1.2
							c-2.1-0.3-9.6-2-12.4-13.4c0,0,4.3,1.3,7.4,1c0,0,0-0.1,0-0.1c-0.8-0.7-9.4-8.2-8.3-22.5c0,0,4.2,7.4,9.8,9.1
							c1.3-4.1,2.8-8.3,3.2-14.2c0.8-11.2-5.2-21.6-7.2-30.9c-9.3,9.8-14.4,24.7-13.1,40.7c0.7,9,3.5,17.7,7.9,25
							c2.2,3.6,5.1,8.4,5.5,13.7c0,0,0.7,3.6-0.4,6.5c-10.4,9.5-17.3,23.2-18.1,37.5c0,0-2,10.3,14.9,23.5c2.9-4.2,7.9-6.9,8.5-7.1
							c0.5-0.2,0.9,0,1.2,0.4h0c0,0,0.1,0.1,0.1,0.1c0,0,0.1,0,0.1,0.1c0.2,0.4,0.1,0.7,0,1.1c-0.1,0.1-0.1,0.3-0.2,0.4
							c-0.2,0.2-0.4,0.3-0.5,0.5c-0.2,0.2-0.3,0.3-0.5,0.5c-0.2,0.2-0.3,0.3-0.5,0.5c-1.2,1.4-1.9,2.8-2.3,4.2
							c-0.1,0.3-0.2,0.7-0.2,1c-0.1,0.3-0.1,0.6-0.1,1c0,0.2,0,0.3,0,0.5c0,0.1-0.1,0.1-0.1,0.1c0,0.7,0,1.4,0.1,2.1
							c0.1,0.6,0.2,1.1,0.4,1.6c0,0,0,0.1,0,0.1c0.4,0.9,1,1.8,1.7,2.6c1,1,2.3,1.7,4,2c0,0,0,0,0,0c0,0,0.1,0.1,0.2,0.3
							c0.1,0.1,0.2,0.2,0.2,0.3c0.1,0.1,0.2,0.3,0.3,0.4c0.4,0.6,1,1.4,1.4,2.2c2.1,4.1,3.9,7.9,6.8,10.7c2.9,2.8,7.1,4.6,13.7,4.9
							c0,0,6.9,0.4,11.2-4c1.4-1.4,2.6-3.4,3.1-6.1c2-0.6,3.4-1.5,4.4-2.6c1.3-1.3,1.9-2.9,2.2-4.1h0c-2.4,1.1-5.6,1.7-7.9,1.5
							c-3.4-0.2-6.5-1.5-8.6-3.6c-0.5-0.5-0.9-1-1.3-1.6L233.7,203.9L233.7,203.9z M253.4,242.2c-8.8,9.7-17.9,11.4-17.9,11.4
							c12.8-13,13.1-27.5,13.1-27.5h0c-0.5,0.7-1,1.3-1.6,1.8c-8.8,8.8-24,4.4-30.5,1.7c-0.1-0.1-0.3-0.1-0.5-0.2
							c-0.3-0.2-0.6-0.4-1-0.6c-0.2-0.1-0.4-0.3-0.5-0.4c-0.5-0.4-1.1-0.9-1.7-1.4c-0.4-0.4-0.8-0.7-1.2-1.1
							c-4.5-4.5-9.5-11.3-9.5-11.3h0c-0.2-0.1-0.3-0.1-0.5-0.2c-0.2-0.1-0.3-0.1-0.5-0.2c-0.5-0.2-0.9-0.4-1.3-0.6
							c-0.1-0.1-0.3-0.1-0.4-0.2c-0.1-0.1-0.3-0.2-0.4-0.2c-0.1-0.1-0.2-0.2-0.4-0.2c-0.2-0.2-0.5-0.3-0.7-0.5
							c-0.1-0.1-0.2-0.2-0.3-0.3c-0.2-0.2-0.4-0.4-0.6-0.5c0,0-0.1,0-0.1-0.1c-0.2-0.2-0.5-0.5-0.7-0.7c0,0,0,0,0,0
							c-1.2-1.4-1.8-2.9-2.1-3.8c0,0,0,0,0,0c-0.2-0.6-0.2-1-0.2-1l-6.3-5.5c-6.4,3.5-10.6,37.9,2.4,49c4.5,3.8,8.8,6.4,12.3,8
							c0,0,0,0,0,0c0.1,0,0.2,0.1,0.3,0.1c0.3,0.1,0.6,0.3,0.8,0.4c0.2,0.1,0.4,0.2,0.6,0.3c0.3,0.1,0.6,0.2,0.9,0.3
							c0.3,0.1,0.6,0.2,0.9,0.3c1.4,0.5,2.6,0.9,3.6,1.1c0.2,0.1,0.4,0.1,0.6,0.1c0.2,0.1,0.4,0.1,0.6,0.1c0.1,0,0.1,0,0.1,0
							c0.6,0.1,1.1,0.2,1.5,0.2c0.1,0,0.2,0,0.2,0c0.7,0.1,1,0.1,1,0.1C245.5,265.2,253.2,242.8,253.4,242.2
							C253.4,242.2,253.4,242.2,253.4,242.2C253.4,242.2,253.4,242.2,253.4,242.2z M219.9,278.7c1.8,0.9,4.7,3.2,4.3,6.5
							c1.8-0.3,3.6-0.7,5.4-1.2c1.1-1.7,1.4-3.3,0.2-5.8c-0.2-0.4-0.1-0.8,0.2-1.1c0.3-0.3,0.7-0.4,1.1-0.3c1.8,0.6,4.6,2.4,4.9,5.3
							c1-0.3,1.9-0.6,2.9-1c0.5-0.2,1-0.4,1.5-0.6c1-1.7,1.3-3.2,0.1-5.7c-0.2-0.4-0.1-0.8,0.2-1.1c0.3-0.3,0.7-0.4,1.1-0.3
							c1.5,0.5,3.9,2,4.7,4.3c1.5-0.8,3-1.6,4.4-2.5c0.2-1.3,0-2.6-1.2-4.3c-0.2-0.3-0.2-0.8,0-1.1c0.2-0.3,0.6-0.5,1-0.5
							c1.4,0.2,3.5,1,4.8,2.7c4.2-3.3,7.1-6.8,8-10.1c0.3-1.1,0.4-2.1,0.3-3.2c-3.1,4.5-6.9,6-7.1,6.1c5.3-5.8,6.5-11.9,6.7-15
							c-0.4-1.8-1-3.1-1.6-4c-4.6,7.1-10.1,13.4-15.6,17.5c-11,6.4-29.5,9.9-45.2,5.3c-13.8-4-24.6-16.2-27.5-23.5
							c1.2-1.1,1.2-4.9-0.1-9.9c-0.8-3.1-1.3-6-1.5-8.9c-1.8,1.8-3.3,3.9-4.3,6.2c-2.7,6.4-1.1,12.9,0.7,17.1
							c2.1,4.9,5.5,9.6,9.9,13.8c-8.5-5.6-14.4-12.5-16.8-19.7c-0.5,0.9-0.9,1.9-1.2,2.9c-1,3.6-0.7,7,0.2,9.9
							c0.9-0.4,1.6-0.6,1.7-0.7c0.4-0.1,0.9,0,1.1,0.4c0.2,0.4,0.2,0.8,0,1.2c-0.6,0.8-1.1,1.8-1.4,2.7c0.4,0.8,0.7,1.5,1.1,2.1
							c0.2,0.4,0.5,0.8,0.8,1.2c1.4-1,2.6-1.6,2.7-1.6c0.4-0.2,0.9-0.1,1.2,0.3c0.3,0.3,0.3,0.8,0.1,1.1c-0.7,1.3-1.1,2.7-1.2,4
							c1,1.2,2.1,2.3,3.2,3.4c1.9-2,4.2-3,4.3-3.1c0.4-0.2,0.9-0.1,1.1,0.2s0.3,0.8,0.1,1.2c-1,1.7-1.2,3.7-1.2,5.3
							c1.4,1,2.8,2,4.3,2.9c1.8-3.2,5.5-4.9,5.7-4.9c0.4-0.2,0.9-0.1,1.1,0.2c0.3,0.3,0.3,0.8,0.1,1.2c-1.3,2.2-1.3,4.8-1.2,6.6
							c2.2,1,4.4,2,6.8,2.8c1.5-3.6,4.4-6,4.5-6.1c0.3-0.3,0.8-0.3,1.1-0.1c0.4,0.2,0.6,0.6,0.5,1c-0.3,1.9,0.1,5.3,0.4,7.2
							c2.1,0.5,4.2,0.8,6.5,1.1c0.8-4,3.6-7.1,3.7-7.2c0.3-0.3,0.7-0.4,1.1-0.3c0.4,0.2,0.6,0.5,0.6,0.9c0,1.9,0.9,5.1,1.5,6.9
							c2.1,0,4.2-0.1,6.4-0.3c0,0,0-0.1,0-0.1c1.5-1.8,2.2-3.3,1.2-6.2c-0.1-0.4,0-0.8,0.3-1C219.1,278.6,219.5,278.5,219.9,278.7z
							 M393.1,280.5c0.7,1.5,1.6,3.8,1.6,6.8c-0.1,4.1-1.6,7.9-4.3,11.3l0,0c0,0.2,0.1,0.4,0.1,0.7c1.1,11.7,1.2,52.8-25,83.1
							c-0.3,0.8-0.5,1.7-0.9,2.4c-6.5,12.6-42.4,27.1-79.5,8.1c-15.9-8.2-26.4-20.6-32.3-30.6c-2.8,3.1-6,6.2-9.7,9.3
							c-24.9,20.8-67.7,13.8-98.7-18.9c-24.8-26.2-33.6-59.9-24.2-83.7c-3.4-0.7-6.6-1.6-9.8-2.6c-1.5,3.3-3.3,6.4-5.3,9.1
							c0,0.5,0,1.1,0,1.6c-0.1,1.4-0.3,2.7-0.6,4c2.1,2.5,3.4,5.6,3.8,9.1c0.4,3.2-0.1,6.6-1.3,9.8c1.4,4.7,0.8,10.2-2.1,14.5
							c-2,3-7.4,10.1-15,11.4c-3,0.5-5.9,0.1-8.7-1.4c-6.5,3.4-15.1,4.2-25.4-3.4c-1.6-1.2-2.8-2.8-3.7-4.5c-3.5-1.7-6.9-4.5-10.1-9
							c-0.9-1.2-1.5-2.2-1.8-3.1c-4.2-6.2-3.7-15.8,1.9-23.8c0.1-0.2,0.3-0.4,0.4-0.6c-0.4-2.1-0.6-4.3-0.5-6.6
							c0.3-6.3,3-11.9,7.1-16.4c-0.1-5.1,0.7-10.4,2.4-15.7c4.7-14.8,15.5-27.5,27.3-32c12.4-11.6,36.3-18.3,63-16
							c11.8,1,22.7,3.7,32.2,7.5c0.7-3.6,1.9-7.3,3.5-11c-3.3-5.5-5.1-12.3-4.8-17.1c0.6-9.7,7.4-23.9,18-35.8
							c2.8-3.4,3.1-7.1,3.1-7.1c0.2-3.1-1.5-6.4-4.4-11.1c-5.1-8.5-8.3-18.3-9.1-28.6c-0.3-3.4-0.3-6.8-0.1-10
							c1.5-22.4,14.1-41.7,32.7-48.7l2.3-0.9l-0.3,2.5c-0.4,2.8-0.5,5.7-0.4,8.5c0.1,6.8,2.3,12,4.5,17.5c3.9,9.4,7.9,19.1,2.7,37.7
							l-0.1,0.2l-0.1,0.2c-1,1.7-1.5,3.6-1.4,5.6c0.2,5.9,5.1,10.5,11,10.4c2.9-0.1,5.5-1.3,7.5-3.4c1.9-2.1,3-4.8,2.9-7.6
							c-0.1-1.7-0.5-3.3-1.3-5.1c-5.2-9-0.1-20.7,4.8-32.1c3.6-8.4,7.4-17,7.1-24.5l-0.3-4.4l2.6,1.9c9.2,6.9,24.9,21.6,26.6,43.3
							c0.8,9.8,0.1,23.6-7.3,33.9c-1.3,1.8-3.3,3.7-5.3,5.6c-5,4.8-8.3,9.6-6.9,13.1c10.4,11.9,18.8,27.9,17.9,42.8
							c-0.3,5.5-3.4,11-7.3,15.9c2.1,9.3,2.6,19.6,0.9,28.1c-1.2,6.1-4.1,13.1-7.9,19.9c3.2,4.7,4.9,9.5,4.4,14.1
							c5.6,0.4,12.2,3,20.1,8.1c10.5,6.7,17,20.3,19,26.9c0.8,2.6,2.3,6.8,4.2,10.7c1.2-1.7,2.4-3.4,3.6-5.1
							c-2.9-3.8-4.5-7.9-4.5-12.3c0.1-3.6,1.6-5.9,2.5-7.2c0,0,0.4-0.5,0.4-0.6c0.4-1-0.1-1.9-0.3-3c0,0-0.6-2.8-0.4-4.1
							c0-0.5,0.1-0.7,0.1-1.1c-5.1-2.4-12.5-8.3-14.5-17.4c-1-4.6-0.9-10.1,1-16.6c1.1-3.8,4.8-8.6,8.9-12.5
							c4-9.3,9.8-13.9,18.2-17.1c7-4.6,14.5-7.4,21.3-6.6c19.6,2.4,22.4,16.1,24.6,23.2c0.9,2.8,1.7,5.4,2.8,6.9
							c2.6,3.4,5,11.9,5.5,15.9c0,0,0.8,5.1,0.8,11.5c6.9,4.7,11,10.9,10.9,17.7l-0.6,4.3c-0.3,1.2-0.5,2.1-0.4,3
							C392.6,279.3,392.8,279.7,393.1,280.5z M381.4,285.1c0-3-1.8-4.5-1.9-7.4s0.9-5,1-7.2c0-0.4,0-0.8,0-1.2
							c-0.4,1-0.8,1.9-1.3,2.8c1.2-0.1-7.2,5.4-17.9,7.4c-17.1,3.2-32.1-1-37.2-5.9c0,0.2,0,0.4,0,0.6c-0.4,3.1-2.6,3.7-2.7,6.6
							c-0.1,3.5,1.7,7,4.5,10c1.1-1.6,2.2-3.6,2.4-5.3l0.3-2.3l1.3,2c0.1,0.1,2.1,3.4,0.7,9.5c2.6,1.7,5.5,3.2,8.7,4.2
							c0.5-1,0.7-2,0.4-3.2c-1.4-5.7,2.6-11.7,2.8-12l1.6,0.7c-1.2,3.8,2.8,8.8,2.9,9c1.5,2.6,1.3,5.2,0.6,7.3
							c0.6,0.1,1.3,0.1,1.9,0.2c2.7,0.1,5.2,0,7.7-0.2c0.3-1.3,0.3-2.7-0.4-4c-2.7-5.2-0.3-12-0.2-12.3l1.7,0.3c-0.3,4,4.8,8,5,8.1
							c1.9,2,2.4,4.2,2.4,6.3c2.3-0.6,4.4-1.4,6.3-2.3c0.7-1.7,1-3.6,0.1-5.4v0c-2.7-5.2-0.3-12-0.2-12.3l1.7,0.4
							c-0.3,3.9,4.8,8,5,8.1c0.7,0.8,1.2,1.6,1.6,2.4C380.9,288.7,381.4,287,381.4,285.1z M372.7,346.6c4.7-11.9,7.6-26.4,7.7-40.4
							c-4.4,2.1-9.7,3.6-15.4,4.4c-4,0.5-8.2,0.7-12.5,0.4c-11.5-0.7-21.6-4.1-28.9-9.1c-3.1,4.2-6,8.8-8.6,13.5
							c-10,18.4-15.6,46.1-13.4,58.2c0.1,0.4,0.2,0.7,0.2,1.1c-9.7-15.1-8.7-40.5,4.2-63.8c0.1-0.2,0.3-0.5,0.4-0.7
							c-2.7-5.4-4.4-11.9-6.1-15.7c-2.4-5.4-10.8-18-16.1-21.4c-4.7-3-11.2-5-17.2-5.6c-8.3,16.5-45.1,30-71,23.6
							c-27.4-6.8-45.6-26.7-40.7-44.5c0.9-3.3,2.6-6.4,4.9-9c0-2,0.2-4,0.8-6c1.6-5.3,5.3-9.7,10.4-13.1c0.1-2.2,0.2-4.3,0.4-6.3
							c-8.6-4.3-19.3-7.8-31.6-9.5c-15.2-2.1-28.7-0.9-39.3,2.1c-5.8,1.5-10.8,3.9-14.9,6.6c-4.1,2.7-7.4,5.8-9.9,8.6
							c-8,4-15.1,12.4-18.6,23.4c-0.9,2.7-1.4,5.4-1.8,8.1c5.5-3.2,12.1-4.9,19.1-4.6c13.1,0.7,24,8.5,28.2,19
							c1.1-2.2,2.1-4.6,2.9-7.1c3.3-10.4,2.8-21.2-1.5-29.5c-0.8-1.6-2-3.5-3.6-5.2c6.8,2,10.6,6.4,12.7,10.5
							c1.5,7.2,1.5,15-0.3,22.5c2.9,0.9,5.8,1.8,9,2.5c1.6-2.4,3-5,3.9-7.3c1.8-4.8,3-16.7,3-16.7s4.8,4.2,3,17.3
							c-0.7,4.9-2.6,8.1-4.7,11.7c0,0.6-0.1,1.1-0.2,1.4c-9.3,21.3-1.6,52.1,20.9,75.9c27.6,29.1,66.9,36.6,87.8,16.9
							c3.9-3.7,6.9-8.1,9-13.1c-4.1-9.8-13.9-16.5-13.9-16.5c12.4-3.5,25.4,5.9,31,17.5c0.1,0.1,0.2,0.3,0.3,0.4
							c5.4,12.9,20.3,30.7,32.7,37.8c8.5,4.8,18.8,6.8,28.5,6.4c4.5,0.6,9,0,12-0.8c1.9-0.5,3.8-1.5,5.8-2.7c3.3-1.3,6.2-3,8.6-4.9
							c0.4-1,0.8-2.1,1.2-3.3C360.1,370.8,368.4,357.8,372.7,346.6z M371.4,261.6c5.2-7.2,2.2-20.3-2.5-27.8h0
							c-5-7.9-4-24.7-18.9-27c-3.1-0.5-6.5,0.1-10.1,1.3c3.1,0.9,5.5,2.3,4.3,3.7c-1.8,2.3-8.4-2.3-15.9,0.4
							c-7.5,2.7-8.4,6.2-8.3,8.7c4.7,0.2,9.6,1.1,8.3,3.3c-1.8,3-7.1-1.1-14.8,3.8c-3.2,1.8-5.2,5.7-5.8,7.8
							c-5,17.2,8.4,22.3,8.4,22.3c-5-11.7,1.9-15.4,1.9-15.4c0.2,18,10.5,34.3,33.8,29.4C357.9,270.7,367.5,267.1,371.4,261.6z
							 M265.1,104.6c0.2-0.2,8.4-6.2,7.8-21c0,0-5,8.3-11.2,9.1l-0.1,0.5c1.1,4.1,3.4,12.8-0.7,23.6c3.2-1.9,9.2-5.9,11.6-14.2
							C272.6,102.5,268.1,105.1,265.1,104.6z M98.4,276.6c0.1-2.2-0.2-4.2-0.8-6.3c-2.6-0.8-5-0.9-6.9-0.9v0
							c0.8,1.1,2.4,3.3,3.8,6.1C95.9,275.7,97.1,276.1,98.4,276.6z M88.7,308.6c2.3-2.9,3.4-6.6,3.1-9.9c-0.2-1.4-0.7-3.2-2-4.8
							c-0.3,0.2-0.6,0.3-0.9,0.4c0.1,5.3-2.7,10.9-8,14.4c-4.1,2.7-11.5,7.6-19.7,7.6C73.6,324.3,81.8,317.4,88.7,308.6z
							 M88.8,289.1c3.7-3-0.1-11.4-3.9-16c-3.8-4.6-11.6-7.6-15.4-4.5c-1.9,1.5-15,1-20.8,15c-1.9,2.8-3,5.9-3.3,8.7
							c-1.7,3.4,1.4,7.8,3.2,10.2c9.6,13.3,20,9,29.8,2.4l0,0c3.1-2.1,5.3-5.2,5.9-8.6c0.1-0.4,0.1-0.9,0.2-1.4
							c-4.5,0-9.6-2-13.2-4.6c-0.1,0.1-0.2,0.1-0.3,0.2c0,0-1.1,0.8-1.6,1.2c-0.2,0.2-11.1,3.8-11.1,3.8l-2.6-0.9
							c-1.4-0.5-3.5-1.9-5.5-2.8c1.6-1.8,4.2-2.9,8.3-0.4c0.6-0.6,4.2-2.1,6.6-3.2c-1.2-1.7-3.7-4.1-9.2-5.7c0,0,2.8-2.7,9.7,0.1
							c-0.9-2.4-1.2-4.9-0.8-7.2c2.5,1,4.8,3.5,6.8,8.6C73.6,289.7,85.1,292.1,88.8,289.1z M66.1,261.4c-0.1-2.7,1-5.2,2.2-7.1
							c-2,0.3-3.9,0.9-5.7,1.6c-1.8,2.7-2.8,5.4-3.2,7.5c3.3-1.4,5.8-1.8,6.4-1.9C65.8,261.5,65.9,261.5,66.1,261.4z M55.1,265.7
							c-0.3-1.8-0.2-3.6,0.1-5.1c-3,2.8-5.1,6.2-6.1,10.1C51.1,268.5,53.1,266.9,55.1,265.7z"/>
						<path class="st0" d="M168.4,307.9l6.8-7l4.8,2.6l-0.3,2.9l-1.2-0.6l-1.2,12.7l1.3,0.7l-0.3,3.2c0,0-2.4-1.4-3.1-1.7
							s-3-1.4-3-1.4l0.3-3.3l1.2,0.5l0.9-9l-6.7,6.6l-4.6-11.8l-1,9.8l1.3,0.5l-0.3,3.1c0,0-2-0.6-2.9-0.8c-0.8-0.2-3.6-0.8-3.6-0.8
							l0.3-3.3l1.1,0.2l1.4-14.2l-1.2-0.5l0.3-3.1h0l4.9,2.1L168.4,307.9z"/>
						<path class="st0" d="M154.2,291.8l-0.3,3.3l-1.2-0.4L151,311l-3.4,2.5c0,0-3.2,0.2-4.2,0.3c-1.1,0.1-5,0.7-5,0.7l-2.9-3
							l2-20.2l-1.4-0.1l0.4-3.5c0,0,2.6,0.4,3.4,0.5c0.8,0.1,3.2,0.5,3.2,0.5l-0.4,3.6l-1.3-0.2l-1.6,16.5l1.4,1.5l4.7-0.3l1.4-1.2
							l1.5-15.1l-1.2-0.3l0.3-3.2c0,0,2.2,0.7,3,0.9C151.7,290.9,154.2,291.8,154.2,291.8z"/>
						<path class="st0" d="M101.5,291c0.2,1.3,0,2.7-0.2,4c-0.1-0.1-0.2-0.2-0.3-0.4c-1.3-1.1-3.4-1.1-5.8-0.5
							c-0.6-1.3-1.3-2.5-2.2-3.6c1.2-2.4,1.1-5.4,0.3-8.4c1.5,0.2,3.2,0.7,4.7,1.9C100.5,286.2,101.3,289,101.5,291L101.5,291z"/>
						<path class="st0" d="M92.2,311.3c3.5-4.4,4.7-9.8,3.8-14.5v0c0.3,0.2,0.6,0.4,0.9,0.6c4.3,3.5,4.4,10.6,0.1,16
							c-3.1,3.9-7.6,5.8-11.5,5.2C88.4,316.1,90.6,313.3,92.2,311.3z"/>
						<path class="st0" d="M94.9,264.8c-2.1-0.1-5,0-7.4,1.2c-1.3-1.1-2.7-2.1-4.1-3c1.5-1.2,3.7-2.6,6.5-3.6
							C91.9,260.9,93.6,262.7,94.9,264.8z"/>
						<path class="st0" d="M91.8,298.6c0.4,3.4-0.7,7-3.1,9.9c-7,8.8-15.2,15.8-27.5,7.8c8.1,0,15.6-4.9,19.7-7.6
							c5.3-3.6,8.1-9.1,8-14.4c0.3-0.1,0.7-0.3,0.9-0.4C91.2,295.4,91.7,297.2,91.8,298.6z"/>
						<path class="st0" d="M90.7,269.5c1.8,0,4.2,0.1,6.9,0.9c0.6,2,0.9,4.1,0.8,6.3c-1.2-0.5-2.5-0.9-3.9-1.1
							C93.1,272.8,91.6,270.6,90.7,269.5L90.7,269.5z"/>
						<path class="st0" d="M85,273.1c3.8,4.6,7.6,12.9,3.9,16c-3.7,3.1-15.2,0.6-17.3-5c-1.9-5.1-4.3-7.6-6.8-8.6
							c-0.3,2.3,0,4.8,0.8,7.2c-6.8-2.8-9.7-0.1-9.7-0.1c5.5,1.6,8,4,9.2,5.7c-2.4,1.1-6,2.6-6.6,3.2c-4.1-2.5-6.7-1.4-8.3,0.4
							c2,0.9,4.1,2.3,5.5,2.8l2.6,0.9c0,0,10.9-3.6,11.1-3.8c0.5-0.4,1.6-1.2,1.6-1.2c0.1-0.1,0.2-0.1,0.3-0.2
							c3.7,2.7,8.8,4.6,13.2,4.6c0,0.5-0.1,1-0.2,1.4c-0.6,3.3-2.8,6.4-5.9,8.6l0,0c-9.8,6.6-20.1,10.8-29.8-2.4
							c-1.8-2.5-4.9-6.9-3.2-10.2c0.3-2.9,1.4-6,3.3-8.7c5.8-14,18.9-13.5,20.8-15C73.3,265.5,81.2,268.5,85,273.1z"/>
						<path class="st0" d="M84.7,256.3c-1.7,1-3.7,2.7-5.1,4.8c-3.1-1.2-6.4-1.6-9.3-1c0.9-1.7,2.4-4,4.8-6.2
							C78.5,254.1,81.7,255,84.7,256.3z"/>
						<path class="st0" d="M68.3,254.3c-1.2,1.9-2.2,4.5-2.2,7.1c-0.2,0-0.3,0-0.3,0c-0.6,0.1-3.1,0.5-6.4,1.9
							c0.5-2.1,1.4-4.8,3.2-7.5C64.4,255.2,66.3,254.6,68.3,254.3z"/>
						<path class="st0" d="M55.2,260.5c-0.3,1.6-0.4,3.4-0.1,5.1c-2,1.2-4,2.8-6,4.9C50.1,266.7,52.2,263.3,55.2,260.5z"/>
					</g>
					<g>
						<path class="st1" d="M390.4,298.7c2.8-3.4,4.2-7.2,4.3-11.3c0-3.1-0.9-5.3-1.6-6.8c-0.4-0.8-0.5-1.2-0.5-1.5
							c0-0.9,0.2-1.9,0.4-3l0.6-4.3c0.2-6.8-3.9-13.1-10.9-17.7c0-6.4-0.8-11.5-0.8-11.5c-0.5-4-2.9-12.4-5.5-15.9
							c-1.1-1.5-1.9-4.1-2.8-6.9c-2.3-7.1-5.1-20.8-24.6-23.2c-6.8-0.8-14.3,2-21.3,6.6c-8.4,3.2-14.2,7.8-18.2,17.1
							c-4.1,4-7.9,8.8-8.9,12.5c-1.8,6.5-1.9,12-1,16.6c1.9,9.1,9.3,15,14.5,17.4c0,0.4-0.1,0.6-0.1,1.1c-0.1,1.3,0.4,4.1,0.4,4.1
							c0.2,1.1,0.7,2,0.3,3c0,0.1-0.4,0.6-0.4,0.6c-0.9,1.4-2.5,3.6-2.5,7.2c-0.1,4.4,1.5,8.6,4.5,12.3c-1.2,1.7-2.4,3.4-3.6,5.1
							c-1.9-3.9-3.4-8.1-4.2-10.7c-2-6.6-8.5-20.2-19-26.9c-7.9-5.1-14.5-7.7-20.1-8.1c0.5-4.6-1.2-9.4-4.4-14.1
							c3.8-6.7,6.6-13.8,7.9-19.9c1.7-8.5,1.2-18.8-0.9-28.1c4-4.8,7-10.4,7.3-15.9c0.9-14.9-7.5-30.9-17.9-42.8
							c-1.4-3.6,1.8-8.4,6.9-13.1c2.1-1.9,4-3.8,5.3-5.6c7.5-10.3,8.1-24.1,7.3-33.9c-1.7-21.6-17.4-36.4-26.6-43.3l-2.6-1.9
							l0.3,4.4c0.3,7.4-3.4,16.1-7.1,24.5c-4.9,11.4-10,23.1-4.8,32.1c0.8,1.8,1.3,3.4,1.3,5.1c0.1,2.8-0.9,5.6-2.9,7.6
							c-2,2.1-4.6,3.3-7.5,3.4c-5.9,0.2-10.8-4.5-11-10.4c-0.1-2,0.4-3.9,1.4-5.6l0.1-0.2l0.1-0.2c5.2-18.6,1.2-28.3-2.7-37.7
							c-2.3-5.5-4.4-10.7-4.5-17.5c-0.1-2.9,0.1-5.7,0.4-8.5l0.3-2.5l-2.3,0.9c-18.6,7-31.2,26.3-32.7,48.7c-0.2,3.3-0.2,6.6,0.1,10
							c0.8,10.3,4,20.2,9.1,28.6c2.9,4.7,4.6,8,4.4,11.1c0,0-0.3,3.7-3.1,7.1c-10.6,11.9-17.4,26.2-18,35.8
							c-0.3,4.9,1.4,11.6,4.8,17.1c-1.6,3.7-2.8,7.4-3.5,11c-9.4-3.8-20.3-6.5-32.2-7.5c-26.7-2.3-50.6,4.4-63,16
							c-11.8,4.5-22.6,17.2-27.3,32c-1.7,5.3-2.4,10.6-2.4,15.7c-4.1,4.5-6.8,10.1-7.1,16.4c-0.1,2.2,0.1,4.4,0.5,6.6
							c-0.1,0.2-0.3,0.4-0.4,0.6c-5.5,7.9-6.1,17.6-1.9,23.8c0.4,0.9,1,1.9,1.8,3.1c3.2,4.4,6.7,7.3,10.1,9c0.9,1.7,2,3.2,3.7,4.5
							c10.3,7.6,18.9,6.8,25.4,3.4c2.8,1.4,5.7,1.9,8.7,1.4c7.5-1.4,13-8.4,15-11.4c2.9-4.3,3.5-9.8,2.1-14.5
							c1.2-3.1,1.7-6.5,1.3-9.8c-0.4-3.4-1.7-6.6-3.8-9.1c0.3-1.3,0.5-2.6,0.6-4c0-0.5,0-1.1,0-1.6c2-2.8,3.8-5.8,5.3-9.1
							c3.2,1,6.4,1.9,9.8,2.6c-9.4,23.9-0.6,57.5,24.2,83.7c31,32.7,73.9,39.7,98.7,18.9c3.8-3.1,7-6.2,9.7-9.3
							c5.9,10,16.4,22.4,32.3,30.6c37,19.1,73,4.5,79.5-8.1c0.4-0.8,0.6-1.6,0.9-2.4c26.3-30.3,26.2-71.4,25-83.1
							C390.5,299.1,390.4,298.9,390.4,298.7L390.4,298.7z"/>
						<path class="st1" d="M265.1,104.6c0.2-0.2,8.4-6.2,7.8-21c0,0-5,8.3-11.2,9.1l-0.1,0.5c1.1,4.1,3.4,12.8-0.7,23.6
							c3.2-1.9,9.2-5.9,11.6-14.2C272.6,102.5,268.1,105.1,265.1,104.6z"/>
						<path class="st1" d="M265.1,104.6C265,104.6,265,104.6,265.1,104.6L265.1,104.6C265,104.6,265,104.6,265.1,104.6z"/>
						<path class="st1" d="M365,310.6c5.7-0.7,10.9-2.2,15.4-4.4c-0.1,14-3,28.5-7.7,40.4c-4.4,11.1-12.6,24.1-21.3,33.3
							c-0.5,1.2-0.9,2.3-1.2,3.3c-2.4,2-5.3,3.6-8.6,4.9c-2,1.2-4,2.2-5.8,2.7c-3,0.9-7.5,1.4-12,0.8c-9.7,0.4-20-1.6-28.5-6.4
							c-12.4-7.1-27.3-24.9-32.7-37.8c-0.1-0.1-0.2-0.3-0.3-0.4c-5.6-11.7-18.6-21-31-17.5c0,0,9.8,6.8,13.9,16.5
							c-2.1,4.9-5.1,9.4-9,13.1c-20.9,19.8-60.2,12.2-87.8-16.9c-22.6-23.8-30.3-54.6-20.9-75.9c0.2-0.4,0.2-0.9,0.2-1.4
							c2.1-3.6,4-6.9,4.7-11.7c1.8-13.1-3-17.3-3-17.3s-1.2,11.9-3,16.7c-0.9,2.3-2.3,5-3.9,7.3c-3.1-0.7-6.1-1.6-9-2.5
							c1.8-7.5,1.8-15.3,0.3-22.5c-2.1-4.1-5.8-8.5-12.7-10.5c1.6,1.7,2.7,3.6,3.6,5.2c4.3,8.3,4.8,19,1.5,29.5
							c-0.8,2.5-1.8,4.9-2.9,7.1c-4.2-10.4-15.1-18.2-28.2-19c-7-0.4-13.6,1.4-19.1,4.6c0.3-2.7,0.9-5.4,1.8-8.1
							c3.5-11,10.6-19.4,18.6-23.4c2.5-2.9,5.8-5.9,9.9-8.6c4.1-2.7,9-5.1,14.9-6.6c10.6-3.1,24.2-4.2,39.3-2.1
							c12.3,1.7,22.9,5.2,31.6,9.5c-0.2,2-0.4,4.1-0.4,6.3c-5.2,3.4-8.9,7.8-10.4,13.1c-0.6,2-0.8,4-0.8,6c-2.3,2.7-4,5.7-4.9,9
							c-5,17.8,13.2,37.7,40.7,44.5c25.9,6.4,62.7-7.1,71-23.6c6.1,0.6,12.5,2.6,17.2,5.6c5.3,3.4,13.7,16,16.1,21.4
							c1.7,3.8,3.4,10.3,6.1,15.7c-0.1,0.2-0.3,0.5-0.4,0.7c-12.9,23.3-13.9,48.7-4.2,63.8c-0.1-0.4-0.2-0.7-0.2-1.1
							c-2.2-12.1,3.3-39.8,13.4-58.2c2.6-4.7,5.5-9.2,8.6-13.5c7.3,5,17.5,8.4,28.9,9.1C356.8,311.3,361,311.1,365,310.6z"/>
						<path class="st1" d="M68.3,254.3c-2,0.3-3.9,0.9-5.7,1.6c-1.8,2.7-2.8,5.4-3.2,7.5c3.3-1.4,5.8-1.8,6.4-1.9c0,0,0.2,0,0.3,0
							C66,258.8,67.1,256.2,68.3,254.3z"/>
						<path class="st1" d="M94.9,264.8c-1.4-2-3.1-3.8-5.1-5.4c-2.8,1-5,2.5-6.5,3.6c1.5,0.9,2.9,1.9,4.1,3
							C90,264.8,92.8,264.6,94.9,264.8z"/>
						<polyline class="st1" points="95,264.8 95,264.8 94.9,264.8 						"/>
						<path class="st1" d="M55.2,260.5c-3,2.8-5.1,6.2-6.1,10.1c2-2.1,4-3.7,6-4.9C54.8,263.9,54.9,262.1,55.2,260.5z"/>
						<line class="st1" x1="84.7" y1="256.3" x2="84.7" y2="256.3"/>
						<path class="st1" d="M84.7,256.3c-2.9-1.3-6.1-2.1-9.6-2.4c-2.4,2.2-3.9,4.6-4.8,6.2c2.9-0.6,6.1-0.2,9.3,1
							C80.9,258.9,83,257.3,84.7,256.3z"/>
						<path class="st1" d="M90.7,269.5c0.8,1.1,2.4,3.3,3.8,6.1c1.3,0.2,2.6,0.6,3.9,1.1c0.1-2.2-0.2-4.2-0.8-6.3
							C95,269.6,92.6,269.4,90.7,269.5L90.7,269.5z"/>
						<path class="st1" d="M371.9,291.7c-2.7-5.2-0.3-12-0.2-12.3l1.7,0.4c-0.3,3.9,4.8,8,5,8.1c0.7,0.8,1.2,1.6,1.6,2.4
							c1-1.6,1.5-3.3,1.5-5.1c0-3-1.8-4.5-1.9-7.4s0.9-5,1-7.2c0-0.4,0-0.8,0-1.2c-0.4,1-0.8,1.9-1.3,2.8c1.2-0.1-7.2,5.4-17.9,7.4
							c-17.1,3.2-32.1-1-37.2-5.9c0,0.2,0,0.4,0,0.6c-0.4,3.1-2.6,3.7-2.7,6.6c-0.1,3.5,1.7,7,4.5,10c1.1-1.6,2.2-3.6,2.4-5.3
							l0.3-2.3l1.3,2c0.1,0.1,2.1,3.4,0.7,9.5c2.6,1.7,5.5,3.2,8.7,4.2c0.5-1,0.7-2,0.4-3.2c-1.4-5.7,2.6-11.7,2.8-12l1.6,0.7
							c-1.2,3.8,2.8,8.8,2.9,9c1.5,2.6,1.3,5.2,0.6,7.3c0.6,0.1,1.3,0.1,1.9,0.2c2.7,0.1,5.2,0,7.7-0.2c0.3-1.3,0.3-2.7-0.4-4
							c-2.7-5.2-0.3-12-0.2-12.3l1.7,0.3c-0.3,4,4.8,8,5,8.1c1.9,2,2.4,4.2,2.4,6.3c2.3-0.6,4.4-1.4,6.3-2.3
							C372.5,295.3,372.8,293.4,371.9,291.7L371.9,291.7z"/>
						<path class="st1" d="M256.6,264.9C256.6,264.9,256.6,264.9,256.6,264.9"/>
						<path class="st1" d="M256.6,264.9c5.3-5.8,6.5-11.9,6.7-15c-0.4-1.8-1-3.1-1.6-4c-4.6,7.1-10.1,13.4-15.6,17.5
							c-11,6.4-29.5,9.9-45.2,5.3c-13.8-4-24.6-16.2-27.5-23.5c1.2-1.1,1.2-4.9-0.1-9.9c-0.8-3.1-1.3-6-1.5-8.9
							c-1.8,1.8-3.3,3.9-4.3,6.2c-2.7,6.4-1.1,12.9,0.7,17.1c2.1,4.9,5.5,9.6,9.9,13.8c-8.5-5.6-14.4-12.5-16.8-19.7
							c-0.5,0.9-0.9,1.9-1.2,2.9c-1,3.6-0.7,7,0.2,9.9c0.9-0.4,1.6-0.6,1.7-0.7c0.4-0.1,0.9,0,1.1,0.4c0.2,0.4,0.2,0.8,0,1.2
							c-0.6,0.8-1.1,1.8-1.4,2.7c0.4,0.8,0.7,1.5,1.1,2.1c0.2,0.4,0.5,0.8,0.8,1.2c1.4-1,2.6-1.6,2.7-1.6c0.4-0.2,0.9-0.1,1.2,0.3
							c0.3,0.3,0.3,0.8,0.1,1.1c-0.7,1.3-1.1,2.7-1.2,4c1,1.2,2.1,2.3,3.2,3.4c1.9-2,4.2-3,4.3-3.1c0.4-0.2,0.9-0.1,1.1,0.2
							s0.3,0.8,0.1,1.2c-1,1.7-1.2,3.7-1.2,5.3c1.4,1,2.8,2,4.3,2.9c1.8-3.2,5.5-4.9,5.7-4.9c0.4-0.2,0.9-0.1,1.1,0.2
							c0.3,0.3,0.3,0.8,0.1,1.2c-1.3,2.2-1.3,4.8-1.2,6.6c2.2,1,4.4,2,6.8,2.8c1.5-3.6,4.4-6,4.5-6.1c0.3-0.3,0.8-0.3,1.1-0.1
							c0.4,0.2,0.6,0.6,0.5,1c-0.3,1.9,0.1,5.3,0.4,7.2c2.1,0.5,4.2,0.8,6.5,1.1c0.8-4,3.6-7.1,3.7-7.2c0.3-0.3,0.7-0.4,1.1-0.3
							c0.4,0.2,0.6,0.5,0.6,0.9c0,1.9,0.9,5.1,1.5,6.9c2.1,0,4.2-0.1,6.4-0.3c0,0,0-0.1,0-0.1c1.5-1.8,2.2-3.3,1.2-6.2
							c-0.1-0.4,0-0.8,0.3-1c0.3-0.3,0.7-0.3,1.1-0.2c1.8,0.9,4.7,3.2,4.3,6.5c1.8-0.3,3.6-0.7,5.4-1.2c1.1-1.7,1.4-3.3,0.2-5.8
							c-0.2-0.4-0.1-0.8,0.2-1.1c0.3-0.3,0.7-0.4,1.1-0.3c1.8,0.6,4.6,2.4,4.9,5.3c1-0.3,1.9-0.6,2.9-1c0.5-0.2,1-0.4,1.5-0.6
							c1-1.7,1.3-3.2,0.1-5.7c-0.2-0.4-0.1-0.8,0.2-1.1c0.3-0.3,0.7-0.4,1.1-0.3c1.5,0.5,3.9,2,4.7,4.3c1.5-0.8,3-1.6,4.4-2.5
							c0.2-1.3,0-2.6-1.2-4.3c-0.2-0.3-0.2-0.8,0-1.1c0.2-0.3,0.6-0.5,1-0.5c1.4,0.2,3.5,1,4.8,2.7c4.2-3.3,7.1-6.8,8-10.1
							c0.3-1.1,0.4-2.1,0.3-3.2C260.6,263.3,256.8,264.8,256.6,264.9z"/>
						<path class="st1" d="M185,306.5l-0.3,3l1.2,0.8l-1.3,13.1l-1.2-0.9l-0.3,2.9c2.6,1.9,3.6,2.6,6,4.5l0.3-3.1l-1.3-1l0.3-3.1
							l2.7-0.6l3.8,9.3l-2-1.8l-0.3,3.1c1.4,1.2,5.5,5,7.6,7.4l0.4-3.6l-1.4-1.4l-5.7-13.5l6.6-1.4l2.1,1.4l0.3-3.2
							c-1.9-1.4-6-4.4-7.9-5.6l-0.3,3l2.3,1.6l-7.8,1.8l0.7-6.8l1.2,0.8l0.3-2.9C188.2,308.5,188.1,308.4,185,306.5z"/>
						<path class="st1" d="M185,306.5C185,306.5,185,306.5,185,306.5L185,306.5L185,306.5z"/>
						<path class="st1" d="M136.5,287.7l-0.4,3.5l1.4,0.1l-2,20.2l2.9,3c0,0,3.9-0.6,5-0.7c1.1-0.1,4.2-0.3,4.2-0.3l3.4-2.5
							l1.6-16.4l1.2,0.4l0.3-3.3c0,0-2.5-0.9-3.3-1.1c-0.8-0.2-3-0.9-3-0.9l-0.3,3.2l1.2,0.3l-1.5,15.1l-1.4,1.2l-4.7,0.3l-1.4-1.5
							l1.6-16.5l1.3,0.2l0.4-3.6c0,0-2.3-0.4-3.2-0.5C139.1,288.1,136.5,287.7,136.5,287.7z"/>
						<line class="st1" x1="136.5" y1="287.7" x2="136.5" y2="287.7"/>
						<path class="st1" d="M158.7,293.3l-0.3,3.1l1.2,0.5l-1.4,14.2l-1.1-0.2l-0.3,3.3c0,0,2.8,0.6,3.6,0.8c0.8,0.2,2.9,0.8,2.9,0.8
							l0.3-3.1l-1.3-0.5l1-9.8l4.6,11.8l6.7-6.6l-0.9,9l-1.2-0.5l-0.3,3.3c0,0,2.3,1,3,1.4s3.1,1.7,3.1,1.7l0.3-3.2l-1.3-0.7
							l1.2-12.7l1.2,0.6l0.3-2.9l-4.8-2.6l-6.8,7l-4.7-12.5L158.7,293.3L158.7,293.3z"/>
						<path class="st1" d="M206.4,325.7l-1.6,15.9l2.3,5.6c0,0,1.5,1.7,4.2,5.3c2.6,3.4,4.2,5.6,4.2,5.6l3,0.5l0.5-5.2l-3.2-4.4
							l-0.2,2.6l-1.6,0l-4.2-5.3l-1.2-2.9l1.3-12.9l1.6-0.6l4.3,4.1l1.1,3l-0.3,3l3.5,4l0.4-4.4l-2.3-6.8c0,0-3.4-3.4-4.2-4.2
							c-0.7-0.7-4.3-3.8-4.3-3.8L206.4,325.7L206.4,325.7z"/>
						<path class="st1" d="M369,233.8c-5-7.9-4-24.7-18.9-27c-3.1-0.5-6.5,0.1-10.1,1.3c3.1,0.9,5.5,2.3,4.3,3.7
							c-1.8,2.3-8.4-2.3-15.9,0.4c-7.5,2.7-8.4,6.2-8.3,8.7c4.7,0.2,9.6,1.1,8.3,3.3c-1.8,3-7.1-1.1-14.8,3.8
							c-3.2,1.8-5.2,5.7-5.8,7.8c-5,17.2,8.4,22.3,8.4,22.3c-5-11.7,1.9-15.4,1.9-15.4c0.2,18,10.5,34.3,33.8,29.4
							c6-1.3,15.5-4.9,19.5-10.4C376.6,254.4,373.6,241.3,369,233.8L369,233.8z"/>
						<path class="st1" d="M101.5,291c-0.2-2-1-4.8-3.6-6.8c-1.5-1.2-3.2-1.7-4.7-1.9c0.8,3,0.9,6-0.3,8.4c0.9,1.1,1.7,2.2,2.2,3.6
							c2.4-0.6,4.5-0.6,5.8,0.5c0.1,0.1,0.2,0.2,0.3,0.4C101.6,293.7,101.7,292.3,101.5,291L101.5,291z"/>
						<path class="st1" d="M96,296.8c0.9,4.7-0.2,10-3.8,14.5c-1.6,2-3.8,4.8-6.7,7.3c3.9,0.6,8.4-1.3,11.5-5.2
							c4.3-5.4,4.2-12.6-0.1-16C96.6,297.2,96.3,297,96,296.8L96,296.8z"/>
						<path class="st1" d="M91.8,298.6c-0.2-1.4-0.7-3.2-2-4.8c-0.3,0.2-0.6,0.3-0.9,0.4c0.1,5.3-2.7,10.9-8,14.4
							c-4.1,2.7-11.5,7.6-19.7,7.6c12.3,8,20.5,1.1,27.5-7.8C91.1,305.6,92.2,302,91.8,298.6z"/>
						<path class="st1" d="M78.5,305c3.1-2.1,5.3-5.2,5.9-8.6c0.1-0.4,0.1-0.9,0.2-1.4c-4.5,0-9.6-2-13.2-4.6
							c-0.1,0.1-0.2,0.1-0.3,0.2c0,0-1.1,0.8-1.6,1.2c-0.2,0.2-11.1,3.8-11.1,3.8l-2.6-0.9c-1.4-0.5-3.5-1.9-5.5-2.8
							c1.6-1.8,4.2-2.9,8.3-0.4c0.6-0.6,4.2-2.1,6.6-3.2c-1.2-1.7-3.7-4.1-9.2-5.7c0,0,2.8-2.7,9.7,0.1c-0.9-2.4-1.2-4.9-0.8-7.2
							c2.5,1,4.8,3.5,6.8,8.6c2.1,5.6,13.6,8,17.3,5c3.7-3-0.1-11.4-3.9-16c-3.8-4.6-11.6-7.6-15.4-4.5c-1.9,1.5-15,1-20.8,15
							c-1.9,2.8-3,5.9-3.3,8.7c-1.7,3.4,1.4,7.8,3.2,10.2C58.4,315.8,68.7,311.6,78.5,305L78.5,305z"/>
						<path class="st1" d="M262.3,182.4c2.9,0,4.4-5.4,4.7-9.8c0.4-6.4-0.5-12.5-1.5-17.3c-3-3.2-6.7-3.2-9.9-1.7c0.1,0,0.2,0,0.3,0
							c2.4,1,3.4,5.8,2.2,8.8c-1.3,3-4.2,4.7-6.6,3.7c-1.6-0.7-2.5-2.4-2.5-4.4c-0.1,0.4-0.1,0.7-0.2,1.1
							C248.3,170.7,258.1,174.3,262.3,182.4z"/>
						<line class="st1" x1="262.3" y1="182.4" x2="262.3" y2="182.4"/>
						<path class="st1" d="M241.8,203.9c0.3,0.2,0.7,0.3,1,0.4"/>
						<path class="st1" d="M240.6,203.1c0.4,0.3,0.8,0.6,1.3,0.9"/>
						<path class="st1" d="M237.7,198.4c0.6,2,1.6,3.6,2.9,4.7"/>
						<path class="st1" d="M239.2,189.1c-0.7,0.7-1.3,1.3-1.6,2.4c-0.2,0.6-0.3,1.3-0.4,2.1c0,0,0,0.8,0,0.8c0,1.1,0.1,2.1,0.3,3.1"
							/>
						<path class="st1" d="M239.7,188.6C239.7,188.6,239.6,188.6,239.7,188.6"/>
						<path class="st1" d="M241.4,187.2c-0.5,0.4-1,0.8-1.5,1.2c0,0,0,0,0,0c0,0,0,0,0,0c0,0,0,0-0.1,0.1c0,0,0,0-0.1,0.1
							c0,0,0,0-0.1,0.1"/>
						<path class="st1" d="M242.7,186.1c-0.4,0.4-0.8,0.7-1.3,1.1"/>
						<path class="st1" d="M245.9,178L245.9,178c0.6,0.5,0.8,1.3,0.7,2.5c-0.1,1.3-1,2.8-2.7,4.5"/>
						<path class="st1" d="M230,186.8c-3.2-3.1-4.7-5.6-4.6-7.5c0-0.9,0.3-1.5,0.8-2"/>
						<path class="st1" d="M229.7,199.8c1.9-1.8,3-4.2,3.1-6.8c0.2-2.4-0.3-3.3-1.2-4.8l-0.1-0.1l-0.1-0.1h0"/>
						<path class="st1" d="M210.9,201.3c-1.6-1.5-2.5-2.8-2-3.3"/>
						<path class="st1" d="M235.5,206.1c-0.5-0.5-0.9-1-1.3-1.6l-0.5-0.7l0,0l-0.5,0.6c-0.3,0.4-0.7,0.8-1,1.1"/>
						<path class="st1" d="M249.8,212.3c1.3-1.3,1.9-2.9,2.2-4.1h0"/>
						<path class="st1" d="M242.3,221c1.4-1.4,2.6-3.4,3.1-6.1"/>
						<path class="st1" d="M209.2,207.1c0.5,0.6,1,1.4,1.4,2.2c2.1,4.1,3.9,7.9,6.8,10.7"/>
						<path class="st1" d="M208.4,206.1L208.4,206.1C208.4,206.1,208.4,206.1,208.4,206.1c0.1,0,0.1,0.1,0.2,0.3
							c0.1,0.1,0.2,0.2,0.2,0.3"/>
						<path class="st1" d="M205,190.9c-1.2,1.4-1.9,2.8-2.3,4.2c-0.1,0.3-0.2,0.7-0.2,1s-0.1,0.6-0.1,1c0,0.2,0,0.3,0,0.5
							c0,0.1-0.1,0.1-0.1,0.1c0,0.7,0,1.4,0.1,2.1c0.1,0.6,0.2,1.1,0.4,1.6c0,0,0,0.1,0,0.1c0.4,0.9,0.9,1.8,1.7,2.6"/>
						<path class="st1" d="M205.9,189.9c-0.2,0.2-0.3,0.3-0.5,0.5"/>
						<path class="st1" d="M206.7,187.8C206.7,187.8,206.7,187.8,206.7,187.8L206.7,187.8c0.3,0.4,0.2,0.8,0.1,1.2
							c-0.1,0.1-0.1,0.3-0.2,0.4h0"/>
						<path class="st1" d="M203.4,158.5c-0.8-3.1,1-7.5,3.5-8.2c0.2-0.1,0.5,0.1,0.7,0.1c-3.7-3.5-7.6-3.5-10-3.5l-0.5,0
							c-0.5,0-0.9-0.2-1.1-0.7c-0.2-0.4-0.2-0.9,0-1.3c0.7-1.2,2.8-3.6,5.9-4.6c2.9-0.9,7.2-0.9,11.7,4.3c1.2,1.4,2.3,4.5,3.4,7.8
							c1.6,4.6,3,8.9,4.9,9c0.3,0,1,0,2.1-1.7c0.2-0.4,0.7-0.6,1.1-0.6c0.4,0,0.9,0.3,1.1,0.7c0.7,1.2,1,2.6,0.8,3.8
							c-0.1,1.2-0.6,2.2-1.4,3.1c-2.1,2.4-5.3,2.1-7.6,0.9c-1.6-0.8-4.6-6.5-5-7.6c-0.1-0.4-0.3-0.7-0.4-1.1c-0.3,2-1.5,3.7-3.3,4.1
							C206.9,163.7,204.2,161.6,203.4,158.5L203.4,158.5z"/>
						<path class="st1" d="M247,227.8c0.5-0.6,1.1-1.2,1.6-1.8h0"/>
						<path class="st1" d="M215,228.6c0.3,0.2,0.7,0.4,1,0.6"/>
						<path class="st1" d="M212.8,226.8c0.6,0.5,1.1,1,1.7,1.4"/>
						<path class="st1" d="M202.2,214.4c0,0,4.9,6.7,9.5,11.3"/>
						<path class="st1" d="M201.2,214.1c0.2,0.1,0.3,0.1,0.5,0.2"/>
						<path class="st1" d="M199,212.9c0.1,0.1,0.3,0.2,0.4,0.2c0.1,0.1,0.3,0.2,0.4,0.2"/>
						<path class="st1" d="M197.1,211.4c0.2,0.2,0.4,0.4,0.6,0.5c0.1,0.1,0.2,0.2,0.3,0.3c0.2,0.2,0.4,0.4,0.7,0.5"/>
						<path class="st1" d="M196.3,210.6c0.2,0.2,0.4,0.5,0.7,0.7"/>
						<path class="st1" d="M202.4,257.3c-3.6-1.7-7.8-4.2-12.3-8c-13.1-11.1-8.9-45.4-2.4-49l6.3,5.5c0,0,0.1,0.4,0.2,1
							c0.3,0.9,0.9,2.4,2.1,3.8"/>
						<path class="st1" d="M203.6,257.9c-0.3-0.1-0.6-0.2-0.8-0.4"/>
						<path class="st1" d="M205,258.5c-0.3-0.1-0.6-0.2-0.9-0.3"/>
						<path class="st1" d="M209.6,259.9c-1-0.2-2.3-0.6-3.6-1.1"/>
						<path class="st1" d="M210.7,260.2c-0.2,0-0.4-0.1-0.6-0.1"/>
						<path class="st1" d="M212.3,260.5c-0.4-0.1-0.9-0.1-1.5-0.2"/>
						<path class="st1" d="M253.4,242.1L253.4,242.1C253.4,242.2,253.4,242.2,253.4,242.1c-0.4,1.3-8.3,23-39.8,18.4
							c0,0-0.3,0-1-0.1"/>
						<path class="st1" d="M235.5,253.5c0,0,9.1-1.6,17.9-11.4"/>
						<path class="st1" d="M233.7,203.9L233.7,203.9l-0.6,0.6c-0.3,0.4-0.7,0.7-1,1.1c-2.7,2.6-5.4,3.5-9.2,3.3
							c-2.4-0.1-8.6-4.4-12-7.6c-1.6-1.5-2.5-2.8-2-3.3h0c2.2-2.4,9.9,4.6,11.9,5.1c3,0.8,6.2-0.9,8.4-2.9c0.1-0.1,0.3-0.2,0.4-0.4
							c1.9-1.8,3-4.2,3.1-6.8c0.1-2.4-0.4-3.3-1.2-4.8l-0.1-0.1l-0.1-0.1c-0.5-0.4-1-0.9-1.4-1.3c-3.2-3.1-4.7-5.6-4.6-7.5
							c0.1-0.9,0.3-1.5,0.8-2c0.1-0.1,0.1-0.1,0.2-0.2c1.3-1,3.5,1.6,6.1,2.1c1.5,0.3,3,0.6,4.5,0.6c1.7,0.1,4.6-0.7,4.6-0.7
							c1.9-0.2,3.3-2,4.2-1.1c0.6,0.5,0.8,1.3,0.7,2.5c-0.1,1.3-1,2.8-2.7,4.5c-0.4,0.3-0.7,0.7-1.1,1.1s-0.8,0.7-1.3,1.1
							c0,0,0,0,0,0c-0.5,0.4-1,0.8-1.5,1.2h0v0c0,0,0,0,0,0c0,0,0,0-0.1,0.1c0,0,0,0-0.1,0.1c0,0,0,0-0.1,0.1c0,0,0,0-0.1,0
							c0,0,0,0,0,0.1c0,0,0,0,0,0c-0.2,0.1-0.3,0.3-0.4,0.4c-0.7,0.6-1.3,1.3-1.6,2.4c-0.2,0.6-0.3,1.3-0.4,2.1c0,0,0,0.8,0,0.8
							c0,1.1,0.1,2.1,0.3,3.1c0.1,0.3,0.2,0.6,0.2,0.9c0.6,2,1.6,3.6,2.9,4.7c0,0,0,0,0,0c0.4,0.3,0.8,0.6,1.3,0.9c0,0,0,0,0,0
							c0.3,0.2,0.7,0.3,1,0.4c0.5,0.2,1,0.2,1.5,0.3c1.8,0.1,6.6-0.6,8.6-2.3c1.2-2.1,2.3-4.8,2.5-9.4c0.4-9.7-4.7-15.3-8.5-20.3
							c-3.1-1.2-6.9-2.1-11.8-2.3l0,0c-18.7-1-19.8,8.3-22.2,15.1c-2.2,0.4-4.7,1-6.5,2.3"/>
						<path class="st1" d="M253,202.4L253,202.4c1.2-2.1,2.3-4.8,2.5-9.4c0.4-9.7-4.7-15.3-8.5-20.3c-2.4-3.2-4.3-6.1-3.9-9.7l0,0
							c1.3-14.2,11.3-19.8,16.2-21.7c-2.9-4.4-6.1-8.4-9.5-11.6c0.7-2.8,2.1-5.9,4.1-8.8c3.1-4.3,4.2-11.5,3.7-17.6
							c-0.8-10-4.6-10.5-5.2-18.2c-0.9-11.1,10.7-24.7,4.5-32.8c-1.5,4.9-3.6,9.9-5.7,14.7c-3.3,7.6-6.7,15.5-6.3,21.1
							c0.1,1.3,0.4,2.5,1,3.6l0.1,0.5c1.4,2.6,2.3,5.6,2.3,8.6c0.2,5,0.3,13.3-4.8,17.6c-1.8,1.5-3.8,2.8-6,3.7
							c-1.7-0.6-3.4-1.2-5.1-1.1c-17.1,0.2-26.9,7.5-26.9,7.5s0.1-4.4,3.2-8.4c-0.3-0.3-0.7-0.8-1-1.2c-2.1-0.3-9.6-2-12.4-13.4
							c0,0,4.3,1.3,7.4,1c0,0,0-0.1,0-0.1c-0.8-0.7-9.4-8.2-8.3-22.5c0,0,4.2,7.4,9.8,9.1c1.3-4.1,2.8-8.3,3.2-14.2
							c0.8-11.2-5.2-21.6-7.2-30.9c-9.3,9.8-14.4,24.7-13.1,40.7c0.7,9,3.5,17.7,7.9,25c2.2,3.6,5.1,8.4,5.5,13.7
							c0,0,0.7,3.6-0.4,6.5c-10.4,9.5-17.3,23.2-18.1,37.5c0,0-2,10.3,14.9,23.5c2.9-4.2,7.9-6.9,8.5-7.1c0.5-0.2,0.9,0,1.2,0.4h0
							c0,0,0.1,0.1,0.1,0.1c0,0,0.1,0,0.1,0.1c0.2,0.4,0.1,0.7,0,1.1c-0.1,0.1-0.1,0.3-0.2,0.4c-0.2,0.2-0.4,0.3-0.5,0.5
							c-0.2,0.2-0.3,0.3-0.5,0.5c-0.2,0.2-0.3,0.3-0.5,0.5c-1.2,1.4-1.9,2.8-2.3,4.2c-0.1,0.3-0.2,0.7-0.2,1c-0.1,0.3-0.1,0.6-0.1,1
							c0,0.2,0,0.3,0,0.5c0,0.1-0.1,0.1-0.1,0.1c0,0.7,0,1.4,0.1,2.1c0.1,0.6,0.2,1.1,0.4,1.6c0,0,0,0.1,0,0.1
							c0.4,0.9,1,1.8,1.7,2.6c1,1,2.3,1.7,4,2c0,0,0,0,0,0c0,0,0.1,0.1,0.2,0.3c0.1,0.1,0.2,0.2,0.2,0.3c0.1,0.1,0.2,0.3,0.3,0.4
							c0.4,0.6,1,1.4,1.4,2.2c2.1,4.1,3.9,7.9,6.8,10.7c2.9,2.8,7.1,4.6,13.7,4.9c0,0,6.9,0.4,11.2-4c1.4-1.4,2.6-3.4,3.1-6.1h0
							c2-0.6,3.4-1.5,4.4-2.6c1.3-1.3,1.9-2.9,2.2-4.1c-2.4,1.1-5.6,1.7-7.9,1.5c-3.4-0.2-6.5-1.5-8.6-3.6c-0.5-0.5-0.9-1-1.3-1.6
							l-0.5-0.7"/>
						<path class="st1" d="M227,214c2-1.6,7.2-3.8,12.3-0.2c0.6,0.4,0.8,1.1,0.6,1.8c-0.2,0.7-0.8,1.1-1.5,1.1l-10.3,0.2
							c-0.7,0-1.3-0.4-1.5-1.1C226.3,215.2,226.5,214.5,227,214z"/>
						<path class="st1" d="M253.4,242.2L253.4,242.2C253.4,242.2,253.4,242.2,253.4,242.2c-8.9,9.7-17.9,11.4-17.9,11.4l0,0
							c12.8-13,13.1-27.5,13.1-27.5c-0.5,0.7-1,1.3-1.6,1.8c-8.8,8.8-24,4.4-30.5,1.7c-0.1-0.1-0.3-0.1-0.5-0.2
							c-0.3-0.2-0.6-0.4-1-0.6c-0.2-0.1-0.4-0.3-0.5-0.4c-0.5-0.4-1.1-0.9-1.7-1.4c-0.4-0.4-0.8-0.7-1.2-1.1
							c-4.5-4.5-9.5-11.3-9.5-11.3h0c-0.2-0.1-0.3-0.1-0.5-0.2c-0.2-0.1-0.3-0.1-0.5-0.2c-0.5-0.2-0.9-0.4-1.3-0.6
							c-0.1-0.1-0.3-0.1-0.4-0.2c-0.1-0.1-0.3-0.2-0.4-0.2c-0.1-0.1-0.2-0.2-0.4-0.2c-0.2-0.2-0.5-0.3-0.7-0.5
							c-0.1-0.1-0.2-0.2-0.3-0.3c-0.2-0.2-0.4-0.4-0.6-0.5c0,0-0.1,0-0.1-0.1c-0.2-0.2-0.5-0.5-0.7-0.7c0,0,0,0,0,0
							c-1.2-1.4-1.8-2.9-2.1-3.8c0,0,0,0,0,0c-2.2,3.4-7.2,13-4.3,26.1l8.6-7.4c0,0-7.2,16.6,3.9,31.9c0,0,0,0,0,0
							c0.1,0,0.2,0.1,0.3,0.1c0.3,0.1,0.6,0.3,0.8,0.4c0.2,0.1,0.4,0.2,0.6,0.3c0.3,0.1,0.6,0.2,0.9,0.3c0.3,0.1,0.6,0.2,0.9,0.3
							c1.4,0.5,2.6,0.9,3.6,1.1c0.2,0.1,0.4,0.1,0.6,0.1c0.2,0.1,0.4,0.1,0.6,0.1c0.1,0,0.1,0,0.1,0c0.6,0.1,1.1,0.2,1.5,0.2
							c0.1,0,0.2,0,0.2,0c0.7,0.1,1,0.1,1,0.1C245.5,265.2,253.2,242.8,253.4,242.2"/>
					</g>
				</g>
			</g>
		</g>
	</g>
</g>
<g>
	<path class="st2" d="M390.4,298.7c2.8-3.4,4.2-7.2,4.3-11.3c0-3.1-0.9-5.3-1.6-6.8c-0.4-0.8-0.5-1.2-0.5-1.5c0-0.9,0.2-1.9,0.4-3
		l0.6-4.3c0.2-6.8-3.9-13.1-10.9-17.7c0-6.4-0.8-11.5-0.8-11.5c-0.5-4-2.9-12.4-5.5-15.9c-1.1-1.5-1.9-4.1-2.8-6.9
		c-2.3-7.1-5.1-20.8-24.6-23.2c-6.8-0.8-14.3,2-21.3,6.6c-8.4,3.2-14.2,7.8-18.2,17.1c-4.1,4-7.9,8.8-8.9,12.5
		c-1.8,6.5-1.9,12-1,16.6c1.9,9.1,9.3,15,14.5,17.4c0,0.4-0.1,0.6-0.1,1.1c-0.1,1.3,0.4,4.1,0.4,4.1c0.2,1.1,0.7,2,0.3,3
		c0,0.1-0.4,0.6-0.4,0.6c-0.9,1.4-2.5,3.6-2.5,7.2c-0.1,4.4,1.5,8.6,4.5,12.3c-1.2,1.7-2.4,3.4-3.6,5.1c-1.9-3.9-3.4-8.1-4.2-10.7
		c-2-6.6-8.5-20.2-19-26.9c-7.9-5.1-14.5-7.7-20.1-8.1c0.5-4.6-1.2-9.4-4.4-14.1c3.8-6.7,6.6-13.8,7.9-19.9
		c1.7-8.5,1.2-18.8-0.9-28.1c4-4.8,7-10.4,7.3-15.9c0.9-14.9-7.5-30.9-17.9-42.8c-1.4-3.6,1.8-8.4,6.9-13.1c2.1-1.9,4-3.8,5.3-5.6
		c7.5-10.3,8.1-24.1,7.3-33.9c-1.7-21.6-17.4-36.4-26.6-43.3l-2.6-1.9l0.3,4.4c0.3,7.4-3.4,16.1-7.1,24.5
		c-4.9,11.4-10,23.1-4.8,32.1c0.8,1.8,1.3,3.4,1.3,5.1c0.1,2.8-0.9,5.6-2.9,7.6c-2,2.1-4.6,3.3-7.5,3.4c-5.9,0.2-10.8-4.5-11-10.4
		c-0.1-2,0.4-3.9,1.4-5.6l0.1-0.2l0.1-0.2c5.2-18.6,1.2-28.3-2.7-37.7c-2.3-5.5-4.4-10.7-4.5-17.5c-0.1-2.9,0.1-5.7,0.4-8.5l0.3-2.5
		l-2.3,0.9c-18.6,7-31.2,26.3-32.7,48.7c-0.2,3.3-0.2,6.6,0.1,10c0.8,10.3,4,20.2,9.1,28.6c2.9,4.7,4.6,8.1,4.4,11.1
		c0,0-0.3,3.7-3.1,7.1c-10.6,11.9-17.4,26.2-18,35.8c-0.3,4.9,1.4,11.6,4.8,17.1c-1.6,3.7-2.8,7.4-3.6,11
		c-9.4-3.8-20.3-6.5-32.2-7.5c-26.7-2.3-50.6,4.4-63,16c-11.8,4.5-22.6,17.2-27.3,32c-1.7,5.3-2.4,10.6-2.4,15.6
		c-4.1,4.5-6.8,10.1-7.1,16.4c-0.1,2.2,0.1,4.4,0.5,6.6c-0.1,0.2-0.3,0.4-0.4,0.6c-5.5,7.9-6.1,17.5-1.9,23.8c0.4,0.9,1,1.9,1.8,3.1
		c3.2,4.4,6.7,7.3,10.1,9c0.9,1.7,2,3.2,3.7,4.5c10.4,7.6,18.9,6.8,25.4,3.4c2.8,1.4,5.7,1.9,8.7,1.4c7.5-1.4,13-8.5,15-11.4
		c2.9-4.3,3.5-9.8,2.1-14.5c1.2-3.1,1.7-6.5,1.3-9.8c-0.4-3.5-1.7-6.6-3.8-9.1c0.3-1.3,0.5-2.6,0.6-4c0-0.5,0-1.1,0-1.6
		c2-2.8,3.8-5.8,5.3-9.1c3.2,1,6.4,1.9,9.8,2.6c-9.4,23.9-0.6,57.5,24.2,83.7c31,32.7,73.9,39.7,98.7,18.9c3.8-3.1,7-6.2,9.7-9.3
		c5.9,10,16.4,22.4,32.3,30.6c37,19.1,73,4.5,79.5-8c0.4-0.8,0.6-1.6,0.9-2.4c26.3-30.3,26.2-71.4,25-83.1
		C390.5,299.1,390.4,298.9,390.4,298.7L390.4,298.7z"/>
	<path class="st3" d="M265,104.6c0,0,8.5-6,7.8-21c0,0-5,8.3-11.2,9.1l-0.1,0.5c1.1,4.1,3.4,12.8-0.7,23.6
		c3.2-1.9,9.2-5.9,11.6-14.2C272.6,102.5,268.1,105.1,265,104.6L265,104.6z"/>
	<g>
		<path class="st4" d="M365,310.6c-4,0.5-8.2,0.7-12.5,0.4c-11.5-0.7-21.6-4.1-28.9-9.1c-3.1,4.2-6,8.8-8.5,13.5
			c-10,18.4-15.6,46.1-13.4,58.2c0.1,0.4,0.2,0.7,0.2,1.1c-9.7-15.1-8.7-40.5,4.2-63.8c0.1-0.2,0.3-0.5,0.4-0.7
			c-2.7-5.4-4.4-11.9-6.1-15.7c-2.4-5.4-10.8-18-16.1-21.4c-4.7-3-11.2-5-17.2-5.6c-8.3,16.5-45.1,30-71,23.6
			c-27.4-6.8-45.6-26.7-40.7-44.5c0.9-3.3,2.6-6.4,4.9-9.1c0-2,0.2-4,0.8-6c1.6-5.3,5.3-9.7,10.5-13.1c0.1-2.2,0.2-4.3,0.4-6.3
			c-8.6-4.3-19.3-7.8-31.6-9.5c-15.2-2.1-28.7-0.9-39.3,2.1l0,0c-11.7,3-19.7,9.5-24.8,15.2c-8,4-15.1,12.4-18.6,23.4
			c-0.9,2.7-1.4,5.4-1.8,8.1c5.5-3.2,12.1-4.9,19.1-4.6c13.1,0.7,24,8.5,28.2,19c1.2-2.2,2.2-4.6,2.9-7.1
			c3.3-10.4,2.8-21.2-1.5-29.5c-0.8-1.6-2-3.5-3.6-5.2c6.8,2,10.6,6.4,12.7,10.5c1.5,7.2,1.5,15-0.3,22.5c2.9,0.9,5.8,1.8,9,2.5
			c1.6-2.4,3.1-5,3.9-7.3c1.8-4.8,3-16.7,3-16.7s4.8,4.2,3,17.3c-0.7,4.9-2.6,8.1-4.7,11.7c0,0.5-0.1,1-0.2,1.4
			c-9.3,21.3-1.6,52.1,21,75.9c27.6,29.1,66.9,36.6,87.8,16.9c3.9-3.7,6.9-8.1,9-13.1c-4.1-9.8-13.9-16.5-13.9-16.5
			c12.4-3.5,25.4,5.9,31,17.5c0.1,0.1,0.2,0.3,0.3,0.4c5.4,12.9,20.3,30.7,32.7,37.8c8.5,4.8,18.8,6.8,28.5,6.4c4.5,0.6,9,0,12-0.9
			c1.9-0.5,3.8-1.5,5.8-2.7c3.3-1.3,6.2-3,8.6-5c0.4-1,0.8-2.1,1.2-3.3c8.8-9.1,17-22.1,21.3-33.3c4.7-11.9,7.6-26.4,7.7-40.4
			C375.9,308.4,370.7,309.9,365,310.6L365,310.6z"/>
		<g>
			<path class="st4" d="M68.3,254.3c-2,0.3-3.9,0.9-5.7,1.6c-1.8,2.7-2.8,5.4-3.2,7.5c3.3-1.4,5.8-1.8,6.4-1.9c0,0,0.2,0,0.3-0.1
				C66,258.8,67.1,256.2,68.3,254.3z"/>
			<path class="st4" d="M95,264.8c-1.4-2-3.1-3.9-5.1-5.4c-2.8,1-5,2.5-6.5,3.6c1.5,0.9,2.9,1.9,4.1,3C90,264.8,92.8,264.6,95,264.8
				L95,264.8z"/>
			<path class="st4" d="M55.2,260.5c-3,2.8-5.1,6.2-6.1,10.1c1.9-2.1,4-3.7,6-4.9C54.8,263.9,54.9,262.1,55.2,260.5L55.2,260.5z"/>
			<path class="st4" d="M84.7,256.3c-2.9-1.3-6.1-2.1-9.6-2.4c-2.4,2.2-3.9,4.6-4.8,6.2c2.9-0.6,6.1-0.2,9.3,1
				C80.9,258.9,83,257.3,84.7,256.3L84.7,256.3z"/>
			<path class="st4" d="M90.7,269.5c0.8,1.1,2.4,3.3,3.8,6.1c1.3,0.2,2.6,0.6,3.8,1.1c0.1-2.2-0.2-4.2-0.8-6.3
				C95,269.6,92.6,269.4,90.7,269.5L90.7,269.5z"/>
		</g>
		<path class="st4" d="M371.9,291.7c-2.7-5.2-0.3-12-0.2-12.3l1.7,0.4c-0.3,4,4.8,8,5,8.1c0.7,0.8,1.2,1.6,1.6,2.4
			c1-1.6,1.5-3.3,1.5-5.1c0-3-1.8-4.5-1.9-7.4c-0.1-2.9,0.9-5,1-7.2c0-0.4,0-0.8,0-1.2c-0.4,1-0.8,1.9-1.3,2.8
			c1.2-0.1-7.2,5.4-17.9,7.4c-17.1,3.2-32.1-1-37.2-5.9c0,0.2,0,0.4,0,0.6c-0.4,3.1-2.6,3.7-2.7,6.6c-0.1,3.5,1.7,7,4.5,10
			c1.1-1.6,2.1-3.5,2.4-5.3l0.3-2.3l1.3,2c0.1,0.1,2.1,3.4,0.7,9.5c2.6,1.7,5.5,3.2,8.7,4.2c0.5-1,0.7-2,0.4-3.2
			c-1.4-5.7,2.6-11.7,2.8-12l1.6,0.7c-1.2,3.8,2.8,8.8,2.9,9c1.5,2.6,1.3,5.2,0.6,7.3c0.6,0.1,1.3,0.1,1.9,0.2
			c2.7,0.1,5.2,0,7.7-0.2c0.3-1.3,0.3-2.7-0.4-4c-2.7-5.2-0.3-12-0.2-12.3l1.7,0.3c-0.3,4,4.8,8,5,8.1c1.9,2,2.4,4.2,2.4,6.3
			c2.3-0.6,4.4-1.4,6.3-2.3C372.5,295.3,372.8,293.4,371.9,291.7L371.9,291.7z"/>
		<path class="st4" d="M263.7,258.8c-3.2,4.6-7.1,6.1-7.1,6.1c5.3-5.8,6.5-11.9,6.7-15c-0.4-1.8-1-3.1-1.6-4
			c-4.6,7.1-10.1,13.4-15.6,17.5c-11,6.4-29.5,9.9-45.2,5.3c-13.8-4-24.6-16.2-27.5-23.5c1.2-1.1,1.2-4.9-0.1-9.9
			c-0.8-3.1-1.3-6-1.5-8.9c-1.8,1.8-3.3,3.9-4.3,6.2c-2.7,6.4-1.1,12.9,0.7,17.1c2.1,4.9,5.5,9.6,9.9,13.8
			c-8.5-5.6-14.4-12.5-16.8-19.7c-0.5,0.9-0.9,1.9-1.2,2.9c-1,3.6-0.7,7,0.2,9.9c0.9-0.4,1.6-0.6,1.7-0.7c0.4-0.1,0.9,0,1.1,0.4
			c0.2,0.4,0.2,0.8,0,1.2c-0.6,0.8-1.1,1.8-1.4,2.7c0.4,0.8,0.7,1.5,1.1,2.1c0.2,0.4,0.6,0.8,0.8,1.2c1.4-1,2.6-1.6,2.7-1.6
			c0.4-0.2,0.9-0.1,1.1,0.3c0.3,0.3,0.3,0.8,0.1,1.1c-0.7,1.3-1.1,2.7-1.2,4c1,1.2,2.1,2.3,3.2,3.4c1.9-2,4.2-3.1,4.4-3.1
			c0.4-0.2,0.9-0.1,1.1,0.2s0.3,0.8,0.1,1.2c-1,1.7-1.2,3.7-1.2,5.3c1.4,1,2.8,2,4.3,2.9c1.8-3.2,5.5-4.9,5.7-4.9
			c0.4-0.2,0.9-0.1,1.1,0.2c0.3,0.3,0.3,0.8,0.1,1.2c-1.3,2.2-1.3,4.8-1.2,6.6c2.2,1,4.4,2,6.8,2.8c1.5-3.6,4.4-6,4.6-6.1
			c0.3-0.3,0.8-0.3,1.1-0.1c0.4,0.2,0.6,0.6,0.5,1c-0.3,1.9,0.1,5.3,0.4,7.2c2.1,0.5,4.2,0.8,6.5,1c0.8-4,3.6-7.1,3.7-7.2
			c0.3-0.3,0.7-0.4,1.1-0.3c0.4,0.2,0.6,0.5,0.6,0.9c0,1.9,0.9,5.1,1.5,6.9c2.1,0,4.2-0.1,6.4-0.3c0,0,0-0.1,0-0.1
			c1.5-1.8,2.2-3.3,1.2-6.2c-0.1-0.4,0-0.8,0.3-1c0.3-0.3,0.7-0.3,1.1-0.2c1.8,0.9,4.7,3.2,4.3,6.5c1.8-0.3,3.6-0.7,5.4-1.2
			c1.1-1.7,1.4-3.3,0.2-5.8c-0.2-0.4-0.1-0.8,0.2-1.1c0.3-0.3,0.7-0.4,1.1-0.3c1.8,0.6,4.6,2.4,4.9,5.3c1-0.3,1.9-0.6,2.9-1
			c0.5-0.2,1-0.4,1.5-0.6c1-1.7,1.3-3.2,0.1-5.7c-0.2-0.4-0.1-0.8,0.2-1.1c0.3-0.3,0.7-0.4,1.1-0.3c1.5,0.5,3.9,2,4.7,4.3
			c1.5-0.8,3-1.6,4.4-2.4c0.2-1.3,0-2.6-1.2-4.3c-0.2-0.3-0.2-0.8,0-1.1c0.2-0.3,0.6-0.5,1-0.5c1.4,0.2,3.5,1,4.8,2.7
			c4.2-3.3,7.1-6.8,8-10.1C263.7,260.9,263.8,259.9,263.7,258.8L263.7,258.8z"/>
	</g>
	<g>
		<g>
			<path class="st3" d="M185,306.5l-0.3,3l1.2,0.8l-1.3,13.1l-1.2-0.9l-0.3,2.9c2.6,1.9,3.6,2.6,6,4.5l0.3-3.1l-1.3-1l0.3-3l2.7-0.6
				l3.8,9.3l-2-1.8l-0.3,3c1.4,1.2,5.5,5,7.6,7.4l0.4-3.5l-1.4-1.4l-5.7-13.5l6.6-1.4l2.1,1.4l0.3-3.2c-1.9-1.4-6-4.4-7.9-5.6
				l-0.3,3l2.3,1.6l-7.8,1.8l0.7-6.8l1.2,0.9l0.3-2.9C188.2,308.5,188.1,308.4,185,306.5L185,306.5z"/>
			<path class="st3" d="M136.5,287.7l-0.3,3.5l1.4,0.1l-2,20.2l2.9,3c0,0,3.9-0.6,4.9-0.7c1.1-0.1,4.2-0.3,4.2-0.3l3.4-2.5l1.6-16.4
				l1.2,0.4l0.3-3.3c0,0-2.5-0.9-3.3-1.1c-0.8-0.2-3-0.9-3-0.9l-0.3,3.2l1.2,0.3l-1.5,15.1l-1.4,1.2l-4.7,0.3l-1.4-1.5l1.6-16.5
				l1.3,0.2l0.4-3.6c0,0-2.3-0.4-3.2-0.5C139.1,288.1,136.5,287.7,136.5,287.7L136.5,287.7z"/>
			<path class="st3" d="M158.7,293.3l-0.3,3.1l1.2,0.5l-1.4,14.2l-1.1-0.2l-0.3,3.3c0,0,2.8,0.6,3.6,0.8c0.8,0.2,2.9,0.8,2.9,0.8
				l0.3-3.1l-1.3-0.5l1-9.8l4.6,11.8l6.7-6.6l-0.9,9l-1.2-0.5l-0.3,3.3c0,0,2.3,1,3,1.4c0.8,0.4,3.1,1.7,3.1,1.7l0.3-3.2l-1.3-0.7
				l1.2-12.7l1.2,0.6l0.3-2.9l-4.8-2.6l-6.8,7l-4.7-12.5L158.7,293.3L158.7,293.3z"/>
			<path class="st3" d="M206.4,325.7l-1.6,15.9l2.3,5.6c0,0,1.5,1.7,4.2,5.3c2.6,3.4,4.2,5.6,4.2,5.6l3,0.5l0.5-5.2l-3.2-4.4
				l-0.2,2.5l-1.6,0l-4.2-5.3l-1.2-2.9l1.3-12.9l1.6-0.6l4.3,4l1.1,3l-0.3,3l3.5,4l0.4-4.4l-2.3-6.8c0,0-3.4-3.5-4.1-4.2
				c-0.7-0.7-4.3-3.8-4.3-3.8L206.4,325.7L206.4,325.7z"/>
		</g>
		<g>
			<path class="st3" d="M369,233.8c-5-7.9-4-24.7-18.9-27c-3.1-0.5-6.5,0.1-10.1,1.3c3.1,0.9,5.5,2.3,4.3,3.7
				c-1.8,2.3-8.4-2.3-15.9,0.4c-7.5,2.7-8.4,6.2-8.3,8.7c4.7,0.2,9.6,1.1,8.3,3.3c-1.8,3-7.1-1.1-14.8,3.8c-3.2,1.8-5.2,5.7-5.8,7.8
				c-5,17.2,8.4,22.3,8.4,22.3c-5-11.7,1.9-15.4,1.9-15.4c0.2,18,10.5,34.3,33.8,29.3c6-1.3,15.5-4.9,19.5-10.4
				C376.6,254.4,373.6,241.2,369,233.8L369,233.8z"/>
			<g>
				<path class="st3" d="M101.5,291c-0.2-2-1-4.8-3.6-6.8c-1.5-1.2-3.2-1.7-4.7-1.9c0.8,3,0.9,6-0.3,8.4c0.9,1.1,1.7,2.2,2.2,3.5
					c2.4-0.6,4.5-0.6,5.8,0.5c0.1,0.1,0.2,0.2,0.3,0.4C101.6,293.6,101.7,292.3,101.5,291L101.5,291z"/>
				<path class="st3" d="M96,296.8c1,4.7-0.2,10-3.8,14.5c-1.6,2-3.8,4.8-6.7,7.3c3.9,0.6,8.4-1.3,11.5-5.2c4.3-5.4,4.2-12.6-0.1-16
					C96.6,297.2,96.3,297,96,296.8L96,296.8z"/>
				<path class="st3" d="M91.8,298.6c-0.2-1.4-0.7-3.2-2-4.8c-0.3,0.2-0.6,0.3-0.9,0.4c0.1,5.3-2.7,10.9-8,14.4
					c-4.1,2.7-11.5,7.6-19.7,7.6c12.3,8,20.5,1.1,27.5-7.8C91.1,305.6,92.2,302,91.8,298.6L91.8,298.6z"/>
				<path class="st3" d="M78.5,305c3.1-2.1,5.3-5.2,5.9-8.5c0.1-0.4,0.1-0.9,0.2-1.4c-4.5,0-9.6-2-13.2-4.6
					c-0.1,0.1-0.2,0.1-0.3,0.2c0,0-1.1,0.8-1.6,1.2c-0.2,0.2-11.1,3.8-11.1,3.8l-2.6-0.9c-1.4-0.5-3.5-1.9-5.5-2.8
					c1.6-1.8,4.2-2.9,8.3-0.4c0.6-0.6,4.2-2.1,6.6-3.2c-1.2-1.7-3.7-4.1-9.2-5.7c0,0,2.9-2.7,9.7,0.1c-0.9-2.4-1.2-4.9-0.8-7.2
					c2.5,1,4.9,3.5,6.8,8.6c2.1,5.6,13.6,8,17.3,5c3.7-3-0.1-11.4-3.9-16c-3.8-4.6-11.6-7.6-15.4-4.5c-1.9,1.5-15,1-20.8,15
					c-2,2.8-3,5.9-3.3,8.7c-1.7,3.4,1.4,7.8,3.2,10.2C58.4,315.8,68.7,311.6,78.5,305L78.5,305z"/>
			</g>
			<path class="st3" d="M262.3,182.4c2.9,0,4.4-5.4,4.7-9.8c0.4-6.4-0.5-12.5-1.5-17.3c-3-3.2-6.7-3.2-9.9-1.7c0.1,0,0.2,0,0.3,0
				c2.4,1,3.4,5.8,2.2,8.8c-1.3,3.1-4.2,4.7-6.6,3.7c-1.6-0.7-2.5-2.4-2.5-4.4c-0.1,0.4-0.1,0.7-0.2,1.1
				C248.3,170.7,258.1,174.3,262.3,182.4L262.3,182.4z"/>
			<path class="st3" d="M243.1,162.9c1.3-14.2,11.3-19.8,16.2-21.7c-2.9-4.4-6.1-8.4-9.5-11.6c0.7-2.8,2.1-5.9,4.1-8.8
				c3-4.3,4.2-11.5,3.7-17.6c-0.8-10-4.6-10.5-5.2-18.2c-0.9-11.1,10.7-24.7,4.4-32.8c-1.5,4.9-3.6,9.9-5.7,14.7
				c-3.3,7.6-6.7,15.5-6.3,21.1c0.1,1.3,0.4,2.5,1,3.6l0.1,0.5c1.4,2.6,2.3,5.6,2.4,8.6c0.2,5,0.3,13.3-4.8,17.6
				c-1.8,1.5-3.8,2.8-5.9,3.7c-1.7-0.6-3.4-1.2-5.1-1.1c-17.1,0.2-26.9,7.5-26.9,7.5s0.1-4.4,3.2-8.4c-0.3-0.3-0.7-0.8-1-1.2
				c-2.1-0.3-9.6-2-12.4-13.4c0,0,4.3,1.3,7.4,1c0,0,0-0.1,0-0.1c-0.8-0.7-9.4-8.2-8.3-22.5c0,0,4.2,7.4,9.8,9.1
				c1.3-4.1,2.8-8.3,3.2-14.2c0.8-11.2-5.2-21.5-7.2-30.9c-9.3,9.8-14.4,24.7-13.1,40.7c0.7,9,3.4,17.7,7.9,25
				c2.2,3.6,5.1,8.4,5.5,13.7c0,0,0.7,3.6-0.4,6.5c-10.4,9.5-17.3,23.2-18.1,37.4c0,0-2,10.3,14.9,23.5c2.9-4.2,7.9-6.9,8.5-7.1
				c0.5-0.2,0.9,0,1.3,0.4c0.1,0.1,0.1,0.1,0.2,0.1c0.2,0.4,0.1,0.7,0,1.1c-0.1,0.1-0.1,0.3-0.2,0.4c-3.1,2.8-4.1,5.6-4.2,8.2
				c0,0.1-0.1,0.1-0.1,0.1c0,0.7,0,1.4,0.1,2.1c0.1,0.6,0.2,1.1,0.4,1.6c0,0,0,0.1,0,0.1c0.9,2.2,2.8,4,5.7,4.6c0,0,1.4,1.7,2.2,3.3
				c4.2,8.3,7.2,15.1,20.6,15.6c0,0,12.1,0.8,14.3-10.1c4.6-1.3,6.1-4.5,6.6-6.7c-2.4,1.1-5.6,1.7-7.9,1.5c-4.2-0.2-7.9-2.2-9.9-5.1
				l-0.5-0.7l-0.6,0.6c-3,3.4-6,4.6-10.3,4.4c-3.6-0.2-15.4-9.3-14-10.9c2.1-2.5,9.9,4.6,12,5.1c3,0.8,6.2-0.9,8.4-2.9
				c2.1-1.9,3.4-4.4,3.5-7.1c0.1-2.4-0.4-3.3-1.2-4.8l-0.1-0.1l-0.1-0.1c-4.1-3.8-6.1-6.7-6-8.8c0.1-1,0.4-1.7,1-2.2
				c1.3-1,3.5,1.6,6.1,2.1c1.5,0.3,3,0.6,4.5,0.6c1.7,0.1,4.6-0.7,4.6-0.7c1.9-0.2,3.3-2,4.2-1.1c0.6,0.5,0.8,1.4,0.7,2.5
				c-0.1,2-2.4,4.6-6.7,7.8c0,0-0.3,0.3-0.3,0.3c-1.2,1.1-2.3,2.2-2.5,4.9c0,0,0,0.8,0,0.8c0.1,5.8,3.1,10.1,7.3,10.3
				c1.9,0.1,6.6-0.6,8.6-2.3c1.2-2.1,2.3-4.8,2.5-9.4c0.4-9.7-4.7-15.3-8.5-20.3C244.6,169.5,242.8,166.5,243.1,162.9L243.1,162.9z
				 M227,214c2-1.6,7.2-3.8,12.3-0.2c0.6,0.4,0.8,1.1,0.6,1.8c-0.2,0.7-0.8,1.1-1.5,1.1l-10.3,0.2c-0.7,0-1.3-0.4-1.5-1.1
				C226.3,215.2,226.5,214.5,227,214L227,214z M203.4,158.5c-0.8-3.1,1-7.5,3.5-8.2c0.2-0.1,0.4,0.1,0.7,0.1
				c-3.7-3.5-7.6-3.5-10-3.5l-0.5,0c-0.5,0-0.9-0.2-1.1-0.7c-0.2-0.4-0.2-0.9,0-1.3c0.7-1.2,2.8-3.6,5.9-4.6
				c2.9-0.9,7.2-0.9,11.7,4.3c1.2,1.4,2.3,4.5,3.4,7.8c1.6,4.6,3,8.9,4.9,9c0.3,0,1,0,2.1-1.7c0.2-0.4,0.7-0.6,1.1-0.6
				c0.4,0,0.9,0.3,1.1,0.7c0.7,1.2,1,2.6,0.8,3.8c-0.1,1.2-0.6,2.2-1.4,3.1c-2.1,2.4-5.3,2.1-7.6,0.9c-1.6-0.8-4.6-6.5-5-7.6
				c-0.1-0.4-0.3-0.7-0.4-1.1c-0.3,2-1.5,3.7-3.3,4.1C206.9,163.7,204.2,161.6,203.4,158.5L203.4,158.5z"/>
			<path class="st3" d="M248.6,226c0,0-0.3,14.6-13.1,27.5c0,0,9.1-1.6,17.9-11.4c0,0-7.4,23.1-39.8,18.4c0,0-10.4-0.2-23.5-11.3
				c-13.1-11.1-8.9-45.4-2.4-49l6.3,5.5c0,0,0.9,6.2,8.2,8.6c0,0,9.5,13,14.3,15.1C223.4,232.4,240.2,237.2,248.6,226L248.6,226z"/>
		</g>
	</g>
	<g>
		<path class="st5" d="M235.3,170.3c-18.7-1-19.8,8.4-22.2,15.1c-2.2,0.4-4.7,1-6.5,2.3c0.1,0.1,0.1,0.1,0.2,0.1
			c0.2,0.4,0.1,0.7,0,1.1c-0.1,0.1-0.1,0.3-0.2,0.4c-3.1,2.8-4.1,5.6-4.2,8.2c0,0.1-0.1,0.1-0.1,0.1c0,0.7,0,1.4,0.1,2.1
			c0.1,0.6,0.2,1.1,0.4,1.6c0,0,0,0.1,0,0.1c0.9,2.2,2.8,4,5.7,4.6c0,0,1.4,1.7,2.2,3.3c4.2,8.3,7.2,15.1,20.6,15.6
			c0,0,12.1,0.8,14.3-10.1c4.6-1.3,6.1-4.5,6.6-6.7c-2.4,1.1-5.6,1.7-7.9,1.5c-4.2-0.2-7.9-2.2-9.9-5.1l-0.5-0.7l-0.6,0.6
			c-3,3.4-6,4.6-10.3,4.4c-3.6-0.2-15.4-9.3-14-10.9c2.1-2.5,9.9,4.6,12,5.1c3,0.8,6.2-0.9,8.4-2.9c2.1-1.9,3.4-4.4,3.5-7.1
			c0.1-2.4-0.4-3.3-1.2-4.8l-0.1-0.1l-0.1-0.1c-4.1-3.8-6.1-6.7-6-8.8c0.1-1,0.4-1.7,1-2.2c1.3-1,3.5,1.6,6.1,2.1
			c1.5,0.3,3,0.6,4.5,0.6c1.7,0.1,4.6-0.7,4.6-0.7c1.9-0.2,3.3-2,4.2-1.1c0.6,0.5,0.8,1.4,0.7,2.5c-0.1,2-2.4,4.6-6.7,7.8
			c0,0-0.3,0.3-0.3,0.3c-1.2,1.1-2.3,2.2-2.5,4.9c0,0,0,0.8,0,0.8c0.1,5.8,3.1,10.1,7.3,10.3c1.9,0.1,6.6-0.6,8.6-2.3
			c1.2-2.1,2.3-4.8,2.5-9.4c0.4-9.7-4.7-15.3-8.5-20.3C244,171.4,240.1,170.6,235.3,170.3L235.3,170.3z M227,214
			c2-1.6,7.2-3.8,12.3-0.2c0.6,0.4,0.8,1.1,0.6,1.8c-0.2,0.7-0.8,1.1-1.5,1.1l-10.3,0.2c-0.7,0-1.3-0.4-1.5-1.1
			C226.3,215.2,226.5,214.5,227,214L227,214z"/>
		<path class="st5" d="M235.5,253.5c12.9-13,13.1-27.5,13.1-27.5c-8.4,11.2-25.2,6.4-32.1,3.5c-4.8-2-14.3-15.1-14.3-15.1
			c-5.6-1.9-7.4-5.8-8-7.7c-2.2,3.4-7.2,13-4.3,26.1l8.6-7.4c0,0-7.2,16.6,3.9,31.9c6.7,3.1,11.2,3.2,11.2,3.2
			c32.4,4.7,39.8-18.4,39.8-18.4C244.5,251.9,235.5,253.5,235.5,253.5L235.5,253.5z"/>
	</g>
</g>
<path class="st4" d="M340.2,352.1h-2.4v6.6h-1.3v-6.6h-2.4v-1h6L340.2,352.1L340.2,352.1z M350.2,358.7h-1.2v-6.4h0l-2.5,6.4h-0.8
	l-2.5-6.4h0v6.4h-1.2v-7.6h1.9l2.3,5.8l2.2-5.8h1.9L350.2,358.7L350.2,358.7z"/>
</svg>
