<?xml version="1.0" encoding="UTF-8"?>
<svg id="Vrstva_1" data-name="Vrstva 1" xmlns="http://www.w3.org/2000/svg" viewBox="0 0 2656.04 2656.04">
  <path d="M2629.06,1060.42c-17.45-85.28-43.49-169.17-77.4-249.34-33.29-78.7-74.49-154.6-122.45-225.6-47.5-70.31-102.05-136.43-162.14-196.52-60.09-60.09-126.2-114.64-196.52-162.14-71-47.96-146.9-89.16-225.6-122.45-80.16-33.91-164.05-59.95-249.34-77.4C1508.13,9.08,1418.1,0,1328.02,0s-180.11,9.08-267.6,26.98c-85.28,17.45-169.17,43.49-249.34,77.4-78.7,33.29-154.6,74.49-225.6,122.45-70.31,47.5-136.43,102.05-196.52,162.14-60.09,60.09-114.64,126.2-162.14,196.52-47.96,71-89.16,146.9-122.45,225.6-33.91,80.16-59.95,164.05-77.4,249.34C9.08,1147.91,0,1237.94,0,1328.02s9.08,180.11,26.98,267.6c17.45,85.28,43.49,169.17,77.4,249.34,33.29,78.7,74.49,154.6,122.45,225.6,47.5,70.31,102.05,136.43,162.14,196.52,60.09,60.09,126.2,114.64,196.52,162.14,71,47.96,146.9,89.16,225.6,122.45,80.16,33.91,164.05,59.95,249.34,77.4,87.49,17.9,177.52,26.98,267.6,26.98s180.11-9.08,267.6-26.98c85.28-17.45,169.17-43.49,249.34-77.4,78.7-33.29,154.6-74.49,225.6-122.45,70.31-47.5,136.43-102.05,196.52-162.14,60.09-60.09,114.64-126.2,162.14-196.52,47.96-71,89.16-146.9,122.45-225.6,33.91-80.16,59.95-164.05,77.4-249.34,17.9-87.49,26.98-177.52,26.98-267.6s-9.08-180.11-26.98-267.6Z" fill="#06c" stroke-width="0"/>
  <path d="M1821.48,1415.03h0c-5.02,28.72-12.56,56.89-22.59,84.38-2.89,7.93-5.99,15.8-9.3,23.62-8.1,19.15-17.33,37.68-27.64,55.52-14.57,25.24-31.32,49.11-50.16,71.5-9.34,11.1-19.19,21.85-29.55,32.21s-21.09,20.22-32.2,29.55c-22.39,18.84-46.27,35.59-71.5,50.16-17.85,10.32-36.37,19.54-55.53,27.64-7.81,3.3-15.69,6.4-23.62,9.3-27.48,10.02-55.66,17.56-84.37,22.59h0c-28.52,4.99-57.57,7.5-87.01,7.5s-58.49-2.51-87.01-7.5h0l-.3,1.7c-58.8-10.34-114.11-30.93-164.01-59.85l.79-1.36c-25.23-14.57-49.11-31.32-71.5-50.16l-.99,1.17c-22.39-18.82-43.12-39.55-61.94-61.94l1.18-.99c-18.84-22.38-35.59-46.26-50.16-71.49-10.32-17.85-19.54-36.38-27.64-55.53-3.3-7.82-6.41-15.69-9.3-23.62-10.03-27.49-17.57-55.66-22.59-84.37h0c-4.99-28.52-7.5-57.58-7.5-87.01s2.51-58.49,7.5-87.01h0c5.02-28.72,12.56-56.9,22.59-84.38,2.89-7.93,5.99-15.81,9.3-23.63,8.1-19.15,17.32-37.68,27.63-55.52,14.58-25.23,31.33-49.11,50.16-71.5,9.34-11.1,19.2-21.85,29.55-32.2,10.36-10.36,21.09-20.22,32.2-29.55,22.39-18.84,46.27-35.59,71.5-50.16,17.85-10.32,36.37-19.54,55.53-27.64,7.81-3.3,15.69-6.4,23.62-9.3,27.48-10.03,55.66-17.57,84.37-22.59h0c28.52-4.99,57.57-7.5,87.01-7.5s58.49,2.51,87.01,7.5h0l.3-1.7c58.8,10.34,114.11,30.93,164.01,59.85l-.79,1.36c25.23,14.57,49.11,31.32,71.5,50.16l.99-1.17c22.39,18.82,43.12,39.55,61.94,61.94l-1.17.99c18.84,22.39,35.59,46.27,50.16,71.5,10.31,17.84,19.54,36.36,27.64,55.52,3.3,7.82,6.41,15.69,9.3,23.63,10.03,27.48,17.57,55.66,22.59,84.37h0c4.99,28.52,7.5,57.58,7.5,87.01s-2.51,58.49-7.5,87.01Z" fill="#5285af" stroke-width="0"/>
  <path d="M1328.02,1134.54c-106.85,0-193.47,86.63-193.47,193.48s86.62,193.47,193.47,193.47,193.47-86.62,193.47-193.47-86.62-193.48-193.47-193.48Z" fill="none" stroke-width="0"/>
  <path d="M1619.06,823.93l334.34-579.1c-124.18-71.98-261.82-123.21-408.13-148.94l-116.17,658.89c42.98,7.52,84.93,19.89,125.45,37.03,22.25,9.41,43.77,20.13,64.51,32.11Z" fill="none" stroke-width="0"/>
  <path d="M1036.98,1832.12l-334.34,579.09c124.18,71.98,261.82,123.21,408.13,148.93l116.17-658.88c-42.98-7.52-84.93-19.89-125.46-37.03-22.25-9.41-43.77-20.13-64.51-32.11Z" fill="none" stroke-width="0"/>
  <path d="M916.52,1739.53c-12.03-12.03-23.47-24.51-34.33-37.41l-512.08,429.69c46.83,55.71,98.41,107.3,154.12,154.12l429.69-512.08c-12.9-10.85-25.38-22.29-37.41-34.32Z" fill="none" stroke-width="0"/>
  <path d="M1821.48,1241.01c-5.02-28.72-12.56-56.89-22.59-84.37-2.89-7.93-5.99-15.81-9.3-23.63-8.1-19.15-17.33-37.67-27.64-55.52-14.57-25.24-31.32-49.12-50.16-71.5l1.17-.99c-18.82-22.39-39.55-43.12-61.94-61.94l-.99,1.17c-22.39-18.84-46.27-35.59-71.5-50.16l.79-1.36c-49.91-28.93-105.21-49.51-164.01-59.85l-.3,1.7h0c-28.52-4.99-57.57-7.5-87.01-7.5s-58.49,2.51-87.01,7.5h0c-28.72,5.02-56.89,12.56-84.37,22.59-7.93,2.9-15.81,5.99-23.62,9.3-19.16,8.1-37.68,17.32-55.53,27.64-25.23,14.57-49.11,31.32-71.5,50.16-11.1,9.33-21.84,19.19-32.2,29.55-10.35,10.35-20.21,21.09-29.55,32.2-18.84,22.39-35.59,46.27-50.16,71.5-10.31,17.84-19.53,36.37-27.63,55.52-3.3,7.82-6.41,15.69-9.3,23.63-10.03,27.48-17.57,55.66-22.59,84.37h0c-4.99,28.52-7.5,57.58-7.5,87.01s2.51,58.49,7.5,87.01h0c5.02,28.72,12.56,56.89,22.59,84.38,2.89,7.93,5.99,15.8,9.3,23.62,8.1,19.15,17.32,37.68,27.64,55.53,14.57,25.23,31.32,49.11,50.16,71.49l-1.18.99c18.82,22.39,39.55,43.12,61.94,61.94l.99-1.17c22.39,18.84,46.27,35.59,71.5,50.16l-.79,1.36c49.91,28.93,105.21,49.51,164.01,59.85l.3-1.7h0c28.52,4.99,57.57,7.5,87.01,7.5s58.49-2.51,87.01-7.5h0c28.72-5.03,56.89-12.57,84.37-22.59,7.93-2.9,15.81-5.99,23.62-9.3,19.16-8.1,37.68-17.32,55.53-27.64,25.23-14.57,49.11-31.32,71.5-50.16,11.1-9.33,21.84-19.19,32.2-29.55s20.21-21.1,29.55-32.21c18.84-22.39,35.59-46.26,50.16-71.5,10.31-17.84,19.54-36.37,27.64-55.52,3.3-7.82,6.41-15.69,9.3-23.62,10.03-27.49,17.57-55.66,22.59-84.37h0c4.99-28.52,7.5-57.58,7.5-87.01s-2.51-58.49-7.5-87.01h0Z" fill="#fff" stroke-width="0"/>
  <circle cx="1328.02" cy="1328.03" r="423.95" transform="translate(-550.09 1328.02) rotate(-45)" fill="none" stroke-width="0"/>
  <path d="M2131.81,370.11l-429.69,512.09c12.9,10.85,25.38,22.29,37.41,34.32,12.03,12.03,23.47,24.51,34.32,37.41l512.08-429.69c-46.83-55.71-98.41-107.3-154.12-154.12Z" fill="none" stroke-width="0"/>
  <circle cx="1328.02" cy="1328.03" r="423.95" transform="translate(-550.09 1328.02) rotate(-45)" fill="#06c" stroke-width="0"/>
  <path d="M1328.02,1521.5c-106.85,0-193.47-86.62-193.47-193.47s86.62-193.48,193.47-193.48,193.47,86.63,193.47,193.48-86.62,193.47-193.47,193.47Z" fill="#fff" stroke-width="0"/>
  <path d="M1545.28,95.9c146.31,25.72,283.94,76.96,408.13,148.94l-334.34,579.1c-20.74-11.98-42.25-22.7-64.51-32.11-40.53-17.14-82.47-29.51-125.45-37.03l116.17-658.89Z" fill="#ffdc00" stroke-width="0"/>
  <path d="M524.24,2285.93c-55.71-46.83-107.3-98.41-154.12-154.12l512.08-429.69c10.85,12.9,22.3,25.38,34.33,37.41,12.03,12.03,24.51,23.47,37.41,34.32l-429.69,512.08Z" fill="#ffdc00" stroke-width="0"/>
  <path d="M1110.77,2560.15c-146.31-25.72-283.94-76.96-408.13-148.93l334.34-579.09c20.74,11.98,42.25,22.7,64.51,32.11,40.53,17.14,82.47,29.51,125.46,37.03l-116.17,658.88Z" fill="#ffdc00" stroke-width="0"/>
  <path d="M1773.85,953.93c-10.85-12.9-22.29-25.38-34.32-37.41-12.03-12.03-24.51-23.47-37.41-34.32l429.69-512.09c55.71,46.83,107.3,98.41,154.12,154.12l-512.08,429.69Z" fill="#ffdc00" stroke-width="0"/>
</svg>