<?xml version="1.0" encoding="utf-8"?>
<!-- Generator: Adobe Illustrator 28.1.0, SVG Export Plug-In . SVG Version: 6.00 Build 0)  -->
<svg version="1.1" id="Layer_1" xmlns="http://www.w3.org/2000/svg" xmlns:xlink="http://www.w3.org/1999/xlink" x="0px" y="0px"
	 viewBox="0 0 373 384" style="enable-background:new 0 0 373 384;" xml:space="preserve">
<style type="text/css">
	.st0{fill:#FFFFFF;stroke:#0066CC;stroke-width:12.249;stroke-linecap:round;stroke-linejoin:round;stroke-miterlimit:10;}
	.st1{fill:#FFD42F;stroke:#0066CC;stroke-width:12.249;stroke-linecap:round;stroke-linejoin:round;stroke-miterlimit:10;}
</style>
<g>
	<g>
		<path class="st0" d="M279.22,220.55h-7.75c7.25,1.79,12.66,8.36,12.66,16.14c0,4.56-1.87,8.73-4.88,11.76
			c-3.03,3.01-7.18,4.88-11.77,4.88h-12.29c-0.07,0-0.08,0.09-0.01,0.1c7.74,1.4,13.67,8.22,13.67,16.36
			c0,4.59-1.87,8.73-4.88,11.76c-1.28,1.28-2.77,2.34-4.41,3.15c-1.17,0.27-2.3,0.54-3.47,0.81h-86.64
			c-0.05-0.03-0.11-0.03-0.16-0.05h-11.74c-3.64,0-7.2-1.19-10.1-3.38l-6.09-4.55c-4.43-3.31-7.04-8.52-7.04-14.05v-83.41
			c0-0.01,0.01-0.02,0.01-0.03L163.36,134c3.75-5.93,5.7-12.79,5.62-19.81l-0.32-28.96c-0.05-5.86,4.22-10.87,10.02-11.69
			c7.6-1.06,18.12,0.98,26.61,15.77c0,0,13.72,24.87,1.95,58.06c-0.26,0.76-0.5,1.48-0.69,2.19h62.55c9.5,0,18.11,6.59,19.63,15.96
			c1.05,6.46-1.21,12.49-5.34,16.61c-2.51,2.51-5.67,4.33-9.23,5.12h4.33c9.42,0,17.62,7.7,17.36,17.12
			c-0.13,4.41-1.98,8.36-4.88,11.29C287.95,218.67,283.78,220.55,279.22,220.55z"/>
	</g>
	<g>
		<path class="st1" d="M113.86,278.38H81.03c-2.14,0-3.9-1.75-3.9-3.9v-97.41c0-2.14,1.75-3.9,3.9-3.9h32.83
			c2.14,0,3.9,1.75,3.9,3.9v97.41C117.76,276.63,116.01,278.38,113.86,278.38z"/>
	</g>
</g>
</svg>
