<?xml version="1.0" encoding="utf-8"?>
<!-- Generator: Adobe Illustrator 28.1.0, SVG Export Plug-In . SVG Version: 6.00 Build 0)  -->
<svg version="1.1" xmlns="http://www.w3.org/2000/svg" xmlns:xlink="http://www.w3.org/1999/xlink" x="0px" y="0px"
	 viewBox="0 0 2000 2000" style="enable-background:new 0 0 2000 2000;" xml:space="preserve">
<style type="text/css">
	.st0{fill:#FFFFFF;}
	.st1{fill:#0066CC;}
	.st2{fill:#FFD52E;}
</style>
<g id="Background">
</g>
<g id="Object">
	<g>
		<rect x="658.72" y="635.29" class="st0" width="738.9" height="738.9"/>
		<g>
			<path class="st1" d="M1397.57,1007.05c-0.01,184.75,0.03,369.5-0.03,554.25c-0.03,85.61-42.34,127.65-128.37,127.66
				c-180.78,0.04-361.55,0.07-542.33-0.01c-81.66-0.04-124.38-42.96-124.4-125.43c-0.1-370.49-0.09-740.99,0-1111.48
				c0.02-83.99,42.43-126.01,126.85-126.05c181.77-0.08,363.54-0.09,545.31,0.01c79.6,0.04,123.07,44.18,123.02,123.82
				C1397.5,635.56,1397.58,821.31,1397.57,1007.05z M1335.46,1006.52c0-114.16-0.45-228.33,0.41-342.48
				c0.16-20.8-6.26-27.06-26.99-27c-205.49,0.65-410.98,0.68-616.47-0.03c-21.47-0.07-26.2,7.44-26.15,27.5
				c0.62,227.33,0.72,454.66-0.12,681.98c-0.08,22.56,6.3,28.1,28.38,28.01c204.49-0.84,408.99-0.88,613.49,0.04
				c22.82,0.1,28.13-6.72,27.93-28.52C1334.91,1232.86,1335.46,1119.69,1335.46,1006.52z M1001.51,1438.91
				c-103.25,0-206.5,0.01-309.76-0.02c-12.92,0-26.02-2.57-25.39,18.37c1.17,38.68-0.75,77.47,0.76,116.13
				c1.42,36.42,17.98,50.67,55.17,50.7c185.65,0.1,371.31,0.1,556.96,0.01c40.54-0.02,55.11-14.27,56.03-55.7
				c0.72-32.75-1.33-65.61,0.67-98.25c1.48-24.13-4.92-32.29-30.66-31.89C1204.05,1439.83,1102.77,1438.9,1001.51,1438.91z
				 M1000.74,573.72c102.29,0,204.58-0.01,306.87,0.01c12.9,0,26.1,2.47,25.48-18.38c-1.12-37.71,0.79-75.52-0.81-113.19
				c-1.41-32.99-18.16-47.62-51.66-47.65c-186.7-0.2-373.41-0.19-560.11-0.01c-35.67,0.03-52.25,16-53.57,52.36
				c-1.08,29.75,1.61,59.73-0.81,89.33c-2.37,28.96,4.97,39.18,36.7,38.42C802.08,572.22,901.42,573.73,1000.74,573.72z"/>
			<path class="st1" d="M1001.11,1554.93c-18.06-2.43-31.72-11.01-31.21-31.5c0.51-20.42,14.63-30.2,33.16-29.61
				c19.37,0.62,31.06,13.98,30.13,33C1032.31,1544.6,1020.26,1554.66,1001.11,1554.93z"/>
			<path class="st1" d="M1001.84,515.48c-25.75-0.03-51.51-0.1-77.26,0c-21.24,0.08-34.65-9.81-35.15-31.42
				c-0.52-22.07,13.96-32.35,34.29-32.64c51.49-0.72,103.01-0.75,154.5-0.03c19.85,0.28,35.12,9.01,35.02,31.79
				c-0.1,24.12-15.2,32.42-37.12,32.34C1051.36,515.44,1026.6,515.51,1001.84,515.48z"/>
		</g>
		<path class="st2" d="M878.53,861.07H767.31c-8.96,0-16.23-7.27-16.23-16.23V733.62c0-8.96,7.27-16.23,16.23-16.23h111.22
			c8.96,0,16.23,7.27,16.23,16.23v111.22C894.76,853.81,887.5,861.07,878.53,861.07z"/>
		<path class="st2" d="M1237.72,861.07H1126.5c-8.96,0-16.23-7.27-16.23-16.23V733.62c0-8.96,7.27-16.23,16.23-16.23h111.22
			c8.96,0,16.23,7.27,16.23,16.23v111.22C1253.95,853.81,1246.68,861.07,1237.72,861.07z"/>
		<path class="st2" d="M1058.13,861.07H946.91c-8.96,0-16.23-7.27-16.23-16.23V733.62c0-8.96,7.27-16.23,16.23-16.23h111.22
			c8.96,0,16.23,7.27,16.23,16.23v111.22C1074.36,853.81,1067.09,861.07,1058.13,861.07z"/>
		<path class="st2" d="M878.53,1086.85H767.31c-8.96,0-16.23-7.27-16.23-16.23V959.4c0-8.96,7.27-16.23,16.23-16.23h111.22
			c8.96,0,16.23,7.27,16.23,16.23v111.22C894.76,1079.58,887.5,1086.85,878.53,1086.85z"/>
		<path class="st2" d="M1237.72,1086.85H1126.5c-8.96,0-16.23-7.27-16.23-16.23V959.4c0-8.96,7.27-16.23,16.23-16.23h111.22
			c8.96,0,16.23,7.27,16.23,16.23v111.22C1253.95,1079.58,1246.68,1086.85,1237.72,1086.85z"/>
		<path class="st2" d="M1058.13,1086.85H946.91c-8.96,0-16.23-7.27-16.23-16.23V959.4c0-8.96,7.27-16.23,16.23-16.23h111.22
			c8.96,0,16.23,7.27,16.23,16.23v111.22C1074.36,1079.58,1067.09,1086.85,1058.13,1086.85z"/>
		<path class="st2" d="M878.53,1312.62H767.31c-8.96,0-16.23-7.27-16.23-16.23v-111.22c0-8.96,7.27-16.23,16.23-16.23h111.22
			c8.96,0,16.23,7.27,16.23,16.23v111.22C894.76,1305.36,887.5,1312.62,878.53,1312.62z"/>
		<path class="st2" d="M1237.72,1312.62H1126.5c-8.96,0-16.23-7.27-16.23-16.23v-111.22c0-8.96,7.27-16.23,16.23-16.23h111.22
			c8.96,0,16.23,7.27,16.23,16.23v111.22C1253.95,1305.36,1246.68,1312.62,1237.72,1312.62z"/>
		<path class="st2" d="M1058.13,1312.62H946.91c-8.96,0-16.23-7.27-16.23-16.23v-111.22c0-8.96,7.27-16.23,16.23-16.23h111.22
			c8.96,0,16.23,7.27,16.23,16.23v111.22C1074.36,1305.36,1067.09,1312.62,1058.13,1312.62z"/>
	</g>
</g>
</svg>
