<?xml version="1.0" encoding="utf-8"?>
<!-- Generator: Adobe Illustrator 28.1.0, SVG Export Plug-In . SVG Version: 6.00 Build 0)  -->
<svg version="1.1" id="Layer_1" xmlns="http://www.w3.org/2000/svg" xmlns:xlink="http://www.w3.org/1999/xlink" x="0px" y="0px"
	 viewBox="0 0 4000 4000" style="enable-background:new 0 0 4000 4000;" xml:space="preserve">
<style type="text/css">
	.st0{clip-path:url(#SVGID_00000164486224497240463480000015042161321817444016_);}
	.st1{fill:#FFC72C;}
	.st2{fill:#0066CC;}
	.st3{fill:#7ACBF2;}
	.st4{fill:#F26726;}
	.st5{fill:#004B87;}
	.st6{fill:#EDEEEF;}
	.st7{fill:#FFFFFF;}
</style>
<g>
	<g>
		<defs>
			<rect id="SVGID_1_" x="298" y="657.44" width="3487.67" height="1717.81"/>
		</defs>
		<clipPath id="SVGID_00000158716363832463892930000014671277554781354642_">
			<use xlink:href="#SVGID_1_"  style="overflow:visible;"/>
		</clipPath>
		<g style="clip-path:url(#SVGID_00000158716363832463892930000014671277554781354642_);">
			<path class="st1" d="M590.51,2390.86c122.31-836.32,735.7-1470.87,1470.21-1466.97c729.97,3.87,1333.04,637.02,1451.04,1466.97
				h195.83c-31.5-942.16-749.32-1697.47-1634.81-1702.17c-890.94-4.72-1620.92,752.21-1655.05,1702.17H590.51z"/>
			<path class="st2" d="M728.9,2661.54c109.73-836.32,660.03-1470.87,1319-1466.97c654.9,3.87,1195.94,637.02,1301.8,1466.97h175.69
				c-28.26-942.16-672.25-1697.47-1466.67-1702.17c-799.31-4.72-1454.22,752.21-1484.84,1702.17H728.9z"/>
			<path class="st3" d="M857.98,2927.02c97.93-836.31,589.02-1470.87,1177.1-1466.97c584.44,3.87,1067.28,637.02,1161.75,1466.97
				h156.79c-25.22-942.16-599.93-1697.47-1308.88-1702.17c-713.32-4.72-1297.77,752.21-1325.09,1702.17H857.98z"/>
			<path class="st4" d="M973.63,3234.15c87.67-856.78,527.33-1506.85,1053.8-1502.86c523.22,3.96,955.49,652.6,1040.06,1502.86
				h140.37c-22.58-965.21-537.09-1739-1171.78-1743.81c-638.6-4.84-1161.83,770.61-1186.3,1743.81H973.63z"/>
			<path class="st5" d="M1089.27,3463.19c77.41-836.32,465.63-1470.87,930.51-1466.97c462.01,3.87,843.7,637.02,918.38,1466.97
				h123.94c-19.94-942.16-474.25-1697.47-1034.69-1702.17c-563.89-4.72-1025.9,752.21-1047.5,1702.17H1089.27z"/>
		</g>
	</g>
	<g>
		<path class="st6" d="M1240.57,2247.53c-67.52,0-130.79,20.22-185.19,55.49c-63.32-93.81-152.76-152.3-251.89-152.3
			c-98.69,0-187.78,57.97-251.05,151.06c-30.72-8.59-63.1-13.19-96.56-13.19C258.23,2288.6,98,2448.82,98,2646.47
			s160.23,357.88,357.88,357.88c35.95,0,70.65-5.32,103.38-15.19c62.78,87.37,149.03,141.32,244.23,141.32
			c91.28,0,174.32-49.6,236.34-130.69c57.74,41.83,126.68,66.16,200.74,66.16c203.32,0,368.14-183.21,368.14-409.21
			C1608.71,2430.74,1443.89,2247.53,1240.57,2247.53z"/>
		<path class="st7" d="M1240.57,2173.2c-67.52,0-130.79,20.22-185.19,55.49c-63.32-93.81-152.76-152.3-251.89-152.3
			c-98.69,0-187.78,57.97-251.05,151.06c-30.72-8.59-63.1-13.19-96.56-13.19C258.23,2214.27,98,2374.5,98,2572.15
			c0,197.65,160.23,357.88,357.88,357.88c35.95,0,70.65-5.32,103.38-15.19c62.78,87.37,149.03,141.32,244.23,141.32
			c91.28,0,174.32-49.6,236.34-130.69c57.74,41.83,126.68,66.16,200.74,66.16c203.32,0,368.14-183.21,368.14-409.21
			C1608.71,2356.41,1443.89,2173.2,1240.57,2173.2z"/>
	</g>
	<g>
		<path class="st6" d="M3581.86,2230.64c-67.52,0-130.79,20.22-185.19,55.49c-63.32-93.81-152.76-152.3-251.89-152.3
			c-98.69,0-187.78,57.97-251.05,151.06c-30.72-8.59-63.1-13.19-96.56-13.19c-197.65,0-357.88,160.23-357.88,357.88
			s160.23,357.88,357.88,357.88c35.95,0,70.65-5.32,103.38-15.19c62.78,87.37,149.03,141.32,244.23,141.32
			c91.28,0,174.32-49.6,236.34-130.69c57.74,41.83,126.68,66.16,200.74,66.16c203.32,0,368.14-183.21,368.14-409.21
			C3950,2413.85,3785.18,2230.64,3581.86,2230.64z"/>
		<path class="st7" d="M3581.86,2173.2c-67.52,0-130.79,20.22-185.19,55.49c-63.32-93.81-152.76-152.3-251.89-152.3
			c-98.69,0-187.78,57.97-251.05,151.06c-30.72-8.59-63.1-13.19-96.56-13.19c-197.65,0-357.88,160.23-357.88,357.88
			c0,197.65,160.23,357.88,357.88,357.88c35.95,0,70.65-5.32,103.38-15.19c62.78,87.37,149.03,141.32,244.23,141.32
			c91.28,0,174.32-49.6,236.34-130.69c57.74,41.83,126.68,66.16,200.74,66.16c203.32,0,368.14-183.21,368.14-409.21
			C3950,2356.41,3785.18,2173.2,3581.86,2173.2z"/>
	</g>
</g>
</svg>
