<?xml version="1.0" encoding="utf-8"?>
<!-- Generator: Adobe Illustrator 28.1.0, SVG Export Plug-In . SVG Version: 6.00 Build 0)  -->
<svg version="1.1" id="Layer_1" xmlns="http://www.w3.org/2000/svg" xmlns:xlink="http://www.w3.org/1999/xlink" x="0px" y="0px"
	 viewBox="0 0 432 432" style="enable-background:new 0 0 432 432;" xml:space="preserve">
<style type="text/css">
	.st0{fill:#FFFFFF;}
	.st1{fill:none;stroke:#FFFFFF;stroke-width:14;stroke-linecap:round;stroke-linejoin:round;stroke-miterlimit:10;}
	.st2{fill:none;}
	.st3{fill:#FFC629;}
	.st4{fill:#004987;}
	.st5{fill:#3D7CC9;}
</style>
<g>
	
		<image style="overflow:visible;opacity:0.3;" width="394" height="375" xlink:href="6BB792B19DDD96F1.png"  transform="matrix(1 0 0 1 19 26)">
	</image>
	<g>
		<g>
			<g>
				<g>
					<g>
						<path class="st0" d="M388,242.8c12.5,57.4,9.4,87.4-12,114.9l-0.1,0.2c-1.1,1.4-2.4,3-4.6,4.2c-2.5,1.4-5.5,1.7-8.4,0.9
							c-16.5-4.7-28.6-9.7-41.1-21.2l-0.3,0l-1.2-1.4c-0.4-0.4-0.8-0.8-1.2-1.2c-1.7-1.6-3.5-3.4-5.2-5.5
							c-9.4,9.7-35,32.1-83.4,48.6c-1.7,0.6-3.5,0.9-5.2,0.9s-3.5-0.3-5.3-0.8c-8-2.5-22.7-8-37.6-15.6
							c-18.1-9.2-32.2-18.9-41.9-29.1c-3.8,1.8-8.5,3.6-13.5,4.3l-2.2,0.3l-2.1-0.7c-0.7-0.2-16.7-5.7-35.6-22.5
							c-16.7-14.9-39.4-42.3-52.3-88.1c-0.4-1.5-0.6-2.9-0.5-4.2c0.1-2.2,0.7-4.3,1.8-6.1c14.2-24,39.3-42.6,70.7-52.3
							c24.1-7.4,49.7-9,71.4-4.3v-5.5c0-0.4-0.2-0.9-0.5-1.2l-0.8-0.8c-2-2-3.1-4.7-3.1-7.5s1.1-5.5,3.1-7.5l9.1-9.1
							c-4.2-10-22.1-52.3-25.7-61.1c-2-4.9-2.7-10.5-1.9-15.6c1-6.2,4-10.9,8.5-13.1c3.7-1.8,13.4-4.4,22.7,11.5
							c5.8,9.9,11.8,15,17.7,20c6.2,5.3,12.6,10.8,16.7,20.5c0.4,1,0.8,2.1,1.2,3.1c0.5-1.4,0.9-2.5,1.2-3.1
							c4.1-9.8,10.5-15.2,16.7-20.5c5.8-5,11.9-10.1,17.7-20c9.3-15.9,19-13.4,22.7-11.5c4.5,2.2,7.6,6.9,8.5,13.1
							c0.8,5.1,0.1,10.8-1.9,15.6c-2.7,6.8-11.7,27.8-18.9,44.7c-2.8,6.6-5.3,12.4-7,16.4l9,9c3.6,4,4.8,10.6,0.6,14.8l-1.4,1.4
							c-0.3,0.3-0.5,0.7-0.5,1.2v22.2c2.7-0.4,5.7-0.7,8.8-0.8c0.7-4.8,2.4-9.4,5-13.5c2.9-4.5,8-6.9,14.1-6.9c0.1,0,0.3,0,0.4,0
							c1.8-4,4.6-8.1,10.4-10.5c3.5-1.4,7.4-1.6,11.3-0.6c2.4-2.4,5.2-4.2,8.5-5.3c4.8-1.6,10.2-0.5,15.7,3.2
							c3.9,2.6,7.7,6.6,10.3,10.7C360.9,164.7,379.9,205.7,388,242.8L388,242.8z M372,354.5c20-25.6,23.4-54.2,11.1-110.7
							c-7.9-36.1-26.6-76.8-31.1-83.9c-4-6.4-12.9-14.2-20.1-11.8c-4,1.3-6.7,3.9-8.4,6.5c-3.2-1.4-7.2-2.2-11.1-0.6
							c-5.4,2.2-7.1,6.2-9.1,11.2c-4.8-0.9-10.6-0.3-13.5,4.2c-3.1,4.8-4.6,10.1-4.6,15.8c-7.7-0.2-15.2,0.8-18.6,2v-28.5
							c0-1.8,0.7-3.5,2-4.8l1.4-1.4c2.1-2.1,1.2-5.7-0.8-7.9l-10.1-10.1c-0.7-0.7-0.9-1.7-0.5-2.6c5.4-12.8,22.7-52.9,26.6-62.7
							c3.2-8,2.3-19.1-4.2-22.3c-3-1.5-9.2-2.3-16.1,9.6c-6.2,10.6-12.9,16.3-18.8,21.3c-6,5.1-11.7,10-15.3,18.6
							c-0.6,1.3-1.7,4.5-2.6,8.7c-0.2,1-0.4,2.7-0.4,2.7c-2.1,0.5-3.6,1.3-4.9,2.2c-0.2-1.3-0.6-3.6-0.9-4.9
							c-0.7-2.9-1.6-5.8-2.8-8.8c-3.6-8.6-9.3-13.5-15.3-18.6c-5.9-5-12.5-10.7-18.8-21.3c-6.9-11.8-13.1-11.1-16.1-9.6
							c-6.5,3.2-7.4,14.3-4.2,22.3c3.7,9.1,22.6,53.9,26.3,62.7c0.4,0.9,0.2,1.9-0.5,2.6L180.2,145c-2.2,2.2-2.2,5.7,0,7.9l0.8,0.8
							c1.3,1.3,2,3,2,4.8v11.9c-21.9-6.1-49.4-5.2-74.9,2.7c-30.3,9.4-54.3,27.1-67.8,50c-0.7,1.1-1,2.4-1.1,3.8
							c0,0.9,0.1,1.8,0.4,2.7c12.6,44.6,34.5,71.2,50.9,85.7c18.1,16.1,33.2,21.2,33.8,21.5l1,0.3l1-0.2c5.8-0.9,11.4-3.4,15.4-5.6
							c21.6,24.9,66.6,42,79.9,46.1c2.4,0.8,5,0.8,7.4,0c61.4-21,85.3-51.7,85.3-51.7c2.4,3.3,5.3,6.7,8.4,9.6
							c0.6,0.5,1.1,1.1,1.5,1.5c0,0,0,0,0.1,0h0c12.1,11.5,23.5,16.3,40.2,21.1c1.5,0.4,3.2,0.3,4.6-0.5S371.1,355.7,372,354.5z"/>
						<path class="st0" d="M89.9,208.1c0,0,12.2,4.2,17.1,17.1c4.5,11.8,3.1,28.3,3.1,28.3c2.2-1.4,4.3-2.5,6.3-3.5
							c0,0,1.8-11.7-3.8-26.2C106.6,207.9,90.4,208.1,89.9,208.1z M251.6,333.2c-1.9,2.6-4.7,5.1-6.8,5.4
							c-8.7,1.2-17.4,1.7-26.2,1.6c0,2.5,0,5,0,7.5c9.4,0.1,18.8-0.5,28.2-1.8c5.5-1,12.8-8.8,15.8-14.9
							C258.9,331.8,255.2,332.6,251.6,333.2z M310.6,320.8c-8.7-13.4-10.6-30-10.6-30s-4.3,9.7-0.9,18
							C302.4,316.7,310.1,320.6,310.6,320.8z M383.1,243.8c12.4,56.5,9,85.1-11.1,110.7c-0.9,1.2-1.8,2.3-3.1,3.1s-3,0.9-4.6,0.5
							c-16.8-4.8-28.1-9.6-40.2-21.1h0c0,0,0,0-0.1,0c-0.4-0.5-1-1-1.5-1.5c-3.1-2.9-6-6.3-8.4-9.6c0,0-23.9,30.7-85.3,51.7
							c-2.4,0.8-4.9,0.8-7.4,0c-13.3-4.1-58.2-21.3-79.9-46.1c-4,2.2-9.5,4.7-15.4,5.6l-1,0.2l-1-0.3c-0.6-0.2-15.7-5.4-33.8-21.5
							c-16.3-14.5-38.3-41.1-50.9-85.7c-0.2-0.9-0.4-1.8-0.4-2.7c0.1-1.3,0.4-2.6,1.1-3.8c13.5-22.9,37.6-40.7,67.8-50
							c25.6-7.9,53.1-8.8,74.9-2.7v-11.9c0-1.8-0.7-3.5-2-4.8l-0.8-0.8c-2.2-2.2-2.2-5.7,0-7.9l10.3-10.3c0.7-0.7,0.9-1.7,0.5-2.6
							c-3.7-8.8-22.6-53.6-26.3-62.7c-3.2-8-2.3-19.1,4.2-22.3c3.1-1.5,9.2-2.3,16.1,9.6c6.2,10.6,12.9,16.3,18.8,21.3
							c6,5.1,11.7,10,15.3,18.6c1.2,2.9,2.1,5.8,2.8,8.8c0.3,1.2,0.8,3.6,0.9,4.9c1.3-0.9,2.9-1.7,4.9-2.2c0,0,0.2-1.7,0.4-2.7
							c0.9-4.2,2.1-7.4,2.6-8.7c3.6-8.7,9.3-13.5,15.3-18.6c5.9-5,12.5-10.7,18.8-21.3C271.8,44.8,278,45.5,281,47
							c6.5,3.2,7.4,14.3,4.2,22.3c-4,9.7-21.2,49.9-26.6,62.7c-0.4,0.9-0.2,2,0.5,2.6l10.1,10.1c2,2.2,2.9,5.8,0.8,7.9l-1.4,1.4
							c-1.3,1.3-2,3-2,4.8v28.5c3.4-1.2,10.9-2.2,18.6-2c0-5.7,1.5-11,4.6-15.8c2.9-4.6,8.8-5.1,13.5-4.2c2-5,3.7-9,9.1-11.2
							c3.9-1.6,7.9-0.8,11.1,0.6c1.7-2.6,4.5-5.1,8.4-6.5c7.2-2.4,16.1,5.4,20.1,11.8C356.5,167.1,375.2,207.8,383.1,243.8z
							 M371.8,242.9c0,0,2.2-1.5,1.7-3c-0.2-0.3-6.6-22.3-6.6-22.8c-0.4-1.5-2.8-1.7-2.8-1.7s-2,1.5-1.6,3c0,0.5,5.9,22.5,6.1,22.8
							C369.1,242.7,371.8,242.9,371.8,242.9z M363.1,243.3c0,0,2.2-1.5,1.8-3c-0.2-0.3-5.8-22.5-5.8-22.8c-0.4-1.5-2.8-1.7-2.8-1.7
							s-2.1,1.5-1.7,3c-0.1,0.3,5.2,22.5,5.4,22.8C360.3,243.1,363.1,243.3,363.1,243.3z M343.1,213.8c10.7-2.8,21.5-3,21.5-3
							c-2.5-8.6-12.6-33.3-17-42c-4.3-8.7-8.1-12.2-12.8-13c-4.7-0.8-9.4,7.8-9.4,7.8c-10.9-6-15.9,4.6-16.6,11.1l0,0
							c-8.9-4.5-11.9,0.5-9,7.3c2.9,6.9,10.8,12.3,14.9,20c6.1,11.3,7.9,21.4,7.9,21.4S332.3,216.7,343.1,213.8z M354.5,244.6
							c0,0,2.3-1.5,2-3c-0.2-0.3-5.1-22.5-5-22.8c-0.3-1.5-2.7-1.7-2.7-1.7s-2.1,1.5-1.8,3c-0.1,0.3,4.4,22.5,4.6,22.8
							C351.8,244.4,354.5,244.6,354.5,244.6z M346,246.5c0,0,2.4-1.5,2.1-3c-0.2-0.3-4.4-22.5-4.3-22.8h0c-0.3-1.5-2.7-1.7-2.7-1.7
							s-2.2,1.5-2,3c-0.1,0.3,3.7,22.5,3.9,22.8C343.2,246.3,346,246.5,346,246.5z M337.6,249.9c0,0,2.5-1.5,2.2-3
							c-0.2-0.3-3.7-22.5-3.6-22.8c-0.2-1.5-2.7-1.7-2.7-1.7s-2.3,1.5-2.1,3c-0.1,0.3,3,22.5,3.2,22.8
							C334.8,249.7,337.6,249.9,337.6,249.9z M329,254.2c0,0,2.6-1.5,2.3-3c-0.2-0.3-3.1-22.5-3-22.8h0c-0.2-1.5-2.7-1.7-2.7-1.7
							s-2.4,1.5-2.2,3c-0.1,0.3,2.4,22.5,2.5,22.8C326.2,254,329,254.2,329,254.2z M319.6,255.3c0.8-18,0.1-27.8-3.2-39
							c-1.1-4.1-3-8.5-5.1-11.8c-5-7.9-12.7-15.5-14.6-18.7c-2.6-4.3-2-8.6-2-8.6s-2.7,5.8-3.1,10.2c-0.5,4.6,0.1,8.3,1.6,12.4
							c2.1,5.7,5.8,8,5.8,8s0.7-5.1-3-14.9c0,0,5.7,6.3,6.8,14.5c0.6,4.6,2.2,23.3,11.1,21.6c0.5,5.4,0.5,8.5,0.4,14.3
							c-12.8,8.6-18.1,24.3-10,36.6c-3.5-13.5,2.9-24.4,10.3-29.2c-1.5,26.8,2.8,48.4,17,55.9C322.7,296.7,318.7,275.9,319.6,255.3
							L319.6,255.3z M285.9,239c0,0-0.5-2.6-2-2.9c-0.3-0.1-6.2-1-6.5-1.1c-1.5-0.2-2.9,2.1-2.9,2.1s0.5,2.6,2,2.9
							c0.3,0.1,6.2,1,6.5,1.1C284.6,241.3,285.9,239,285.9,239z M285.1,229.4c0,0-0.9-2.5-2.4-2.6c-0.3,0-4.6,0-4.9,0
							c-1.6,0-2.5,2.5-2.5,2.5s0.9,2.5,2.4,2.5c0.3,0,4.6,0,4.9,0C284.2,232,285.1,229.4,285.1,229.4z M284.2,248.3
							c0,0,0-2.7-1.5-3.2c-0.3-0.1-6.6-2.1-6.9-2.2c-1.5-0.5-3.1,1.6-3.1,1.6s0,2.7,1.5,3.2c0.3,0.1,6.5,2.1,6.8,2.2
							C282.5,250.4,284.2,248.3,284.2,248.3z M280.3,223.4c1.5-0.2,2.1-2.9,2.1-2.9s-1.3-2.4-2.8-2.1c-0.3,0-1.8,0.3-2.1,0.4
							c-1.6,0.2-2.1,2.9-2.1,2.9s1.3,2.4,2.8,2.1C278.5,223.7,280,223.5,280.3,223.4z M280.4,257.1c0,0,0.4-2.7-1-3.4
							c-0.3-0.1-6.1-3.1-6.4-3.2c-1.4-0.7-3.4,1.1-3.4,1.1s-0.4,2.7,1,3.4c0.3,0.1,6.1,3.1,6.4,3.2
							C278.5,259,280.4,257.1,280.4,257.1z M277.9,66.3c3-7.7-0.5-14.3-5.2-6.8c-2.2,3.5-6,8.6-11,14.9c-4.6,5.8-7.8,11.9-9.1,18.7
							c7.9-5.2,14.2-16.4,14.2-16.4s-2.9,14.2-14.9,22.9c-0.1,3.5,1,7.2,1.2,11.2c0.5,13.5-7.6,24.1-7.6,24.1
							c-3.1-9.3-6.4-12.1-8.1-16.3c-1-2.6-1-5.3,0.1-7.2c-7-0.2-14.6,6.6-10.6,18.7c5.6,16.8-1,17.9,0,21.2c0.6,2,6.5,2.3,12.8,0.2
							c9.1-3.1,18-3.4,24.4-2.5c0,0-4-4.2-8.8-9l-2.5-2.5c-1.8-1.8-1.4-4.4,0.2-8.3C259.6,113.2,275.5,72.5,277.9,66.3L277.9,66.3z
							 M275.3,265.3c0,0,0.8-2.6-0.5-3.5c-0.2-0.2-5.6-4-5.8-4.2c-1.3-0.9-3.5,0.6-3.5,0.6s-0.8,2.6,0.5,3.5c0.2,0.2,5.6,4,5.8,4.2
							C273.1,266.8,275.3,265.3,275.3,265.3z M260.7,255.9c12.9-13.6,10-29,10-29l-5.4-29.8c-1.8,9-10.4,8.5-13.9,15.8
							c-2.3,4.7-4.6,10.1-10.2,12.2c-0.3,3.8-3.4,6.8-7.3,6.8h-4.4c0.4,3.6-0.1,8.9-3.7,14.6c-6.6,10.4,0.1,23.2,0.1,23.2
							c15.7-13.2,23.8-37,30.6-52.6c-1.4,15.6-7.7,30.9-10.5,38.3C243.1,262.8,250.2,264.8,260.7,255.9z M268.9,272.6
							c0,0,1.2-2.4,0.1-3.5c-0.2-0.2-4.9-4.8-5.1-5c-1.1-1.1-3.6,0.1-3.6,0.1s-1.2,2.4-0.1,3.5c0.2,0.2,4.9,4.8,5.1,5
							C266.5,273.7,268.9,272.6,268.9,272.6z M261.5,278.8c0,0,1.6-2.2,0.6-3.4c-0.2-0.2-4.1-5.4-4.2-5.7c-0.9-1.2-3.5-0.5-3.5-0.5
							s-1.6,2.2-0.6,3.4c0.2,0.2,4.1,5.5,4.2,5.7C258.9,279.6,261.5,278.8,261.5,278.8z M260.2,194.8c1.3-6.1,0.1-35.3,0-38.1
							l-11.8,7.1l0,0c0,0-2.8-3.6-4.5-5c-3.7-2.8-6.8-1.2-6.2,2.4c1,7.1,3.3,12.4,7.9,23.3c0.8,1.9,1.7,4,1.7,6.1
							c0,5.3-2.8,8.7-2.8,8.7s0.6-6.7-2.5-7c-0.8-0.1-2.1,0.6-3.8,1.5c-3.5,1.9-6.4,3.8-8.2,5.1c-1.1,0.8-2.9,2-3.2,3.4
							c-0.5,2.8-0.2,7.9-0.2,13.2c0,4.7,11.6,4.6,14.4,3.9c2.2-0.6,3.7-1.9,4.3-4.8c0.9-4,3-7.6,6.4-9.9
							C255.5,202,259.3,198.8,260.2,194.8z M253.2,283.8c0,0,1.9-1.9,1.2-3.3c-0.1-0.3-3.2-6-3.3-6.3c-0.7-1.4-3.4-1-3.4-1
							s-1.9,1.9-1.2,3.3c0.1,0.3,3.2,6,3.3,6.3C250.5,284.2,253.2,283.8,253.2,283.8z M251.4,324.6c3.7-0.6,7.3-1.4,10.9-2.3
							c-3.2-4.4-10.3-8.9-15.6-8.7c-2.4,0.4-4.8,0.6-7.1,0.9c-2.2,2.7-4.5,5.4-6.7,8c3.9-0.3,7.8-0.6,11.7-1.2
							C246.6,321.1,249.4,322.7,251.4,324.6z M251.7,82.3L251.7,82.3c0,0-9.6,6.3-13.5,14.9c-1.6,3.4-2.6,6.6-3.2,9.5
							c3.3,0,6.4,0.4,9.3,2.2c0.2,0.1,0.3,0.4,0.1,0.6c-2.1,2.9-3.5,5-1.7,8.1c0.9,1.6,1.7,4.6,2.8,7.9c4.6-7.9,2.2-19.4,1.6-26.5
							C246.5,90.6,251.7,82.3,251.7,82.3z M244.2,287.5c0,0,2.2-1.6,1.7-3.1c-0.1-0.3-2.2-6.4-2.3-6.7c-0.5-1.5-3.2-1.5-3.2-1.5
							s-2.2,1.6-1.7,3.1c0.1,0.3,2.2,6.4,2.3,6.7C241.5,287.5,244.2,287.5,244.2,287.5z M241.4,360.1c3-2.9,5.1-5.9,5.1-8.1
							c-1.1,0.2-2.2,0.3-3.3,0.4c-0.6-1.3-1.2-2.6-1.9-3.9l0,0c-3.3,0.4-6.6,0.7-9.9,0.9c0.6,1.3,1.3,2.7,2,4c0,1.1-0.5,2.4-1.4,3.7
							c-0.9,1.3-2.1,2.7-3.6,4C232.8,360.9,237.1,360.6,241.4,360.1z M245.2,308.1c0-2.3-2.1-4.7-4.9-6.9c-4.5,0.5-8.9,0.8-13.4,1
							c2.9,2.4,4.9,5,4.9,7.2c-5.1,6.1-10.3,12.1-15.6,17.7c0-0.8,0-1.5,0-2.3c-0.4,0-0.7,0-1.1,0l0.1-2c0.7,0,1.3,0,1.9,0
							c2.2-2.4,4.4-4.8,6.6-7.3c-8.3,0.1-16.6-0.3-24.8-1.4c-4.6-0.1-10.6,3.5-14.2,7.4c-1.7,1.8-3.4,3.5-5.1,5.2
							c1.5,2.4,3.1,4.7,4.6,7.1c3.5,5.7,10.1,12.1,15.1,12.6c1.6,0.2,3.3,0.4,5,0.5c0-2.5,0-4.9,0.1-7.4l2.4,0
							c0,4.6-0.1,9.1-0.1,13.7c-1.3-0.1-2.6-0.2-4-0.4c0,1.1,0.5,2.4,1.4,3.8c0.9,1.4,2.1,2.8,3.5,4.1c4.5,0.3,9,0.5,13.6,0.5
							c-2.9-2.5-5-5.3-5-7.5c0-5.3,0-10.6,0-15.9v0c2.1-2.3,4.3-4.7,6.4-7c1.2,2.5,2.3,5,3.5,7.4c3.4-0.1,6.8-0.3,10.2-0.6
							c-2.2-4.8-4.4-9.7-6.6-14.6c4.1-4.7,8.1-9.5,12.1-14.4C242.9,308.4,244.1,308.2,245.2,308.1z M236.8,181.9
							c2.5-1,1.7-5.7,1.1-8.1l0,0c-1.1-4.1-2.8-9.6-4.6-14.5c-2-5.2-12.7-6.8-18.2-7.3c4.9-0.6,11.3-3.1,10.8-12
							c-0.3-4.7-2.2-8.4-3-11.8c-0.9-3.5-0.6-8.2,1.7-13.2c-4.8,1.9-8.2,6.9-9.8,12.3c0,0-0.4-1.9-0.2-3.7c0.2-1.8,1.1-3.4,1.1-3.4
							c-2.2,0.9-4.7,2.7-6.2,4.4c-3.4,3.7-5.4,10.3-5.4,10.3s-7.9-10.6-7.5-24.1c0.1-4.1,1.3-7.7,1.2-11.2
							c-12-8.7-14.9-22.8-14.9-22.8s6.3,11.2,14.2,16.4c-1.3-6.8-4.5-12.9-9.1-18.7c-5-6.3-8.8-11.4-11-14.9
							c-4.8-7.4-8.2-0.9-5.2,6.9c2.4,6.2,18.5,46.8,24.8,62.8c1.1,2.8,2.4,6.1,0.2,8.3l-11.3,11.6l0.5,0.1c0,0,0,0,0,0
							c7.3,2.1,15.5,3.2,24.5,3.2c0,0-3.5,1-5.9,3.7c-2.8,3.1-2.9,5.8-2.9,5.8c-3.8-3.9-7.1-4.7-12.1-5.1c-0.1,2-1.4,32.1,0,38.3
							c0.9,4,4.7,7.2,8.4,9.8c3.3,2.3,5.6,5.8,6.3,9.7c0.5,3,2.8,4.6,4.3,5c2.8,0.8,14.4,0.8,14.4-3.9c0-5.2,0.3-10.4-0.2-13.2
							c-0.2-1.4-2-2.6-3.2-3.4c-1.8-1.2-4.7-3.2-8.1-5.1c-1.6-1-3-1.6-3.8-1.5c-3.1,0.3-2.5,7-2.5,7s-2.8-3.4-2.8-8.7
							c0-1.8,0.5-3.6,1.2-5.2c0,0,0.7-1.4,0.7-1.5c3-5.8,7.2-10.4,7.2-10.4s-2.4,6.5,0.7,8.1l12.5,4.7
							C224.8,186.4,231.2,184,236.8,181.9z M234.7,289.8c0,0,2.4-1.3,2.1-2.8c0-0.3-1.1-6.7-1.2-7c-0.2-1.5-2.9-2-2.9-2
							s-2.4,1.3-2.1,2.8c0,0.3,1.1,6.7,1.2,7C232,289.3,234.7,289.8,234.7,289.8z M225,227.2c10.8,0,11.4-2.2,11.4-2.2
							s-9.2-0.6-11.6-3.1c-2.8,2.8-10.7,3.3-10.7,3.3S214.2,227.2,225,227.2z M227.5,288.3v-7.1c0-1.5-2.6-2.4-2.6-2.4
							s-2.6,0.9-2.6,2.4v7.1c0,1.5,2.6,2.4,2.6,2.4S227.5,289.8,227.5,288.3z M223.3,244c2.8-4.9,3.1-9,2.9-12.1h-10.2
							c-3.7,0-6.8-2.8-7.3-6.4c-6.5-1.7-8-7.7-10.4-12.6c-3.5-7.3-12.2-6.8-13.9-15.8l-5.4,29.8c0,0-2.9,15.4,10,29
							c10.6,8.9,17.7,6.9,14.8-0.5s-9.1-22.7-10.5-38.3c6.8,15.6,14.8,39.4,30.6,52.6C223.8,269.7,215.3,258.1,223.3,244z
							 M219.2,281c0.2-1.5-2.2-2.8-2.2-2.8s-2.7,0.5-2.9,2c-0.1,0.3-1.1,6.7-1.1,7c-0.2,1.5,2.2,2.8,2.2,2.8s2.7-0.5,2.9-2
							C218.1,287.6,219.1,281.3,219.2,281z M216.3,309.7c0-2.3,2-4.9,4.9-7.4c-4.4,0-8.9-0.2-13.3-0.5c-2.9,2.3-4.9,4.8-4.9,7
							c1.4,0.1,2.7,0.3,4.1,0.4c0,1.3,0,2.5,0,3.8c3.1,0.2,6.2,0.4,9.3,0.5C216.3,312.2,216.3,310.9,216.3,309.7z M215.6,114.5
							c0-4.5-1.3-11-4.2-17.4c-3.9-8.6-13.5-14.8-13.5-14.8s5.1,8.5,4.4,16.5h0c-0.7,8.1-3.1,17.5,1.6,26.5
							C206.8,118.7,210.5,116.5,215.6,114.5z M211,279.5c0.5-1.5-1.7-3.1-1.7-3.1s-2.7,0.1-3.2,1.5c-0.1,0.3-2.1,6.4-2.2,6.7
							c-0.5,1.5,1.7,3.1,1.7,3.1s2.7-0.1,3.2-1.5C208.9,285.9,210.9,279.7,211,279.5z M203.2,276.7c0.7-1.4-1.2-3.3-1.2-3.3
							s-2.7-0.4-3.4,1c-0.1,0.3-3.1,6-3.2,6.3c-0.7,1.4,1.2,3.3,1.2,3.3s2.7,0.4,3.4-1C200.1,282.8,203.1,277,203.2,276.7z
							 M196,272.9c0.9-1.2-0.7-3.4-0.7-3.4s-2.6-0.8-3.5,0.5c-0.2,0.2-4,5.5-4.2,5.7c-0.9,1.2,0.7,3.4,0.7,3.4s2.6,0.8,3.5-0.5
							C191.9,278.4,195.8,273.1,196,272.9z M189.4,268c1.1-1.1-0.1-3.5-0.1-3.5s-2.5-1.2-3.6-0.1c-0.2,0.2-4.8,4.8-5.1,5
							c-1.1,1.1,0.1,3.5,0.1,3.5s2.5,1.1,3.6,0C184.5,272.8,189.2,268.2,189.4,268z M183.7,262.1c1.3-0.9,0.4-3.5,0.4-3.5
							s-2.3-1.5-3.5-0.6c-0.2,0.2-5.5,4-5.8,4.2c-1.3,0.9-0.4,3.5-0.4,3.5s2.3,1.5,3.5,0.6C178.1,266.1,183.4,262.3,183.7,262.1z
							 M178.9,255.4c1.4-0.7,1-3.4,1-3.4s-2-1.8-3.4-1.1c-0.3,0.1-6.1,3.1-6.4,3.3c-1.4,0.7-1,3.4-1,3.4s2,1.8,3.4,1.1
							C172.8,258.6,178.6,255.6,178.9,255.4z M178.6,207.1c0,0,0.3-2.7-1.1-3.3c-0.3-0.1-1.7-0.8-1.9-1c-1.4-0.7-3.3,1.2-3.3,1.2
							s-0.3,2.7,1.1,3.3c0.3,0.1,1.7,0.8,1.9,1C176.7,209,178.6,207.1,178.6,207.1z M175.3,248.1c1.5-0.5,1.5-3.2,1.5-3.2
							s-1.7-2.1-3.2-1.6c-0.3,0.1-6.5,2.2-6.8,2.3c-1.5,0.5-1.5,3.2-1.5,3.2s1.7,2.1,3.2,1.6C168.8,250.3,175,248.2,175.3,248.1z
							 M176.4,214.6c0,0-0.1-2.7-1.6-3.1c-0.3-0.1-4.4-1.4-4.7-1.4c-1.5-0.5-3.1,1.7-3.1,1.7s0.1,2.7,1.6,3.1
							c0.3,0.1,4.4,1.3,4.7,1.4C174.7,216.7,176.4,214.6,176.4,214.6z M172.9,240.4c1.5-0.3,2-2.9,2-2.9s-1.3-2.3-2.9-2.1
							c-0.3,0.1-6.8,1.2-7.1,1.2c-1.5,0.3-2,2.9-2,2.9s1.3,2.3,2.9,2.1C166.1,241.5,172.6,240.4,172.9,240.4z M174.6,222.1
							c0,0-0.5-2.6-2.1-2.8c-0.3,0-6.2-0.8-6.5-0.9c-1.6-0.2-2.8,2.2-2.8,2.2s0.5,2.6,2.1,2.8c0.3,0,6.2,0.8,6.5,0.9
							C173.4,224.5,174.6,222.1,174.6,222.1z M171.7,232.4c1.6,0,2.4-2.6,2.4-2.6s-0.9-2.5-2.5-2.5c-0.3,0-6.9,0.1-7.2,0.1
							c-1.6,0-2.4,2.6-2.4,2.6s0.9,2.5,2.5,2.5C164.8,232.5,171.4,232.4,171.7,232.4z M159.3,284.4c4.2-4.2-0.6-12-4.2-13
							c-3.6-1-15.9,1.5-15.9,1.5h0c11.6,12.5,3.1,18.1-1.2,22.3c3,5.9,3.2,10.1,2.2,13.2c-1.2,3.8-4.2,5.8-6.2,6.9
							c1.2,5.1,1.4,8.3,1,10.4c0,0,2.7-1.2,8.2-4.1c12.7-6.8,9.7-14.1,9.7-14.1s-5.6,2.6-9.8,1.6c14.8-6.2,16.9-13.3,14.7-19.1
							c-8.1,4.2-9.6,1.7-9.6,1.7S155.1,288.7,159.3,284.4z M137,269.2c4.5-0.7,7.5-1.1,12.6-0.9c0,0-1.8-19-13.9-20.6
							c3.8,5.8,0.1,10.4-1.8,15.5h0C133.2,265.1,132.1,270,137,269.2z M132.8,294.2c8.4-4.6,11.1-10.5,4.2-18.2
							c-3.1-3.6-7.8-5.1-8-8.9c-0.3-6.8,8.6-18.5-0.2-16.5c-8.1,1.8-23.2,9.6-30.9,20.5c-7.7,10.9-7.1,35-7.1,35h0
							c0,0,27.9,25.6,35.8,21.8c6.1-3,4.4-5.5,3.3-14.2C137.6,311.2,139,304.6,132.8,294.2z M131.5,245c0,0,0-12.5,8.6-30.2
							c-14.3,11.8-15.5,31.8-15.5,31.8C126.7,245.7,129.3,245,131.5,245z M106,256.8c0,0,1.6-2,0.7-3.3c-0.2-0.2-2-3.2-2.2-3.4
							c-0.8-1.3-3.4-0.9-3.4-0.9s-1.6,2-0.8,3.3c0.2,0.3,2,3.2,2.2,3.5C103.4,257.3,106,256.8,106,256.8z M99.7,261.4
							c0,0,1.5-2.1,0.7-3.4c-0.2-0.2-5.2-8.3-5.3-8.6v0c-0.8-1.4-3.4-0.9-3.4-0.9c0,0-1.6,2.1-0.8,3.5c0.1,0.3,5.2,8.5,5.4,8.7
							C97.2,262,99.7,261.4,99.7,261.4z M93.7,267.1c0,0,1.5-2.2,0.6-3.5c-0.2-0.1-7.2-11.7-7.3-12.1c-0.8-1.4-3.4-0.9-3.4-0.9
							s-1.6,2.2-0.8,3.6c0.1,0.4,7.2,12,7.4,12.2C91.2,267.8,93.7,267.1,93.7,267.1z M89.5,276c0,0,1.4-2.3,0.5-3.6
							c-0.3-0.1-9.9-15.2-10-15.7c-0.9-1.4-3.4-0.8-3.4-0.8s-1.6,2.4-0.7,3.8c0.1,0.5,9.9,15.8,10.2,15.8
							C87,276.8,89.5,275.9,89.5,276z M87.3,287c0,0,1.3-2.4,0.4-3.7c-0.3,0-10.8-15.4-10.9-15.9h0c-0.9-1.4-3.4-0.6-3.4-0.6
							c0,0-1.5,2.5-0.6,3.9c0.1,0.5,10.8,16,11.1,16C84.8,288,87.3,287,87.3,287z M86.7,299.3c0,0,1.3-2.5,0.3-3.7
							c-0.3-0.1-9.9-12.8-10-13.2v0c-0.9-1.3-3.4-0.4-3.4-0.4c0,0-1.4,2.6-0.4,3.9c0.1,0.4,9.9,13.3,10.2,13.4
							C84.2,300.4,86.7,299.2,86.7,299.3z"/>
						<path class="st0" d="M373.5,239.8c0.5,1.5-1.7,3-1.7,3s-2.7-0.2-3.1-1.7c-0.2-0.3-6.1-22.3-6.1-22.8c-0.4-1.5,1.6-3,1.6-3
							s2.4,0.2,2.8,1.7C366.9,217.5,373.3,239.5,373.5,239.8z"/>
						<path class="st0" d="M364.9,240.3c0.4,1.5-1.8,3-1.8,3s-2.7-0.2-3.1-1.7c-0.2-0.3-5.4-22.5-5.4-22.8c-0.3-1.5,1.7-3,1.7-3
							s2.4,0.2,2.8,1.7C359,217.8,364.7,240,364.9,240.3z"/>
						<path class="st0" d="M364.6,210.9c0,0-10.8,0.2-21.5,3c-10.7,2.8-20.4,9.5-20.4,9.5s-1.8-10.1-7.9-21.4
							c-4.1-7.7-12-13.1-14.9-20c-2.9-6.8,0.1-11.8,9-7.3l0,0c0.8-6.5,5.8-17.1,16.6-11.1c0,0,4.7-8.6,9.4-7.8
							c4.7,0.8,8.5,4.3,12.8,13C351.9,177.5,362,202.2,364.6,210.9z"/>
						<path class="st0" d="M356.4,241.6c0.4,1.5-2,3-2,3s-2.7-0.2-3-1.7c-0.2-0.3-4.7-22.5-4.6-22.8c-0.3-1.5,1.8-3,1.8-3
							s2.4,0.2,2.7,1.7C351.3,219.1,356.3,241.3,356.4,241.6z"/>
						<path class="st0" d="M348,243.5c0.3,1.5-2.1,3-2.1,3s-2.7-0.2-3-1.7c-0.2-0.3-4-22.5-3.9-22.8c-0.2-1.5,2-3,2-3
							s2.4,0.2,2.7,1.7h0C343.7,221,347.9,243.2,348,243.5z"/>
						<path class="st0" d="M339.7,246.9c0.3,1.5-2.2,3-2.2,3s-2.8-0.2-3-1.7c-0.2-0.3-3.3-22.5-3.2-22.8c-0.2-1.5,2.1-3,2.1-3
							s2.5,0.2,2.7,1.7C336,224.4,339.6,246.6,339.7,246.9z"/>
						<path class="st0" d="M331.3,251.2c0.2,1.5-2.3,3-2.3,3s-2.8-0.2-3-1.7c-0.2-0.3-2.6-22.5-2.5-22.8c-0.1-1.5,2.2-3,2.2-3
							s2.5,0.2,2.7,1.7h0C328.3,228.7,331.2,250.9,331.3,251.2z"/>
						<path class="st0" d="M322.5,349.1v9.7h-1.2v-8.1l-2.8,8.1h-1.2l-2.8-8.2v8.2h-1.2v-9.7h1.9l2.3,6.9c0.2,0.6,0.4,1.1,0.5,1.4
							c0.1-0.4,0.3-0.9,0.5-1.5l2.3-6.7H322.5z"/>
						<path class="st0" d="M316.4,216.3c3.4,11.2,4,21,3.2,39h0c-0.9,20.7,3.1,41.4,11.8,51.2c-14.1-7.4-18.4-29-17-55.9
							c-7.4,4.8-13.8,15.7-10.3,29.2c-8.1-12.2-2.8-28,10-36.6c0.1-5.9,0.1-8.9-0.4-14.3c-8.9,1.8-10.4-16.9-11.1-21.6
							c-1.2-8.2-6.8-14.5-6.8-14.5c3.8,9.8,3,14.9,3,14.9s-3.6-2.3-5.8-8c-1.5-4-2.1-7.8-1.6-12.4c0.5-4.4,3.1-10.2,3.1-10.2
							s-0.6,4.3,2,8.6c1.9,3.2,9.6,10.9,14.6,18.7C313.4,207.8,315.3,212.1,316.4,216.3z"/>
						<polygon class="st0" points="312,349.1 312,350.2 308.8,350.2 308.8,358.8 307.5,358.8 307.5,350.2 304.3,350.2 304.3,349.1 
													"/>
						<path class="st0" d="M310.6,320.8c-0.5-0.2-8.2-4.1-11.5-12.1c-3.4-8.2,0.9-18,0.9-18S301.9,307.5,310.6,320.8z"/>
						<path class="st0" d="M283.9,236.1c1.5,0.2,2,2.9,2,2.9s-1.3,2.4-2.9,2.1c-0.3-0.1-6.2-1-6.5-1.1c-1.5-0.2-2-2.9-2-2.9
							s1.3-2.4,2.9-2.1C277.7,235,283.6,236,283.9,236.1z"/>
						<path class="st0" d="M282.6,226.9c1.6,0,2.4,2.6,2.4,2.6s-0.9,2.5-2.5,2.5c-0.3,0-4.6,0-4.9,0c-1.6,0-2.4-2.5-2.4-2.5
							s0.9-2.5,2.5-2.5C278,226.9,282.3,226.9,282.6,226.9z"/>
						<path class="st0" d="M282.7,245.2c1.5,0.5,1.5,3.2,1.5,3.2s-1.7,2.1-3.2,1.6c-0.3-0.1-6.5-2.1-6.8-2.2
							c-1.5-0.5-1.5-3.2-1.5-3.2s1.7-2.1,3.1-1.6C276.1,243,282.4,245.1,282.7,245.2z"/>
						<path class="st0" d="M282.4,220.6c0,0-0.5,2.6-2.1,2.9c-0.3,0-1.8,0.3-2.1,0.4c-1.5,0.2-2.8-2.1-2.8-2.1s0.5-2.6,2.1-2.9
							c0.3,0,1.8-0.3,2.1-0.4C281.1,218.2,282.4,220.6,282.4,220.6z"/>
						<path class="st0" d="M279.4,253.8c1.4,0.7,1,3.4,1,3.4s-2,1.9-3.4,1.1c-0.3-0.1-6.1-3.1-6.4-3.2c-1.4-0.7-1-3.4-1-3.4
							s2-1.8,3.4-1.1C273.3,250.7,279.1,253.7,279.4,253.8z"/>
						<path class="st0" d="M272.6,59.4c4.8-7.4,8.2-0.9,5.2,6.8l0,0c-2.4,6.2-18.3,46.9-24.9,62.8c-1.6,3.9-2.1,6.5-0.2,8.3l2.5,2.5
							c4.8,4.8,8.8,9,8.8,9c-6.4-0.9-15.3-0.6-24.4,2.5c-6.3,2.1-12.2,1.8-12.8-0.2c-1-3.3,5.5-4.4,0-21.2c-4-12,3.6-18.9,10.6-18.7
							c-1.1,1.9-1.1,4.6-0.1,7.2c1.7,4.2,5,7,8.1,16.3c0,0,8-10.6,7.6-24.1c-0.1-4.1-1.3-7.7-1.2-11.2c12-8.7,14.9-22.9,14.9-22.9
							s-6.3,11.2-14.2,16.4c1.3-6.8,4.5-12.9,9.1-18.7C266.6,68.1,270.4,62.9,272.6,59.4z"/>
						<path class="st0" d="M274.8,261.8c1.3,0.9,0.5,3.5,0.5,3.5s-2.2,1.5-3.5,0.6c-0.2-0.2-5.6-4-5.8-4.2c-1.3-0.9-0.5-3.5-0.5-3.5
							s2.2-1.5,3.5-0.6C269.3,257.8,274.6,261.6,274.8,261.8z"/>
						<path class="st0" d="M270.8,226.9c0,0,2.9,15.4-10,29c-10.6,8.9-17.7,6.9-14.8-0.5c2.8-7.4,9.1-22.7,10.5-38.3
							c-6.8,15.6-14.8,39.4-30.6,52.6c0,0-6.7-12.9-0.1-23.2c3.6-5.7,4.1-10.9,3.7-14.6h4.4c3.9,0,7-3,7.3-6.8
							c5.7-2.1,8-7.5,10.2-12.2c3.5-7.3,12.2-6.8,13.9-15.8L270.8,226.9z"/>
						<path class="st0" d="M269,269.1c1.1,1.1-0.1,3.5-0.1,3.5s-2.5,1.2-3.6,0.1c-0.2-0.2-4.9-4.8-5.1-5c-1.1-1.1,0.1-3.5,0.1-3.5
							s2.5-1.2,3.6-0.1C264.2,264.3,268.8,268.9,269,269.1z"/>
						<path class="st0" d="M262.2,275.3c0.9,1.2-0.6,3.4-0.6,3.4s-2.6,0.8-3.5-0.5c-0.2-0.2-4.1-5.5-4.2-5.7
							c-0.9-1.2,0.6-3.4,0.6-3.4s2.6-0.8,3.5,0.5C258.1,269.9,262,275.1,262.2,275.3z"/>
						<path class="st0" d="M260.2,156.6c0.1,2.9,1.3,32,0,38.1c-0.9,4-4.7,7.2-8.4,9.8c-3.3,2.4-5.5,5.9-6.4,9.9
							c-0.6,2.8-2.1,4.2-4.3,4.8c-2.8,0.8-14.4,0.8-14.4-3.9c0-5.2-0.3-10.4,0.2-13.2c0.2-1.4,2-2.6,3.2-3.4
							c1.8-1.2,4.7-3.2,8.2-5.1c1.6-1,3-1.6,3.8-1.5c3.1,0.3,2.5,7,2.5,7s2.8-3.4,2.8-8.7c0-2.1-0.9-4.2-1.7-6.1
							c-4.6-10.8-6.9-16.2-7.9-23.3c-0.5-3.6,2.6-5.2,6.2-2.4c1.7,1.3,4.5,5,4.5,5l0,0L260.2,156.6z"/>
						<path class="st0" d="M262.5,330.9c-3,6.1-10.3,13.9-15.8,14.9c-9.3,1.4-18.8,2-28.2,1.8c0-2.5,0-5,0-7.5
							c8.7,0.1,17.5-0.4,26.2-1.6c2.1-0.3,4.9-2.8,6.8-5.4C255.2,332.6,258.9,331.8,262.5,330.9z"/>
						<path class="st0" d="M254.4,280.5c0.7,1.4-1.2,3.3-1.2,3.3s-2.7,0.4-3.4-1c-0.1-0.3-3.2-6-3.3-6.3c-0.7-1.4,1.2-3.3,1.2-3.3
							s2.7-0.4,3.4,1C251.2,274.5,254.2,280.2,254.4,280.5z"/>
						<path class="st0" d="M262.3,322.3c-3.6,0.9-7.3,1.6-10.9,2.3c-1.9-1.9-4.7-3.5-6.8-3.2c-3.9,0.5-7.8,0.9-11.7,1.2
							c2.2-2.6,4.5-5.3,6.7-8c2.4-0.2,4.8-0.5,7.1-0.9C252,313.4,259.1,317.9,262.3,322.3z"/>
						<path class="st0" d="M251.7,82.3L251.7,82.3c0,0-5.2,8.4-4.5,16.5c0.6,7.1,3,18.6-1.6,26.5c-1.1-3.2-1.9-6.2-2.8-7.9
							c-1.8-3.1-0.4-5.2,1.7-8.1c0.1-0.2,0-0.5-0.1-0.6c-2.9-1.8-6-2.1-9.3-2.2c0.6-2.9,1.7-6.1,3.2-9.5
							C242.1,88.5,251.7,82.3,251.7,82.3z"/>
						<path class="st0" d="M245.9,284.4c0.5,1.4-1.7,3.1-1.7,3.1s-2.7,0-3.2-1.5c-0.1-0.3-2.2-6.4-2.3-6.7c-0.5-1.4,1.7-3.1,1.7-3.1
							s2.7,0,3.2,1.5C243.7,278,245.8,284.1,245.9,284.4z"/>
						<path class="st0" d="M246.5,351.9c0,2.3-2.1,5.3-5.1,8.1c-4.3,0.5-8.6,0.8-12.9,1c1.5-1.3,2.7-2.7,3.6-4
							c0.9-1.3,1.4-2.6,1.4-3.7c-0.7-1.3-1.3-2.7-2-4c3.3-0.2,6.6-0.5,9.9-0.9l0,0c0.6,1.3,1.2,2.6,1.9,3.9
							C244.3,352.2,245.4,352.1,246.5,351.9z"/>
						<path class="st0" d="M216.2,337.8c0,5.3,0,10.6,0,15.9c0,2.2,2,5,5,7.5c-4.5,0-9-0.2-13.6-0.5c-1.4-1.4-2.7-2.8-3.5-4.1
							c-0.9-1.3-1.4-2.6-1.4-3.8c1.3,0.1,2.6,0.3,4,0.4c0-4.6,0.1-9.1,0.1-13.7c0-5,0.1-10.1,0.1-15.2c2.8,0.2,5.5,0.4,8.3,0.5
							c0.3,0,0.7,0,1.1,0c0,0.8,0,1.6,0,2.3c5.2-5.7,10.4-11.6,15.6-17.7c0-2.3-2-4.8-4.9-7.2c4.5-0.1,8.9-0.5,13.4-1
							c2.8,2.2,4.9,4.6,4.9,6.9c-1.1,0.2-2.3,0.3-3.4,0.4c-4,5-8,9.8-12.1,14.4c2.2,4.9,4.4,9.8,6.6,14.6c-3.4,0.3-6.8,0.5-10.2,0.6
							c-1.2-2.5-2.3-4.9-3.5-7.4C220.5,333.1,218.3,335.5,216.2,337.8L216.2,337.8z"/>
						<path class="st0" d="M238,173.7c0.6,2.4,1.4,7.1-1.1,8.1c-5.7,2.1-12,4.6-12,4.6l-12.5-4.7c-3.1-1.6-0.7-8.1-0.7-8.1
							s-4.2,4.5-7.2,10.4c0,0-0.7,1.5-0.7,1.5c-0.7,1.6-1.2,3.4-1.2,5.2c0,5.3,2.8,8.7,2.8,8.7s-0.6-6.7,2.5-7
							c0.8-0.1,2.1,0.6,3.8,1.5c3.5,1.9,6.4,3.8,8.1,5.1c1.2,0.8,3,2,3.2,3.4c0.5,2.8,0.2,7.9,0.2,13.2c0,4.7-11.6,4.6-14.4,3.9
							c-1.5-0.4-3.8-2-4.3-5c-0.7-3.9-3-7.4-6.3-9.7c-3.7-2.6-7.6-5.9-8.4-9.8c-1.4-6.2-0.1-36.3,0-38.3c4.9,0.5,8.3,1.3,12.1,5.1
							c0,0,0.1-2.7,2.9-5.8c2.4-2.6,5.9-3.7,5.9-3.7c-9-0.1-17.2-1.1-24.5-3.2c0,0,0,0,0,0l-0.5-0.1l11.3-11.6
							c2.1-2.2,0.9-5.4-0.2-8.3c-6.3-15.9-22.4-56.6-24.8-62.8c-3-7.7,0.5-14.3,5.2-6.9c2.2,3.5,6,8.6,11,14.9
							c4.6,5.8,7.8,11.9,9.1,18.7c-7.9-5.2-14.2-16.4-14.2-16.4s2.9,14.2,14.9,22.8c0.1,3.5-1,7.2-1.2,11.2
							c-0.5,13.5,7.5,24.1,7.5,24.1s2-6.6,5.4-10.3c1.5-1.6,4-3.5,6.2-4.4c0,0-0.9,1.7-1.1,3.4c-0.2,1.9,0.2,3.7,0.2,3.7
							c1.6-5.4,5.1-10.4,9.8-12.3c-2.3,5-2.6,9.7-1.7,13.2c0.8,3.3,2.8,7.1,3,11.8c0.5,8.9-5.8,11.4-10.8,12
							c5.5,0.5,16.3,2.1,18.2,7.3C235.2,164.1,236.8,169.6,238,173.7L238,173.7z"/>
						<path class="st0" d="M236.8,287c0.2,1.5-2.1,2.8-2.1,2.8s-2.7-0.5-2.9-2c-0.1-0.3-1.1-6.7-1.2-7c-0.2-1.5,2.1-2.8,2.1-2.8
							s2.7,0.5,2.9,2C235.7,280.4,236.8,286.7,236.8,287z"/>
						<path class="st0" d="M236.4,225c0,0-0.6,2.2-11.4,2.2c-10.8,0-10.8-2-10.8-2s7.9-0.6,10.7-3.3
							C227.3,224.4,236.4,225,236.4,225z"/>
						<path class="st0" d="M227.5,281.2v7.1c0,1.5-2.6,2.4-2.6,2.4s-2.6-0.9-2.6-2.4v-7.1c0-1.5,2.6-2.4,2.6-2.4
							S227.5,279.7,227.5,281.2z"/>
						<path class="st0" d="M226.1,231.9c0.2,3.1-0.1,7.2-2.9,12.1c-7.9,14.1,0.6,25.7,0.6,25.7c-15.7-13.2-23.8-37-30.6-52.6
							c1.4,15.6,7.7,30.9,10.5,38.3s-4.3,9.4-14.8,0.5c-12.9-13.6-10-29-10-29l5.4-29.8c1.8,9,10.4,8.5,13.9,15.8
							c2.4,4.9,3.9,10.9,10.4,12.6c0.5,3.6,3.5,6.4,7.3,6.4H226.1z"/>
						<path class="st0" d="M199,314.1c8.2,1.1,16.5,1.5,24.8,1.4c-2.2,2.5-4.4,4.9-6.6,7.3c-0.6,0-1.3,0-1.9,0
							c-4.6-0.1-9.1-0.5-13.6-1c-3.8-0.4-9.7,4.5-9.7,7.4c-0.1,2.9,5.7,9.6,9.6,10c1,0.1,1.9,0.2,2.9,0.3c0,2.5-0.1,4.9-0.1,7.4
							c-1.7-0.2-3.3-0.3-5-0.5c-4.9-0.6-11.6-6.9-15.1-12.6c-1.5-2.3-3.1-4.7-4.6-7.1c1.7-1.7,3.4-3.4,5.1-5.2
							C188.3,317.6,194.3,314,199,314.1z"/>
						<path class="st0" d="M217,278.2c0,0,2.4,1.3,2.2,2.8c-0.1,0.3-1.1,6.7-1.1,7c-0.2,1.5-2.9,2-2.9,2s-2.4-1.3-2.2-2.8
							c0.1-0.3,1.1-6.7,1.1-7C214.3,278.7,217,278.2,217,278.2z"/>
						<path class="st0" d="M221.1,302.3c-2.8,2.5-4.8,5.1-4.9,7.4c0,1.3,0,2.5,0,3.8c-3.1-0.1-6.2-0.2-9.3-0.5c0-1.3,0-2.5,0-3.8
							c-1.4-0.1-2.7-0.2-4.1-0.4c0-2.3,2.1-4.8,4.9-7C212.2,302.1,216.7,302.3,221.1,302.3z"/>
						<path class="st0" d="M215.3,322.7l-0.1,2c-2.8-0.1-5.5-0.2-8.3-0.5c0,5.1-0.1,10.1-0.1,15.2l-2.4,0c-1-0.1-2-0.2-2.9-0.3
							c-3.8-0.4-9.6-7.1-9.6-10c0-2.9,6-7.7,9.7-7.4C206.2,322.3,210.7,322.6,215.3,322.7z"/>
						<path class="st0" d="M211.4,97.1c2.9,6.4,4.2,12.9,4.2,17.4c-5.1,1.9-8.8,4.1-11.7,10.8c-4.7-9-2.3-18.4-1.6-26.5h0
							c0.7-8-4.4-16.5-4.4-16.5S207.4,88.5,211.4,97.1z"/>
						<path class="st0" d="M209.3,276.4c0,0,2.2,1.6,1.7,3.1c-0.1,0.3-2.1,6.4-2.2,6.7c-0.5,1.4-3.2,1.5-3.2,1.5s-2.2-1.6-1.7-3.1
							c0.1-0.3,2.1-6.4,2.2-6.7C206.6,276.5,209.3,276.4,209.3,276.4z"/>
						<path class="st0" d="M202,273.5c0,0,1.9,1.9,1.2,3.3c-0.1,0.3-3.1,6-3.2,6.3c-0.7,1.4-3.4,1-3.4,1s-1.9-1.9-1.2-3.3
							c0.1-0.3,3.1-6,3.2-6.3C199.3,273.1,202,273.5,202,273.5z"/>
						<path class="st0" d="M195.3,269.4c0,0,1.6,2.2,0.7,3.4c-0.2,0.2-4,5.5-4.2,5.7c-0.9,1.2-3.5,0.5-3.5,0.5s-1.6-2.2-0.7-3.4
							c0.2-0.2,4-5.5,4.2-5.7C192.7,268.7,195.3,269.4,195.3,269.4z"/>
						<path class="st0" d="M189.3,264.5c0,0,1.2,2.4,0.1,3.5c-0.2,0.2-4.8,4.8-5.1,5c-1.1,1.1-3.6,0-3.6,0s-1.2-2.4-0.1-3.5
							c0.2-0.2,4.8-4.8,5.1-5C186.8,263.3,189.3,264.5,189.3,264.5z"/>
						<path class="st0" d="M184.1,258.6c0,0,0.8,2.6-0.4,3.5c-0.2,0.2-5.5,4-5.8,4.2c-1.3,0.9-3.5-0.6-3.5-0.6s-0.8-2.6,0.4-3.5
							c0.2-0.2,5.5-4,5.8-4.2C181.8,257.1,184.1,258.6,184.1,258.6z"/>
						<path class="st0" d="M179.9,252.1c0,0,0.4,2.6-1,3.4c-0.3,0.1-6.1,3.1-6.4,3.3c-1.4,0.7-3.4-1.1-3.4-1.1s-0.4-2.7,1-3.4
							c0.3-0.1,6.1-3.1,6.4-3.3C177.9,250.2,179.9,252.1,179.9,252.1z"/>
						<path class="st0" d="M177.5,203.8c1.4,0.7,1.1,3.3,1.1,3.3s-1.9,1.9-3.3,1.2c-0.3-0.1-1.7-0.8-1.9-1c-1.4-0.7-1.1-3.3-1.1-3.3
							s1.9-1.9,3.3-1.2C175.9,202.9,177.2,203.6,177.5,203.8z"/>
						<path class="st0" d="M176.8,245c0,0,0,2.7-1.5,3.2c-0.3,0.1-6.5,2.2-6.8,2.3c-1.5,0.5-3.2-1.6-3.2-1.6s0-2.7,1.5-3.2
							c0.3-0.1,6.5-2.2,6.8-2.3C175.1,242.9,176.8,245,176.8,245z"/>
						<path class="st0" d="M174.7,211.4c1.5,0.4,1.6,3.1,1.6,3.1s-1.6,2.2-3.1,1.7c-0.3-0.1-4.4-1.3-4.7-1.4
							c-1.5-0.4-1.6-3.1-1.6-3.1s1.6-2.2,3.1-1.7C170.4,210.1,174.4,211.3,174.7,211.4z"/>
						<path class="st0" d="M174.9,237.5c0,0-0.4,2.6-2,2.9c-0.3,0-6.8,1.1-7.1,1.2c-1.5,0.3-2.9-2.1-2.9-2.1s0.4-2.6,2-2.9
							c0.3-0.1,6.8-1.2,7.1-1.2C173.5,235.2,174.9,237.5,174.9,237.5z"/>
						<path class="st0" d="M172.6,219.3c1.6,0.2,2.1,2.8,2.1,2.8s-1.2,2.4-2.8,2.2c-0.3,0-6.2-0.8-6.5-0.9c-1.5-0.2-2.1-2.8-2.1-2.8
							s1.2-2.4,2.8-2.2C166.3,218.4,172.3,219.2,172.6,219.3z"/>
						<path class="st0" d="M174.1,229.8c0,0-0.8,2.6-2.4,2.6c-0.3,0-6.9,0.1-7.2,0.1c-1.6,0-2.5-2.5-2.5-2.5s0.9-2.6,2.4-2.6
							c0.3,0,6.9-0.1,7.2-0.1C173.2,227.3,174.1,229.8,174.1,229.8z"/>
						<path class="st0" d="M155.1,271.4c3.6,1,8.5,8.8,4.2,13c-4.2,4.2-11.2,7.2-11.2,7.2s1.5,2.6,9.6-1.7
							c2.3,5.9,0.1,12.9-14.7,19.1l-2.8-0.7c1-3.1,0.8-7.4-2.2-13.2c4.3-4.1,12.8-9.7,1.2-22.3h0
							C139.2,272.9,151.6,270.5,155.1,271.4z"/>
						<path class="st0" d="M152.9,307.6c0,0,2.9,7.3-9.7,14.1c-5.5,2.9-8.2,4.1-8.2,4.1c0.5-2.1,0.3-5.4-1-10.4c2-1.1,5-3.1,6.2-6.9
							l2.8,0.7C147.3,310.1,152.9,307.6,152.9,307.6z"/>
						<path class="st0" d="M149.5,268.3c-5.1-0.2-8.1,0.2-12.6,0.9c-4.8,0.8-3.8-4.1-3.1-6.1h0c1.8-5.1,5.6-9.6,1.8-15.5
							C147.7,249.3,149.5,268.3,149.5,268.3z"/>
						<path class="st0" d="M137.1,276c6.8,7.8,4.1,13.7-4.2,18.2c6.1,10.4,4.7,17-2.9,19.4c1.1,8.7,2.8,11.2-3.3,14.2
							c-7.9,3.9-35.8-21.8-35.8-21.8h0c0,0-0.6-24,7.1-35c7.7-10.9,22.8-18.7,30.9-20.5c8.8-2-0.1,9.7,0.2,16.5
							C129.3,270.9,133.9,272.4,137.1,276z"/>
						<path class="st0" d="M140.1,214.7c-8.6,17.7-8.6,30.2-8.6,30.2c-2.2,0-4.8,0.7-6.9,1.5C124.6,246.5,125.9,226.5,140.1,214.7z"
							/>
						<path class="st0" d="M112.7,223.7c5.6,14.5,3.8,26.2,3.8,26.2c-2,1-4.1,2.1-6.3,3.5c0,0,1.4-16.4-3.1-28.3
							c-4.9-12.9-17.1-17.1-17.1-17.1C90.4,208.1,106.6,207.9,112.7,223.7z"/>
						<path class="st0" d="M106.7,253.5c0.8,1.3-0.7,3.3-0.7,3.3c0,0-2.5,0.5-3.4-0.8c-0.2-0.2-2-3.2-2.2-3.5
							c-0.8-1.3,0.8-3.3,0.8-3.3s2.6-0.4,3.4,0.9C104.7,250.3,106.5,253.3,106.7,253.5z"/>
						<path class="st0" d="M100.4,258c0.9,1.3-0.7,3.4-0.7,3.4c0,0-2.5,0.6-3.4-0.7c-0.2-0.2-5.2-8.4-5.4-8.7
							c-0.8-1.4,0.8-3.5,0.8-3.5c0,0,2.6-0.5,3.4,0.9v0C95.2,249.8,100.2,257.8,100.4,258z"/>
						<path class="st0" d="M94.3,263.6c0.9,1.3-0.6,3.5-0.6,3.5c0,0-2.5,0.7-3.4-0.6c-0.2-0.1-7.3-11.8-7.4-12.2
							c-0.8-1.4,0.8-3.6,0.8-3.6s2.5-0.6,3.4,0.9C87.2,251.9,94.1,263.4,94.3,263.6z"/>
						<path class="st0" d="M90,272.4c0.9,1.3-0.5,3.6-0.5,3.6c0,0-2.5,0.9-3.4-0.5c-0.3-0.1-10.1-15.3-10.2-15.8
							c-0.9-1.4,0.7-3.8,0.7-3.8s2.5-0.6,3.4,0.8C80.1,257.1,89.7,272.3,90,272.4z"/>
						<path class="st0" d="M87.7,283.3c0.9,1.3-0.4,3.7-0.4,3.7s-2.5,1-3.4-0.3c-0.3,0-11-15.5-11.1-16c-0.9-1.4,0.6-3.9,0.6-3.9
							c0,0,2.5-0.8,3.4,0.6h0C76.8,267.9,87.4,283.3,87.7,283.3z"/>
						<path class="st0" d="M86.9,295.5c1,1.2-0.3,3.7-0.3,3.7c0,0-2.4,1.1-3.4-0.1c-0.3-0.1-10.1-12.9-10.2-13.4
							c-1-1.3,0.4-3.9,0.4-3.9c0,0,2.5-1,3.4,0.4v0C77,282.7,86.7,295.5,86.9,295.5z"/>
					</g>
					<g>
						<path class="st1" d="M388,242.8c-8.1-37.1-27.1-78.1-31.7-85.5c-2.6-4-6.4-8-10.3-10.7c-5.5-3.7-10.9-4.8-15.7-3.2
							c-3.2,1.1-6.1,2.9-8.5,5.3c-3.9-1-7.9-0.8-11.3,0.6c-5.8,2.4-8.6,6.5-10.4,10.5c-0.1,0-0.3,0-0.4,0c-6.1,0-11.2,2.4-14.1,6.9
							c-2.7,4.2-4.4,8.7-5,13.5c-3.1,0.1-6.1,0.4-8.8,0.8v-22.2c0-0.4,0.2-0.9,0.5-1.2l1.4-1.4c4.2-4.2,3-10.8-0.6-14.8l-9-9
							c1.7-4,4.2-9.9,7-16.4c7.2-16.9,16.2-37.9,18.9-44.7c2-4.9,2.6-10.5,1.9-15.6c-1-6.2-4-10.9-8.5-13.1
							c-3.7-1.8-13.4-4.4-22.7,11.5c-5.8,9.9-11.8,15-17.7,20c-6.2,5.3-12.6,10.8-16.7,20.5c-0.2,0.6-0.7,1.7-1.2,3.1
							c-0.4-1-0.8-2.1-1.2-3.1c-4.1-9.8-10.5-15.2-16.7-20.5c-5.8-5-11.9-10.1-17.7-20c-9.3-15.9-19-13.4-22.7-11.5
							c-4.5,2.2-7.6,6.9-8.5,13.1c-0.8,5.1-0.1,10.8,1.9,15.6c3.6,8.8,21.4,51.1,25.7,61.1l-9.1,9.1c-2,2-3.1,4.7-3.1,7.5
							s1.1,5.5,3.1,7.5l0.8,0.8c0.3,0.3,0.5,0.7,0.5,1.2v5.5c-21.7-4.6-47.3-3.1-71.4,4.3C75.1,178,50,196.6,35.8,220.6
							c-1.1,1.8-1.7,3.9-1.8,6.1c0,1.4,0.1,2.8,0.5,4.2c12.9,45.8,35.6,73.2,52.3,88.1c18.8,16.8,34.9,22.2,35.6,22.5l2.1,0.7
							l2.2-0.3c5-0.8,9.7-2.6,13.5-4.3c9.7,10.2,23.8,19.9,41.9,29.1c14.9,7.6,29.6,13.1,37.6,15.6c1.8,0.5,3.5,0.8,5.3,0.8
							s3.6-0.3,5.2-0.9c48.4-16.5,74-38.9,83.4-48.6c1.7,2,3.5,3.9,5.2,5.5c0.4,0.4,0.8,0.8,1.2,1.2l1.2,1.4l0.3,0
							c12.5,11.4,24.6,16.5,41.1,21.2c2.9,0.8,5.9,0.5,8.4-0.9c2.2-1.2,3.5-2.9,4.6-4.2l0.1-0.2C397.4,330.2,400.5,300.2,388,242.8
							L388,242.8z"/>
						<path class="st1" d="M383.1,243.9c12.4,56.5,9,85-11.1,110.7c-0.9,1.2-1.8,2.3-3.1,3.1s-3,0.9-4.6,0.5
							c-16.8-4.8-28.1-9.6-40.2-21.1h0c0,0,0,0-0.1,0c-0.4-0.5-1-1-1.5-1.5c-3.1-2.9-6-6.3-8.4-9.6c0,0-23.9,30.7-85.3,51.7
							c-2.4,0.8-4.9,0.8-7.4,0c-13.3-4.1-58.2-21.3-79.9-46.1c-4,2.2-9.5,4.7-15.4,5.6l-1,0.2l-1-0.3c-0.6-0.2-15.7-5.4-33.8-21.5
							c-16.3-14.5-38.3-41.1-50.9-85.7c-0.2-0.9-0.4-1.8-0.4-2.7c0.1-1.3,0.4-2.6,1.1-3.8c13.5-22.9,37.6-40.7,67.8-50
							c25.6-7.9,53.1-8.8,74.9-2.7v-11.9c0-1.8-0.7-3.5-2-4.8l-0.8-0.8c-2.2-2.2-2.2-5.7,0-7.9l10.3-10.3c0.7-0.7,0.9-1.7,0.5-2.6
							c-3.7-8.8-22.6-53.6-26.3-62.7c-3.2-8-2.3-19.1,4.2-22.3c3.1-1.5,9.2-2.3,16.1,9.6c6.2,10.6,12.9,16.3,18.8,21.3
							c6,5.1,11.7,10,15.3,18.6c1.2,2.9,2.1,5.8,2.8,8.8c0.3,1.2,0.8,3.6,0.9,4.9c1.3-0.9,2.9-1.7,4.9-2.2c0,0,0.2-1.7,0.4-2.7
							c0.9-4.2,2.1-7.4,2.6-8.7c3.6-8.7,9.3-13.5,15.3-18.6c5.9-5,12.5-10.7,18.8-21.3C271.8,44.8,278,45.5,281,47
							c6.5,3.2,7.4,14.3,4.2,22.3c-4,9.7-21.2,49.9-26.6,62.7c-0.4,0.9-0.2,2,0.5,2.6l10.1,10.1c2,2.2,2.9,5.8,0.8,7.9l-1.4,1.4
							c-1.3,1.3-2,3-2,4.8v28.5c3.4-1.2,10.9-2.2,18.6-2c0-5.7,1.5-11,4.6-15.8c2.9-4.6,8.8-5.1,13.5-4.2c2-5,3.7-9,9.1-11.2
							c3.9-1.6,7.9-0.8,11.1,0.6c1.7-2.6,4.5-5.1,8.4-6.5c7.2-2.4,16.1,5.4,20.1,11.8C356.5,167.1,375.2,207.8,383.1,243.9
							L383.1,243.9z"/>
						<path class="st1" d="M226.1,231.9h-10.2c-3.7,0-6.8-2.8-7.3-6.4c-6.5-1.7-8-7.7-10.4-12.6c-3.5-7.3-12.2-6.8-13.9-15.8
							l-5.4,29.8c0,0-2.9,15.4,10,29c10.6,8.9,17.7,6.9,14.8-0.5s-9.1-22.7-10.5-38.3c6.8,15.6,14.8,39.4,30.6,52.6
							c0,0-8.5-11.6-0.6-25.7C226,239.1,226.3,235,226.1,231.9z"/>
						<path class="st1" d="M232.8,322.5c3.9-0.3,7.8-0.6,11.7-1.2c2.1-0.3,4.9,1.3,6.8,3.2c3.7-0.6,7.3-1.4,10.9-2.3
							c-3.2-4.4-10.3-8.9-15.6-8.7c-2.4,0.4-4.8,0.6-7.1,0.9C237.3,317.2,235.1,319.9,232.8,322.5z"/>
						<path class="st1" d="M251.6,333.2c-1.9,2.6-4.7,5.1-6.8,5.4c-8.7,1.2-17.4,1.7-26.2,1.6c0,2.5,0,5,0,7.5
							c9.4,0.1,18.8-0.5,28.2-1.8c5.5-1,12.8-8.8,15.8-14.9C258.9,331.8,255.2,332.6,251.6,333.2z"/>
						<line class="st1" x1="251.6" y1="333.2" x2="251.6" y2="333.2"/>
						<path class="st1" d="M207,309.2c0,1.3,0,2.5,0,3.8c3.1,0.2,6.2,0.4,9.3,0.5c0-1.3,0-2.5,0-3.8c0-2.3,2-4.9,4.9-7.4
							c-4.4,0-8.9-0.2-13.3-0.5c-2.9,2.3-4.9,4.8-4.9,7C204.3,308.9,205.6,309.1,207,309.2z"/>
						<path class="st1" d="M216.2,337.8L216.2,337.8L216.2,337.8c2.1-2.3,4.3-4.7,6.4-7.1c1.2,2.5,2.3,5,3.5,7.4
							c3.4-0.1,6.8-0.3,10.2-0.6c-2.2-4.8-4.4-9.7-6.6-14.6c4.1-4.7,8.1-9.5,12.1-14.4c1.1-0.1,2.3-0.3,3.4-0.4
							c0-2.3-2.1-4.7-4.9-6.9c-4.5,0.5-8.9,0.8-13.4,1c2.9,2.4,4.9,5,4.9,7.2c-5.1,6.1-10.3,12.1-15.6,17.7c0-0.8,0-1.5,0-2.3
							c-0.4,0-0.7,0-1.1,0c-2.8-0.1-5.5-0.2-8.3-0.5c0,5.1-0.1,10.1-0.1,15.2c0,4.6-0.1,9.1-0.1,13.7c-1.3-0.1-2.6-0.2-4-0.4
							c0,1.1,0.5,2.4,1.4,3.8c0.9,1.4,2.1,2.8,3.5,4.1c4.5,0.3,9,0.5,13.6,0.5c-2.9-2.5-5-5.3-5-7.5
							C216.2,348.4,216.2,343.1,216.2,337.8"/>
						<path class="st1" d="M241.4,348.5c-3.3,0.4-6.6,0.7-9.9,0.9c0.6,1.3,1.3,2.7,2,4c0,1.1-0.5,2.4-1.4,3.7
							c-0.9,1.3-2.1,2.7-3.6,4c4.3-0.2,8.6-0.5,12.9-1c3-2.9,5.1-5.9,5.1-8.1c-1.1,0.2-2.2,0.3-3.3,0.4
							C242.6,351.1,242,349.8,241.4,348.5L241.4,348.5z"/>
						<path class="st1" d="M204.4,339.5c-1-0.1-2-0.2-2.9-0.3c-3.8-0.4-9.6-7.1-9.6-10c0-2.9,6-7.7,9.7-7.4c4.5,0.5,9.1,0.8,13.6,1
							c0.7,0,1.3,0,1.9,0c2.2-2.4,4.4-4.8,6.6-7.3c-8.3,0.1-16.6-0.3-24.8-1.4c-4.6-0.1-10.6,3.5-14.2,7.4c-1.7,1.8-3.4,3.5-5.1,5.2
							c1.5,2.4,3.1,4.7,4.6,7.1c3.5,5.7,10.1,12.1,15.1,12.6c1.6,0.2,3.3,0.4,5,0.5C204.3,344.4,204.4,341.9,204.4,339.5z"/>
						<path class="st1" d="M319.6,255.3c0.8-18,0.1-27.8-3.2-39c-1.1-4.1-3-8.5-5.1-11.8c-5-7.9-12.7-15.5-14.6-18.7
							c-2.6-4.3-2-8.6-2-8.6s-2.7,5.8-3.1,10.2c-0.5,4.6,0.1,8.3,1.6,12.4c2.1,5.7,5.8,8,5.8,8s0.7-5.1-3-14.9c0,0,5.7,6.3,6.8,14.5
							c0.6,4.6,2.2,23.3,11.1,21.6c0.5,5.4,0.5,8.5,0.4,14.3c-12.8,8.6-18.1,24.3-10,36.6c-3.5-13.5,2.9-24.4,10.3-29.2
							c-1.5,26.8,2.8,48.4,17,55.9C322.7,296.7,318.7,275.9,319.6,255.3L319.6,255.3z"/>
						<path class="st1" d="M90.9,306c0,0-0.6-24,7.1-35c7.7-10.9,22.8-18.7,30.9-20.5c8.8-2-0.1,9.7,0.2,16.5c0.2,3.8,4.9,5.4,8,8.9
							c6.8,7.8,4.1,13.7-4.2,18.2c6.1,10.4,4.7,17-2.9,19.4c1.1,8.7,2.8,11.2-3.3,14.2C118.8,331.6,90.9,306,90.9,306L90.9,306z"/>
						<path class="st1" d="M124.6,246.5c0,0,1.2-20,15.5-31.8c-8.6,17.7-8.6,30.2-8.6,30.2C129.3,245,126.7,245.7,124.6,246.5z"/>
						<path class="st1" d="M237.9,173.7c-1.1-4.1-2.8-9.6-4.6-14.5c-2-5.2-12.7-6.8-18.2-7.3c4.9-0.6,11.3-3.1,10.8-12
							c-0.3-4.7-2.2-8.4-3-11.8c-0.9-3.5-0.6-8.2,1.7-13.2c-4.8,1.9-8.2,6.9-9.8,12.3c0,0-0.4-1.9-0.2-3.7c0.2-1.8,1.1-3.4,1.1-3.4
							c-2.2,0.9-4.7,2.7-6.2,4.4c-3.4,3.7-5.4,10.3-5.4,10.3s-7.9-10.6-7.5-24.1c0.1-4.1,1.3-7.7,1.2-11.2
							c-12-8.7-14.9-22.8-14.9-22.8s6.3,11.2,14.2,16.4c-1.3-6.8-4.5-12.9-9.1-18.7c-5-6.3-8.8-11.4-11-14.9
							c-4.8-7.4-8.2-0.9-5.2,6.9c2.4,6.2,18.5,46.8,24.8,62.8c1.1,2.8,2.4,6.1,0.2,8.3l-11.3,11.6l0.5,0.1c0,0,0,0,0,0
							c7.3,2.1,15.5,3.2,24.5,3.2c0,0-3.5,1-5.9,3.7c-2.8,3.1-2.9,5.8-2.9,5.8c-3.8-3.9-7.1-4.7-12.1-5.1c-0.1,2-1.4,32.1,0,38.3
							c0.9,4,4.7,7.2,8.4,9.8c3.3,2.3,5.6,5.8,6.3,9.7c0.5,3,2.8,4.6,4.3,5c2.8,0.8,14.4,0.8,14.4-3.9c0-5.2,0.3-10.4-0.2-13.2
							c-0.2-1.4-2-2.6-3.2-3.4c-1.8-1.2-4.7-3.2-8.1-5.1c-1.6-1-3-1.6-3.8-1.5c-3.1,0.3-2.5,7-2.5,7s-2.8-3.4-2.8-8.7
							c0-1.8,0.5-3.6,1.2-5.2c0,0,0.7-1.4,0.7-1.5c3-5.8,7.2-10.4,7.2-10.4s-2.4,6.5,0.7,8.1l12.5,4.7c0,0,6.4-2.5,12-4.6
							C239.3,180.9,238.5,176.2,237.9,173.7L237.9,173.7z"/>
						<path class="st1" d="M251.7,82.3c0,0-9.6,6.2-13.5,14.8c-1.6,3.4-2.6,6.6-3.2,9.5c3.3,0,6.4,0.4,9.3,2.2
							c0.2,0.1,0.3,0.4,0.1,0.6c-2.1,2.9-3.5,5-1.7,8.1c0.9,1.6,1.7,4.6,2.8,7.9c4.6-7.9,2.2-19.4,1.6-26.5
							C246.5,90.6,251.7,82.3,251.7,82.3L251.7,82.3z"/>
						<path class="st1" d="M227.5,281.2c0-1.5-2.6-2.4-2.6-2.4s-2.6,0.9-2.6,2.4v7.1c0,1.5,2.6,2.4,2.6,2.4s2.6-0.9,2.6-2.4V281.2z"
							/>
						<path class="st1" d="M219.2,281c0.2-1.5-2.2-2.8-2.2-2.8s-2.7,0.5-2.9,2c-0.1,0.3-1.1,6.7-1.1,7c-0.2,1.5,2.2,2.8,2.2,2.8
							s2.7-0.5,2.9-2C218.1,287.6,219.1,281.3,219.2,281z"/>
						<path class="st1" d="M211,279.5c0.5-1.5-1.7-3.1-1.7-3.1s-2.7,0.1-3.2,1.5c-0.1,0.3-2.1,6.4-2.2,6.7c-0.5,1.5,1.7,3.1,1.7,3.1
							s2.7-0.1,3.2-1.5C208.9,285.9,210.9,279.7,211,279.5z"/>
						<path class="st1" d="M203.2,276.7c0.7-1.4-1.2-3.3-1.2-3.3s-2.7-0.4-3.4,1c-0.1,0.3-3.1,6-3.2,6.3c-0.7,1.4,1.2,3.3,1.2,3.3
							s2.7,0.4,3.4-1C200.1,282.8,203.1,277,203.2,276.7z"/>
						<path class="st1" d="M196,272.9c0.9-1.2-0.7-3.4-0.7-3.4s-2.6-0.8-3.5,0.5c-0.2,0.2-4,5.5-4.2,5.7c-0.9,1.2,0.7,3.4,0.7,3.4
							s2.6,0.8,3.5-0.5C191.9,278.4,195.8,273.1,196,272.9z"/>
						<path class="st1" d="M189.4,268c1.1-1.1-0.1-3.5-0.1-3.5s-2.5-1.2-3.6-0.1c-0.2,0.2-4.8,4.8-5.1,5c-1.1,1.1,0.1,3.5,0.1,3.5
							s2.5,1.1,3.6,0C184.5,272.8,189.2,268.2,189.4,268z"/>
						<path class="st1" d="M183.7,262.1c1.3-0.9,0.4-3.5,0.4-3.5s-2.3-1.5-3.5-0.6c-0.2,0.2-5.5,4-5.8,4.2c-1.3,0.9-0.4,3.5-0.4,3.5
							s2.3,1.5,3.5,0.6C178.1,266.1,183.4,262.3,183.7,262.1z"/>
						<path class="st1" d="M178.9,255.4c1.4-0.7,1-3.4,1-3.4s-2-1.8-3.4-1.1c-0.3,0.1-6.1,3.1-6.4,3.3c-1.4,0.7-1,3.4-1,3.4
							s2,1.8,3.4,1.1C172.8,258.6,178.6,255.6,178.9,255.4z"/>
						<path class="st1" d="M175.3,248.1c1.5-0.5,1.5-3.2,1.5-3.2s-1.7-2.1-3.2-1.6c-0.3,0.1-6.5,2.2-6.8,2.3
							c-1.5,0.5-1.5,3.2-1.5,3.2s1.7,2.1,3.2,1.6C168.8,250.3,175,248.2,175.3,248.1z"/>
						<path class="st1" d="M172.9,240.4c1.5-0.3,2-2.9,2-2.9s-1.3-2.3-2.9-2.1c-0.3,0.1-6.8,1.2-7.1,1.2c-1.5,0.3-2,2.9-2,2.9
							s1.3,2.3,2.9,2.1C166.1,241.5,172.6,240.4,172.9,240.4z"/>
						<path class="st1" d="M171.7,232.4c1.6,0,2.4-2.6,2.4-2.6s-0.9-2.5-2.5-2.5c-0.3,0-6.9,0.1-7.2,0.1c-1.6,0-2.4,2.6-2.4,2.6
							s0.9,2.5,2.5,2.5C164.8,232.5,171.4,232.4,171.7,232.4z"/>
						<path class="st1" d="M171.8,224.3c1.6,0.2,2.8-2.2,2.8-2.2s-0.5-2.6-2.1-2.8c-0.3,0-6.2-0.8-6.5-0.9c-1.6-0.2-2.8,2.2-2.8,2.2
							s0.5,2.6,2.1,2.8C165.6,223.4,171.5,224.2,171.8,224.3z"/>
						<path class="st1" d="M173.2,216.3c1.5,0.4,3.1-1.7,3.1-1.7s-0.1-2.7-1.6-3.1c-0.3-0.1-4.4-1.4-4.7-1.4
							c-1.5-0.5-3.1,1.7-3.1,1.7s0.1,2.7,1.6,3.1C168.9,214.9,172.9,216.2,173.2,216.3z"/>
						<path class="st1" d="M175.3,208.3c1.4,0.7,3.3-1.2,3.3-1.2s0.3-2.7-1.1-3.3c-0.3-0.1-1.7-0.8-1.9-1c-1.4-0.7-3.3,1.2-3.3,1.2
							s-0.3,2.7,1.1,3.3C173.6,207.5,175,208.2,175.3,208.3z"/>
						<path class="st1" d="M230.6,280.9c-0.2-1.5,2.1-2.8,2.1-2.8s2.7,0.5,2.9,2c0.1,0.3,1.1,6.7,1.2,7c0.2,1.5-2.1,2.8-2.1,2.8
							s-2.7-0.5-2.9-2C231.7,287.5,230.6,281.2,230.6,280.9z"/>
						<path class="st1" d="M238.7,279.3c-0.5-1.4,1.7-3.1,1.7-3.1s2.7,0,3.2,1.5c0.1,0.3,2.2,6.4,2.3,6.7c0.5,1.4-1.7,3.1-1.7,3.1
							s-2.7,0-3.2-1.5C240.9,285.7,238.8,279.6,238.7,279.3z"/>
						<path class="st1" d="M336.1,224.1c-0.2-1.5-2.7-1.7-2.7-1.7s-2.3,1.5-2.1,3c-0.1,0.3,3,22.5,3.2,22.8c0.2,1.5,3,1.7,3,1.7
							s2.5-1.5,2.2-3C339.6,246.6,336,224.4,336.1,224.1z"/>
						<path class="st1" d="M328.4,228.4c-0.2-1.5-2.7-1.7-2.7-1.7s-2.4,1.5-2.2,3c-0.1,0.3,2.4,22.5,2.5,22.8c0.2,1.5,3,1.7,3,1.7
							s2.6-1.5,2.3-3C331.2,250.9,328.3,228.7,328.4,228.4L328.4,228.4z"/>
						<path class="st1" d="M76.9,282.3c-0.9-1.3-3.4-0.4-3.4-0.4c0,0-1.4,2.6-0.4,3.9c0.1,0.4,9.9,13.3,10.2,13.4
							c1,1.2,3.4,0.1,3.4,0.1c0,0,1.3-2.5,0.3-3.7C86.7,295.5,77,282.7,76.9,282.3L76.9,282.3z"/>
						<path class="st1" d="M76.8,267.4c-0.9-1.4-3.4-0.6-3.4-0.6c0,0-1.5,2.5-0.6,3.9c0.1,0.5,10.8,16,11.1,16
							c1,1.3,3.4,0.3,3.4,0.3s1.3-2.4,0.4-3.7C87.4,283.3,76.8,267.9,76.8,267.4L76.8,267.4z"/>
						<path class="st1" d="M80,256.7c-0.9-1.4-3.4-0.8-3.4-0.8s-1.6,2.4-0.7,3.8c0.1,0.5,9.9,15.8,10.2,15.8
							c0.9,1.3,3.4,0.4,3.4,0.5c0,0,1.4-2.3,0.5-3.6C89.7,272.3,80.1,257.1,80,256.7z"/>
						<path class="st1" d="M87.1,251.5c0.2,0.5,7,11.9,7.3,12c0.9,1.3-0.6,3.5-0.6,3.5c0,0-2.5,0.7-3.4-0.6
							c-0.2-0.1-7.3-11.8-7.4-12.2c-0.8-1.4,0.8-3.6,0.8-3.6S86.2,250.1,87.1,251.5C87.1,251.5,87.1,251.5,87.1,251.5z"/>
						<path class="st1" d="M133.8,263.2c1.8-5.1,5.6-9.6,1.8-15.5c12.1,1.6,13.9,20.6,13.9,20.6c-5.1-0.2-8.1,0.2-12.6,0.9
							C132.1,270,133.2,265.1,133.8,263.2L133.8,263.2z"/>
						<path class="st1" d="M246.5,276.5c-0.7-1.4,1.2-3.3,1.2-3.3s2.7-0.4,3.4,1c0.1,0.3,3.2,6,3.3,6.3c0.7,1.4-1.2,3.3-1.2,3.3
							s-2.7,0.4-3.4-1C249.6,282.6,246.6,276.8,246.5,276.5z"/>
						<path class="st1" d="M253.7,272.6c-0.9-1.2,0.6-3.4,0.6-3.4s2.6-0.8,3.5,0.5c0.2,0.2,4.1,5.5,4.2,5.7c0.9,1.2-0.6,3.4-0.6,3.4
							s-2.6,0.8-3.5-0.5C257.8,278.1,253.9,272.9,253.7,272.6z"/>
						<path class="st1" d="M260.3,267.7c-1.1-1.1,0.1-3.5,0.1-3.5s2.5-1.2,3.6-0.1c0.2,0.2,4.9,4.8,5.1,5c1.1,1.1-0.1,3.5-0.1,3.5
							s-2.5,1.2-3.6,0.1C265.2,272.4,260.5,267.9,260.3,267.7z"/>
						<path class="st1" d="M266,261.8c-1.3-0.9-0.5-3.5-0.5-3.5s2.2-1.5,3.5-0.6c0.2,0.2,5.6,4,5.8,4.2c1.3,0.9,0.5,3.5,0.5,3.5
							s-2.2,1.5-3.5,0.6C271.5,265.7,266.2,261.9,266,261.8z"/>
						<path class="st1" d="M270.6,255.1c-1.4-0.7-1-3.4-1-3.4s2-1.8,3.4-1.1c0.3,0.1,6.1,3.1,6.4,3.2c1.4,0.7,1,3.4,1,3.4
							s-2,1.9-3.4,1.1C276.8,258.2,270.9,255.2,270.6,255.1z"/>
						<path class="st1" d="M274.2,247.7c-1.5-0.5-1.5-3.2-1.5-3.2s1.7-2.1,3.1-1.6c0.3,0.1,6.5,2.1,6.9,2.2c1.5,0.5,1.5,3.2,1.5,3.2
							s-1.7,2.1-3.2,1.6C280.8,249.9,274.5,247.8,274.2,247.7z"/>
						<path class="st1" d="M276.6,240c-1.5-0.2-2-2.9-2-2.9s1.3-2.4,2.9-2.1c0.3,0.1,6.2,1,6.5,1.1c1.5,0.2,2,2.9,2,2.9
							s-1.3,2.4-2.9,2.1C282.8,241,276.9,240,276.6,240z"/>
						<path class="st1" d="M277.7,231.9c-1.6,0-2.4-2.5-2.4-2.5s0.9-2.5,2.5-2.5c0.3,0,4.6,0,4.9,0c1.6,0,2.4,2.6,2.4,2.6
							s-0.9,2.5-2.5,2.5C282.3,231.9,278,231.9,277.7,231.9z"/>
						<path class="st1" d="M278.2,223.8c-1.5,0.2-2.8-2.1-2.8-2.1s0.5-2.6,2.1-2.9c0.3,0,1.8-0.3,2.1-0.4c1.6-0.2,2.8,2.1,2.8,2.1
							s-0.5,2.6-2.1,2.9C280,223.5,278.5,223.7,278.2,223.8z"/>
						<path class="st1" d="M366.9,217.1c-0.4-1.5-2.8-1.7-2.8-1.7s-2,1.5-1.6,3c0,0.5,5.9,22.5,6.1,22.8c0.4,1.5,3.1,1.7,3.1,1.7
							s2.2-1.5,1.7-3C373.3,239.5,366.9,217.5,366.9,217.1z"/>
						<path class="st1" d="M359.1,217.5c-0.4-1.5-2.8-1.7-2.8-1.7s-2.1,1.5-1.7,3c-0.1,0.3,5.2,22.5,5.4,22.8
							c0.4,1.5,3.1,1.7,3.1,1.7s2.2-1.5,1.8-3C364.7,240,359,217.8,359.1,217.5z"/>
						<path class="st1" d="M351.4,218.8c-0.3-1.5-2.7-1.7-2.7-1.7s-2.1,1.5-1.8,3c-0.1,0.3,4.4,22.5,4.6,22.8c0.3,1.5,3,1.7,3,1.7
							s2.3-1.5,2-3C356.3,241.3,351.3,219.1,351.4,218.8z"/>
						<path class="st1" d="M343.7,220.7c-0.3-1.5-2.7-1.7-2.7-1.7s-2.2,1.5-2,3c-0.1,0.3,3.7,22.5,3.9,22.8c0.3,1.5,3,1.7,3,1.7
							s2.4-1.5,2.1-3C347.9,243.2,343.7,221,343.7,220.7L343.7,220.7z"/>
						<path class="st1" d="M95.1,249.4c-0.8-1.4-3.4-0.9-3.4-0.9c0,0-1.6,2.1-0.8,3.5c0.1,0.3,5.2,8.5,5.4,8.7
							c0.9,1.3,3.4,0.7,3.4,0.7c0,0,1.5-2.1,0.7-3.4C100.2,257.8,95.2,249.8,95.1,249.4L95.1,249.4z"/>
						<path class="st1" d="M104.5,250.1c-0.8-1.3-3.4-0.9-3.4-0.9s-1.6,2-0.8,3.3c0.2,0.3,2,3.2,2.2,3.5c0.8,1.3,3.4,0.8,3.4,0.8
							c0,0,1.6-2,0.7-3.3C106.5,253.3,104.7,250.3,104.5,250.1z"/>
						<path class="st1" d="M308.7,174.7c0.8-6.5,5.8-17.1,16.6-11.1c0,0,4.7-8.6,9.4-7.8c4.7,0.8,8.5,4.3,12.8,13
							c4.3,8.7,14.4,33.4,17,42c0,0-10.8,0.2-21.5,3c-10.7,2.8-20.4,9.5-20.4,9.5s-1.8-10.1-7.9-21.4c-4.1-7.7-12-13.1-14.9-20
							C296.9,175.2,299.9,170.2,308.7,174.7L308.7,174.7z"/>
						<path class="st1" d="M140.2,308.4c1-3.1,0.8-7.4-2.2-13.2c4.3-4.1,12.8-9.7,1.2-22.3h0c0,0,12.4-2.5,15.9-1.5
							c3.6,1,8.5,8.8,4.2,13c-4.2,4.2-11.2,7.2-11.2,7.2s1.5,2.6,9.6-1.7c2.3,5.9,0.1,12.9-14.7,19.1c4.2,1,9.8-1.6,9.8-1.6
							s2.9,7.3-9.7,14.1c-5.5,2.9-8.2,4.1-8.2,4.1c0.5-2.1,0.3-5.4-1-10.4C136,314.2,139,312.2,140.2,308.4z"/>
						<path class="st1" d="M214.2,225.2c0,0,7.9-0.6,10.7-3.3c2.4,2.5,11.6,3.1,11.6,3.1s-0.6,2.2-11.4,2.2
							C214.2,227.2,214.2,225.2,214.2,225.2z"/>
						<path class="st1" d="M248.4,163.8c0,0-2.8-3.6-4.5-5c-3.7-2.8-6.8-1.2-6.2,2.4c1,7.1,3.3,12.4,7.9,23.3c0.8,1.9,1.7,4,1.7,6.1
							c0,5.3-2.8,8.7-2.8,8.7s0.6-6.7-2.5-7c-0.8-0.1-2.1,0.6-3.8,1.5c-3.5,1.9-6.4,3.8-8.2,5.1c-1.1,0.8-2.9,2-3.2,3.4
							c-0.5,2.8-0.2,7.9-0.2,13.2c0,4.7,11.6,4.6,14.4,3.9c2.2-0.6,3.7-1.9,4.3-4.8c0.9-4,3-7.6,6.4-9.9c3.7-2.6,7.5-5.9,8.4-9.8
							c1.3-6.1,0.1-35.3,0-38.1L248.4,163.8L248.4,163.8z"/>
						<line class="st1" x1="89.9" y1="208.1" x2="89.9" y2="208.1"/>
						<path class="st1" d="M89.9,208.1c0,0,12.2,4.2,17.1,17.1c4.5,11.8,3.1,28.3,3.1,28.3c2.2-1.4,4.3-2.5,6.3-3.5
							c0,0,1.8-11.7-3.8-26.2C106.6,207.9,90.4,208.1,89.9,208.1z"/>
						<path class="st1" d="M256.4,217.1c-1.4,15.6-7.7,30.9-10.5,38.3c-2.8,7.4,4.3,9.4,14.8,0.5c12.9-13.6,10-29,10-29l-5.4-29.8
							c-1.8,9-10.4,8.5-13.9,15.8c-2.3,4.7-4.6,10.1-10.2,12.2c-0.3,3.8-3.4,6.8-7.3,6.8h-4.4c0.4,3.6-0.1,8.9-3.7,14.6
							c-6.6,10.4,0.1,23.2,0.1,23.2C241.6,256.5,249.6,232.7,256.4,217.1z"/>
						<path class="st1" d="M202.3,98.8c-0.7,8.1-3.1,17.5,1.6,26.5c2.9-6.7,6.6-8.8,11.7-10.8c0-4.5-1.3-11-4.2-17.4
							c-3.9-8.6-13.5-14.8-13.5-14.8S202.9,90.8,202.3,98.8L202.3,98.8z"/>
						<path class="st1" d="M277.9,66.3c3-7.7-0.5-14.3-5.2-6.8c-2.2,3.5-6,8.6-11,14.9c-4.6,5.8-7.8,11.9-9.1,18.7
							c7.9-5.2,14.2-16.4,14.2-16.4s-2.9,14.2-14.9,22.9c-0.1,3.5,1,7.2,1.2,11.2c0.5,13.5-7.6,24.1-7.6,24.1
							c-3.1-9.3-6.4-12.1-8.1-16.3c-1-2.6-1-5.3,0.1-7.2c-7-0.2-14.6,6.6-10.6,18.7c5.6,16.8-1,17.9,0,21.2c0.6,2,6.5,2.3,12.8,0.2
							c9.1-3.1,18-3.4,24.4-2.5c0,0-4-4.2-8.8-9l-2.5-2.5c-1.8-1.8-1.4-4.4,0.2-8.3C259.6,113.2,275.5,72.5,277.9,66.3L277.9,66.3z"
							/>
						<path class="st1" d="M310.6,320.8c-8.7-13.4-10.6-30-10.6-30s-4.3,9.7-0.9,18C302.4,316.7,310.1,320.6,310.6,320.8z"/>
						<polyline class="st1" points="310.6,320.9 310.6,320.8 310.6,320.8 						"/>
						<polygon class="st1" points="307.5,358.8 307.5,350.2 304.3,350.2 304.3,349.1 312,349.1 312,350.2 308.8,350.2 308.8,358.8 
													"/>
						<line class="st1" x1="313.2" y1="358.8" x2="313.2" y2="358.8"/>
						<path class="st1" d="M313.2,358.8v-9.7h1.9l2.3,6.9c0.2,0.6,0.4,1.1,0.5,1.4c0.1-0.4,0.3-0.9,0.5-1.5l2.3-6.7h1.7v9.7h-1.2
							v-8.1l-2.8,8.1h-1.2l-2.8-8.2v8.2H313.2z"/>
					</g>
				</g>
			</g>
		</g>
	</g>
</g>
<rect x="-1.3" y="-3.9" class="st2" width="432" height="432"/>
<g>
	<path class="st3" d="M388,242.8c-8.1-37.1-27.1-78.1-31.7-85.5c-2.6-4.1-6.4-8-10.3-10.7c-5.5-3.7-10.9-4.8-15.7-3.2
		c-3.2,1.1-6.1,2.9-8.5,5.3c-4-1-7.9-0.8-11.3,0.6c-5.8,2.4-8.6,6.5-10.4,10.5c-0.1,0-0.3,0-0.4,0c-6.1,0-11.2,2.4-14.1,6.9
		c-2.7,4.2-4.4,8.7-5,13.5c-3.1,0.1-6.1,0.4-8.8,0.8v-22.2c0-0.4,0.2-0.9,0.5-1.2l1.4-1.4c4.2-4.2,3-10.8-0.6-14.8l-9-9
		c1.7-4,4.2-9.9,7-16.4c7.2-16.9,16.2-37.9,19-44.7c2-4.8,2.6-10.5,1.9-15.6c-1-6.2-4-10.9-8.5-13.1c-3.7-1.8-13.4-4.4-22.7,11.5
		c-5.8,9.9-11.8,15-17.7,20c-6.2,5.3-12.6,10.8-16.7,20.5c-0.2,0.6-0.7,1.7-1.1,3.1c-0.4-1-0.8-2.1-1.2-3.1
		c-4.1-9.8-10.5-15.2-16.7-20.5c-5.8-5-11.9-10.1-17.7-20c-9.3-15.9-19-13.4-22.7-11.5c-4.5,2.2-7.6,6.9-8.5,13.1
		c-0.8,5.1-0.1,10.8,1.9,15.6c3.6,8.8,21.4,51.1,25.7,61.1l-9.1,9.1c-2,2-3.1,4.7-3.1,7.5s1.1,5.5,3.1,7.5l0.8,0.8
		c0.3,0.3,0.5,0.7,0.5,1.2v5.5c-21.7-4.6-47.3-3.1-71.4,4.3C75.1,178,50,196.6,35.8,220.6c-1.1,1.8-1.7,3.9-1.8,6.1
		c0,1.4,0.1,2.8,0.5,4.2c12.9,45.8,35.6,73.2,52.4,88.1c18.8,16.8,34.9,22.2,35.6,22.5l2.1,0.7l2.2-0.3c5-0.8,9.7-2.5,13.5-4.3
		c9.7,10.1,23.8,19.9,41.9,29.1c14.9,7.6,29.6,13.1,37.6,15.6c1.8,0.5,3.5,0.8,5.3,0.8s3.6-0.3,5.2-0.9c48.4-16.5,74-38.9,83.4-48.6
		c1.7,2,3.5,3.9,5.2,5.5c0.4,0.4,0.8,0.8,1.2,1.2l1.2,1.4l0.3,0c12.5,11.5,24.6,16.5,41.1,21.2c2.9,0.8,5.9,0.5,8.4-0.9
		c2.2-1.2,3.5-2.9,4.6-4.2l0.1-0.2C397.4,330.2,400.5,300.2,388,242.8L388,242.8z"/>
	<g>
		<path class="st4" d="M383.1,243.9c-7.9-36.1-26.6-76.8-31.1-83.9c-4-6.4-12.9-14.2-20.1-11.8c-4,1.3-6.7,3.9-8.4,6.5
			c-3.2-1.4-7.2-2.2-11.1-0.6c-5.4,2.2-7.1,6.2-9.1,11.2c-4.8-0.9-10.6-0.3-13.5,4.2c-3.1,4.8-4.6,10.1-4.6,15.8
			c-7.7-0.2-15.2,0.8-18.6,2v-28.5c0-1.8,0.7-3.5,2-4.8l1.4-1.4c2.1-2.1,1.2-5.7-0.8-7.9l-10.1-10.1c-0.7-0.7-0.9-1.7-0.5-2.6
			c5.4-12.8,22.7-52.9,26.6-62.7c3.2-8,2.3-19.1-4.2-22.3c-3-1.5-9.2-2.3-16.1,9.6c-6.2,10.6-12.9,16.3-18.8,21.3
			c-6,5.1-11.7,10-15.3,18.6c-0.6,1.3-1.7,4.5-2.6,8.7c-0.2,1-0.4,2.7-0.4,2.7c-2.1,0.5-3.6,1.3-4.9,2.2c-0.2-1.3-0.6-3.6-0.9-4.9
			c-0.6-2.9-1.6-5.8-2.8-8.8c-3.6-8.6-9.3-13.5-15.3-18.6c-5.9-5-12.5-10.7-18.8-21.3c-6.9-11.8-13.1-11.1-16.1-9.6
			c-6.5,3.2-7.4,14.3-4.2,22.3c3.7,9.1,22.6,53.9,26.3,62.7c0.4,0.9,0.2,1.9-0.5,2.6L180.2,145c-2.2,2.2-2.2,5.7,0,7.9l0.8,0.8
			c1.3,1.3,2,3,2,4.8v11.9c-21.9-6.1-49.4-5.2-74.9,2.7c-30.3,9.4-54.3,27.1-67.8,50c-0.7,1.1-1,2.4-1.1,3.8c0,0.9,0.1,1.8,0.3,2.7
			c12.6,44.6,34.5,71.2,50.8,85.7c18.1,16.1,33.2,21.2,33.8,21.5l1,0.3l1-0.2c5.8-0.9,11.4-3.4,15.4-5.6
			c21.6,24.9,66.6,42,79.9,46.1c2.4,0.8,5,0.8,7.4,0c61.3-21,85.3-51.7,85.3-51.7c2.4,3.3,5.3,6.7,8.4,9.6c0.6,0.5,1.1,1,1.5,1.5
			c0,0,0,0,0.1,0h0c12.1,11.5,23.5,16.4,40.2,21.1c1.5,0.4,3.2,0.3,4.6-0.5s2.2-1.9,3.1-3.1C392,328.9,395.4,300.4,383.1,243.9
			L383.1,243.9z"/>
		<path class="st3" d="M226.1,231.9h-10.2c-3.7,0-6.8-2.8-7.3-6.4c-6.5-1.7-8-7.7-10.4-12.6c-3.5-7.3-12.2-6.8-13.9-15.8l-5.4,29.8
			c0,0-2.9,15.4,10,29c10.6,8.9,17.7,6.9,14.8-0.5c-2.8-7.4-9.1-22.7-10.5-38.3c6.8,15.6,14.9,39.4,30.6,52.6c0,0-8.5-11.6-0.6-25.7
			C226,239.1,226.3,235,226.1,231.9L226.1,231.9z"/>
		<g>
			<g>
				<path class="st3" d="M232.8,322.5c3.9-0.3,7.8-0.6,11.7-1.2c2.1-0.3,4.9,1.3,6.8,3.2c3.7-0.6,7.3-1.4,11-2.3
					c-3.2-4.4-10.3-8.9-15.6-8.7c-2.4,0.4-4.8,0.6-7.1,0.9C237.3,317.2,235.1,319.9,232.8,322.5L232.8,322.5z"/>
				<path class="st3" d="M251.6,333.2c-1.9,2.6-4.7,5.1-6.8,5.4c-8.7,1.2-17.4,1.7-26.2,1.6c0,2.5,0,5,0,7.5
					c9.4,0.1,18.8-0.5,28.2-1.8c5.5-1,12.8-8.8,15.8-14.9C258.9,331.8,255.2,332.6,251.6,333.2L251.6,333.2z"/>
				<path class="st3" d="M207,309.2c0,1.3,0,2.5,0,3.8c3.1,0.2,6.2,0.4,9.3,0.5c0-1.3,0-2.5,0-3.8c0-2.3,2-4.9,4.9-7.4
					c-4.4,0-8.9-0.2-13.3-0.5c-2.9,2.3-4.9,4.8-4.9,7C204.3,308.9,205.6,309.1,207,309.2z"/>
				<path class="st3" d="M216.2,337.8c2.1-2.3,4.3-4.7,6.4-7.1c1.2,2.5,2.3,5,3.5,7.4c3.4-0.1,6.8-0.3,10.2-0.6
					c-2.2-4.8-4.4-9.7-6.6-14.6c4.1-4.7,8.1-9.5,12.1-14.5c1.1-0.1,2.3-0.3,3.4-0.4c-0.1-2.3-2.1-4.7-4.9-6.9
					c-4.4,0.5-8.9,0.8-13.4,1c2.9,2.4,4.9,5,4.9,7.2l0,0c-5.1,6.1-10.3,12.1-15.6,17.7c0-0.8,0-1.5,0-2.3c-3.1-0.1-6.2-0.2-9.4-0.5
					c-0.1,9.6-0.2,19.2-0.2,28.8c-1.3-0.1-2.6-0.2-4-0.4l0,0l0,0l0,0l0,0c0,2.3,2,5.2,4.9,7.9c4.5,0.3,9,0.5,13.6,0.5
					c-2.9-2.5-5-5.3-5-7.5C216.2,348.4,216.2,343.1,216.2,337.8L216.2,337.8z"/>
				<path class="st3" d="M241.4,348.5c-3.3,0.4-6.6,0.7-9.9,0.9c0.6,1.3,1.3,2.7,2,4l0,0c0,2.3-2,5.1-4.9,7.8
					c4.3-0.2,8.6-0.5,12.9-1c3-2.9,5.1-5.9,5.1-8.1c-1.1,0.2-2.2,0.3-3.3,0.4C242.6,351.1,242,349.8,241.4,348.5L241.4,348.5z"/>
				<path class="st3" d="M201.6,321.8c5.2,0.6,10.4,0.9,15.6,1c2.2-2.4,4.4-4.8,6.6-7.3c-8.3,0.1-16.6-0.3-24.8-1.4
					c-4.6-0.1-10.6,3.5-14.2,7.4c-1.7,1.8-3.4,3.5-5.1,5.2c1.5,2.4,3.1,4.7,4.6,7.1c3.5,5.7,10.1,12.1,15.1,12.6
					c1.6,0.2,3.3,0.4,5,0.5c0-2.5,0.1-5,0.1-7.4c-1-0.1-2-0.2-2.9-0.3c-3.8-0.4-9.6-7.1-9.6-10C191.9,326.2,197.9,321.4,201.6,321.8
					L201.6,321.8z"/>
			</g>
			<g>
				<path class="st3" d="M319.6,255.3c0.8-18,0.1-27.8-3.2-39c-1.1-4.1-3-8.5-5.1-11.8c-5-7.9-12.7-15.5-14.6-18.7
					c-2.6-4.3-2-8.6-2-8.6s-2.7,5.8-3.1,10.2c-0.5,4.6,0.1,8.3,1.6,12.4c2.1,5.7,5.8,8,5.8,8s0.7-5.1-3-14.9c0,0,5.7,6.3,6.8,14.5
					c0.6,4.6,2.2,23.3,11.1,21.6c0.5,5.4,0.5,8.5,0.4,14.3c-12.8,8.6-18.1,24.3-10,36.6c-3.5-13.5,2.9-24.4,10.3-29.2
					c-1.5,26.8,2.8,48.4,17,55.9C322.7,296.7,318.7,275.9,319.6,255.3L319.6,255.3z"/>
				<path class="st3" d="M90.9,306c0,0-0.6-24,7.1-35c7.7-10.9,22.8-18.6,30.8-20.5c8.8-2-0.1,9.7,0.2,16.5c0.2,3.8,4.9,5.4,8,8.9
					c6.8,7.8,4.1,13.7-4.2,18.2c6.1,10.4,4.7,17-2.9,19.4c1.1,8.7,2.8,11.2-3.3,14.2C118.8,331.6,90.9,306,90.9,306L90.9,306z"/>
				<path class="st3" d="M124.6,246.5c0,0,1.2-20,15.5-31.8c-8.6,17.7-8.6,30.2-8.6,30.2C129.3,245,126.7,245.7,124.6,246.5
					L124.6,246.5z"/>
				<path class="st3" d="M237.9,173.7c-1.1-4.1-2.8-9.6-4.6-14.5c-2-5.2-12.7-6.8-18.2-7.3c4.9-0.6,11.3-3.1,10.8-12
					c-0.3-4.7-2.2-8.4-3-11.8c-0.9-3.5-0.6-8.2,1.7-13.2c-4.8,1.9-8.2,6.9-9.8,12.3c0,0-0.4-1.9-0.2-3.7c0.2-1.8,1.1-3.4,1.1-3.4
					c-2.2,0.9-4.7,2.7-6.2,4.3c-3.4,3.7-5.4,10.4-5.4,10.4s-7.9-10.6-7.5-24.1c0.1-4.1,1.3-7.7,1.2-11.2
					c-12-8.7-14.9-22.8-14.9-22.8S189.2,87.8,197,93c-1.3-6.8-4.5-12.9-9.1-18.7c-5-6.3-8.8-11.4-11-14.9c-4.8-7.4-8.2-0.9-5.2,6.8
					c2.4,6.2,18.5,46.8,24.8,62.8c1.1,2.8,2.4,6.1,0.2,8.3l-11.3,11.6l0.5,0.1c0,0,0,0,0,0c7.3,2.1,15.5,3.2,24.5,3.2
					c0,0-3.5,1-5.9,3.7c-2.8,3.1-2.9,5.8-2.9,5.8c-3.8-3.9-7.1-4.7-12.1-5.1c-0.1,2-1.4,32.1,0,38.3c0.9,4,4.7,7.2,8.4,9.8
					c3.3,2.3,5.6,5.8,6.3,9.7c0.5,3,2.8,4.6,4.4,5c2.8,0.8,14.4,0.8,14.4-3.9c0-5.2,0.3-10.4-0.2-13.1c-0.2-1.4-2-2.6-3.2-3.4
					c-1.8-1.2-4.7-3.2-8.1-5.1c-1.6-1-3-1.6-3.8-1.5c-3.1,0.3-2.5,7-2.5,7s-2.8-3.4-2.8-8.7c0-1.8,0.5-3.6,1.2-5.2
					c0,0,0.7-1.4,0.7-1.5c3-5.8,7.2-10.4,7.2-10.4s-2.4,6.5,0.7,8.1l12.5,4.7c0,0,6.4-2.5,12-4.6
					C239.3,180.9,238.5,176.2,237.9,173.7L237.9,173.7z"/>
				<path class="st3" d="M251.7,82.3c0,0-9.6,6.2-13.5,14.8c-1.6,3.4-2.6,6.6-3.2,9.5c3.3,0.1,6.4,0.4,9.3,2.2
					c0.2,0.1,0.3,0.4,0.1,0.6c-2.1,2.9-3.5,5-1.7,8.1c0.9,1.6,1.7,4.6,2.8,7.9c4.6-7.9,2.2-19.4,1.6-26.5
					C246.5,90.6,251.7,82.3,251.7,82.3L251.7,82.3z"/>
				<g>
					<path class="st3" d="M227.5,281.2c0-1.5-2.6-2.4-2.6-2.4s-2.6,0.9-2.6,2.4v7.1c0,1.5,2.6,2.4,2.6,2.4s2.6-0.9,2.6-2.4V281.2z"
						/>
					<path class="st3" d="M219.2,281c0.2-1.5-2.2-2.8-2.2-2.8s-2.7,0.5-2.9,2c-0.1,0.3-1.1,6.7-1.1,7c-0.2,1.5,2.2,2.8,2.2,2.8
						s2.7-0.5,2.9-2C218.1,287.6,219.1,281.3,219.2,281z"/>
					<path class="st3" d="M211,279.5c0.5-1.5-1.7-3.1-1.7-3.1s-2.7,0.1-3.2,1.5c-0.1,0.3-2.1,6.4-2.2,6.7c-0.5,1.5,1.7,3.1,1.7,3.1
						s2.7-0.1,3.2-1.5C208.9,285.9,210.9,279.7,211,279.5z"/>
					<path class="st3" d="M203.2,276.7c0.7-1.4-1.2-3.3-1.2-3.3s-2.7-0.4-3.4,1c-0.1,0.3-3.1,6-3.2,6.3c-0.7,1.4,1.2,3.3,1.2,3.3
						s2.7,0.4,3.4-1C200.1,282.8,203.1,277,203.2,276.7z"/>
					<path class="st3" d="M195.9,272.9c0.9-1.2-0.7-3.4-0.7-3.4s-2.6-0.8-3.5,0.5c-0.2,0.2-4,5.5-4.2,5.7c-0.9,1.2,0.7,3.4,0.7,3.4
						s2.6,0.8,3.5-0.5C191.9,278.4,195.8,273.1,195.9,272.9z"/>
					<path class="st3" d="M189.4,268c1.1-1.1-0.1-3.5-0.1-3.5s-2.5-1.1-3.6,0c-0.2,0.2-4.8,4.8-5.1,5c-1.1,1.1,0.1,3.5,0.1,3.5
						s2.5,1.1,3.6,0C184.5,272.8,189.1,268.2,189.4,268z"/>
					<path class="st3" d="M183.6,262.1c1.3-0.9,0.4-3.5,0.4-3.5s-2.3-1.5-3.5-0.6c-0.2,0.2-5.5,4-5.8,4.2c-1.3,0.9-0.4,3.5-0.4,3.5
						s2.3,1.5,3.5,0.6C178.1,266.1,183.4,262.3,183.6,262.1z"/>
					<path class="st3" d="M178.9,255.4c1.4-0.7,1-3.4,1-3.4s-2-1.8-3.4-1.1c-0.3,0.1-6.1,3.1-6.4,3.3c-1.4,0.7-1,3.4-1,3.4
						s2,1.8,3.4,1.1C172.8,258.6,178.6,255.6,178.9,255.4z"/>
					<path class="st3" d="M175.3,248.1c1.5-0.5,1.5-3.2,1.5-3.2s-1.7-2.1-3.2-1.6c-0.3,0.1-6.5,2.2-6.8,2.3
						c-1.5,0.5-1.5,3.2-1.5,3.2s1.7,2.1,3.2,1.6C168.8,250.3,175,248.2,175.3,248.1z"/>
					<path class="st3" d="M172.9,240.4c1.5-0.3,2-2.9,2-2.9s-1.3-2.3-2.9-2.1c-0.3,0.1-6.8,1.1-7.1,1.2c-1.5,0.3-2,2.9-2,2.9
						s1.3,2.3,2.9,2.1C166.1,241.5,172.6,240.4,172.9,240.4z"/>
					<path class="st3" d="M171.7,232.4c1.6,0,2.4-2.6,2.4-2.6s-0.9-2.5-2.5-2.5c-0.3,0-6.9,0.1-7.2,0.1c-1.6,0-2.4,2.6-2.4,2.6
						s0.9,2.5,2.5,2.5C164.8,232.5,171.4,232.4,171.7,232.4z"/>
					<path class="st3" d="M171.8,224.3c1.6,0.2,2.8-2.2,2.8-2.2s-0.5-2.6-2.1-2.8c-0.3,0-6.2-0.8-6.5-0.9c-1.6-0.2-2.8,2.2-2.8,2.2
						s0.5,2.6,2.1,2.8C165.6,223.4,171.5,224.2,171.8,224.3z"/>
					<path class="st3" d="M173.2,216.3c1.5,0.4,3.1-1.7,3.1-1.7s-0.1-2.7-1.6-3.1c-0.3-0.1-4.4-1.4-4.7-1.4
						c-1.5-0.4-3.1,1.7-3.1,1.7s0.1,2.7,1.6,3.1C168.8,214.9,172.9,216.2,173.2,216.3z"/>
					<path class="st3" d="M175.3,208.3c1.4,0.7,3.4-1.2,3.4-1.2s0.3-2.7-1.1-3.3c-0.3-0.1-1.6-0.8-1.9-1c-1.4-0.7-3.4,1.2-3.4,1.2
						s-0.3,2.7,1.1,3.3C173.6,207.5,175,208.2,175.3,208.3z"/>
					<path class="st3" d="M230.6,280.9c-0.2-1.5,2.1-2.8,2.1-2.8s2.7,0.5,2.9,2c0.1,0.3,1.1,6.7,1.2,7c0.2,1.5-2.1,2.8-2.1,2.8
						s-2.7-0.5-2.9-2C231.7,287.5,230.6,281.2,230.6,280.9z"/>
					<path class="st3" d="M238.7,279.3c-0.5-1.5,1.7-3.1,1.7-3.1s2.7,0,3.2,1.5c0.1,0.3,2.2,6.4,2.3,6.7c0.5,1.5-1.7,3.1-1.7,3.1
						s-2.7,0-3.2-1.5C240.9,285.7,238.8,279.6,238.7,279.3z"/>
				</g>
				<g>
					<path class="st3" d="M336.1,224.1c-0.2-1.5-2.7-1.7-2.7-1.7s-2.3,1.5-2.1,3c-0.1,0.3,3,22.5,3.2,22.8c0.2,1.5,3,1.7,3,1.7
						s2.5-1.5,2.2-3C339.6,246.6,336,224.4,336.1,224.1L336.1,224.1z"/>
					<path class="st3" d="M328.4,228.4c-0.2-1.5-2.7-1.7-2.7-1.7c0,0-2.4,1.5-2.2,3c-0.1,0.3,2.4,22.5,2.5,22.8c0.2,1.5,3,1.7,3,1.7
						s2.5-1.5,2.3-3C331.2,250.9,328.3,228.7,328.4,228.4L328.4,228.4z"/>
				</g>
				<g>
					<path class="st3" d="M76.9,282.3c-0.9-1.3-3.4-0.4-3.4-0.4c0,0-1.4,2.6-0.4,3.9c0.1,0.4,9.9,13.3,10.2,13.4
						c1,1.2,3.4,0.1,3.4,0.1c0,0,1.3-2.5,0.3-3.7C86.7,295.5,77,282.7,76.9,282.3L76.9,282.3z"/>
					<path class="st3" d="M76.8,267.4c-0.9-1.4-3.4-0.6-3.4-0.6c0,0-1.5,2.5-0.6,3.9c0.1,0.5,10.8,16,11.1,16c1,1.3,3.4,0.3,3.4,0.3
						s1.3-2.4,0.4-3.7C87.4,283.3,76.8,267.9,76.8,267.4L76.8,267.4z"/>
					<path class="st3" d="M80,256.7c-0.8-1.4-3.4-0.8-3.4-0.8s-1.6,2.3-0.7,3.8c0.1,0.5,9.9,15.8,10.2,15.8c0.9,1.3,3.4,0.5,3.4,0.5
						c0,0,1.4-2.3,0.5-3.6C89.7,272.3,80.1,257.1,80,256.7z"/>
					<path class="st3" d="M87,251.5c-0.8-1.4-3.4-0.9-3.4-0.9s-1.6,2.2-0.8,3.7c0.1,0.4,7.2,12,7.4,12.1c0.9,1.3,3.4,0.6,3.4,0.6
						c0,0,1.5-2.2,0.6-3.5C94.1,263.4,87.1,251.9,87,251.5L87,251.5z"/>
				</g>
			</g>
		</g>
		<g>
			<path class="st5" d="M133.8,263.2c1.8-5.1,5.6-9.6,1.8-15.5c12.1,1.6,13.9,20.6,13.9,20.6c-5.1-0.2-8.1,0.2-12.6,0.9
				C132.1,270,133.2,265.1,133.8,263.2L133.8,263.2z"/>
			<g>
				<g>
					<path class="st5" d="M246.5,276.5c-0.7-1.4,1.2-3.3,1.2-3.3s2.7-0.4,3.4,1c0.1,0.3,3.1,6,3.3,6.3c0.7,1.4-1.2,3.3-1.2,3.3
						s-2.7,0.4-3.4-1C249.6,282.6,246.6,276.8,246.5,276.5z"/>
					<path class="st5" d="M253.7,272.6c-0.9-1.2,0.6-3.4,0.6-3.4s2.6-0.8,3.5,0.5c0.2,0.2,4.1,5.5,4.2,5.7c0.9,1.2-0.6,3.4-0.6,3.4
						s-2.6,0.8-3.5-0.5C257.8,278.1,253.9,272.9,253.7,272.6L253.7,272.6z"/>
					<path class="st5" d="M260.3,267.7c-1.1-1.1,0.1-3.5,0.1-3.5s2.5-1.2,3.6-0.1c0.2,0.2,4.9,4.8,5.1,5c1.1,1.1-0.1,3.5-0.1,3.5
						s-2.5,1.2-3.6,0.1C265.1,272.4,260.5,267.9,260.3,267.7z"/>
					<path class="st5" d="M266,261.8c-1.3-0.9-0.5-3.5-0.5-3.5s2.2-1.5,3.5-0.6c0.2,0.2,5.6,4,5.8,4.2c1.3,0.9,0.5,3.5,0.5,3.5
						s-2.2,1.5-3.5,0.6C271.5,265.7,266.2,261.9,266,261.8z"/>
					<path class="st5" d="M270.6,255.1c-1.4-0.7-1-3.4-1-3.4s2-1.9,3.4-1.1c0.3,0.1,6.1,3.1,6.4,3.2c1.4,0.7,1,3.3,1,3.3
						s-2,1.9-3.4,1.1C276.8,258.2,270.9,255.2,270.6,255.1z"/>
					<path class="st5" d="M274.2,247.7c-1.5-0.5-1.5-3.2-1.5-3.2s1.7-2.1,3.1-1.6c0.3,0.1,6.5,2.1,6.9,2.2c1.5,0.5,1.5,3.2,1.5,3.2
						s-1.7,2.1-3.1,1.6C280.7,249.9,274.5,247.8,274.2,247.7z"/>
					<path class="st5" d="M276.6,240c-1.5-0.2-2-2.9-2-2.9s1.3-2.4,2.9-2.1c0.3,0.1,6.2,1,6.5,1.1c1.5,0.2,2,2.9,2,2.9
						s-1.3,2.4-2.9,2.1C282.7,241,276.9,240,276.6,240z"/>
					<path class="st5" d="M277.7,231.9c-1.6,0-2.4-2.6-2.4-2.6s0.9-2.5,2.5-2.5c0.3,0,4.6,0,4.9,0c1.6,0,2.4,2.6,2.4,2.6
						s-0.9,2.5-2.5,2.5C282.3,231.9,278,231.9,277.7,231.9z"/>
					<path class="st5" d="M278.1,223.8c-1.5,0.2-2.8-2.1-2.8-2.1s0.5-2.6,2.1-2.9c0.3,0,1.8-0.3,2.1-0.4c1.5-0.2,2.8,2.1,2.8,2.1
						s-0.5,2.6-2.1,2.9C280,223.5,278.5,223.7,278.1,223.8z"/>
				</g>
				<g>
					<path class="st5" d="M366.9,217.1c-0.4-1.5-2.8-1.7-2.8-1.7s-2,1.5-1.6,3c0,0.3,5.9,22.5,6.1,22.8c0.4,1.5,3.1,1.7,3.1,1.7
						s2.2-1.5,1.7-3C373.3,239.5,366.9,217.4,366.9,217.1z"/>
					<path class="st5" d="M359.1,217.5c-0.4-1.5-2.8-1.7-2.8-1.7s-2,1.5-1.7,3c-0.1,0.3,5.2,22.5,5.4,22.8c0.4,1.5,3.1,1.7,3.1,1.7
						s2.2-1.5,1.8-3C364.7,240,359,217.8,359.1,217.5L359.1,217.5z"/>
					<path class="st5" d="M351.4,218.8c-0.3-1.5-2.7-1.7-2.7-1.7s-2.1,1.5-1.8,3c-0.1,0.3,4.4,22.5,4.6,22.8c0.3,1.5,3,1.7,3,1.7
						s2.3-1.5,2-3C356.2,241.3,351.3,219.1,351.4,218.8L351.4,218.8z"/>
					<path class="st5" d="M343.7,220.7c-0.3-1.5-2.7-1.7-2.7-1.7s-2.2,1.5-2,3c-0.1,0.3,3.7,22.5,3.9,22.8c0.3,1.5,3,1.7,3,1.7
						s2.4-1.5,2.1-3C347.9,243.2,343.7,221,343.7,220.7L343.7,220.7z"/>
				</g>
				<g>
					<path class="st5" d="M95.1,249.4c-0.8-1.4-3.4-0.9-3.4-0.9c0,0-1.6,2.1-0.8,3.5c0.1,0.3,5.2,8.5,5.4,8.7
						c0.9,1.3,3.4,0.7,3.4,0.7c0,0,1.5-2.1,0.7-3.4C100.2,257.8,95.2,249.8,95.1,249.4L95.1,249.4z"/>
					<path class="st5" d="M104.5,250.1c-0.8-1.3-3.4-0.9-3.4-0.9s-1.6,2-0.8,3.3c0.2,0.3,2,3.2,2.2,3.5c0.8,1.3,3.4,0.8,3.4,0.8
						c0,0,1.6-2,0.7-3.2C106.5,253.3,104.7,250.3,104.5,250.1L104.5,250.1z"/>
				</g>
				<g>
					<path class="st5" d="M308.7,174.7c0.8-6.5,5.8-17.1,16.6-11.1c0,0,4.7-8.6,9.4-7.8s8.5,4.3,12.8,13s14.4,33.4,17,42
						c0,0-10.8,0.2-21.5,3s-20.4,9.5-20.4,9.5s-1.8-10.1-7.9-21.4c-4.1-7.7-12-13.1-15-20C296.9,175.2,299.8,170.2,308.7,174.7
						L308.7,174.7z"/>
					<path class="st5" d="M139.2,272.9c0,0,12.4-2.5,15.9-1.5s8.4,8.8,4.2,13c-4.2,4.2-11.2,7.2-11.2,7.2s1.5,2.6,9.6-1.7
						c2.3,5.9,0.1,12.9-14.7,19.1c4.2,1,9.8-1.6,9.8-1.6s2.9,7.3-9.7,14.1c-5.5,2.9-8.2,4.1-8.2,4.1c0.5-2.1,0.3-5.4-1-10.4
						c3.7-2,10.7-7.1,4-20.1C142.3,291.1,150.8,285.5,139.2,272.9L139.2,272.9z"/>
					<path class="st5" d="M214.2,225.2c0,0,7.9-0.6,10.7-3.3c2.4,2.5,11.6,3.1,11.6,3.1s-0.6,2.2-11.4,2.2S214.2,225.2,214.2,225.2
						L214.2,225.2z"/>
					<path class="st5" d="M248.4,163.8c0,0-2.8-3.6-4.5-5c-3.7-2.8-6.8-1.2-6.2,2.4c1,7.1,3.3,12.4,7.9,23.3c0.8,1.9,1.7,4,1.7,6.1
						c0,5.3-2.8,8.7-2.8,8.7s0.6-6.7-2.5-7c-0.8-0.1-2.1,0.6-3.8,1.5c-3.5,1.9-6.4,3.8-8.1,5.1c-1.1,0.8-2.9,2-3.2,3.4
						c-0.5,2.8-0.2,7.9-0.2,13.1c0,4.7,11.6,4.6,14.4,3.9c2.2-0.6,3.7-1.9,4.3-4.8c0.9-4,3-7.6,6.4-9.9c3.7-2.6,7.5-5.9,8.4-9.8
						c1.3-6.1,0.1-35.3,0-38.2L248.4,163.8L248.4,163.8z"/>
					<path class="st5" d="M89.9,208.1c0,0,12.2,4.2,17.1,17.1c4.5,11.8,3.1,28.3,3.1,28.3c2.2-1.4,4.3-2.5,6.3-3.5
						c0,0,1.8-11.7-3.8-26.2C106.5,207.7,89.9,208.1,89.9,208.1L89.9,208.1z"/>
					<path class="st5" d="M256.4,217.1c-1.4,15.6-7.7,30.9-10.5,38.3c-2.8,7.4,4.3,9.4,14.8,0.5c12.9-13.6,10-29,10-29l-5.4-29.8
						c-1.8,9-10.4,8.5-13.9,15.8c-2.3,4.7-4.6,10.1-10.2,12.2c-0.3,3.8-3.4,6.8-7.3,6.8h-4.4c0.4,3.6-0.1,8.9-3.7,14.6
						c-6.6,10.4,0.1,23.2,0.1,23.2C241.5,256.5,249.6,232.7,256.4,217.1L256.4,217.1z"/>
					<path class="st5" d="M202.3,98.8c-0.7,8.1-3.1,17.5,1.6,26.5c2.9-6.7,6.6-8.8,11.7-10.8c0-4.5-1.3-11-4.2-17.4
						c-3.9-8.6-13.5-14.8-13.5-14.8S202.9,90.8,202.3,98.8L202.3,98.8z"/>
					<path class="st5" d="M277.9,66.3c3-7.7-0.5-14.3-5.2-6.8c-2.2,3.5-6,8.6-11,14.9c-4.6,5.8-7.8,11.9-9.1,18.7
						c7.9-5.2,14.2-16.4,14.2-16.4s-2.9,14.2-14.9,22.8c-0.1,3.5,1,7.2,1.2,11.2c0.5,13.5-7.6,24.1-7.6,24.1
						c-3.1-9.3-6.4-12.1-8.1-16.3c-1.1-2.6-1-5.3,0.1-7.2c-7-0.2-14.6,6.6-10.6,18.7c5.6,16.8-0.9,17.9,0,21.2
						c0.6,2,6.5,2.3,12.8,0.2c9.1-3.1,18-3.4,24.4-2.5c0,0-4-4.2-8.8-9l-2.5-2.5c-1.8-1.8-1.4-4.4,0.2-8.3
						C259.6,113.2,275.5,72.5,277.9,66.3L277.9,66.3z"/>
					<path class="st5" d="M310.6,320.9c-8.7-13.4-10.6-30-10.6-30s-4.3,9.7-0.9,18C302.5,317,310.6,320.8,310.6,320.9L310.6,320.9z"
						/>
				</g>
			</g>
		</g>
	</g>
	<g>
		<path class="st3" d="M307.5,358.8v-8.5h-3.2v-1.1h7.7v1.1h-3.2v8.5H307.5z"/>
		<path class="st3" d="M313.2,358.8v-9.7h1.9l2.3,6.9c0.2,0.6,0.4,1.1,0.5,1.4c0.1-0.4,0.3-0.9,0.5-1.5l2.3-6.7h1.7v9.7h-1.2v-8.1
			l-2.8,8.1h-1.2l-2.8-8.2v8.2H313.2L313.2,358.8z"/>
	</g>
</g>
</svg>
