<?xml version="1.0" encoding="UTF-8"?>
<svg id="Layer_1" data-name="Layer 1" xmlns="http://www.w3.org/2000/svg" viewBox="0 0 96 96">
  <circle cx="67.51" cy="68.68" r="4.66" fill="#ffd52e" stroke-width="0"/>
  <circle cx="35" cy="41.59" r="3.54" fill="#ffd52e" stroke-width="0"/>
  <g>
    <rect x="29.63" y="62.27" width="2.42" height="11.17" fill="none" stroke-width="0"/>
    <path d="M22.51,76.95h55.35c1.3,0,2.41-1.1,2.41-2.41v-15.77H20.1v15.77c0,1.3,1.1,2.41,2.41,2.41ZM67.31,59.39c2.27,0,4.41.88,6.01,2.47,1.6,1.59,2.48,3.71,2.48,5.97s-.88,4.41-2.48,6.01c-1.61,1.6-3.75,2.49-6.01,2.49s-4.39-.88-5.99-2.47c-1.61-1.61-2.49-3.74-2.49-6.01,0-4.66,3.81-8.45,8.49-8.45ZM27.26,61.09c0-.65.53-1.18,1.18-1.18h19.22c.65,0,1.18.53,1.18,1.18v13.54c0,.65-.53,1.18-1.18,1.18h-19.22c-.65,0-1.18-.53-1.18-1.18v-13.54Z" fill="none" stroke-width="0"/>
    <path d="M35.02,43.9c1.35,0,2.41-1.06,2.41-2.41s-1.06-2.45-2.41-2.45-2.45,1.1-2.45,2.45,1.08,2.41,2.45,2.41Z" fill="none" stroke-width="0"/>
    <rect x="44.02" y="62.27" width="2.46" height="11.17" fill="none" stroke-width="0"/>
    <rect x="39.23" y="62.27" width="2.42" height="11.17" fill="none" stroke-width="0"/>
    <path d="M67.31,71.7c2.13,0,3.86-1.73,3.86-3.86s-1.73-3.81-3.86-3.81-3.82,1.71-3.82,3.81,1.71,3.86,3.82,3.86Z" fill="none" stroke-width="0"/>
    <rect x="34.41" y="62.27" width="2.46" height="11.17" fill="none" stroke-width="0"/>
    <path d="M80.26,56.41v-7.2H20.1v7.2h32.7v-5.31c0-.65.53-1.18,1.18-1.18s1.18.53,1.18,1.18v5.31h25.09ZM43.22,55.57h-19.56c-.65,0-1.18-.53-1.18-1.18s.53-1.18,1.18-1.18h19.56c.65,0,1.18.53,1.18,1.18s-.53,1.18-1.18,1.18ZM43.22,52.41h-19.56c-.65,0-1.18-.53-1.18-1.18s.53-1.18,1.18-1.18h19.56c.65,0,1.18.53,1.18,1.18s-.53,1.18-1.18,1.18ZM64.79,50.05h13.28c.65,0,1.18.53,1.18,1.18s-.53,1.18-1.18,1.18h-13.28c-.65,0-1.18-.53-1.18-1.18s.53-1.18,1.18-1.18ZM64.79,53.12l13.29.08c.66.01,1.17.53,1.17,1.18,0,.66-.54,1.18-1.18,1.18h0l-13.29-.08c-.66-.01-1.17-.53-1.17-1.18.01-.67.53-1.18,1.18-1.18Z" fill="none" stroke-width="0"/>
    <path d="M28.53,40.83c-.12.53-.59.9-1.15.9h-4.88c-1.3,0-2.41,1.11-2.41,2.41v2.7h60.16v-2.7c0-1.3-1.1-2.41-2.41-2.41h-34.21c-.54,0-1.01-.37-1.14-.89-.82-3.22-3.69-5.47-6.99-5.48,0,0-.01,0-.02,0s-.01,0-.02,0c-3.3,0-6.16,2.25-6.94,5.46ZM35.02,36.68c1.29,0,2.49.5,3.39,1.42.89.91,1.38,2.12,1.38,3.4s-.49,2.49-1.39,3.38c-.89.89-2.08,1.38-3.38,1.38s-2.5-.49-3.4-1.38c-.91-.9-1.42-2.1-1.42-3.39,0-2.65,2.16-4.81,4.81-4.81Z" fill="none" stroke-width="0"/>
    <path d="M35.02,46.26c1.29,0,2.49-.49,3.38-1.38.9-.9,1.39-2.1,1.39-3.38s-.49-2.49-1.38-3.4c-.89-.91-2.1-1.42-3.39-1.42-2.65,0-4.81,2.16-4.81,4.81,0,1.28.5,2.49,1.42,3.39.9.89,2.11,1.38,3.4,1.38ZM35.02,39.04c1.35,0,2.41,1.08,2.41,2.45s-1.06,2.41-2.41,2.41-2.45-1.06-2.45-2.41,1.1-2.45,2.45-2.45Z" fill="#06c" stroke-width="0"/>
    <path d="M82.62,57.56v-9.51s0-.02,0-.03,0-.02,0-.03v-3.86c0-1.27-.5-2.46-1.4-3.37s-2.1-1.4-3.37-1.4h-33.33c-1.1-3.04-3.59-5.27-6.62-6.05l16.74-18.19c.21-.23.32-.53.31-.85-.01-.32-.15-.61-.38-.82-.23-.21-.53-.32-.85-.31-.32.01-.61.15-.82.38l-17.4,18.91L18.08,13.51c-.44-.47-1.19-.5-1.67-.06-.48.44-.51,1.19-.07,1.67l16.75,18.19c-3.04.78-5.52,3.01-6.59,6.05h-3.99c-1.27,0-2.46.5-3.37,1.4s-1.4,2.1-1.4,3.37v30.41c0,1.27.5,2.47,1.4,3.37s2.1,1.4,3.37,1.4h55.35c1.28,0,2.47-.5,3.37-1.41.9-.9,1.4-2.1,1.4-3.37v-16.92s0-.02,0-.03,0-.02,0-.03ZM20.1,58.77h60.16v15.77c0,1.3-1.1,2.41-2.41,2.41H22.51c-1.3,0-2.41-1.1-2.41-2.41v-15.77ZM35.47,35.37s.01,0,.02,0,.01,0,.02,0c3.29,0,6.17,2.26,6.99,5.48.13.52.61.89,1.14.89h34.21c1.3,0,2.41,1.1,2.41,2.41v2.7H20.1v-2.7c0-1.3,1.1-2.41,2.41-2.41h.5s4.38,0,4.38,0c.55,0,1.03-.37,1.15-.9.79-3.21,3.64-5.45,6.94-5.46ZM53.98,49.92c-.65,0-1.18.53-1.18,1.18v5.31H20.1v-7.2h60.16v7.2h-25.09v-5.31c0-.65-.53-1.18-1.18-1.18Z" fill="#06c" stroke-width="0"/>
    <path d="M43.22,53.2h-19.56c-.65,0-1.18.53-1.18,1.18s.53,1.18,1.18,1.18h19.56c.65,0,1.18-.53,1.18-1.18s-.53-1.18-1.18-1.18Z" fill="#06c" stroke-width="0"/>
    <path d="M64.79,52.41h13.28c.65,0,1.18-.53,1.18-1.18s-.53-1.18-1.18-1.18h-13.28c-.65,0-1.18.53-1.18,1.18s.53,1.18,1.18,1.18Z" fill="#06c" stroke-width="0"/>
    <path d="M43.22,50.05h-19.56c-.65,0-1.18.53-1.18,1.18s.53,1.18,1.18,1.18h19.56c.65,0,1.18-.53,1.18-1.18s-.53-1.18-1.18-1.18Z" fill="#06c" stroke-width="0"/>
    <path d="M64.78,55.49l13.29.08h0c.64,0,1.17-.52,1.18-1.18,0-.65-.51-1.17-1.17-1.18l-13.29-.08c-.65,0-1.17.51-1.18,1.18,0,.65.51,1.17,1.17,1.18Z" fill="#06c" stroke-width="0"/>
    <path d="M67.31,76.33c2.27,0,4.4-.88,6.01-2.49,1.6-1.59,2.48-3.73,2.48-6.01s-.88-4.38-2.48-5.97c-1.6-1.59-3.73-2.47-6.01-2.47-4.68,0-8.49,3.79-8.49,8.45,0,2.27.88,4.41,2.49,6.01,1.6,1.59,3.73,2.47,5.99,2.47ZM63.49,67.84c0-2.1,1.71-3.81,3.82-3.81s3.86,1.71,3.86,3.81-1.73,3.86-3.86,3.86-3.82-1.73-3.82-3.86Z" fill="#06c" stroke-width="0"/>
    <path d="M28.44,75.81h19.22c.65,0,1.18-.53,1.18-1.18v-13.54c0-.65-.53-1.18-1.18-1.18h-19.22c-.65,0-1.18.53-1.18,1.18v13.54c0,.65.53,1.18,1.18,1.18ZM41.65,73.45h-2.42v-11.17h2.42v11.17ZM36.87,73.45h-2.46v-11.17h2.46v11.17ZM44.02,62.27h2.46v11.17h-2.46v-11.17ZM32.04,62.27v11.17h-2.42v-11.17h2.42Z" fill="#06c" stroke-width="0"/>
  </g>
</svg>