<svg xmlns="http://www.w3.org/2000/svg" width="25.315" height="29.71" viewBox="0 0 25.315 29.71">
  <g id="sound_lines_-_left_00000062166597644405156390000004331766088383510934_" transform="matrix(0.978, -0.208, 0.208, 0.978, -2.786, 3.849)">
    <g id="radio_dial_line_-_large_00000087392218723829538840000011546514021619143059_" transform="translate(6.248)">
      <path id="Path_106" data-name="Path 106" d="M94.54,88.055a1.749,1.749,0,0,1-2.152-1.14l-9.13-19.8a1.531,1.531,0,1,1,2.686-1.232l9.13,19.805A1.756,1.756,0,0,1,94.54,88.055Z" transform="translate(-83.032 -64.635)" fill="#faa61c"/>
    </g>
    <g id="radio_dial_line_-_large_00000042014816666819801530000004867788330457378705_" transform="translate(18.36 2.498)">
      <path id="Path_107" data-name="Path 107" d="M107.878,85.878a1.359,1.359,0,0,1-1.662-.975l-3.4-14.55a1.4,1.4,0,0,1,2.716-.632l3.4,14.55A1.363,1.363,0,0,1,107.878,85.878Z" transform="translate(-102.786 -68.708)" fill="#faa61c"/>
    </g>
    <g id="radio_dial_line_-_large_00000005954670558319605750000010188334458364877502_" transform="translate(0 13.398)">
      <path id="Path_108" data-name="Path 108" d="M85.865,99.12a1.327,1.327,0,0,1-1.876.037L73.246,88.769A1.331,1.331,0,0,1,75.1,86.856L85.84,97.243A1.321,1.321,0,0,1,85.865,99.12Z" transform="translate(-72.842 -86.486)" fill="#faa61c"/>
    </g>
  </g>
</svg>
