<?xml version="1.0" encoding="utf-8"?>
<!-- Generator: Adobe Illustrator 28.1.0, SVG Export Plug-In . SVG Version: 6.00 Build 0)  -->
<svg version="1.1" id="Layer_1" xmlns="http://www.w3.org/2000/svg" xmlns:xlink="http://www.w3.org/1999/xlink" x="0px" y="0px"
	 viewBox="0 0 96 96" style="enable-background:new 0 0 96 96;" xml:space="preserve">
<style type="text/css">
	.st0{fill:#3F95DB;}
	.st1{fill:#FFFFFF;}
	.st2{fill:#FFD52E;}
</style>
<g>
	<path class="st0" d="M43.86,42.06c0,0-4.82,0.52-5.29-4.82c0,0-0.13-0.35,0.35-0.78c0,0-1.26-0.39-0.74-2.21
		c0,0-1.17-0.52-0.39-2.21c0,0-1.39-0.69-0.56-2.21c0,0-1.13-0.78-0.48-2.26c0,0-1.13-0.91-0.48-2.34c0,0-1.26,0.04-0.52-2
		c0,0-1.41-0.24-0.54-2.1c0,0-0.89-1.24-0.54-4.23s3.73-6.07,5.81-7.42c0,0,7.72-3.82,13.97-0.35c0,0,2,1.3,2.43,4.21
		c0,0-0.22,0.65-0.65,0.87c0,0,0.91,0.13,1.04,0.65s0.09,1.47-0.61,1.69c0,0,0.95,0.04,1.13,0.91v0.69c0,0,0.22,0.3-0.52,0.74
		c0,0,1.04,0.04,1.17,0.69l0.09,0.82c0,0-0.26,0.65-0.74,0.78c0,0,0.95,0,1.13,0.74l0.04,0.87c0,0-0.22,0.52-0.69,0.65
		c0,0,1.04,0.13,1.13,0.61s0.13,1.04,0.13,1.04s-0.22,0.56-0.82,0.69c0,0,0.82,0.04,1.08,0.48l0.22,1.13c0,0,0.13,0.43-0.69,0.78
		c0,0,0.87,0.17,1.04,0.56l0.13,0.95c0,0,0.09,0.56-0.74,0.82c0,0,0.78,0.17,1.08,0.39l0.56,1.87c0,0,0.78,5.47-6.2,7.81
		c0,0-7.59,2.21-11.32,1.47L43.86,42.06z"/>
	<path class="st0" d="M43.65,41.72l4.03,8.37l-0.04,1.52l3.95,0.35l3.12-0.61l0.09-1.04c0,0,1.39,0.13,1.91-2.21
		s-1.74-7.59-1.74-7.59S43.65,41.72,43.65,41.72z"/>
	<rect x="48.85" y="51.39" class="st0" width="5.21" height="40.86"/>
</g>
<path class="st1" d="M56.23,14.21c0,0-2.21-0.56-5.68-0.22s-5.52,0.7-6.46,0.91c-1.17,0.26-2.86,1.04-4.64,2.21
	c0,0-0.74,0.78-0.95,0.13l-0.04-0.43c0,0-0.09-0.35,0.74-0.87c0.59-0.37,3.21-2.26,7.98-2.82c2.86-0.34,5.47-0.39,7.37-0.09
	c1.91,0.3,1.69,1.17,1.69,1.17L56.23,14.21z"/>
<path class="st1" d="M56.66,16.51c0,0-2.21-0.56-5.68-0.22c-3.47,0.34-5.52,0.7-6.46,0.91c-1.17,0.26-2.86,1.04-4.64,2.21
	c0,0-0.72,0.72-0.95,0.13l-0.04-0.43c0,0-0.09-0.35,0.74-0.87c0.59-0.37,3.21-2.26,7.98-2.82c2.86-0.34,5.47-0.39,7.37-0.09
	c1.91,0.3,1.69,1.17,1.69,1.17L56.66,16.51z"/>
<path class="st1" d="M57.18,18.99c0,0-2.21-0.56-5.68-0.22s-5.52,0.7-6.46,0.91c-1.17,0.26-2.86,1.04-4.64,2.21
	c0,0-0.83,0.7-0.95,0.13l-0.04-0.43c0,0-0.09-0.35,0.74-0.87c0.59-0.37,3.21-2.26,7.98-2.82c2.86-0.34,5.47-0.39,7.37-0.09
	c1.91,0.3,1.69,1.17,1.69,1.17L57.18,18.99z"/>
<path class="st1" d="M57.92,21.15c0,0-2.3-0.26-5.77,0.09s-5.52,0.7-6.46,0.91c-1.17,0.26-3.04,1.08-4.82,2.26
	c0,0-0.79,0.74-0.95,0.13l-0.04-0.43c0,0-0.09-0.35,0.74-0.87c0.59-0.37,3.38-2.3,8.16-2.86c2.86-0.34,5.55-0.69,7.46-0.39
	C58.15,20.29,57.93,21.16,57.92,21.15L57.92,21.15z"/>
<path class="st1" d="M58.31,23.45c0,0-2.47-0.13-5.94,0.22c-3.47,0.35-5.52,0.7-6.46,0.91c-1.17,0.26-2.86,1.04-4.64,2.21
	c0,0-0.83,0.52-0.95,0.13l-0.04-0.43c0,0-0.13-0.39,0.69-0.91c0.59-0.37,2.19-2.06,8.16-2.86c4.16-0.56,5.6-0.61,7.5-0.3
	C58.54,22.72,58.32,23.46,58.31,23.45L58.31,23.45z"/>
<path class="st1" d="M58.76,25.82c0,0-2.47-0.26-5.94,0.09c-3.47,0.35-5.26,0.75-6.2,0.95c-1.17,0.26-3.12,1-4.9,2.17
	c0,0-0.8,0.7-0.95,0.13l-0.04-0.43c0,0-0.09-0.35,0.74-0.87c0.59-0.37,2.13-1.82,7.98-2.82c3.35-0.57,5.73-0.69,7.63-0.39
	C58.99,24.95,58.77,25.82,58.76,25.82L58.76,25.82z"/>
<path class="st1" d="M59.22,28.14c0,0-2.08-0.06-5.55,0.26c-3.82,0.35-5.52,0.7-6.46,0.91c-1.17,0.26-2.86,1.04-4.64,2.21
	c0,0-0.87,0.73-0.95,0.13l-0.04-0.43c0,0-0.09-0.35,0.74-0.87c0.59-0.37,3.21-2.26,7.98-2.82c2.86-0.34,5.6-0.65,7.5-0.35
	s1.43,0.95,1.43,0.95L59.22,28.14z"/>
<path class="st1" d="M59.83,30.52c0,0-2.17,0.13-5.64,0.48s-5.22,0.79-6.16,1c-1.17,0.26-2.04,0.61-4.73,1.78c0,0-1.04,0.52-1.13,0
	c0,0-0.13-0.56,0.78-1.17c0.58-0.39,2.95-2.13,7.72-2.69c2.86-0.34,5.64-0.78,7.55-0.48S59.83,30.52,59.83,30.52z"/>
<path class="st2" d="M48.98,34.47c0,0,0.48,3.17-2.26,5.38c0,0-0.96,1.24,0.43,0.69c1.78-0.69,2.7-1.88,3.3-3.56
	c0.26-0.74,0.22-3.04-0.35-3.21c-1.08-0.33-1.13,0.69-1.13,0.69L48.98,34.47z"/>
<path class="st2" d="M52.06,34.39c0,0,0.35,2.6-1.17,4.6c0,0-1.43,1.69-2,2.08c0,0,1.21,0,2.91-1.69c2-2,1.74-3.77,1.47-5.64
	c0,0-0.17-0.82-0.82-0.56S52.06,34.39,52.06,34.39z"/>
<path class="st2" d="M54.45,33.95c0,0,0.39,2.43-0.43,3.86s-2.67,3.23-2.67,3.23s2.81-0.9,3.8-3.71c0.87-2.47,0.61-3.99,0-4.34
	C55.15,32.99,54.54,32.73,54.45,33.95L54.45,33.95z"/>
<path class="st2" d="M56.79,34.21c0,0,0.36,3.89-2.81,6.28c0,0,3.25-1.08,3.85-5.42c0,0,0.09-2.13-0.61-2.26S56.79,34.2,56.79,34.21
	L56.79,34.21z"/>
<path class="st2" d="M58.79,33.6c0,0,0.09,3.38-2.52,5.9c0,0,2.69-1,3.51-4.86c0,0,0.22-1.69-0.43-1.82
	C59.35,32.82,58.83,32.82,58.79,33.6z"/>
<path class="st2" d="M60.48,33.13c0,0,0.13,3.6-1.95,5.34c0,0,2.3-1.61,2.52-4.51C61.05,33.96,60.88,32.09,60.48,33.13L60.48,33.13z
	"/>
<path class="st2" d="M39.09,36.12c0,0,0.43-0.48,1.13-0.87c0,0,0.43-0.22,0.26-0.78s-0.69-0.3-0.95-0.17S38.06,35.73,39.09,36.12
	L39.09,36.12z"/>
<path class="st2" d="M38.44,33.95c0,0,0.43-0.61,1.13-1c0,0,0.48-0.26,0.3-0.82s-0.69-0.3-0.95-0.17S37.4,33.57,38.44,33.95
	L38.44,33.95z"/>
<path class="st2" d="M38.01,31.7c0,0,0.56-0.48,1.04-0.87c0,0,0.65-0.48,0.48-1.04s-0.69-0.3-0.95-0.17
	C38.15,29.84,36.97,31.31,38.01,31.7L38.01,31.7z"/>
<path class="st2" d="M37.4,29.31c0,0,0.61-0.61,1.3-1c0,0,0.43-0.35,0.26-0.91s-0.69-0.3-0.95-0.17S36.71,28.7,37.4,29.31z"/>
<path class="st2" d="M36.92,27.05c0,0,0.52-0.52,1.21-0.91c0,0,0.52-0.35,0.35-0.91s-0.56-0.52-0.82-0.39S36.45,26.18,36.92,27.05z"
	/>
<path class="st2" d="M36.49,24.93c0,0,0.48-0.78,1.17-1.17c0,0,0.43-0.39,0.26-0.95s-0.63-0.3-0.87-0.13
	c-0.48,0.35-1.26,1.69-0.56,2.26L36.49,24.93z"/>
<path class="st2" d="M35.92,22.89c0,0,0.61-0.95,1.26-1.52c0,0,0.43-0.22,0.26-0.78s-0.73-0.36-0.95-0.17
	C35.88,20.94,35.23,22.59,35.92,22.89L35.92,22.89z"/>
<path class="st2" d="M35.56,20.61c0,0,0.37-0.93,1.06-1.32c0,0,0.52-0.52,0.35-1.08s-0.71-0.33-0.95-0.17
	c-0.65,0.43-1.04,2.04-0.46,2.58V20.61z"/>
<path class="st2" d="M40.62,9.41c0,0,1.55-0.18,2.16,0.38s0.82,1.08,0.82,1.08s0.24,0.8,1.17,0.69c0.52-0.06,0.74-0.35,0.52-0.78
	s-0.66-2.42-3.19-1.95c0,0-1.26,0.36-1.49,0.57L40.62,9.41z"/>
<path class="st2" d="M44.57,8.1c0,0,1.18,0.33,1.64,1.52c0.36,0.95,0.52,1.65,1.34,1.69s0.52-0.61,0.43-1s-0.56-2.33-2.17-2.45
	l-1.25,0.23L44.57,8.1z"/>
<path class="st2" d="M47.75,7.68c0,0,0.61,0.56,1.19,1.89C49.13,10,49.5,10.96,50.02,11s0.35-0.56,0.17-1.08s-0.98-1.76-1.63-2.28
	l-0.82,0.04L47.75,7.68z"/>
<path class="st2" d="M49.91,7.73c0,0,1.11,1.5,1.37,2.1s0.56,1.04,1.04,1.13s0.41-0.2,0.15-0.8S50.8,7.85,50.8,7.85L49.91,7.73
	L49.91,7.73z"/>
<path class="st2" d="M52.08,8.16c0,0,0.97,1.28,1.15,1.71c0.46,1.06,0.85,1.15,1.04,1.17c0.48,0.05,0.13-0.61-0.04-1
	s-0.85-1.2-1.45-1.67l-0.69-0.22L52.08,8.16z"/>
<path class="st2" d="M54.81,9.46l0.73,1.41c0,0,0.13,0.48,0.39,0.39S54.81,9.46,54.81,9.46z"/>
</svg>
