<?xml version="1.0" encoding="utf-8"?>
<!-- Generator: Adobe Illustrator 28.1.0, SVG Export Plug-In . SVG Version: 6.00 Build 0)  -->
<svg version="1.1" id="Layer_1" xmlns="http://www.w3.org/2000/svg" xmlns:xlink="http://www.w3.org/1999/xlink" x="0px" y="0px"
	 viewBox="0 0 2000 2000" style="enable-background:new 0 0 2000 2000;" xml:space="preserve">
<style type="text/css">
	.st0{fill:#FFD52E;}
	.st1{fill:#0066CC;}
</style>
<g>
	<g>
		<g>
			<g>
				<g>
					<path class="st0" d="M1184.58,848.19H554.94c-43.86,0-79.52,35.69-79.52,79.52v509.1c0,43.86,35.66,79.52,79.52,79.52h629.64
						c43.86,0,79.52-35.66,79.52-79.52v-509.1C1264.1,883.88,1228.44,848.19,1184.58,848.19z M1245.38,1436.81
						c0,33.53-27.26,60.8-60.8,60.8H554.94c-33.53,0-60.8-27.26-60.8-60.8v-509.1c0-33.53,27.26-60.8,60.8-60.8h629.64
						c33.53,0,60.8,27.26,60.8,60.8V1436.81z"/>
				</g>
			</g>
			<path class="st1" d="M1564.03,762.37H435.97c-18.94,0-34.31,15.38-34.31,34.35v771.07c0,18.97,15.38,34.35,34.31,34.35h1128.07
				c18.97,0,34.31-15.38,34.31-34.35V796.72C1598.35,777.75,1583,762.37,1564.03,762.37z M1276.57,1436.81
				c0,50.72-41.27,91.99-91.99,91.99H554.94c-50.72,0-91.99-41.27-91.99-91.99v-509.1c0-50.72,41.27-91.99,91.99-91.99h629.64
				c50.72,0,91.99,41.27,91.99,91.99V1436.81z M1552.52,1455.4c0,33.63-27.3,60.92-60.92,60.92h-121.97
				c-33.66,0-60.92-27.3-60.92-60.92V909.11c0-33.63,27.26-60.92,60.92-60.92h121.97c33.63,0,60.92,27.3,60.92,60.92V1455.4z"/>
		</g>
		<g>
			<path class="st1" d="M1028.64,712.27c-1.06-1.06-2.15-2.09-3.31-3.03c-4.59-3.99-9.76-7.33-15.38-9.86
				c-7.8-3.49-16.47-5.43-25.58-5.43c-10.26,0-19.93,2.46-28.48,6.86c-5.46,2.78-10.45,6.33-14.85,10.58
				c-9.67,9.23-16.35,21.56-18.53,35.38h123.72C1044.11,733.42,1037.78,721.45,1028.64,712.27z"/>
		</g>
		<g>
			<g>
				
					<rect x="1153.32" y="404.11" transform="matrix(0.4824 -0.876 0.876 0.4824 235.4489 1246.1039)" class="st1" width="37.57" height="39.44"/>
			</g>
			<g>
				<path class="st1" d="M1180.09,428.21l-9.08,16.47L1034.5,692.59c-4.84-3.87-10.01-7.05-15.47-9.64l136.07-247.06l9.05-16.44
					L1180.09,428.21z"/>
			</g>
		</g>
		<g>
			<g>
				
					<rect x="780.53" y="475.85" transform="matrix(0.8189 -0.5739 0.5739 0.8189 -138.9592 548.8851)" class="st1" width="39.44" height="37.57"/>
			</g>
			<g>
				<path class="st1" d="M945.07,685.38c-5.37,2.96-10.33,6.49-14.85,10.57L803.6,515.22l-10.79-15.38l14.91-10.42l10.76,15.38
					L945.07,685.38z"/>
			</g>
		</g>
		<path class="st1" d="M1536.72,901.16h-209.28c-1.65,0-2.98-1.33-2.98-2.98l0-12.63c0-1.65,1.33-2.98,2.98-2.98h209.28
			c1.65,0,2.98,1.33,2.98,2.98v12.63C1539.7,899.82,1538.37,901.16,1536.72,901.16z"/>
		<path class="st1" d="M1536.72,933.43h-209.28c-1.65,0-2.98-1.33-2.98-2.98l0-12.63c0-1.65,1.33-2.98,2.98-2.98h209.28
			c1.65,0,2.98,1.33,2.98,2.98v12.63C1539.7,932.1,1538.37,933.43,1536.72,933.43z"/>
		<path class="st1" d="M1536.72,965.71h-209.28c-1.65,0-2.98-1.33-2.98-2.98l0-12.63c0-1.65,1.33-2.98,2.98-2.98h209.28
			c1.65,0,2.98,1.33,2.98,2.98v12.63C1539.7,964.38,1538.37,965.71,1536.72,965.71z"/>
		<path class="st1" d="M1536.72,997.99h-209.28c-1.65,0-2.98-1.33-2.98-2.98l0-12.63c0-1.65,1.33-2.98,2.98-2.98h209.28
			c1.65,0,2.98,1.33,2.98,2.98v12.63C1539.7,996.65,1538.37,997.99,1536.72,997.99z"/>
		<path class="st1" d="M1536.72,1030.27h-209.28c-1.65,0-2.98-1.33-2.98-2.98l0-12.63c0-1.65,1.33-2.98,2.98-2.98h209.28
			c1.65,0,2.98,1.33,2.98,2.98v12.63C1539.7,1028.93,1538.37,1030.27,1536.72,1030.27z"/>
		<path class="st1" d="M1536.72,1062.54h-209.28c-1.65,0-2.98-1.33-2.98-2.98l0-12.63c0-1.65,1.33-2.98,2.98-2.98h209.28
			c1.65,0,2.98,1.33,2.98,2.98v12.63C1539.7,1061.21,1538.37,1062.54,1536.72,1062.54z"/>
		<path class="st1" d="M1536.72,1094.82h-209.28c-1.65,0-2.98-1.33-2.98-2.98l0-12.63c0-1.65,1.33-2.98,2.98-2.98h209.28
			c1.65,0,2.98,1.33,2.98,2.98v12.63C1539.7,1093.48,1538.37,1094.82,1536.72,1094.82z"/>
		<path class="st1" d="M1536.72,1127.1h-209.28c-1.65,0-2.98-1.33-2.98-2.98l0-12.63c0-1.65,1.33-2.98,2.98-2.98h209.28
			c1.65,0,2.98,1.33,2.98,2.98v12.63C1539.7,1125.76,1538.37,1127.1,1536.72,1127.1z"/>
		<path class="st1" d="M1536.72,1159.37h-209.28c-1.65,0-2.98-1.33-2.98-2.98l0-12.63c0-1.65,1.33-2.98,2.98-2.98h209.28
			c1.65,0,2.98,1.33,2.98,2.98v12.63C1539.7,1158.04,1538.37,1159.37,1536.72,1159.37z"/>
		<path class="st1" d="M1536.72,1191.65h-209.28c-1.65,0-2.98-1.33-2.98-2.98l0-12.63c0-1.65,1.33-2.98,2.98-2.98h209.28
			c1.65,0,2.98,1.33,2.98,2.98v12.63C1539.7,1190.32,1538.37,1191.65,1536.72,1191.65z"/>
		<circle class="st0" cx="1513.19" cy="1254.28" r="26.52"/>
		<circle class="st0" cx="1432.08" cy="1254.28" r="26.52"/>
		<circle class="st0" cx="1350.97" cy="1254.28" r="26.52"/>
		<g id="channel_knob_00000086664444828683680230000013337863805602421939_">
			<path class="st0" d="M1362.6,1435.6c-0.99,0.99-1.88,2.05-2.65,3.18c-17.67-30.95-13.3-71.05,13.12-97.47
				c26.32-26.32,66.24-30.77,97.14-13.32L1362.6,1435.6z"/>
			<path class="st0" d="M1487.78,1456.01c-25.15,25.15-62.71,30.33-92.93,15.51c0.66-0.53,1.32-1.1,1.94-1.72l106.58-106.58
				C1518.11,1393.43,1512.88,1430.9,1487.78,1456.01z"/>
			<g>
				<path class="st0" d="M1496.05,1352.88l-108.08,108.08c-1.59,1.59-3.49,2.6-5.54,3.07c-3.82,0.95-8.03-0.09-11.01-3.07
					c-2.8-2.8-3.88-6.66-3.24-10.3c0.4-2.29,1.48-4.48,3.24-6.24l108.08-108.08c0.44-0.44,0.9-0.82,1.39-1.17
					c4.59-3.35,11.03-2.96,15.15,1.17c4.3,4.3,4.54,11.12,0.75,15.71C1496.56,1352.33,1496.31,1352.62,1496.05,1352.88z"/>
			</g>
		</g>
	</g>
</g>
</svg>
