<?xml version="1.0" encoding="utf-8"?>
<!-- Generator: Adobe Illustrator 28.1.0, SVG Export Plug-In . SVG Version: 6.00 Build 0)  -->
<svg version="1.1" id="Layer_1" xmlns="http://www.w3.org/2000/svg" xmlns:xlink="http://www.w3.org/1999/xlink" x="0px" y="0px"
	 viewBox="0 0 96 96" style="enable-background:new 0 0 96 96;" xml:space="preserve">
<style type="text/css">
	.st0{fill:none;}
	.st1{fill:#3F95DB;}
</style>
<path class="st0" d="M78.88,32.87c-0.19-0.2-0.43-0.33-1.09-0.59c-0.33-0.12-0.75-0.29-1.22-0.48l1.87,8.26
	c0.15-0.31,0.28-0.63,0.44-1.02c0.15-0.37,0.29-0.76,0.4-1.15c0.23-0.7,0.37-1.43,0.44-2.22C79.81,34.5,79.52,33.53,78.88,32.87
	L78.88,32.87z"/>
<path class="st0" d="M26.86,39.18c0.34-1.12,0.28-2.13-0.2-2.91c-0.14-0.23-0.35-0.42-0.94-0.82c-0.36-0.24-0.73-0.49-1.08-0.74
	v8.47c0.22-0.27,0.42-0.57,0.65-0.9c0.24-0.34,0.45-0.68,0.64-1.03c0.38-0.64,0.68-1.32,0.92-2.07H26.86z"/>
<path class="st1" d="M57.41,31.42L32.05,41.94l4.44,22.65c-1.61-0.15-3.34,0.17-4.94,0.95c-4.06,1.97-6.06,6.29-4.44,9.62
	c0.84,1.74,2.46,2.91,4.57,3.32c0.51,0.1,1.03,0.15,1.55,0.15c0.56,0,1.13-0.06,1.71-0.17c0.84-0.16,1.67-0.44,2.47-0.83
	c3.5-1.7,5.52-5.09,4.9-8.25L38.1,47.95l16.33-6.77l2.9,14.76c-1.62-0.15-3.35,0.19-4.94,0.96c-1.85,0.9-3.35,2.31-4.22,3.98
	c-0.99,1.9-1.07,3.9-0.22,5.64c0.84,1.73,2.46,2.91,4.56,3.32c1.04,0.2,2.14,0.19,3.27-0.02c0.85-0.16,1.68-0.44,2.47-0.83
	c3.5-1.7,5.52-5.09,4.9-8.25L57.4,31.43L57.41,31.42z"/>
<path class="st1" d="M30.89,41.04c0.62-1.08,1.01-2.2,1.15-3.31c0.08-0.62,0.08-1.24,0.02-1.85c-0.07-0.7-0.2-1.3-0.4-1.85
	c-0.23-0.63-0.56-1.25-0.97-1.8c-0.42-0.56-0.88-1.01-1.2-1.31c-0.28-0.26-0.57-0.52-0.84-0.76c-0.39-0.35-0.77-0.69-1.14-1.05
	c-0.68-0.67-1.29-1.38-1.94-2.13c-0.46-0.54-0.93-1.08-1.45-1.64l-4.57-6.22L19.8,48c-1.56-0.44-3.31-0.44-5.01,0.01
	c-2.04,0.55-3.81,1.7-4.98,3.25c-1.25,1.66-1.68,3.56-1.19,5.36c0.5,1.87,1.87,3.33,3.86,4.12c0.99,0.4,2.07,0.6,3.21,0.6
	c0.86,0,1.73-0.12,2.58-0.34c1.99-0.53,3.73-1.64,4.9-3.11c0.99-1.25,1.5-2.67,1.47-4.07v-7.03l1.91-1.28
	c1.87-1.25,3.33-2.75,4.34-4.45V41.04z M24.64,43.18v-8.47c0.36,0.25,0.72,0.5,1.08,0.74c0.58,0.4,0.79,0.58,0.94,0.82
	c0.48,0.78,0.55,1.79,0.2,2.91c-0.24,0.75-0.54,1.44-0.92,2.07c-0.19,0.35-0.41,0.69-0.64,1.03c-0.23,0.33-0.43,0.63-0.65,0.9H24.64
	z"/>
<path class="st1" d="M84.45,33.11c-0.06-0.61-0.19-1.22-0.39-1.82c-0.22-0.67-0.49-1.23-0.8-1.71c-0.37-0.57-0.83-1.1-1.35-1.54
	c-0.53-0.45-1.08-0.79-1.46-1.01c-0.34-0.2-0.67-0.38-1-0.56c-0.46-0.25-0.9-0.5-1.34-0.77c-0.81-0.5-1.56-1.06-2.37-1.65
	c-0.58-0.43-1.16-0.86-1.77-1.27l-5.83-5.06l6.62,28.12c-1.61-0.08-3.32,0.31-4.88,1.12c-1.87,0.99-3.34,2.5-4.14,4.27
	c-0.85,1.89-0.85,3.84,0.02,5.49c0.9,1.71,2.56,2.83,4.67,3.16c0.42,0.07,0.84,0.1,1.27,0.1c0.65,0,1.32-0.08,1.99-0.23
	c0.83-0.19,1.66-0.49,2.45-0.91c1.83-0.96,3.28-2.42,4.08-4.12c0.69-1.43,0.87-2.93,0.54-4.3l-1.55-6.85l1.58-1.67
	c1.55-1.64,2.64-3.42,3.24-5.29v-0.02c0.37-1.2,0.51-2.37,0.4-3.48L84.45,33.11z M78.88,39.04c-0.15,0.39-0.29,0.72-0.44,1.02
	l-1.87-8.26c0.47,0.2,0.89,0.36,1.22,0.48c0.66,0.26,0.9,0.39,1.09,0.59c0.64,0.66,0.93,1.63,0.84,2.8
	c-0.07,0.79-0.21,1.52-0.44,2.22C79.16,38.28,79.03,38.67,78.88,39.04L78.88,39.04z"/>
</svg>
