<?xml version="1.0" encoding="utf-8"?>
<!-- Generator: Adobe Illustrator 28.1.0, SVG Export Plug-In . SVG Version: 6.00 Build 0)  -->
<svg version="1.1" id="Layer_1" xmlns="http://www.w3.org/2000/svg" xmlns:xlink="http://www.w3.org/1999/xlink" x="0px" y="0px"
	 viewBox="0 0 96 96" style="enable-background:new 0 0 96 96;" xml:space="preserve">
<style type="text/css">
	.st0{fill:none;}
	.st1{fill:#3F95DB;}
	.st2{fill:#FFD52E;}
	.st3{fill:#FAA61C;}
</style>
<path class="st0" d="M16.89,66.78c-0.55,0-1,0.45-1,1v14.59c0,0.55,0.45,1,1,1s1-0.45,1-1V67.78
	C17.89,67.23,17.44,66.78,16.89,66.78z"/>
<path class="st0" d="M21.11,66.78c-0.55,0-1,0.45-1,1v14.59c0,0.55,0.45,1,1,1s1-0.45,1-1V67.78
	C22.11,67.23,21.66,66.78,21.11,66.78z"/>
<path class="st0" d="M62.55,64.13H33.42c-0.55,0-1,0.45-1,1v15.29c0,0.55,0.45,1,1,1h29.13c0.55,0,1-0.45,1-1V65.13
	C63.55,64.58,63.1,64.13,62.55,64.13z M34.97,80.17h-0.56c-0.41,0-0.75-0.34-0.75-0.75v-13.3c0-0.41,0.34-0.75,0.75-0.75h8.24
	c0.27,0,0.52,0.14,0.65,0.38s0.13,0.52,0,0.75l-7.68,13.3C35.49,80.03,35.24,80.18,34.97,80.17L34.97,80.17z M42.81,80.17h-5.54
	c-0.27,0-0.52-0.14-0.65-0.38s-0.13-0.52,0-0.75l7.68-13.3c0.13-0.23,0.38-0.38,0.65-0.38h5.54c0.27,0,0.52,0.14,0.65,0.38
	s0.13,0.52,0,0.75l-7.68,13.3C43.33,80.02,43.08,80.17,42.81,80.17z M50.66,80.17h-5.54c-0.27,0-0.52-0.14-0.65-0.38
	s-0.13-0.52,0-0.75l7.68-13.3c0.13-0.23,0.38-0.38,0.65-0.38h5.54c0.27,0,0.52,0.14,0.65,0.38s0.13,0.52,0,0.75l-7.68,13.3
	C51.18,80.02,50.93,80.17,50.66,80.17z M62.3,79.42c0,0.41-0.34,0.75-0.75,0.75h-8.59c-0.27,0-0.52-0.14-0.65-0.38
	s-0.13-0.52,0-0.75l7.68-13.3c0.13-0.23,0.38-0.38,0.65-0.38h0.91c0.41,0,0.75,0.34,0.75,0.75V79.42L62.3,79.42z"/>
<path class="st0" d="M12.67,66.78c-0.55,0-1,0.45-1,1v14.59c0,0.55,0.45,1,1,1s1-0.45,1-1V67.78
	C13.67,67.23,13.22,66.78,12.67,66.78z"/>
<path class="st0" d="M58.28,55.55c-1.56-4.29-5.67-7.22-10.3-7.22s-8.74,2.92-10.3,7.22h3.77c0.78-2.94,3.43-5.02,6.54-5.02
	s5.75,2.07,6.54,5.02h3.77H58.28z"/>
<path class="st0" d="M51.15,23.56h-6.87c-6.08,0-11.03,4.95-11.03,11.03c0,0.14,0.11,0.25,0.25,0.25h4.79v-3.69
	c0-0.96,0.78-1.75,1.75-1.75s1.75,0.78,1.75,1.75v3.69h0.35V29c0-0.96,0.78-1.75,1.75-1.75s1.75,0.78,1.75,1.75v5.84h0.34v-3.69
	c0-0.96,0.78-1.75,1.75-1.75s1.75,0.78,1.75,1.75v3.69h0.34V29c0-0.96,0.78-1.75,1.75-1.75s1.75,0.78,1.75,1.75v5.84h0.35v-3.69
	c0-0.96,0.78-1.75,1.75-1.75s1.75,0.78,1.75,1.75v3.69h4.79c0.14,0,0.25-0.11,0.25-0.25c0-6.08-4.95-11.03-11.03-11.03L51.15,23.56z
	"/>
<path class="st0" d="M47.98,54.03c-1.14,0-2.18,0.59-2.76,1.52h5.53c-0.59-0.93-1.62-1.52-2.76-1.52H47.98z"/>
<path class="st0" d="M61.59,43.69c0.14,0,0.25-0.11,0.25-0.25v-4.45c0-0.14-0.11-0.25-0.25-0.25H33.85c-0.14,0-0.25,0.11-0.25,0.25
	v4.45c0,0.14,0.11,0.25,0.25,0.25h19.84v-1.72c0-0.96,0.78-1.75,1.75-1.75s1.75,0.78,1.75,1.75v1.72H61.59L61.59,43.69z"/>
<path class="st0" d="M83.29,66.78c-0.55,0-1,0.45-1,1v14.59c0,0.55,0.45,1,1,1s1-0.45,1-1V67.78
	C84.29,67.23,83.84,66.78,83.29,66.78z"/>
<path class="st0" d="M74.85,66.78c-0.55,0-1,0.45-1,1v14.59c0,0.55,0.45,1,1,1s1-0.45,1-1V67.78C75.85,67.23,75.4,66.78,74.85,66.78
	z"/>
<path class="st0" d="M79.07,66.78c-0.55,0-1,0.45-1,1v14.59c0,0.55,0.45,1,1,1s1-0.45,1-1V67.78
	C80.07,67.23,79.62,66.78,79.07,66.78z"/>
<path class="st1" d="M47.72,14.43c13.17,0,24.47,9.95,26.47,22.72h7.36C79.5,20.35,64.91,7.14,47.71,7.14S15.93,20.35,13.88,37.15
	h7.36c2-12.77,13.3-22.72,26.47-22.72L47.72,14.43z"/>
<path class="st2" d="M25.01,43.5c0.85,0,1.63,0.24,2.31,0.64c0.22-0.39,0.36-0.84,0.36-1.32c0-1.48-1.2-2.68-2.68-2.68H12.58
	c-1.48,0-2.68,1.2-2.68,2.68c0,0.48,0.14,0.93,0.36,1.32c0.69-0.39,1.47-0.64,2.31-0.64h12.42H25.01z"/>
<path class="st2" d="M25.01,48.86c0.85,0,1.63,0.24,2.31,0.64c0.22-0.39,0.36-0.84,0.36-1.32c0-1.48-1.2-2.68-2.68-2.68H12.58
	c-1.48,0-2.68,1.2-2.68,2.68c0,0.48,0.14,0.93,0.36,1.32c0.69-0.39,1.47-0.64,2.31-0.64h12.42H25.01z"/>
<path class="st2" d="M25.01,50.86H12.59c-1.48,0-2.68,1.2-2.68,2.68s1.2,2.68,2.68,2.68h12.42c1.48,0,2.68-1.2,2.68-2.68
	S26.49,50.86,25.01,50.86z"/>
<path class="st3" d="M29.69,53.54c0-1-0.32-1.92-0.85-2.68c0.53-0.76,0.85-1.68,0.85-2.68s-0.32-1.92-0.85-2.68
	c0.53-0.76,0.85-1.68,0.85-2.68c0-2.58-2.1-4.68-4.68-4.68H12.59c-2.58,0-4.68,2.1-4.68,4.68c0,1,0.32,1.92,0.85,2.68
	c-0.53,0.76-0.85,1.68-0.85,2.68s0.32,1.92,0.85,2.68c-0.53,0.76-0.85,1.68-0.85,2.68c0,2.58,2.1,4.68,4.68,4.68h12.42
	C27.59,58.22,29.69,56.12,29.69,53.54z M25.01,56.21H12.59c-1.48,0-2.68-1.2-2.68-2.68s1.2-2.68,2.68-2.68h12.42
	c1.48,0,2.68,1.2,2.68,2.68S26.49,56.21,25.01,56.21z M9.91,42.82c0-1.48,1.2-2.68,2.68-2.68h12.42c1.48,0,2.68,1.2,2.68,2.68
	c0,0.48-0.14,0.93-0.36,1.32c-0.69-0.39-1.47-0.64-2.31-0.64H12.6c-0.85,0-1.63,0.24-2.31,0.64c-0.22-0.39-0.36-0.84-0.36-1.32H9.91
	z M9.91,48.18c0-1.48,1.2-2.68,2.68-2.68h12.42c1.48,0,2.68,1.2,2.68,2.68c0,0.48-0.14,0.93-0.36,1.32
	c-0.69-0.39-1.47-0.64-2.31-0.64H12.6c-0.85,0-1.63,0.24-2.31,0.64c-0.22-0.39-0.36-0.84-0.36-1.32H9.91z"/>
<path class="st2" d="M83.37,43.5c0.85,0,1.63,0.24,2.31,0.64c0.22-0.39,0.36-0.84,0.36-1.32c0-1.48-1.2-2.68-2.68-2.68H70.94
	c-1.48,0-2.68,1.2-2.68,2.68c0,0.48,0.14,0.93,0.36,1.32c0.69-0.39,1.47-0.64,2.32-0.64h12.42H83.37z"/>
<path class="st2" d="M83.37,45.5H70.95c-1.48,0-2.68,1.2-2.68,2.68c0,0.48,0.14,0.93,0.36,1.32c0.69-0.39,1.47-0.64,2.32-0.64h12.42
	c0.85,0,1.63,0.24,2.31,0.64c0.22-0.39,0.36-0.84,0.36-1.32c0-1.48-1.2-2.68-2.68-2.68H83.37z"/>
<path class="st3" d="M87.2,45.5c0.53-0.76,0.85-1.68,0.85-2.68c0-2.58-2.1-4.68-4.68-4.68H70.95c-2.58,0-4.68,2.1-4.68,4.68
	c0,1,0.32,1.92,0.85,2.68c-0.53,0.76-0.85,1.68-0.85,2.68s0.32,1.92,0.85,2.68c-0.53,0.76-0.85,1.68-0.85,2.68
	c0,2.58,2.1,4.68,4.68,4.68h12.42c2.58,0,4.68-2.1,4.68-4.68c0-1-0.32-1.92-0.85-2.68c0.53-0.76,0.85-1.68,0.85-2.68
	S87.73,46.26,87.2,45.5z M86.05,53.54c0,1.48-1.2,2.68-2.68,2.68H70.95c-1.48,0-2.68-1.2-2.68-2.68s1.2-2.68,2.68-2.68h12.42
	C84.85,50.86,86.05,52.06,86.05,53.54z M68.27,42.82c0-1.48,1.2-2.68,2.68-2.68h12.42c1.48,0,2.68,1.2,2.68,2.68
	c0,0.48-0.14,0.93-0.36,1.32c-0.69-0.39-1.47-0.64-2.31-0.64H70.96c-0.85,0-1.63,0.24-2.32,0.64c-0.22-0.39-0.36-0.84-0.36-1.32
	H68.27z M86.05,48.18c0,0.48-0.14,0.93-0.36,1.32c-0.69-0.39-1.47-0.64-2.31-0.64H70.96c-0.85,0-1.63,0.24-2.32,0.64
	c-0.22-0.39-0.36-0.84-0.36-1.32c0-1.48,1.2-2.68,2.68-2.68h12.42c1.48,0,2.68,1.2,2.68,2.68H86.05z"/>
<path class="st2" d="M83.37,50.86H70.95c-1.48,0-2.68,1.2-2.68,2.68s1.2,2.68,2.68,2.68h12.42c1.48,0,2.68-1.2,2.68-2.68
	S84.85,50.86,83.37,50.86z"/>
<path class="st1" d="M24.58,62.46h-3.66V59.2h-7.29v3.26h-3.61c-0.55,0-1,0.45-1,1v22.8c0,0.55,0.45,1,1,1h14.73
	c-0.11-0.31-0.17-0.65-0.17-1V62.46L24.58,62.46z M13.67,82.37c0,0.55-0.45,1-1,1s-1-0.45-1-1V67.78c0-0.55,0.45-1,1-1s1,0.45,1,1
	C13.67,67.78,13.67,82.37,13.67,82.37z M17.89,82.37c0,0.55-0.45,1-1,1s-1-0.45-1-1V67.78c0-0.55,0.45-1,1-1s1,0.45,1,1
	C17.89,67.78,17.89,82.37,17.89,82.37z M22.1,82.37c0,0.55-0.45,1-1,1s-1-0.45-1-1V67.78c0-0.55,0.45-1,1-1s1,0.45,1,1
	C22.1,67.78,22.1,82.37,22.1,82.37z"/>
<path class="st1" d="M85.94,62.46h-4.13V59.2h-7.29v3.26h-3.13v1.99l0,0v21.8c0,0.35-0.06,0.69-0.17,1h14.73c0.55,0,1-0.45,1-1
	v-22.8c0-0.55-0.45-1-1-1L85.94,62.46z M75.85,82.37c0,0.55-0.45,1-1,1s-1-0.45-1-1V67.78c0-0.55,0.45-1,1-1s1,0.45,1,1
	C75.85,67.78,75.85,82.37,75.85,82.37z M80.07,82.37c0,0.55-0.45,1-1,1s-1-0.45-1-1V67.78c0-0.55,0.45-1,1-1s1,0.45,1,1
	C80.07,67.78,80.07,82.37,80.07,82.37z M84.28,82.37c0,0.55-0.45,1-1,1s-1-0.45-1-1V67.78c0-0.55,0.45-1,1-1s1,0.45,1,1
	C84.28,67.78,84.28,82.37,84.28,82.37z"/>
<polygon class="st2" points="60.8,78.67 60.8,67.35 54.26,78.67 "/>
<path class="st3" d="M61.55,65.37h-0.91c-0.27,0-0.52,0.14-0.65,0.38l-7.68,13.3c-0.13,0.23-0.13,0.52,0,0.75s0.38,0.38,0.65,0.38
	h8.59c0.41,0,0.75-0.34,0.75-0.75v-13.3C62.3,65.72,61.96,65.38,61.55,65.37L61.55,65.37z M60.8,78.67h-6.54l6.54-11.33V78.67z"/>
<path class="st1" d="M68.38,58.29h-40.8c-0.55,0-1,0.45-1,1v26.97c0,0.55,0.45,1,1,1h40.81c0.55,0,1-0.45,1-1V59.29
	c0-0.55-0.45-1-1-1H68.38z M63.54,80.42c0,0.55-0.45,1-1,1H33.41c-0.55,0-1-0.45-1-1V65.13c0-0.55,0.45-1,1-1h29.13
	c0.55,0,1,0.45,1,1V80.42z"/>
<polygon class="st2" points="45.39,66.87 38.57,78.67 42.38,78.67 49.19,66.87 "/>
<path class="st3" d="M51.14,65.75c-0.13-0.23-0.38-0.38-0.65-0.38h-5.54c-0.27,0-0.52,0.14-0.65,0.38l-7.68,13.3
	c-0.13,0.23-0.13,0.52,0,0.75s0.38,0.38,0.65,0.38h5.54c0.27,0,0.52-0.14,0.65-0.38l7.68-13.3C51.27,66.27,51.27,65.98,51.14,65.75z
	 M38.57,78.67l6.81-11.8h3.81l-6.81,11.8H38.57z"/>
<polygon class="st2" points="35.16,77.6 41.35,66.87 35.16,66.87 "/>
<path class="st3" d="M43.3,65.75c-0.13-0.23-0.38-0.38-0.65-0.38h-8.24c-0.41,0-0.75,0.34-0.75,0.75v13.3
	c0,0.41,0.34,0.75,0.75,0.75h0.56c0.27,0,0.52-0.14,0.65-0.38l7.68-13.3C43.43,66.26,43.43,65.97,43.3,65.75L43.3,65.75z
	 M35.16,77.6V66.88h6.19L35.16,77.6z"/>
<polygon class="st2" points="53.23,66.87 46.42,78.67 50.22,78.67 57.04,66.87 "/>
<path class="st3" d="M58.98,65.75c-0.13-0.23-0.38-0.38-0.65-0.38h-5.54c-0.27,0-0.52,0.14-0.65,0.38l-7.68,13.3
	c-0.13,0.23-0.13,0.52,0,0.75s0.38,0.38,0.65,0.38h5.54c0.27,0,0.52-0.14,0.65-0.38l7.68-13.3C59.11,66.27,59.11,65.98,58.98,65.75z
	 M46.42,78.67l6.81-11.8h3.81l-6.81,11.8H46.42z"/>
<path class="st2" d="M53.91,57.05h5.39c0.23,0,0.45-0.11,0.59-0.29s0.19-0.42,0.13-0.65c-1.44-5.46-6.4-9.28-12.05-9.28
	s-10.6,3.81-12.05,9.28c-0.06,0.22-0.01,0.46,0.13,0.65c0.14,0.18,0.36,0.29,0.59,0.29h5.39c0.37,0,0.68-0.26,0.74-0.63
	c0.43-2.54,2.61-4.39,5.19-4.39s4.76,1.85,5.19,4.39c0.06,0.36,0.37,0.63,0.74,0.63H53.91z M47.98,50.53c-3.1,0-5.75,2.07-6.54,5.02
	h-3.77c1.56-4.3,5.67-7.22,10.3-7.22s8.74,2.92,10.3,7.22H54.5c-0.78-2.94-3.44-5.02-6.54-5.02H47.98z"/>
<path class="st2" d="M47.98,52.53c-2.18,0-4.08,1.47-4.62,3.58c-0.06,0.22,0,0.46,0.13,0.65c0.14,0.18,0.36,0.29,0.59,0.29h7.79
	c0.23,0,0.45-0.11,0.59-0.29s0.19-0.42,0.13-0.65C52.05,54,50.15,52.53,47.98,52.53L47.98,52.53z M45.22,55.55
	c0.59-0.93,1.62-1.52,2.76-1.52s2.18,0.59,2.76,1.52h-5.53H45.22z"/>
<path class="st2" d="M51.15,22.06h-6.87c-6.91,0-12.53,5.62-12.53,12.53c0,0.96,0.78,1.75,1.75,1.75h5.54
	c0.41,0,0.75-0.34,0.75-0.75v-4.44c0-0.27,0.5-0.27,0.5,0v4.44c0,0.41,0.34,0.75,0.75,0.75h1.85c0.41,0,0.75-0.34,0.75-0.75V29
	c0-0.27,0.5-0.27,0.5,0v6.59c0,0.41,0.34,0.75,0.75,0.75h1.84c0.41,0,0.75-0.34,0.75-0.75v-4.44c0-0.27,0.5-0.27,0.5,0v4.44
	c0,0.41,0.34,0.75,0.75,0.75h1.84c0.41,0,0.75-0.34,0.75-0.75V29c0-0.27,0.5-0.27,0.5,0v6.59c0,0.41,0.34,0.75,0.75,0.75h1.85
	c0.41,0,0.75-0.34,0.75-0.75v-4.44c0-0.27,0.5-0.27,0.5,0v4.44c0,0.41,0.34,0.75,0.75,0.75h5.54c0.96,0,1.75-0.78,1.75-1.75
	c0-6.91-5.62-12.53-12.53-12.53L51.15,22.06z M61.93,34.83h-4.79v-3.69c0-0.96-0.78-1.75-1.75-1.75s-1.75,0.78-1.75,1.75v3.69h-0.35
	v-5.84c0-0.96-0.78-1.75-1.75-1.75s-1.75,0.78-1.75,1.75v5.84h-0.34v-3.69c0-0.96-0.78-1.75-1.75-1.75s-1.75,0.78-1.75,1.75v3.69
	h-0.34v-5.84c0-0.96-0.78-1.75-1.75-1.75s-1.75,0.78-1.75,1.75v5.84h-0.35v-3.69c0-0.96-0.78-1.75-1.75-1.75s-1.75,0.78-1.75,1.75
	v3.69h-4.79c-0.14,0-0.25-0.11-0.25-0.25c0-6.08,4.95-11.03,11.03-11.03h6.87c6.08,0,11.03,4.95,11.03,11.03
	c0,0.14-0.11,0.25-0.25,0.25H61.93z"/>
<path class="st2" d="M63.34,43.44v-4.45c0-0.96-0.78-1.75-1.75-1.75H33.85c-0.96,0-1.75,0.78-1.75,1.75v4.45
	c0,0.96,0.78,1.75,1.75,1.75h20.59c0.41,0,0.75-0.34,0.75-0.75v-2.47c0-0.28,0.49-0.27,0.5,0v2.47c0,0.41,0.34,0.75,0.75,0.75h5.16
	C62.56,45.19,63.35,44.41,63.34,43.44L63.34,43.44z M55.43,40.23c-0.96,0-1.75,0.78-1.75,1.75v1.72H33.84
	c-0.14,0-0.25-0.11-0.25-0.25V39c0-0.14,0.11-0.25,0.25-0.25h27.74c0.14,0,0.25,0.11,0.25,0.25v4.45c0,0.14-0.11,0.25-0.25,0.25
	h-4.41v-1.72C57.17,41.02,56.39,40.23,55.43,40.23L55.43,40.23z"/>
<path class="st1" d="M13.27,91.26c0,0.55,0.45,1,1,1h5.24c0.55,0,1-0.45,1-1v-2.01h-7.24V91.26z"/>
<path class="st1" d="M75.45,91.26c0,0.55,0.45,1,1,1h5.24c0.55,0,1-0.45,1-1v-2.01h-7.24V91.26z"/>
</svg>
