<?xml version="1.0" encoding="UTF-8"?>
<svg id="Layer_1" data-name="Layer 1" xmlns="http://www.w3.org/2000/svg" viewBox="0 0 96 96">
  <path d="M50.39,83.76c-16.16,0-30.43-9.89-35.49-24.61-3.42-9.95-2.48-21.06,2.6-30.5,5.01-9.33,13.28-15.89,23.29-18.48,2.91-.75,5.92-1.14,8.94-1.14,1.19,0,2.4.06,3.59.18,18.72,1.89,33.69,18.35,34.07,37.45.32,15.76-10.11,30.25-25.37,35.25-3.74,1.22-7.65,1.85-11.62,1.85h0ZM29.54,68.29c4.24,4.33,9.67,7.25,15.51,8.34,1.04-8.4,1.62-16.94,1.73-25.42-7.23,5.25-13.21,11.94-17.24,17.08ZM53.61,51.3c.3,8.41,1.12,16.87,2.43,25.22,5.57-1.16,10.77-3.97,14.85-8.02-4.04-5.17-10.03-11.9-17.28-17.19ZM53.49,41.31c6.53,7.52,14.6,13.89,23.43,18.48,1.29-2.86,2.08-5.89,2.37-9.02,1.42-15.63-9.33-30.17-24.16-33.05-.99,7.8-1.55,15.72-1.64,23.59ZM44.83,17.68c-1.37.25-2.7.61-3.98,1.05-13.9,4.87-22.24,20.43-18.99,35.43.41,1.87,1,3.7,1.78,5.47,8.68-4.56,16.62-10.83,23.05-18.22-.22-7.86-.85-15.84-1.87-23.73Z" fill="#faa61c" stroke="#faa61c" stroke-miterlimit="10" stroke-width="3"/>
  <path d="M53.19,10.49c-4.04-.4-8.15-.1-12.08.93-2.27.58-4.43,1.38-6.46,2.36-16.26,7.85-24.56,27.44-18.53,44.95,6.33,18.4,27.22,27.94,45.5,21.96,6.32-2.07,11.84-5.87,16.02-10.78,5.43-6.35,8.63-14.56,8.46-23.23-.36-17.87-14.11-34.29-32.92-36.2ZM23.05,61.39c-1.08-2.18-1.91-4.5-2.44-6.95-3.28-15.12,4.73-31.64,19.82-36.92,1.73-.6,3.53-1.03,5.35-1.3.05,0,.1-.01.15-.02,1.16,8.6,1.84,17.16,2.06,25.67-.05.06-.1.12-.15.18-6.9,7.98-15.38,14.59-24.79,19.33ZM46.15,78.12c-.13-.02-.26-.04-.39-.06-6.92-1.05-13.26-4.57-17.92-9.68,5.59-7.27,12.52-14.46,20.09-19.54.04-.03.1-.06.14-.1-.03,9.89-.67,19.69-1.93,29.38ZM52.25,48.78c7.68,5.13,14.7,12.44,20.34,19.81-.02.02-.04.04-.06.06-4.61,4.92-10.81,8.28-17.55,9.37-1.57-9.59-2.47-19.28-2.72-28.97,0-.09,0-.17,0-.26ZM77.51,61.53s-.01,0-.02-.01c-9.64-4.8-18.29-11.56-25.3-19.74.08-8.53.69-17.07,1.83-25.55.19.03.38.06.57.09,0,0,0,0,0,0,15.83,2.63,27.47,18.04,25.96,34.56-.35,3.82-1.42,7.41-3.05,10.64Z" fill="#ffd52e" stroke-width="0"/>
</svg>