<?xml version="1.0" encoding="UTF-8"?>
<svg id="Layer_1" data-name="Layer 1" xmlns="http://www.w3.org/2000/svg" viewBox="0 0 96 96">
  <path d="M50.1,80.69c-2.24-.29-4.31-1.01-6.17-2.14-1.37-.83-2.43-1.98-3.16-3.43-1.83,1.21-3.86,2.03-5.97,2.39-1.35.22-2.74.25-4.12.07-4.79-.62-8.93-3.57-10.78-7.69-2.01-4.46-1.28-9.99,1.81-14.52-.07-.02-.14-.04-.21-.07-6.79-2.17-11.45-8.38-11.07-14.76.41-6.9,6.71-12.72,14.05-12.96.18,0,.35,0,.53,0-.07-.43-.14-.87-.2-1.31-.84-6.58,1.29-12.2,5.71-15.04,2.4-1.54,5.31-2.14,8.4-1.74,2.14.28,4.3,1.03,6.25,2.18,2.5,1.48,4.66,3.51,6.31,5.89,3.67-2.75,8.3-4.05,12.75-3.47.53.07,1.07.17,1.6.29,6.81,1.61,11.86,7.69,12.01,14.45.08,3.62-1.24,7.25-3.65,10.33,5.27,3.16,8.92,8.86,9.46,15,.5,5.66-1.78,10.76-5.96,13.31-2.48,1.51-5.44,2.06-8.8,1.62h0c-.33-.04-.66-.09-.99-.16-.03,1.35-.29,2.79-1.01,4.17-.85,1.64-2.13,3.06-3.92,4.33-3.72,2.64-8.41,3.82-12.86,3.24Z" fill="#3f95db" stroke-width="0"/>
  <path d="M78.52,54.62c-.44-4.97-3.68-9.59-8.21-11.7-2.43-1.13-5.28-1.59-8.04-1.35,1.61-.68,3.17-1.48,4.6-2.49,3.31-2.35,5.9-6.09,5.82-10.14-.09-4.48-3.69-8.52-8.05-9.55-4.36-1.03-9.15.78-12.1,4.15-1.06,1.21-1.97,2.57-2.69,4.01-.09-.92-.26-1.83-.51-2.71-1.05-3.63-3.53-6.83-6.79-8.75-2.8-1.66-6.52-2.3-9.26-.55-3.14,2.02-3.86,6.35-3.39,10.05.54,4.19,2.1,8.29,4.65,11.65-2.59-2.77-6.16-4.67-9.92-4.55-4.46.15-8.82,3.67-9.08,8.12-.26,4.36,3.35,8.24,7.5,9.56,4.16,1.33,8.69.62,12.89-.55-3.35,1.8-6.73,4.44-9.18,7.34-2.46,2.9-3.75,7.11-2.18,10.58,1.54,3.42,5.67,5.28,9.38,4.67,3.7-.62,6.84-3.39,8.43-6.79.7-1.51,1.19-3.2,1.48-4.93-.12,1.28-.26,2.57-.31,3.85-.1,2.8.65,5.35,1.66,7.9.29.74.7,1.28,1.39,1.7,4.08,2.48,9.6,1.79,13.39-.9.94-.66,1.8-1.47,2.33-2.49.86-1.67.3-3.91-.29-5.6-.35-.99-.82-1.93-1.34-2.83-.64-1.11-1.31-2.21-2.02-3.28,2.38,1.87,5.08,3.34,7.97,4.27,2.74.89,5.91,1.26,8.38-.24,2.75-1.68,3.8-5.26,3.51-8.46Z" fill="#faa61c" stroke-width="0"/>
  <path d="M49.78,32.76c5.05,1.35,9.35,5.41,10.3,11.49.88,5.62-1.77,11.81-6.44,14.63-5.44,3.29-12.8,1.51-16.74-3.54-4.17-5.35-5.45-15.78.64-20.29,3.68-2.72,8.21-3.37,12.25-2.29Z" fill="#3f95db" stroke-width="0"/>
  <path d="M49.16,35.48c4.05,1.09,7.5,4.33,8.26,9.19.7,4.5-1.42,9.45-5.16,11.71-4.36,2.63-10.27,1.2-13.42-2.84-3.34-4.28-4.37-12.63.51-16.23,2.95-2.18,6.58-2.69,9.82-1.83Z" fill="#ffd52e" stroke-width="0"/>
</svg>