<?xml version="1.0" encoding="utf-8"?>
<!-- Generator: Adobe Illustrator 28.1.0, SVG Export Plug-In . SVG Version: 6.00 Build 0)  -->
<svg version="1.1" id="Layer_1" xmlns="http://www.w3.org/2000/svg" xmlns:xlink="http://www.w3.org/1999/xlink" x="0px" y="0px"
	 viewBox="0 0 373 384" style="enable-background:new 0 0 373 384;" xml:space="preserve">
<style type="text/css">
	.st0{fill:#3F95DB;}
	.st1{fill:#FFD52E;}
	.st2{fill:#04487F;}
	.st3{fill:#E5EEF5;}
</style>
<g>
	<path class="st0" d="M205.79,246.27c-1.41,0-2.84-0.06-4.24-0.13c-0.63-0.03-1.24-0.07-1.82-0.07h-0.98c-5.13,0-9.42-0.74-13-1.95
		c-4.89,1.52-9.14,1.52-10.98,1.52c-0.91,0-1.83-0.02-2.71-0.05c-0.42-0.01-0.82-0.03-1.21-0.03l-0.65,0.05
		c-1.06,0.09-2.52,0.21-4.23,0.21c-3.52,0-6.72-0.51-9.77-1.55c-1.8,0.49-3.67,0.81-5.6,0.94c-0.98,0.07-1.95,0.1-2.91,0.1l0,0
		c-1.78,0-3.59-0.11-5.54-0.33c-1.65-0.19-3.27-0.45-4.89-0.72c-1.21-0.2-2.35-0.39-3.09-0.45c-1.12-0.09-2.22-0.13-3.36-0.13
		c-3.02,0-6.21,0.29-10.67,0.96c-3.02,0.45-5.61,0.66-8.15,0.66c-6.24,0-11.95-1.35-16.97-4.01c-3.28,1.63-6.93,2.71-10.85,3.14
		c-1.6,0.17-3.26,0.26-4.96,0.26c-3.31,0-6.27-0.33-8.65-0.6c-1.03-0.12-2.05-0.24-3.09-0.3c-0.43-0.03-0.86-0.03-1.3-0.03
		c-1.47,0-2.93,0.08-4.4,0.16l-2.71,0.14c-1.41,0.09-2.84,0.16-4.25,0.16c-1.57,0-3.02-0.08-4.46-0.25
		c-7.06-0.82-11.79-4.08-14.52-6.67c-5.66-5.38-9.05-13.7-8.85-21.72c0.13-5.42,1.71-9.6,2.66-12.1l0.13-0.34
		c3.44-9.18,4.41-19.77,3.05-33.33c-0.34-3.44-0.83-7.13-1.48-11.29c-0.33-2.12-0.73-4.35-1.18-6.65c-0.4-2.04-0.48-3.8-0.49-4.89
		l-0.04-0.35c-1.86-16.04,4.65-26.81,19.36-31.99c5.54-1.95,12.98-4.19,21.38-4.19c0.81,0,1.63,0.02,2.44,0.06
		c6.2,0.32,12.36,1.78,17.96,4.25c3.71-1.96,8.46-3.36,14.43-3.36c3.19,0,6.02,0.4,7.89,0.66l0.92,0.13
		c1.62,0.2,3.24,0.42,4.86,0.65c3.57,0.5,6.94,0.97,9.64,0.97c0.45,0,0.91-0.01,1.36-0.05c0.47-0.08,1.56-0.37,2.36-0.57
		c3.22-0.84,7.63-1.98,12.88-1.98c3.51,0,6.92,0.52,10.15,1.55c1.89,0.6,3.77,1.44,5.52,2.48c0.22,0.13,0.43,0.26,0.65,0.4
		c0.55,0.35,1.07,0.72,1.58,1.1c6.84-4.22,14.43-6.48,22-6.48c7.56,0,14.87,2.27,21.12,6.57c3.24,2.23,6.21,4.86,8.93,7.92
		c8.6-8.59,19.61-13.43,31.36-13.43c6.46,0,12.86,1.44,19.08,4.3c3.91-2.39,9.12-4.22,15.94-4.22c3.19,0,6.02,0.4,7.88,0.66
		l0.92,0.13c1.62,0.2,3.24,0.42,4.86,0.65c3.57,0.5,6.94,0.97,9.64,0.97c0.45,0,0.91-0.01,1.36-0.05c0.47-0.08,1.55-0.37,2.36-0.57
		c3.22-0.84,7.63-1.98,12.88-1.98c3.51,0,6.92,0.52,10.15,1.55c1.93,0.61,3.82,1.46,5.58,2.51c0.2,0.12,0.39,0.24,0.59,0.36
		c10.58,6.79,14.49,20.18,9.75,33.32c-1.75,4.85-4.08,9.47-6.9,13.75c1.86,5.09,2.12,9.85,2.26,12.46c0.02,0.29,0.03,0.58,0.05,0.86
		l0.06,0.23c0.68,2.68,2.08,8.2,0.69,14.85c0.03,0.04,0.05,0.09,0.08,0.13c3.48,5.94,5.96,12.37,7.36,19.11
		c2.48,11.94-1.16,19.94-4.66,24.55c-4.63,6.11-11.57,9.77-19.54,10.32c-0.98,0.07-1.95,0.1-2.91,0.1l0,0
		c-1.78,0-3.59-0.11-5.54-0.33c-1.65-0.19-3.27-0.45-4.9-0.72c-1.21-0.2-2.35-0.39-3.09-0.45c-1.12-0.09-2.22-0.13-3.36-0.13
		c-3.02,0-6.21,0.29-10.67,0.96c-3.02,0.45-5.61,0.66-8.15,0.66c-6.29,0-12.03-1.37-17.07-4.07c-0.45-0.24-0.9-0.49-1.33-0.76
		c-6.43,3.07-13.49,4.71-20.71,4.71c-3.12,0-6.27-0.31-9.38-0.91c-4.67-0.91-9.19-2.48-13.39-4.62
		C221.36,243.71,214.56,246.27,205.79,246.27L205.79,246.27z"/>
	<path class="st1" d="M205.79,238.26c-1.28,0-2.58-0.06-3.85-0.12c-0.76-0.04-1.51-0.08-2.21-0.08l-0.98,0.01
		c-5.47,0-9.65-1.01-12.84-2.54c-4.08,1.86-8.16,2.12-11.14,2.12c-0.84,0-1.67-0.02-2.48-0.05c-0.5-0.01-0.98-0.03-1.44-0.03h-0.26
		c-0.34,0.01-0.69,0.05-1.05,0.08c-0.98,0.08-2.19,0.18-3.57,0.18c-2.78,0-5.27-0.42-7.59-1.27c-0.66-0.24-1.3-0.52-1.93-0.83
		c-1.97,0.83-4.13,1.34-6.41,1.5c-0.8,0.05-1.59,0.08-2.37,0.08c-1.48,0-2.99-0.09-4.64-0.28c-1.51-0.17-2.99-0.41-4.48-0.66
		c-1.45-0.24-2.7-0.45-3.79-0.53c-1.32-0.1-2.63-0.15-3.98-0.15c-3.4,0-7.05,0.32-11.86,1.04c-2.61,0.39-4.83,0.57-6.96,0.57
		c-4.95,0-9.43-1.05-13.29-3.12c-1.27-0.68-2.47-1.48-3.58-2.38c-3.23,2.52-7.29,4.18-11.82,4.68c-1.33,0.15-2.66,0.22-4.08,0.22
		c-2.86,0-5.46-0.29-7.76-0.55c-1.17-0.13-2.33-0.27-3.5-0.34c-0.59-0.04-1.18-0.05-1.78-0.05c-1.6,0-3.21,0.09-4.81,0.17
		l-2.79,0.15c-1.24,0.08-2.51,0.15-3.75,0.15c-1.26,0-2.41-0.06-3.54-0.19c-3.9-0.45-7.24-1.97-9.93-4.52
		c-4.01-3.81-6.5-9.98-6.36-15.72c0.1-4.06,1.33-7.32,2.14-9.47l0.13-0.35c3.89-10.37,5.01-22.11,3.52-36.95
		c-0.36-3.58-0.86-7.42-1.53-11.72c-0.35-2.22-0.76-4.56-1.23-6.96c-0.32-1.65-0.34-3.01-0.34-3.82l-0.09-0.81
		c-0.62-5.33-2.07-17.83,14.07-23.51c5.24-1.85,11.57-3.74,18.72-3.74c0.67,0,1.35,0.02,2.03,0.05c6.02,0.31,11.98,1.89,17.23,4.57
		c0.56,0.28,1.1,0.58,1.64,0.89c2.99-2.46,7.44-4.56,13.93-4.56c2.63,0,5.02,0.34,6.77,0.58l1.07,0.15
		c1.57,0.19,3.14,0.41,4.72,0.63c3.85,0.54,7.49,1.05,10.75,1.05c0.72,0,1.45-0.03,2.17-0.08c0.75-0.06,2.24-0.45,3.56-0.79
		c2.96-0.77,6.64-1.72,10.87-1.72c2.68,0,5.28,0.39,7.72,1.17c1.32,0.42,2.63,1,3.86,1.73c0.14,0.08,0.28,0.17,0.41,0.26
		c2.05,1.32,3.74,2.98,5.03,4.9c6.79-5.83,14.88-9.02,22.89-9.02c5.94,0,11.67,1.79,16.59,5.16c5.1,3.5,9.46,8.29,13.12,14.42
		c7.63-11.68,19.19-18.52,31.71-18.52c5.93,0,11.84,1.5,17.59,4.47c0.77,0.4,1.53,0.82,2.28,1.26c2.94-2.89,7.7-5.65,15.14-5.65
		c2.63,0,5.02,0.34,6.77,0.58l1.07,0.15c1.57,0.19,3.14,0.41,4.72,0.63c3.85,0.54,7.49,1.05,10.76,1.05c0.72,0,1.45-0.03,2.17-0.08
		c0.75-0.06,2.24-0.45,3.56-0.79c2.96-0.77,6.64-1.72,10.87-1.72c2.68,0,5.28,0.39,7.73,1.17c1.35,0.43,2.67,1.02,3.89,1.75
		c0.13,0.08,0.25,0.15,0.37,0.23c7.47,4.8,10.04,14.16,6.54,23.85c-2.04,5.64-4.96,10.92-8.61,15.64
		c3.04,5.11,3.35,10.76,3.51,13.73c0.03,0.63,0.05,1.24,0.13,1.79c0.04,0.2,0.13,0.51,0.21,0.83c0.62,2.45,1.66,6.55,0.55,11.51
		c-0.21,0.92-0.48,1.81-0.81,2.65c0.75,1.04,1.36,2.04,1.87,2.91c3.04,5.19,5.2,10.8,6.43,16.68c1.87,8.99-0.71,14.79-3.2,18.08
		c-3.21,4.24-8.08,6.78-13.71,7.17c-0.8,0.05-1.59,0.08-2.37,0.08c-1.48,0-2.99-0.09-4.64-0.28c-1.51-0.17-2.99-0.41-4.48-0.66
		c-1.45-0.24-2.7-0.45-3.79-0.53c-1.32-0.1-2.63-0.15-3.98-0.15c-3.4,0-7.05,0.32-11.86,1.04c-2.62,0.39-4.83,0.57-6.96,0.57
		c-4.95,0-9.42-1.05-13.29-3.12c-1.63-0.87-3.14-1.94-4.49-3.17c-6.41,4-13.77,6.17-21.34,6.17c-2.61,0-5.25-0.26-7.85-0.76
		c-5.89-1.14-11.47-3.53-16.3-6.85C221.46,234.61,215.36,238.26,205.79,238.26L205.79,238.26z"/>
	<path class="st2" d="M205.79,230.25c-1.15,0-2.32-0.05-3.46-0.11c-0.9-0.04-1.77-0.09-2.59-0.09l-0.98,0.01
		c-5.98,0-10.24-1.4-12.72-4.18c-0.38,0.38-0.8,0.74-1.25,1.08c-3.22,2.37-7.04,2.67-10,2.67c-0.76,0-1.51-0.02-2.24-0.04
		c-0.58-0.02-1.14-0.03-1.68-0.03l-0.49,0.01c-0.47,0.01-0.96,0.06-1.46,0.1c-0.96,0.08-1.95,0.15-2.92,0.15
		c-1.83,0-3.41-0.25-4.83-0.78c-1.68-0.62-3.2-1.63-4.49-2.96c-1.39,1.45-3.63,2.92-7.15,3.16c-0.61,0.04-1.22,0.06-1.82,0.06
		c-1.17,0-2.4-0.07-3.74-0.23c-1.37-0.16-2.71-0.38-4.07-0.6c-1.57-0.26-3.04-0.51-4.48-0.62c-1.53-0.12-3.04-0.18-4.6-0.18
		c-3.81,0-7.83,0.35-13.05,1.13c-2.21,0.33-4.04,0.49-5.77,0.49c-3.67,0-6.78-0.71-9.51-2.17c-2.89-1.55-5.15-4.02-6.37-6.97
		c-2.34-5.66-0.1-10.87,1.54-14.68c0.3-0.7,0.6-1.38,0.84-2.04c1.49-4.01,2.27-8.72,2.89-13.21c0.61-4.41,0.84-8.67,0.71-12.77
		c-2.61,5.65-6.61,10.63-11.66,14.22c-1.02,0.73-2.08,1.4-3.15,2.06c-1.65,1.03-3.2,2.01-4.31,3.11c-0.49,0.49-0.75,0.83-0.87,1.04
		c0.57,1.01,2.71,2.91,4.04,4.07c4.04,3.56,10.14,8.94,8.38,16.78c-1.2,5.36-5.84,9.11-12.1,9.8c-1.03,0.11-2.08,0.17-3.21,0.17
		c-2.41,0-4.67-0.25-6.86-0.5c-1.3-0.15-2.61-0.3-3.92-0.37c-0.75-0.04-1.5-0.06-2.26-0.06c-1.74,0-3.48,0.09-5.22,0.18l-2.87,0.15
		c-1.08,0.07-2.18,0.13-3.26,0.13c-0.94,0-1.8-0.05-2.61-0.14c-2.14-0.25-3.94-1.04-5.33-2.37c-2.76-2.62-3.94-6.87-3.87-9.71
		c0.07-2.7,0.93-5,1.63-6.84l0.14-0.37c4.34-11.57,5.61-24.45,3.99-40.56c-0.37-3.73-0.89-7.71-1.59-12.16
		c-0.36-2.32-0.79-4.76-1.28-7.26c-0.2-1-0.19-1.86-0.19-2.42v-0.33l-0.14-1.26c-0.73-6.28-0.57-11.74,8.77-15.03
		c4.61-1.62,10.12-3.28,16.05-3.28c0.54,0,1.07,0.01,1.61,0.04c4.91,0.25,9.75,1.53,14.01,3.7c2.55,1.3,4.92,2.93,7.06,4.82
		c0.2-0.7,0.49-1.38,0.87-2.02c1.5-2.55,4.67-5.59,11.29-5.59c2.07,0,4.06,0.28,5.65,0.5c0.43,0.06,0.84,0.12,1.22,0.17
		c1.52,0.19,3.05,0.4,4.58,0.61c4.14,0.58,8.04,1.13,11.86,1.13c0.95,0,1.89-0.03,2.84-0.11c1.43-0.12,3.12-0.56,4.91-1.02
		c2.65-0.69,5.65-1.47,8.86-1.47c1.86,0,3.64,0.27,5.3,0.8c0.75,0.24,1.5,0.57,2.19,0.98c4.45,2.85,5.72,8.37,3.51,14.5
		c-2.52,6.97-6.61,13.32-11.9,18.51c3.81,2.31,5.25,5.97,5.86,9.33c0.5-3.3,1.15-6.57,1.94-9.78c3.09-12.55,7.97-21.65,14.91-27.83
		c5.42-4.81,11.84-7.46,18.1-7.46c4.37,0,8.42,1.26,12.05,3.76c7.67,5.28,13.45,14.38,17.52,27.68c1.21-4.16,2.81-8.2,4.75-11.9
		c6.04-11.56,16.17-18.47,27.09-18.47c4.64,0,9.32,1.2,13.91,3.58c3.11,1.6,5.98,3.61,8.59,5.98c0.14-1.37,0.52-2.68,1.23-3.88
		c1.5-2.55,4.67-5.59,11.28-5.59c2.07,0,4.06,0.28,5.65,0.5c0.43,0.06,0.84,0.12,1.22,0.17c1.52,0.19,3.05,0.4,4.58,0.61
		c4.13,0.58,8.04,1.13,11.86,1.13c0.95,0,1.89-0.03,2.84-0.11c1.43-0.12,3.12-0.56,4.91-1.02c2.65-0.69,5.65-1.47,8.85-1.47
		c1.86,0,3.64,0.27,5.3,0.8c0.77,0.24,1.51,0.58,2.21,0.99c4.43,2.84,5.71,8.35,3.49,14.49c-2.52,6.98-6.61,13.33-11.9,18.51
		c5.76,3.49,6.12,10.08,6.34,14.02c0.05,0.84,0.08,1.66,0.18,2.4c0.06,0.46,0.22,1.09,0.39,1.75c0.5,1.98,1.19,4.7,0.5,7.79
		c-0.49,2.18-1.61,3.96-3.17,5.17c2.42,1.87,4.01,4.25,5.15,6.2c2.6,4.43,4.45,9.23,5.49,14.26c1.01,4.85,0.42,8.75-1.74,11.61
		c-1.27,1.67-3.66,3.73-7.87,4.02c-0.61,0.04-1.22,0.06-1.82,0.06c-1.17,0-2.39-0.07-3.74-0.23c-1.37-0.16-2.72-0.38-4.07-0.6
		c-1.57-0.26-3.04-0.51-4.48-0.62c-1.53-0.12-3.04-0.18-4.6-0.18c-3.81,0-7.83,0.35-13.05,1.13c-2.21,0.33-4.04,0.49-5.77,0.49
		c-3.67,0-6.78-0.71-9.51-2.17c-2.89-1.55-5.15-4.02-6.37-6.97c-0.08-0.2-0.16-0.4-0.23-0.59c-6.26,6.15-14.48,9.62-23,9.62
		c-2.1,0-4.22-0.21-6.32-0.61c-9.06-1.76-17.21-7.09-21.95-14.22c-0.03,0.98-0.05,1.96-0.09,2.95
		C220.57,222.14,218.39,230.25,205.79,230.25L205.79,230.25z M181.54,208.44c0.47,0.4,1,0.8,1.4,1.11c0.89,0.69,1.81,1.39,2.65,2.21
		c0.3,0.29,0.57,0.59,0.83,0.9c1.44-1.54,3.11-2.68,4.25-3.46c0.49-0.33,1.22-0.84,1.44-1.04c0.48-0.5,0.85-1.07,1.1-1.57
		c-0.93-0.15-1.84-0.22-2.78-0.22C187.37,206.38,184.17,207.13,181.54,208.44z M131.74,190.17c0,0-0.09,0.03-0.25,0.12
		c-2.96,1.67-4.33,10.08-4.78,12.85c-0.12,0.73-0.14,1.01-0.13,1.12c0.02,0.12,0.05,0.23,0.07,0.31c0.96-0.15,2.23-0.92,2.77-1.88
		c0.06-0.19,0.27-1.19,0.4-1.86c0.59-2.91,1.41-6.9,5.01-9.02c-0.05-0.03-0.11-0.07-0.16-0.1
		C133.78,191.15,132.26,190.21,131.74,190.17z M307.99,190.17c0,0-0.09,0.03-0.25,0.12c-2.95,1.67-4.33,10.08-4.78,12.85
		c-0.1,0.59-0.14,0.96-0.13,1.12c0.02,0.12,0.05,0.23,0.07,0.31c0.97-0.15,2.23-0.92,2.77-1.88c0.06-0.18,0.27-1.19,0.4-1.86
		c0.59-2.91,1.4-6.9,5.01-9.02c-0.05-0.03-0.11-0.07-0.16-0.1C310.02,191.15,308.51,190.21,307.99,190.17z M248.25,161.57
		c-1.28,0.04-2.7,1.39-3.39,3.07c-3.51,8.61-3.65,18.66-0.37,27.56c1.15,3.13,2.45,5.09,3.97,6.01c0.42,0.26,1.07,0.42,1.65,0.42
		c0.18,0,0.34-0.02,0.46-0.04c-0.12-0.26-0.29-0.5-0.45-0.74c-0.3-0.48-0.6-0.96-0.86-1.47c-1.7-3.21-2.06-6.6-1.03-9.54
		c0.91-2.59,2.87-4.64,5.51-5.79c0.89-0.39,1.79-0.65,2.68-0.82c-4.71-1.6-6.52-4.56-7.22-6.56c-1.29-3.71,0.16-7.01,0.64-8.1
		c0.46-1.05,0.39-2.53-0.17-3.38C249.46,161.88,249.18,161.57,248.25,161.57z M148.85,193.45c-0.01-0.2-0.01-0.4-0.02-0.6
		c-0.12,0.1-0.24,0.2-0.36,0.3C148.6,193.25,148.73,193.35,148.85,193.45z M184.75,160.41c-0.69,0.34-2.63,1.85-5.13,8.41
		c-2.56,6.72-3.29,14.46-2.16,16.41c0.72-0.04,1.58-0.23,2.11-0.35l0.77-0.17c3.36-0.74,6.54-1.44,8.83-3l0.17-0.13
		c0.92-0.74,1.06-2.89,0.46-6.44C188.16,165.25,185.75,161.32,184.75,160.41z M274.14,179.97c1.39,0.28,2.83,0.75,4.2,1.49
		c0.03-1.2,0.03-2.39,0-3.57C277.15,178.81,275.68,179.48,274.14,179.97z M74.5,155.98c-0.61,0.53-1.16,1.5-1.58,2.73
		c-1.02,3.02-1.09,6.98-0.58,10.32c0.35-0.41,0.69-0.83,1.01-1.26c1.28-1.72,2.83-4.36,2.97-7.2c0.06-2-1.01-4.06-1.69-4.65
		C74.58,155.94,74.54,155.96,74.5,155.98z M299.73,153.11c-0.07,0.19-0.17,0.49-0.26,0.9c-0.51,2.21-0.1,4.47,0.73,7.39
		c0.4,1.41,0.81,2.43,1.29,3.2c0.61,0.99,1.38,1.44,1.63,1.45h0.01c1.21,0,1.92-0.45,3.82-1.83c0.05-0.04,0.11-0.08,0.16-0.12
		c-0.82-0.77-1.62-1.78-2.33-3.13c-0.44-0.83-0.86-1.7-1.27-2.56c-0.87-1.8-1.68-3.51-2.69-4.57
		C300.49,153.48,300.06,153.23,299.73,153.11z M123.49,153.11c-0.07,0.19-0.17,0.49-0.27,0.9c-0.5,2.21-0.09,4.46,0.73,7.39
		c0.4,1.41,0.81,2.43,1.28,3.2c0.61,0.99,1.38,1.44,1.64,1.45c0.01,0,0.01,0,0.02,0c1.21,0,1.92-0.45,3.82-1.83
		c0.05-0.04,0.11-0.08,0.16-0.12c-0.82-0.76-1.62-1.78-2.33-3.12c-0.45-0.84-0.86-1.7-1.28-2.57c-0.87-1.8-1.68-3.51-2.69-4.57
		C124.25,153.48,123.82,153.23,123.49,153.11z"/>
	<path class="st3" d="M88.65,217.41c-0.6,2.67-3.05,4.72-6.89,5.14c-4.36,0.48-8.63-0.47-12.97-0.73c-3.24-0.19-6.47,0.04-9.71,0.19
		c-2.02,0.1-4.17,0.33-6.19,0.1c-0.7-0.08-1.36-0.26-1.89-0.76c-1.23-1.17-2.04-3.56-2-5.2c0.04-1.82,0.75-3.55,1.39-5.25
		c5.25-14,5.82-28.52,4.34-43.27c-0.42-4.18-0.98-8.34-1.63-12.49c-0.39-2.51-0.84-5-1.33-7.49c-0.14-0.72-0.03-1.45-0.11-2.18
		c-0.64-5.92-1.43-7.9,4.65-10.04c4.94-1.74,10.08-3.18,15.36-2.91c4.01,0.21,7.99,1.22,11.59,3.06
		c9.05,4.62,15.41,14.28,16.14,24.54c0.73,10.26-4.18,20.75-12.48,26.65c-2.73,1.94-5.81,3.43-8.2,5.8
		C68.39,202.82,90.88,207.47,88.65,217.41z M67.23,156.79c-2.1,6.24-1.27,14.93,1.08,19.71c0.13,0.26,1.81,3.09,1.9,3.01
		c2.83-2.54,5.67-5.09,7.95-8.15c2.28-3.05,3.97-6.68,4.15-10.51c0-0.07,0.01-0.13,0.01-0.2c0.18-5.45-4.21-13.38-10.63-9.99
		c-0.48,0.25-0.88,0.54-1.23,0.85C69,152.82,67.94,154.66,67.23,156.79z M325.33,223.24c4.73-0.33,4.94-4.58,4.14-8.41
		c-0.91-4.37-2.54-8.59-4.79-12.45c-1.11-1.9-2.43-3.75-4.28-4.94c-1.85-1.18-4.35-1.57-6.25-0.46c-2.15,1.25-1.96,6.38-3.23,8.64
		c-3.05,5.43-12.55,7.89-14.01-0.38c-0.18-1.02-0.04-2.06,0.12-3.08c0.88-5.4,2.47-14.13,7.76-17.11c4.79-2.7,8.23,1.36,12.35,3.27
		c2.22,1.03,4.34,0.78,4.89-1.66c0.56-2.52-0.66-4.99-0.98-7.44c-0.53-4,0.24-9.72-3.7-12.09c-1.08-0.65-2.53-0.71-3.65-0.14
		c-3.73,1.92-5.97,5.27-10.84,5.05c-2.69-0.12-5.05-2-6.47-4.28c-0.91-1.46-1.5-3.09-1.96-4.74c-0.97-3.43-1.63-6.76-0.81-10.36
		c0.42-1.85,1.23-3.72,2.79-4.79c2.69-1.85,6.56-0.54,8.8,1.84c2.24,2.38,3.37,5.56,4.9,8.44c0.53,1,1.3,2.08,2.42,2.12
		c0.83,0.03,1.54-0.53,2.16-1.08c5.41-4.79,9.59-10.95,12.04-17.74c0.9-2.5,1.31-5.86-0.93-7.29c-0.3-0.18-0.61-0.32-0.94-0.42
		c-5.49-1.75-11.27,1.5-16.74,1.96c-6.85,0.57-13.74-0.82-20.51-1.65c-3.62-0.44-9.97-1.87-12.24,2c-1.42,2.42,0.72,8.15,1.48,10.61
		c1.34,4.34,3.14,8.52,4.52,12.84c3.25,10.16,3.65,21.01,2.2,31.53c-0.66,4.83-1.51,9.91-3.21,14.49c-1.4,3.76-4.17,8.2-2.46,12.33
		c0.7,1.69,2.05,3.11,3.66,3.97c3.5,1.87,7.76,1.61,11.55,1.04c6.45-0.97,12.42-1.51,19-1.01c2.99,0.23,5.84,0.91,8.76,1.24
		C322.32,223.26,323.8,223.34,325.33,223.24z M149.08,223.24c4.73-0.33,4.94-4.58,4.14-8.41c-0.91-4.37-2.54-8.59-4.79-12.45
		c-1.11-1.9-2.43-3.75-4.28-4.94c-1.85-1.18-4.35-1.57-6.25-0.46c-2.15,1.25-1.96,6.38-3.23,8.64c-3.05,5.43-12.55,7.89-14.01-0.38
		c-0.18-1.02-0.04-2.06,0.12-3.08c0.88-5.4,2.47-14.13,7.76-17.11c4.79-2.7,8.23,1.36,12.35,3.27c2.22,1.03,4.34,0.78,4.89-1.66
		c0.56-2.52-0.66-4.99-0.98-7.44c-0.53-4,0.24-9.72-3.7-12.09c-1.08-0.65-2.53-0.71-3.65-0.14c-3.73,1.92-5.97,5.27-10.84,5.05
		c-2.69-0.12-5.05-2-6.47-4.28c-0.91-1.46-1.5-3.09-1.96-4.74c-0.97-3.43-1.63-6.76-0.81-10.36c0.42-1.85,1.23-3.72,2.79-4.79
		c2.69-1.85,6.56-0.54,8.8,1.84c2.24,2.38,3.37,5.56,4.9,8.44c0.53,1,1.3,2.08,2.42,2.12c0.83,0.03,1.54-0.53,2.16-1.08
		c5.41-4.79,9.59-10.95,12.04-17.74c0.9-2.5,1.31-5.86-0.93-7.29c-0.3-0.18-0.61-0.32-0.94-0.42c-5.49-1.75-11.27,1.5-16.74,1.96
		c-6.85,0.57-13.74-0.82-20.51-1.65c-3.62-0.44-9.97-1.87-12.24,2c-1.42,2.42,0.72,8.15,1.48,10.61c1.34,4.34,3.14,8.52,4.52,12.84
		c3.25,10.16,3.65,21.01,2.2,31.53c-0.66,4.83-1.51,9.91-3.21,14.49c-1.4,3.76-4.17,8.2-2.46,12.33c0.7,1.69,2.05,3.11,3.66,3.97
		c3.5,1.87,7.76,1.61,11.55,1.04c6.45-0.97,12.42-1.51,19-1.01c2.99,0.23,5.84,0.91,8.76,1.24
		C146.08,223.26,147.56,223.34,149.08,223.24z M211.4,169.36c-2.55-12.01-7.32-27.23-17.72-34.38c-7.38-5.07-16.37-2.43-22.75,3.24
		c-6.96,6.2-10.78,15.47-13.07,24.78c-3.6,14.63-4.01,30.22-1.48,45.08c0.59,3.45,1.39,7.76,2.81,11.11
		c0.81,1.85,2.18,3.53,4.01,4.2c2.11,0.77,4.77,0.23,6.96,0.16c3.4-0.1,8.12,0.71,11.03-1.44c2.24-1.65,2.09-4.2,0.19-6.05
		c-2.09-2.04-6.15-4.09-6.74-7.27c-0.46-2.46,1.49-4.27,3.42-5.33c5.18-2.85,11.91-3.87,17.65-2.5c6.08,1.45,3.98,7.99,0.65,11.42
		c-1.86,1.92-7.47,4.17-6.78,7.54c0.87,4.24,6.94,4.14,10.04,4.12c6-0.02,14.77,2.08,15.09-6.95
		C215.28,201.16,214.72,184.96,211.4,169.36z M193.17,186.22c-0.15,0.12-0.33,0.24-0.48,0.37c-3.49,2.43-7.79,3.26-11.82,4.16
		c-2.22,0.49-4.7,0.96-6.61-0.33c-6.07-4.01-2.29-18.38-0.25-23.74c1.72-4.5,4.78-11.29,9.89-12.27
		c7.81-1.47,10.91,14.16,11.84,19.73C196.44,178.35,196.77,183.32,193.17,186.22z M267.49,143.95c-2.78-3.11-6.13-5.75-9.88-7.69
		c-14.07-7.27-26.44-0.07-32.92,12.33c-4.03,7.72-6.5,17.09-6.71,25.81c-0.28,11.79,1.04,23.65,6.6,34.49
		c3.64,7.1,11.42,12.24,19.35,13.78c10.21,1.98,19.68-2.02,25.97-9.56c3.88-4.66,13.82-20.96,6.05-26.09
		c-3.79-2.5-10.44-1.07-14.72-1.11c-1.73-0.02-3.52-0.02-5.09,0.66c-3.05,1.32-2.88,4.51-1.56,7.01c0.51,0.97,1.2,1.83,1.6,2.85
		c0.99,2.49,0.65,4.97-1.52,6.75c-2.47,2.03-6.56,1.83-9.29,0.18c-3.3-1.99-5.21-5.56-6.5-9.08c-3.8-10.34-3.64-21.88,0.44-31.91
		c1.38-3.38,4.57-6.66,8.6-6.8c7.22-0.25,9.71,7.27,7.44,12.43c-0.51,1.17-0.89,2.49-0.47,3.71c1.84,5.29,16.54,4.02,19.87,1.38
		c4.56-3.62,1.57-9.79,0.21-14.31C273.36,153.47,271.3,148.21,267.49,143.95z"/>
</g>
</svg>
