<?xml version="1.0" encoding="utf-8"?>
<!-- Generator: Adobe Illustrator 28.1.0, SVG Export Plug-In . SVG Version: 6.00 Build 0)  -->
<svg version="1.1" id="Layer_2" xmlns="http://www.w3.org/2000/svg" xmlns:xlink="http://www.w3.org/1999/xlink" x="0px" y="0px"
	 viewBox="0 0 2000 2000" style="enable-background:new 0 0 2000 2000;" xml:space="preserve">
<style type="text/css">
	.st0{fill:#10497E;}
	.st1{fill:#E5EDF4;}
	.st2{fill:#3F95DB;}
	.st3{fill:#7ACBF2;}
	.st4{fill:#FEDB00;}
	.st5{fill:#0066CC;}
	.st6{fill:#FFE682;}
</style>
<path id="XMLID_9370_" class="st0" d="M585.59,986.6c-4.59-7.17-6.7-14.38-6.45-21.53c-0.76,10.15-0.86,11.46-1.18,19.49
	c-0.11,4.43-0.24,10.33-0.28,14.76c0.1,11.8,0.1,11.8,0.33,17.71c0.58,11.73,0.58,11.73,1.05,17.61l0.04,0.46
	c0.48,5.9,2.58,11.82,6.36,17.72c-0.88-10.91-1.31-21.92-1.29-33.02C584.19,1008.69,584.67,997.62,585.59,986.6"/>
<path id="XMLID_9266_" d="M975.82,579.46c5.42-0.43,10.91-0.71,16.4-0.85c-0.94-0.67-1.87-0.99-2.79-0.97l-1.48,0.04
	c-12.1,0.48-12.57,0.5-19.2,0.99l-2.12,0.16C969.66,578.6,972.73,578.8,975.82,579.46"/>
<path id="XMLID_9258_" d="M997.36,578.52c5.48-0.05,10.95,0.04,16.32,0.27c1.41-0.67,2.81-0.97,4.2-0.9
	c-3.48-0.11-8.13-0.27-11.62-0.33c-3.01-0.01-7.02-0.05-10.03-0.03C996.61,577.52,996.98,577.85,997.36,578.52"/>
<path id="XMLID_9250_" d="M1018.7,579.04c5.31,0.31,10.51,0.75,15.54,1.32c4.58-0.61,9.11-0.66,13.59-0.15l-3.88-0.42
	c-12.3-1.14-12.53-1.17-19.25-1.56C1022.71,578.11,1020.71,578.38,1018.7,579.04"/>
<g id="greyblue">
	<path id="XMLID_9338_" class="st1" d="M596.82,874.26c0.19-0.78,0.41-1.55,0.65-2.33l-1.85,5.96c-3.26,11.23-3.26,11.23-4.73,16.92
		l-1.32,5.27C591.69,891.4,594.11,882.79,596.82,874.26"/>
	<path id="XMLID_10054_" class="st1" d="M1000.91,594.26L1000.91,594.26c22.33-1.64,44.39-1.49,66.07,0.43
		c-1.13-1.16-2.67-2.3-4.63-3.42C1042.19,590.48,1021.68,591.47,1000.91,594.26"/>
	<path id="XMLID_10010_" class="st1" d="M1408.73,1079.64c-2.94,21.53-7.65,42.59-14.12,63.1c3.91-4.83,6.67-9.74,8.25-14.7
		l1.83-5.88c3.27-11.23,3.27-11.23,4.73-16.92c2.79-11.34,2.79-11.34,4.01-17.08c2.31-11.44,2.31-11.44,3.29-17.24
		c0.58-3.67,1.36-8.57,1.89-12.25C1417.6,1065.75,1414.28,1072.77,1408.73,1079.64"/>
	<path id="XMLID_9982_" class="st1" d="M1090.24,604.43c-0.21,1.51-0.92,3.01-2.1,4.48c21.67,5.98,42.94,13.68,63.69,23.06
		c2.05-2.54,3.28-5.13,3.64-7.75C1134.21,615.9,1112.44,609.3,1090.24,604.43"/>
	<path id="XMLID_9978_" class="st1" d="M1000.91,594.26L1000.91,594.26c22.57,1.44,44.87,4.63,66.79,9.54
		c0.91-1.12,1.45-2.27,1.61-3.43C1046.86,596.59,1024.03,594.55,1000.91,594.26"/>
	<path id="XMLID_9894_" class="st1" d="M1321.93,854.13c-11.04,5.41-23.9,10.55-38.47,15.35c5.57,13.94,10.61,28.16,15.11,42.63
		c2.31,7.44,4.47,14.9,6.46,22.38c15.69-5.17,29.53-10.7,41.42-16.53c-2.27-7.37-4.72-14.71-7.34-22.03
		C1333.99,881.72,1328.26,867.77,1321.93,854.13"/>
	<path id="XMLID_9878_" class="st1" d="M1078.68,615.72c-2.67,1.31-5.78,2.55-9.31,3.72c17.01,8.6,33.7,18.86,49.98,30.75
		c6.1-2.01,11.49-4.16,16.11-6.43C1116.96,632.75,1098,623.39,1078.68,615.72"/>
	<path id="XMLID_9862_" class="st1" d="M1220.3,1340.64c-12.83,3.76-27.05,7.22-42.58,10.31c-0.89,1.16-1.79,2.3-2.7,3.43
		c-8.7,10.85-17.93,20.33-27.67,28.41c12.88-2.57,24.68-5.44,35.34-8.56c12.06-8.64,23.5-18.66,34.27-30.01
		C1218.08,1343.05,1219.19,1341.85,1220.3,1340.64"/>
	<path id="XMLID_9818_" class="st1" d="M1000.91,594.27C1000.91,594.27,1000.91,594.27,1000.91,594.27
		c13.58,5.22,27,12.15,40.18,20.74c3.5-0.7,6.71-1.48,9.61-2.33C1034.37,604.85,1017.74,598.7,1000.91,594.27"/>
	<path id="XMLID_9810_" class="st1" d="M1125.55,1392.82c-7.31,1.28-14.94,2.46-22.9,3.53c-5.79,0.78-11.63,1.48-17.52,2.12
		c-6.94,7.23-14.24,12.7-21.87,16.39c4.39-0.47,8.75-1,13.06-1.58c5.93-0.8,11.62-1.68,17.06-2.63
		C1104.61,1406.46,1115.35,1400.5,1125.55,1392.82"/>
	<path id="XMLID_9806_" class="st1" d="M1162.78,1353.74c-9.46,1.66-19.34,3.18-29.65,4.57c-7.49,1.01-15.06,1.92-22.68,2.74
		c-0.56,1.11-1.12,2.2-1.68,3.28c-5.42,10.36-11.18,19.31-17.25,26.84c6.33-0.68,12.61-1.44,18.83-2.28
		c8.55-1.15,16.75-2.42,24.6-3.79c8.92-7.93,17.39-17.26,25.36-27.98C1161.14,1356.02,1161.96,1354.89,1162.78,1353.74"/>
	<path id="XMLID_9786_" class="st1" d="M1217.93,977.47c-12.61,2.21-25.8,4.24-39.53,6.09c-9.99,1.34-20.08,2.56-30.25,3.66
		c2.37,22.63,4.08,45.24,5.13,67.72c10.53-1.13,20.98-2.4,31.32-3.79c14.22-1.91,27.88-4.02,40.94-6.31
		C1223.98,1022.43,1221.44,999.94,1217.93,977.47"/>
	<path id="XMLID_9778_" class="st1" d="M1171.63,807.42c-9.91,1.74-20.27,3.33-31.07,4.79c-7.85,1.06-15.78,2.01-23.77,2.87
		c5.49,20.44,10.43,41.54,14.79,63.2c9.02-0.97,17.97-2.05,26.82-3.24c12.18-1.64,23.87-3.44,35.05-5.4
		C1187.01,848.28,1179.72,827.5,1171.63,807.42"/>
	<path id="XMLID_9758_" class="st1" d="M1047.29,1418.64c-9.34,0.83-18.82,1.4-28.32,1.72c-1.5,1.22-3.02,1.86-4.55,1.91
		c5.18-0.23,12.09-0.6,17.27-0.94l6-0.49C1040.91,1420.54,1044.12,1419.8,1047.29,1418.64"/>
	<path id="XMLID_9750_" class="st1" d="M1093.37,1362.73c-18.31,1.63-36.89,2.74-55.5,3.37c-0.19,1.08-0.39,2.15-0.59,3.21
		c-1.89,10.11-3.89,18.81-6,26.06c15.45-0.52,30.87-1.45,46.06-2.8c5.14-7.44,10.01-16.31,14.6-26.58
		C1092.42,1364.91,1092.9,1363.83,1093.37,1362.73"/>
	<path id="XMLID_9742_" class="st1" d="M1122.83,1242.31c-24.01,2.14-48.38,3.6-72.79,4.42c-0.34,6.31-0.72,12.5-1.11,18.57
		c-0.77,11.76-1.62,22.95-2.57,33.55c22.68-0.76,45.31-2.12,67.61-4.1c2.28-10.68,4.34-21.94,6.19-33.77
		C1121.12,1254.86,1122.01,1248.64,1122.83,1242.31"/>
	<path id="XMLID_9738_" class="st1" d="M1129.5,1164.41c-25.28,2.25-50.94,3.79-76.65,4.65c-0.41,20.89-1.06,40.94-1.93,60.04
		c24.83-0.83,49.6-2.32,74.02-4.49C1127.02,1205.43,1128.54,1185.33,1129.5,1164.41"/>
	<path id="XMLID_9726_" class="st1" d="M1114.7,900.79c-22.3,1.98-44.93,3.34-67.61,4.1c0.9,14.64,1.71,29.49,2.43,44.53
		c0.37,7.73,0.71,15.46,1.03,23.19c24.41-0.82,48.78-2.28,72.79-4.42c-0.8-7.7-1.66-15.4-2.58-23.1
		C1118.95,930.13,1116.93,915.35,1114.7,900.79"/>
	<path id="XMLID_9710_" class="st1" d="M1028.52,627.01c-5.4,0.48-10.87,0.81-16.36,0.99c2.79,10.73,5.53,23.08,8.2,37.01
		c9.5-0.32,18.97-0.89,28.31-1.72C1042.11,649.6,1035.38,637.49,1028.52,627.01"/>
	<path id="XMLID_9670_" class="st1" d="M1025.82,905.43c-22.68,0.39-45.31,0.19-67.62-0.56c-0.86,14.64-1.64,29.49-2.34,44.53
		c-0.36,7.73-0.7,15.46-1.01,23.19c24.02,0.82,48.39,1.03,72.8,0.61c-0.17-7.73-0.35-15.47-0.54-23.21
		C1026.73,934.95,1026.3,920.08,1025.82,905.43"/>
	<path id="XMLID_9650_" class="st1" d="M1000.91,594.27C1000.91,594.27,1000.91,594.27,1000.91,594.27
		c-2.65,6.38-5.27,14.44-7.85,24.15c4.13,0.14,8.33,0.18,12.53,0.1C1004.05,608.78,1002.49,600.68,1000.91,594.27"/>
	<path id="XMLID_9626_" class="st1" d="M928.47,1168.04c-25.04-1.26-49.61-3.14-73.41-5.62c0.99,20.94,2.61,41.06,4.85,60.26
		c22.98,2.39,46.71,4.21,70.89,5.42C929.72,1209,928.94,1188.94,928.47,1168.04"/>
	<path id="XMLID_9622_" class="st1" d="M928.25,1081.97c-25.17-1.26-49.88-3.15-73.8-5.65c-0.34,11.21-0.52,22.38-0.54,33.5
		c-0.02,11.1,0.12,22.01,0.41,32.73c23.92,2.49,48.63,4.38,73.8,5.65c-0.14-10.7-0.19-21.61-0.17-32.71
		C927.97,1104.37,928.07,1093.19,928.25,1081.97"/>
	<path id="XMLID_9614_" class="st1" d="M937.38,903.99c-22.09-1.11-43.76-2.77-64.75-4.95c-2.55,14.52-4.86,29.27-6.93,44.22
		c-1.06,7.68-2.06,15.37-2.98,23.06c22.59,2.35,45.93,4.14,69.71,5.33c0.46-7.72,0.96-15.45,1.49-23.17
		C934.96,933.45,936.11,918.61,937.38,903.99"/>
	<path id="XMLID_9602_" class="st1" d="M971.01,678.09c-10.43-0.52-20.67-1.31-30.59-2.34c-7.24,14.51-14.16,30.32-20.73,47.37
		c13.3,1.39,27.05,2.44,41.05,3.14C964.01,708.96,967.43,692.88,971.01,678.09"/>
	<path id="XMLID_9578_" class="st1" d="M856.71,1305.7c-19.93-2.44-39.1-5.38-57.24-8.8c6.69,15.77,14.25,30.23,22.65,43.3
		c16.08,3.03,33.08,5.64,50.74,7.8C866.87,1335.3,861.47,1321.18,856.71,1305.7"/>
	<path id="XMLID_9574_" class="st1" d="M841.24,1238.05c-22.1-2.7-43.36-5.97-63.49-9.76c1.46,6.43,3.03,12.75,4.71,18.97
		c3.27,12.04,6.93,23.53,10.98,34.47c18.69,3.52,38.44,6.55,58.97,9.06c-2.88-10.76-5.49-22.09-7.82-33.98
		C843.4,1250.67,842.28,1244.41,841.24,1238.05"/>
	<path id="XMLID_9570_" class="st1" d="M833,1159.93c-23.27-2.85-45.66-6.28-66.85-10.27c1.62,21.03,4.26,41.3,7.9,60.7
		c20.46,3.85,42.08,7.17,64.56,9.92C836.02,1201.03,834.14,1180.89,833,1159.93"/>
	<path id="XMLID_9562_" class="st1" d="M839.05,985.13c-22.47-2.75-44.09-6.07-64.55-9.92c-3.72,22.43-6.44,44.9-8.14,67.3
		c21.19,3.99,43.58,7.42,66.85,10.27C834.43,1030.3,836.38,1007.72,839.05,985.13"/>
	<path id="XMLID_9554_" class="st1" d="M873.87,813.44c-17.66-2.16-34.65-4.77-50.73-7.8c-8.46,19.99-16.09,40.69-22.85,61.99
		c18.14,3.42,37.31,6.36,57.24,8.8C862.36,854.84,867.81,833.81,873.87,813.44"/>
	<path id="XMLID_9534_" class="st1" d="M905.8,1411.74c-3.65-0.78-7.2-1.6-10.61-2.47c4.51,1.1,10.52,2.55,15.05,3.57l1.94,0.42
		C910.05,1412.8,907.92,1412.3,905.8,1411.74"/>
	<path id="XMLID_9510_" class="st1" d="M745.45,1059.56c-20.51-4.36-39.72-9.26-57.3-14.69c-0.7,11.14-1.06,22.28-1.08,33.4
		c-0.02,11.1,0.3,22.05,0.96,32.83c17.58,5.42,36.79,10.33,57.3,14.69c-0.53-10.75-0.79-21.68-0.77-32.78
		C744.57,1081.88,744.87,1070.73,745.45,1059.56"/>
	<path id="XMLID_9482_" class="st1" d="M1000.9,594.27L1000.9,594.27c-17.15,4.29-34.09,10.28-50.75,17.96
		c2.86,0.88,5.98,1.68,9.32,2.39C973.07,606.15,986.9,599.36,1000.9,594.27"/>
	<path id="XMLID_9466_" class="st1" d="M689.99,1205.76c-15.62-5.43-29.6-11.34-41.66-17.7c2.31,6.69,4.81,13.3,7.48,19.83
		c5.19,12.63,11,24.8,17.42,36.47c11.19,5.91,24.19,11.4,38.69,16.44c-5.66-11.35-10.78-23.22-15.34-35.59
		C694.22,1218.82,692.02,1212.34,689.99,1205.76"/>
	<path id="XMLID_9446_" class="st1" d="M753,787.64c-12.48-4.34-23.66-9.06-33.29-14.14c-13.38,18.47-25.44,37.79-36.11,57.87
		c10.87,5.73,23.48,11.06,37.56,15.95C730.57,826.71,741.2,806.78,753,787.64"/>
	<path id="XMLID_9414_" class="st1" d="M618.62,1100.9c-11.23-6.89-19.85-13.94-25.97-21.04c2.85,21.53,7.47,42.59,13.84,63.09
		c5.91,6.86,14.23,13.66,25.08,20.32C625.61,1143.1,621.28,1122.28,618.62,1100.9"/>
	<path id="XMLID_9394_" class="st1" d="M771.57,702.49c-6.75-4.14-11.93-8.37-15.6-12.64c-16.14,12.87-31.44,26.89-45.85,42.02
		c-1.49,1.56-2.96,3.13-4.42,4.71c4.43,5.14,10.67,10.24,18.8,15.23c1.37-1.65,2.75-3.3,4.14-4.94
		C742.12,731,756.46,716.19,771.57,702.49"/>
	<path id="XMLID_9382_" class="st1" d="M1000.9,594.27L1000.9,594.27c-22.5,1.45-44.74,4.65-66.6,9.58c1,1.16,2.41,2.31,4.24,3.44
		C959.01,601.23,979.83,596.88,1000.9,594.27"/>
	<path id="XMLID_9350_" class="st1" d="M829,638.57c-1.9-2.97-2.78-5.96-2.67-8.92c-20.87,9-40.82,19.55-59.76,31.59
		c-0.14,3.98,1.03,7.99,3.58,11.97C788.8,660.2,808.45,648.63,829,638.57"/>
	<path id="XMLID_9342_" class="st1" d="M1000.9,594.27L1000.9,594.27c-23.13-0.1-45.99,1.57-68.46,4.98
		c-0.04,1.16,0.3,2.33,1.05,3.5C955.61,598.19,978.12,595.35,1000.9,594.27"/>
	<path id="XMLID_9322_" class="st1" d="M826.72,626.87c0.72-2.95,2.4-5.86,5.01-8.7c-20.22,7.63-39.56,16.87-57.92,27.67
		c-3.5,3.81-5.76,7.72-6.72,11.68C785.98,645.77,805.89,635.54,826.72,626.87"/>
	<path id="XMLID_9282_" class="st1" d="M937.66,585.67c3.91-1.08,8.23-2.07,12.93-2.95c-9.56-0.4-18.98,0.27-28.25,2.02l-3.33,0.64
		c-12.14,2.52-13.4,2.79-21.89,4.89l-5.68,1.49C906.51,587.91,921.94,585.88,937.66,585.67"/>
	<path id="XMLID_9262_" class="st1" d="M1000.9,594.26C1000.9,594.26,1000.9,594.26,1000.9,594.26c-2.24-6.4-4.46-10.95-6.65-13.66
		c-4.2,0.11-8.41,0.32-12.56,0.65C988.01,583.75,994.42,588.08,1000.9,594.26"/>
</g>
<g id="med_blue">
	<path id="XMLID_9374_" class="st2" d="M587.64,1073.19c-3.39-5.3-5.42-10.61-6.14-15.91c0.54,3.68,1.25,8.58,1.84,12.25
		c2.02,11.49,2.02,11.49,3.22,17.24c2.5,11.4,2.5,11.4,3.94,17.09c2.98,11.29,2.98,11.29,4.66,16.93l1.8,5.89
		c1.03,3.28,2.59,6.56,4.69,9.84C595.21,1115.9,590.53,1094.76,587.64,1073.19"/>
	<path id="XMLID_10062_" class="st2" d="M1157.5,609.32c5.01,2.85,8.93,5.76,11.81,8.71c20.11,7.61,39.34,16.83,57.58,27.62
		c-3.7-3.79-8.69-7.55-15.03-11.22l-3.27-1.88C1192.36,623.34,1175.3,615.58,1157.5,609.32"/>
	<path id="XMLID_10058_" class="st2" d="M1081.16,592.55c2.57,1.46,4.58,2.95,6.05,4.46c21.44,3.03,42.48,7.82,63.01,14.37
		c-2.55-2.61-6.02-5.2-10.47-7.72C1120.66,598.17,1101.09,594.47,1081.16,592.55"/>
	<path id="XMLID_10046_" class="st2" d="M1404.76,880.88c6.56,20.89,11.31,42.24,14.25,63.94c-0.05-0.71-0.12-1.42-0.22-2.13
		c-0.53-3.66-1.24-8.54-1.83-12.19c-2.02-11.49-2.02-11.49-3.22-17.24c-2.5-11.4-2.5-11.4-3.94-17.09
		c-2.98-11.29-2.98-11.29-4.66-16.93l-1.83-5.96C1404.11,875.83,1404.59,878.36,1404.76,880.88"/>
	<path id="XMLID_10030_" class="st2" d="M1171.7,620.81c2.23,2.97,3.42,5.95,3.63,8.92c20.83,9.01,40.74,19.57,59.64,31.62
		c-0.27-3.99-1.88-8-4.87-11.98C1211.59,638.29,1192.1,628.75,1171.7,620.81"/>
	<path id="XMLID_9994_" class="st2" d="M1318.28,736.58c-0.75,5.38-3.27,10.72-7.48,15.93c14.71,17.47,27.95,35.89,39.66,55.18
		c4.75-5.88,7.6-11.9,8.44-17.97C1346.9,771.03,1333.34,753.29,1318.28,736.58"/>
	<path id="XMLID_9990_" class="st2" d="M1252.24,677.1c-0.59,4.26-2.59,8.48-5.92,12.61c16.14,12.86,31.45,26.88,45.85,41.99
		c1.49,1.56,2.96,3.13,4.42,4.71c4.02-4.97,6.43-10.06,7.14-15.2c-1.5-1.5-3-3-4.53-4.48
		C1284.45,702.35,1268.77,689.13,1252.24,677.1"/>
	<path id="XMLID_9974_" class="st2" d="M1209.58,1366.91l-2.56,1.46l3.48-1.98L1209.58,1366.91"/>
	<path id="XMLID_9970_" class="st2" d="M1271.57,1320.2c-1.36,1.31-2.73,2.61-4.12,3.9c-13.27,12.34-27.36,23.41-42.22,33.17
		c2.15-1.21,4.17-2.43,6.06-3.67c3.68-2.47,8.58-5.79,12.22-8.32c9.48-6.85,9.66-6.98,14.57-10.77c9.12-7.2,9.3-7.34,13.99-11.29
		c8.78-7.55,8.95-7.7,13.43-11.8l5.16-4.8C1285.72,1311.29,1279.34,1315.84,1271.57,1320.2"/>
	<path id="XMLID_9966_" class="st2" d="M1344.68,1242.42c-5.94,5.79-13.76,11.43-23.37,16.83c-10.83,17.04-23.06,32.92-36.62,47.58
		c8.52-4.79,15.45-9.78,20.72-14.92C1319.95,1276.55,1333.07,1260.03,1344.68,1242.42"/>
	<path id="XMLID_9930_" class="st2" d="M1086.89,610.28c-1.48,1.44-3.43,2.85-5.83,4.2c19.91,7.36,39.45,16.42,58.52,27.12
		c4.15-2.33,7.52-4.76,10.08-7.26C1129.21,624.63,1108.25,616.6,1086.89,610.28"/>
	<path id="XMLID_9898_" class="st2" d="M1352.25,938.38c-12.09,5.92-26.16,11.55-42.11,16.8c5.01,22.1,8.65,44.33,10.88,66.58
		c16.52-5.44,31.09-11.27,43.61-17.4C1362.08,982.24,1357.95,960.21,1352.25,938.38"/>
	<path id="XMLID_9882_" class="st2" d="M1152.67,654.54c-5.22,2.55-11.29,4.98-18.17,7.25c15.95,12.84,31.2,27.06,45.67,42.59
		c9.24-3.04,17.39-6.3,24.39-9.73C1188.11,679.9,1170.79,666.51,1152.67,654.54"/>
	<path id="XMLID_9874_" class="st2" d="M1000.91,594.27L1000.91,594.27c17.72,4.16,35.22,10.04,52.42,17.59
		c2.7-0.89,5.08-1.84,7.13-2.84C1040.92,602.4,1021.04,597.47,1000.91,594.27"/>
	<path id="XMLID_9866_" class="st2" d="M1169.97,1382.7c-9.91,2.9-20.9,5.57-32.89,7.96c-11.13,7.86-22.85,14-35.12,18.38
		c8.94-1.78,17.12-3.77,24.51-5.93C1141.66,1398.02,1156.19,1391.2,1169.97,1382.7"/>
	<path id="XMLID_9858_" class="st2" d="M1260.68,1283.42c-15.18,4.44-31.99,8.53-50.35,12.19c-7.1,15.82-15.12,30.32-24.02,43.45
		c16.27-3.24,31.17-6.87,44.63-10.81C1241.96,1314.61,1251.89,1299.64,1260.68,1283.42"/>
	<path id="XMLID_9854_" class="st2" d="M1289.29,1213.34c-16.83,4.93-35.48,9.46-55.84,13.52c-1.56,6.44-3.24,12.77-5.04,19
		c-3.49,12.06-7.39,23.58-11.69,34.54c18.91-3.77,36.23-7.98,51.87-12.56c5.33-11.21,10.15-22.95,14.47-35.21
		C1285.29,1226.29,1287.37,1219.86,1289.29,1213.34"/>
	<path id="XMLID_9846_" class="st2" d="M1306.56,1047.65c-17.82,5.22-37.56,10.02-59.11,14.31c0.52,11.18,0.77,22.34,0.75,33.46
		c-0.02,11.1-0.31,22.03-0.87,32.77c21.55-4.29,41.29-9.1,59.11-14.31c0.69-10.78,1.04-21.72,1.06-32.82
		C1307.53,1069.94,1307.21,1058.79,1306.56,1047.65"/>
	<path id="XMLID_9842_" class="st2" d="M1294.63,960c-17.11,5.01-36.08,9.62-56.78,13.75c3.83,22.41,6.61,44.86,8.32,67.24
		c21.44-4.27,41.07-9.05,58.79-14.24C1302.84,1004.47,1299.39,982.18,1294.63,960"/>
	<path id="XMLID_9790_" class="st2" d="M1226.72,1065.84c-13.13,2.3-26.86,4.42-41.16,6.34c-10.4,1.4-20.9,2.67-31.49,3.81
		c0.32,11.21,0.46,22.38,0.44,33.5c-0.02,11.1-0.21,22.01-0.56,32.73c10.59-1.14,21.1-2.41,31.49-3.81
		c14.3-1.92,28.03-4.04,41.16-6.34c0.51-10.74,0.78-21.66,0.8-32.76C1227.42,1088.18,1227.19,1077.02,1226.72,1065.84"/>
	<path id="XMLID_9774_" class="st2" d="M1136.13,733.19c-7.85,1.37-16.05,2.64-24.6,3.79c-6.21,0.84-12.49,1.59-18.82,2.27
		c6.03,16.12,11.75,33.23,17.12,51.26c0.55,1.86,1.1,3.73,1.65,5.6c7.63-0.82,15.19-1.73,22.68-2.74
		c10.3-1.39,20.18-2.91,29.64-4.57c-0.8-1.84-1.61-3.67-2.43-5.49C1153.45,765.64,1145.02,748.91,1136.13,733.19"/>
	<path id="XMLID_9766_" class="st2" d="M1048.99,624.36c-2.79,0.49-5.7,0.94-8.74,1.35c-2.21,0.3-4.44,0.57-6.69,0.81
		c8.11,10.36,16.07,22.35,23.83,35.92c3.89-0.42,7.75-0.88,11.57-1.4c5.26-0.71,10.3-1.49,15.12-2.33
		C1072.65,645.64,1060.93,634.18,1048.99,624.36"/>
	<path id="XMLID_9762_" class="st2" d="M1000.91,594.27L1000.91,594.27C1000.91,594.27,1000.91,594.27,1000.91,594.27
		c8.45,6,16.8,13.68,25,23.02c1.72-0.19,3.43-0.39,5.12-0.62c2.33-0.31,4.56-0.66,6.69-1.03
		C1025.64,606.84,1013.35,599.7,1000.91,594.27"/>
	<path id="XMLID_9754_" class="st2" d="M1071.93,1399.76c-14.14,1.26-28.49,2.12-42.87,2.6c-2.41,6.91-4.94,12.06-7.59,15.4
		c10.72-0.36,21.41-1,31.95-1.94C1059.88,1412.25,1066.06,1406.88,1071.93,1399.76"/>
	<path id="XMLID_9706_" class="st2" d="M1000.91,594.27C1000.91,594.27,1000.91,594.27,1000.91,594.27
		c2.92,6.38,5.79,14.45,8.62,24.15c4.2-0.14,8.4-0.39,12.53-0.76C1015.12,608.2,1008.06,600.39,1000.91,594.27"/>
	<path id="XMLID_9702_" class="st2" d="M1010.05,1420.58c-9.5,0.16-18.98,0.08-28.33-0.24c1.35,1.22,2.71,1.86,4.09,1.91l8.23,0.2
		c4.05,0.02,9.44,0.03,13.49-0.02C1008.38,1422.42,1009.22,1421.8,1010.05,1420.58"/>
	<path id="XMLID_9698_" class="st2" d="M1015.57,1402.71c-14.38,0.25-28.73,0.12-42.88-0.36c2.14,6.91,4.41,12.06,6.78,15.4
		c10.54,0.36,21.24,0.45,31.95,0.27C1012.87,1414.71,1014.25,1409.59,1015.57,1402.71"/>
	<path id="XMLID_9662_" class="st2" d="M1018,743.81c-15.45,0.27-30.86,0.13-46.06-0.38c-1.92,16.4-3.74,33.77-5.46,52.04
		c-0.18,1.89-0.35,3.78-0.53,5.67c18.32,0.62,36.9,0.78,55.51,0.46c-0.1-1.9-0.2-3.79-0.3-5.68
		C1020.16,777.62,1019.11,760.23,1018,743.81"/>
	<path id="XMLID_9630_" class="st2" d="M931.92,1245.76c-23.78-1.19-47.12-2.98-69.71-5.33c0.9,6.35,1.87,12.58,2.91,18.71
		c2.02,11.86,4.28,23.15,6.78,33.87c20.99,2.19,42.67,3.85,64.75,4.95c-1.22-10.62-2.33-21.82-3.31-33.6
		C932.83,1258.27,932.35,1252.07,931.92,1245.76"/>
	<path id="XMLID_9606_" class="st2" d="M957.75,742.83c-15.05-0.75-29.81-1.89-44.11-3.37c-5.76,16.14-11.22,33.26-16.36,51.3
		c-0.53,1.86-1.06,3.73-1.58,5.6c17.23,1.79,35.02,3.16,53.15,4.07c0.26-1.89,0.52-3.78,0.78-5.66
		C952.19,776.52,954.9,759.18,957.75,742.83"/>
	<path id="XMLID_9598_" class="st2" d="M985.61,627.78c-5.35-0.27-10.59-0.67-15.67-1.2c-7.7,10.38-15.26,22.38-22.64,35.97
		c8.79,0.92,17.87,1.61,27.12,2.07C978.06,650.76,981.8,638.46,985.61,627.78"/>
	<path id="XMLID_9586_" class="st2" d="M906.08,1397.26c-13.02-1.59-25.54-3.51-37.39-5.75c10.54,7.79,21.65,13.86,33.28,18.16
		c8.83,1.66,18.16,3.09,27.86,4.28C921.53,1410.16,913.6,1404.58,906.08,1397.26"/>
	<path id="XMLID_9582_" class="st2" d="M878.65,1359.48c-16.85-2.06-33.07-4.55-48.41-7.44c0.84,1.15,1.69,2.29,2.55,3.42
		c8.22,10.79,16.96,20.22,26.18,28.24c12.73,2.4,26.19,4.46,40.18,6.17c-6.58-7.62-12.81-16.65-18.68-27.09
		C879.86,1361.7,879.25,1360.6,878.65,1359.48"/>
	<path id="XMLID_9538_" class="st2" d="M1000.9,594.27C1000.9,594.27,1000.9,594.27,1000.9,594.27
		c-12.92,5.31-25.69,12.32-38.24,20.98c3.46,0.65,7.12,1.21,10.93,1.68C982.56,607.71,991.67,600.14,1000.9,594.27"/>
	<path id="XMLID_9526_" class="st2" d="M816.12,1349.22c-14.78-3.14-28.61-6.67-41.27-10.58c1.12,1.22,2.25,2.43,3.39,3.62
		c10.92,11.45,22.52,21.56,34.76,30.32c10.51,3.24,21.99,6.18,34.25,8.78c-9.99-8.18-19.46-17.75-28.37-28.68
		C817.95,1351.54,817.03,1350.38,816.12,1349.22"/>
	<path id="XMLID_9518_" class="st2" d="M759.23,1224.59c-19.38-4.12-37.52-8.75-54.13-13.88c1.94,6.54,4.03,12.99,6.27,19.34
		c4.35,12.3,9.21,24.09,14.59,35.34c15.43,4.76,32.28,9.07,50.28,12.89c-4.39-11-8.36-22.56-11.9-34.65
		C762.51,1237.39,760.81,1231.04,759.23,1224.59"/>
	<path id="XMLID_9486_" class="st2" d="M946.79,623.03c-4.36-0.93-8.43-1.97-12.17-3.12c-16.48,8.72-32.65,19.09-48.44,31.09
		c6.46,1.99,13.52,3.8,21.06,5.4C920.13,643.65,933.34,632.52,946.79,623.03"/>
	<path id="XMLID_9478_" class="st2" d="M816.99,1378.24c-9.2-3.2-17.44-6.68-24.54-10.42c3.49,2.03,7.01,3.98,10.58,5.87l5.55,2.88
		c11.17,5.53,11.38,5.64,17.7,8.51c11.43,5.01,11.88,5.21,18.71,7.92c4.89,1.87,11.44,4.31,16.37,6.08
		C845.89,1393.67,831.08,1386.72,816.99,1378.24"/>
	<path id="XMLID_9454_" class="st2" d="M685.25,952.3c-15.88-5.52-30.1-11.53-42.36-17.99c-5.87,21.76-10.15,43.75-12.82,65.84
		c12.69,6.7,27.42,12.92,43.86,18.63C676.3,996.55,680.07,974.35,685.25,952.3"/>
	<path id="XMLID_9450_" class="st2" d="M712.68,866.85c-14.51-5.04-27.5-10.53-38.69-16.44c-6.48,13.56-12.35,27.44-17.59,41.61
		c-2.7,7.28-5.21,14.6-7.54,21.94c12.05,6.36,26.04,12.27,41.65,17.69c2.06-7.46,4.27-14.9,6.65-22.32
		C701.79,894.91,706.97,880.73,712.68,866.85"/>
	<path id="XMLID_9434_" class="st2" d="M931.22,618.79c-3.51-1.22-6.65-2.55-9.36-3.98c-19.65,7.45-38.93,16.59-57.76,27.37
		c4.69,2.47,10.13,4.77,16.2,6.88C896.9,637.34,913.9,627.23,931.22,618.79"/>
	<path id="XMLID_9410_" class="st2" d="M616.73,1014.47c-11.29-6.93-19.95-14.01-26.11-21.15c-0.91,11.03-1.38,22.11-1.4,33.23
		c-0.02,11.1,0.41,22.1,1.27,33c6.15,7.14,14.82,14.22,26.11,21.15c-0.81-10.85-1.21-21.83-1.19-32.93
		C615.44,1036.65,615.88,1025.54,616.73,1014.47"/>
	<path id="XMLID_9402_" class="st2" d="M664.06,844.77c-9.9-6.08-17.51-12.29-22.9-18.56c-7.13,13.08-13.58,26.53-19.35,40.31
		c-2.97,7.08-5.73,14.21-8.29,21.39c5.81,6.75,14,13.43,24.66,19.98c2.4-7.3,4.99-14.58,7.77-21.81
		C651.34,872,657.39,858.22,664.06,844.77"/>
	<path id="XMLID_9378_" class="st2" d="M608.23,1155.67c-1.68-2.62-3.01-5.25-3.99-7.88l2.42,6.3c4.42,10.92,4.42,10.92,6.82,16.36
		c4.71,10.39,4.71,10.39,7.24,15.54c5.12,10.18,5.12,10.18,7.85,15.22c1.92,3.47,4.5,8.08,6.48,11.52c0.3,0.51,0.61,1.03,0.94,1.54
		c-7.15-12.27-13.63-24.97-19.41-38.08C613.58,1169.42,610.8,1162.58,608.23,1155.67"/>
	<path id="XMLID_9346_" class="st2" d="M912.84,607.53c-0.97-1.52-1.42-3.05-1.37-4.57c-22.23,4.5-44.04,10.75-65.34,18.72
		c-0.09,2.63,0.68,5.28,2.37,7.91C869.47,620.53,890.96,613.17,912.84,607.53"/>
	<path id="XMLID_9334_" class="st2" d="M631.91,795.57c1.12-2.92,2.48-6.9,4-9.63c-1.99,3.46-4.63,8.08-6.56,11.57
		c-5.37,10.05-5.37,10.05-7.92,15.21c-4.96,10.27-4.96,10.27-7.3,15.53c-4.69,10.83-4.69,10.83-6.88,16.35l-2.41,6.23
		c-0.52,1.36-0.94,2.73-1.27,4.1c2.63-6.95,5.46-13.85,8.51-20.68C617.98,820.94,624.6,808.05,631.91,795.57"/>
	<path id="XMLID_9326_" class="st2" d="M749.66,668.97c1.03-4.25,3.46-8.45,7.22-12.55c-16.08,10.67-31.33,22.61-45.68,35.77
		c-1.48,1.36-2.95,2.73-4.41,4.11c-4.53,4.94-7.46,10-8.7,15.12c1.5-1.45,3.01-2.9,4.54-4.33
		C717.41,693.18,733.11,680.46,749.66,668.97"/>
	<path id="XMLID_9314_" class="st2" d="M1000.9,594.26C1000.9,594.26,1000.9,594.26,1000.9,594.26
		c-22.42-1.62-44.57-1.45-66.35,0.48c-1.02,1.11-1.68,2.26-1.96,3.41C955.01,595.1,977.82,593.8,1000.9,594.26"/>
	<path id="XMLID_9310_" class="st2" d="M760.8,652.61c2.4-2.11,5.17-4.19,8.28-6.23c-3.7,2.48-8.63,5.82-12.29,8.37
		c-9.48,6.85-9.66,6.98-14.57,10.77c-9.12,7.2-9.3,7.34-13.99,11.29c-2.06,1.78-4.83,4.12-6.88,5.92
		C733.85,671.74,747.01,661.69,760.8,652.61"/>
	<path id="XMLID_9302_" class="st2" d="M915.63,595.73c1.63-1.43,3.72-2.82,6.26-4.15c-19.64,1.68-38.92,5.15-57.74,10.4
		c-4.39,2.3-8.01,4.7-10.83,7.18C873.63,602.92,894.43,598.44,915.63,595.73"/>
	<path id="XMLID_9298_" class="st2" d="M1000.9,594.26C1000.9,594.26,1000.9,594.26,1000.9,594.26
		c-20.44-3.04-40.63-4.28-60.49-3.73c-1.94,1.02-3.55,2.08-4.79,3.18C957.05,592.11,978.84,592.29,1000.9,594.26"/>
	<path id="XMLID_9294_" class="st2" d="M851.55,605.04c4.5-2.06,9.57-4.03,15.18-5.9l-6.98,2.39c-11.35,4.14-12.27,4.48-19.57,7.45
		c-4.82,2.04-11.22,4.8-16,6.94C833.08,611.84,842.21,608.21,851.55,605.04"/>
	<path id="XMLID_9278_" class="st2" d="M1000.9,594.26C1000.9,594.26,1000.9,594.26,1000.9,594.26
		c-13.01-5.33-25.87-8.84-38.52-10.51c-3.6,0.67-6.9,1.43-9.9,2.26C968.38,586.94,984.54,589.69,1000.9,594.26"/>
	<path id="XMLID_9274_" class="st2" d="M955.1,581.94c2.08-0.34,4.22-0.66,6.43-0.96c3.04-0.41,6.12-0.76,9.23-1.07
		c-4.01-0.65-7.98-0.78-11.9-0.38c-4.49,0.5-10.48,1.17-14.96,1.74c-3.69,0.54-8.61,1.24-12.29,1.84
		C939.32,581.83,947.16,581.44,955.1,581.94"/>
	<path id="XMLID_9254_" class="st2" d="M1000.91,594.26C1000.91,594.26,1000.91,594.26,1000.91,594.26
		c3.31-6.35,6.58-10.86,9.79-13.52c-4.12-0.17-8.3-0.24-12.5-0.21C999.09,583.26,999.99,587.84,1000.91,594.26"/>
	<path id="XMLID_9226_" class="st2" d="M1140,601.38c6.61,2.44,12.49,5.09,17.5,7.94c17.81,6.25,34.86,14.01,51.09,23.23
		c-3.38-1.87-7.87-4.36-11.28-6.18c-11.02-5.67-11.23-5.77-17.42-8.7c-11.27-5.15-11.71-5.35-18.36-8.11
		c-4.43-1.77-10.34-4.11-14.8-5.8C1144.5,602.94,1142.26,602.15,1140,601.38"/>
	<path id="XMLID_9222_" class="st2" d="M1072.19,588.48c3.39,1.25,6.4,2.61,8.97,4.07c19.94,1.92,39.5,5.62,58.59,11.11
		c-4.44-2.52-9.65-4.87-15.51-7.04C1107.28,592.1,1089.9,589.39,1072.19,588.48"/>
	<path id="XMLID_9218_" class="st2" d="M1000.91,594.26C1000.91,594.26,1000.91,594.26,1000.91,594.26
		c20.77-2.79,41.28-3.78,61.44-2.99c-1.97-1.12-4.27-2.16-6.86-3.12C1037.58,588.39,1019.36,590.42,1000.91,594.26"/>
</g>
<g id="lightblue">
	<path id="XMLID_10038_" class="st3" d="M1311.85,715.26c4.06,5.4,6.23,10.84,6.61,16.25c15.07,16.47,28.64,34,40.64,52.49
		c-0.36-5.3-2.26-10.62-5.75-15.92c-2.62-3.9-6.16-9.07-8.85-12.92c-1.82-2.5-4.24-5.85-6.1-8.34
		C1330.16,735.86,1321.31,725.33,1311.85,715.26"/>
	<path id="XMLID_10034_" class="st3" d="M1247.15,660.22c3.21,4.28,4.94,8.59,5.23,12.87c16.54,11.77,32.23,24.74,46.98,38.89
		c1.52,1.46,3.03,2.93,4.53,4.41c-0.36-5.16-2.43-10.35-6.3-15.51c-1.47-1.4-2.94-2.79-4.43-4.17
		C1278.7,683.31,1263.35,671.14,1247.15,660.22"/>
	<path id="XMLID_10026_" class="st3" d="M1088.43,598.43c1.14,1.52,1.75,3.05,1.86,4.57c22.21,4.52,44,10.77,65.27,18.75
		c-0.18-2.63-1.24-5.28-3.22-7.91C1131.51,606.95,1110.18,601.81,1088.43,598.43"/>
	<path id="XMLID_10014_" class="st3" d="M1388.02,1161.8c-2.58,6.87-5.36,13.66-8.34,20.39c-5.78,13.02-12.24,25.62-19.38,37.78
		c1.59-1.96,2.97-3.94,4.14-5.93c1.98-3.44,4.61-8.04,6.53-11.51c5.36-10.05,5.36-10.05,7.92-15.21c4.96-10.27,4.96-10.27,7.3-15.52
		c4.7-10.84,4.7-10.84,6.88-16.35l2.44-6.3C1393.89,1153.41,1391.39,1157.63,1388.02,1161.8"/>
	<path id="XMLID_10006_" class="st3" d="M1420.99,971.99c-0.99,7.13-4.33,14.2-9.91,21.1c0.88,11.03,1.3,22.11,1.28,33.23
		c-0.02,11.1-0.49,22.1-1.4,33c5.58-6.91,8.92-13.97,9.91-21.1c0.93-10.94,1.41-21.97,1.43-33.07
		C1422.33,994.03,1421.89,982.97,1420.99,971.99"/>
	<path id="XMLID_10002_" class="st3" d="M1404.54,887.32c-0.95,6.85-4.16,13.64-9.52,20.27c6.4,21.33,11.04,42.99,13.9,64.89
		c5.55-6.87,8.88-13.9,9.86-20.99C1415.84,929.75,1411.09,908.32,1404.54,887.32"/>
	<path id="XMLID_9986_" class="st3" d="M1175.23,632.51c-0.41,2.96-1.79,5.88-4.11,8.75c20.33,10.39,39.76,22.26,58.2,35.56
		c3.11-3.84,4.96-7.77,5.51-11.74C1215.95,652.73,1196.05,641.85,1175.23,632.51"/>
	<path id="XMLID_9962_" class="st3" d="M1382.46,1167.87c-6.59,6.42-15.27,12.67-25.93,18.66c-2.37,6.7-4.93,13.32-7.67,19.86
		c-5.31,12.66-11.26,24.85-17.81,36.55c9.9-5.56,17.96-11.37,24.08-17.34c7.03-12.04,13.41-24.54,19.1-37.47
		C1377.17,1181.45,1379.92,1174.7,1382.46,1167.87"/>
	<path id="XMLID_9958_" class="st3" d="M1402.87,1086.03c-6.94,6.76-16.07,13.34-27.3,19.65c-2.7,21.34-7.04,42.11-12.99,62.21
		c10.84-6.09,19.66-12.45,26.36-18.98C1395.32,1128.51,1399.97,1107.51,1402.87,1086.03"/>
	<path id="XMLID_9954_" class="st3" d="M1405.19,999.52c-6.98,6.8-16.16,13.42-27.44,19.76c0.8,11.09,1.2,22.2,1.17,33.32
		c-0.02,11.1-0.45,22.07-1.29,32.91c11.28-6.34,20.47-12.96,27.44-19.76c0.9-10.88,1.36-21.88,1.38-32.98
		C1406.48,1021.65,1406.05,1010.56,1405.19,999.52"/>
	<path id="XMLID_9942_" class="st3" d="M1306.35,757.36c-5.27,5.13-12.2,10.13-20.72,14.91c13.51,18.41,25.67,37.68,36.44,57.71
		c9.61-5.4,17.43-11.04,23.37-16.83C1333.9,793.69,1320.85,775.06,1306.35,757.36"/>
	<path id="XMLID_9938_" class="st3" d="M1242.79,693.55c-4.17,4.06-9.66,8.02-16.4,11.81c14.83,13.89,28.89,28.88,42.12,44.92
		c1.36,1.66,2.72,3.32,4.06,4.99c8.13-4.57,14.74-9.33,19.77-14.23c-1.44-1.6-2.89-3.19-4.36-4.78
		C1273.79,720.92,1258.71,706.66,1242.79,693.55"/>
	<path id="XMLID_9926_" class="st3" d="M1000.91,594.27C1000.91,594.27,1000.91,594.27,1000.91,594.27
		c20.74,2.88,41.23,7.49,61.37,13.8c1.83-1.03,3.33-2.11,4.46-3.21C1045.14,599.6,1023.16,596.06,1000.91,594.27"/>
	<path id="XMLID_9922_" class="st3" d="M1203.35,1370.18c-7,3.43-15.15,6.69-24.39,9.73c-14.51,8.72-29.8,15.78-45.79,21.12
		c0.16-0.05,0.32-0.11,0.49-0.16l6.9-2.37c11.35-4.14,12.27-4.48,19.57-7.45c11.09-4.68,11.75-4.96,18.37-8.04l7.48-3.58
		C1191.87,1376.55,1197.66,1373.46,1203.35,1370.18"/>
	<path id="XMLID_9914_" class="st3" d="M1311.77,1264.25c-10.72,5.25-23.2,10.24-37.34,14.9c-9.26,16.37-19.7,31.5-31.3,45.32
		c12.54-4.13,23.6-8.56,33.1-13.21C1289.4,1296.81,1301.26,1281.12,1311.77,1264.25"/>
	<path id="XMLID_9906_" class="st3" d="M1364.44,1111.52c-12.52,6.13-27.09,11.96-43.61,17.4c-2.32,21.18-6.03,41.68-11.11,61.41
		c15.95-5.26,30.03-10.89,42.12-16.81C1357.6,1153.52,1361.81,1132.82,1364.44,1111.52"/>
	<path id="XMLID_9902_" class="st3" d="M1366.55,1025.14c-12.59,6.16-27.24,12.02-43.85,17.5c0.68,11.14,1.02,22.27,0.99,33.39
		c-0.02,11.1-0.39,22.05-1.11,32.84c16.61-5.47,31.26-11.33,43.85-17.5c0.82-10.83,1.24-21.79,1.26-32.89
		C1367.71,1047.35,1367.33,1036.24,1366.55,1025.14"/>
	<path id="XMLID_9850_" class="st3" d="M1304.77,1133.9c-17.72,5.19-37.36,9.97-58.79,14.24c-1.78,21.04-4.64,41.32-8.55,60.75
		c20.7-4.13,39.66-8.74,56.78-13.75C1299.04,1175.49,1302.57,1155.05,1304.77,1133.9"/>
	<path id="XMLID_9822_" class="st3" d="M1065.94,620.5c-3.78,1.11-7.98,2.13-12.55,3.04c13.04,9.62,25.83,20.88,38.31,33.74
		c7.92-1.58,15.17-3.34,21.72-5.26C1097.95,639.88,1082.1,629.36,1065.94,620.5"/>
	<path id="XMLID_9798_" class="st3" d="M1213.86,1230.52c-12.4,2.17-25.37,4.17-38.88,5.99c-9.82,1.32-19.75,2.52-29.75,3.6
		c-0.97,6.35-2.02,12.59-3.15,18.71c-2.18,11.86-4.62,23.16-7.3,33.88c9.29-1,18.51-2.11,27.63-3.34
		c12.55-1.69,24.59-3.55,36.11-5.56c3.94-10.89,7.52-22.35,10.72-34.36C1210.9,1243.24,1212.44,1236.93,1213.86,1230.52"/>
	<path id="XMLID_9794_" class="st3" d="M1225.35,1152c-13.06,2.29-26.71,4.39-40.94,6.31c-10.34,1.39-20.79,2.65-31.32,3.79
		c-1.13,20.94-2.92,41.07-5.36,60.27c10.17-1.1,20.26-2.31,30.25-3.66c13.74-1.85,26.92-3.88,39.53-6.09
		C1221.09,1193.25,1223.71,1173.01,1225.35,1152"/>
	<path id="XMLID_9770_" class="st3" d="M1094.71,671.4c-5.44,0.95-11.13,1.83-17.06,2.63c-4.31,0.58-8.66,1.11-13.05,1.58
		c7.6,14.49,14.87,30.29,21.76,47.32c5.89-0.63,11.73-1.34,17.52-2.12c7.95-1.07,15.59-2.25,22.89-3.53
		C1116.61,700.71,1105.91,685.39,1094.71,671.4"/>
	<path id="XMLID_9746_" class="st3" d="M1110.6,1309.54c-21.65,1.93-43.62,3.24-65.63,3.98c-1.55,15.22-3.3,29.04-5.23,41.41
		c19.51-0.66,38.98-1.83,58.18-3.53C1102.6,1338.87,1106.84,1324.89,1110.6,1309.54"/>
	<path id="XMLID_9734_" class="st3" d="M1130.35,1078.31c-25.42,2.26-51.21,3.81-77.06,4.68c0.1,11.23,0.13,22.4,0.11,33.52
		c-0.02,11.1-0.1,22-0.23,32.7c25.85-0.87,51.64-2.42,77.06-4.68c0.3-10.71,0.47-21.62,0.49-32.72
		C1130.74,1100.7,1130.62,1089.53,1130.35,1078.31"/>
	<path id="XMLID_9722_" class="st3" d="M1098.89,816.84c-19.19,1.71-38.66,2.88-58.17,3.53c1.87,20.69,3.56,42.02,5.04,63.88
		c22.01-0.74,43.98-2.06,65.62-3.98C1107.7,858.54,1103.52,837.37,1098.89,816.84"/>
	<path id="XMLID_9718_" class="st3" d="M1078.54,740.64c-15.19,1.35-30.61,2.28-46.05,2.8c2.07,16.4,4.02,33.77,5.86,52.04
		c0.19,1.89,0.38,3.78,0.56,5.68c18.61-0.63,37.19-1.74,55.5-3.37c-0.46-1.88-0.93-3.76-1.39-5.62
		C1088.47,774.05,1083.64,756.86,1078.54,740.64"/>
	<path id="XMLID_9714_" class="st3" d="M1054.77,676.58c-10.53,0.94-21.22,1.58-31.94,1.94c2.61,14.84,5.11,30.97,7.47,48.31
		c14.38-0.48,28.72-1.34,42.86-2.6C1067.34,707.09,1061.2,691.18,1054.77,676.58"/>
	<path id="XMLID_9694_" class="st3" d="M1020.4,1366.54c-18.62,0.32-37.2,0.16-55.52-0.46c0.17,1.08,0.34,2.15,0.52,3.21
		c1.67,10.11,3.44,18.81,5.31,26.06c15.2,0.52,30.63,0.65,46.08,0.38c1.16-7.23,2.25-15.9,3.29-25.99
		C1020.19,1368.69,1020.3,1367.62,1020.4,1366.54"/>
	<path id="XMLID_9686_" class="st3" d="M1027.14,1247.31c-24.41,0.42-48.78,0.21-72.81-0.61c0.29,6.31,0.6,12.5,0.94,18.57
		c0.65,11.76,1.38,22.96,2.19,33.55c22.31,0.76,44.95,0.96,67.63,0.56c0.52-10.59,1-21.77,1.43-33.52
		C1026.74,1259.8,1026.95,1253.61,1027.14,1247.31"/>
	<path id="XMLID_9654_" class="st3" d="M1007.01,628.13c-5.49,0.09-10.97,0.05-16.37-0.14c-2.55,10.73-5.06,23.08-7.52,37
		c9.34,0.32,18.82,0.4,28.32,0.24C1010.01,651.28,1008.53,638.89,1007.01,628.13"/>
	<path id="XMLID_9646_" class="st3" d="M973,1419.98c-9.25-0.46-18.34-1.16-27.13-2.08c3.43,1.18,6.9,1.95,10.4,2.32l0.02,0
		c12.32,1.15,12.55,1.17,19.34,1.57l3.37,0.18C976.97,1421.87,974.97,1421.2,973,1419.98"/>
	<path id="XMLID_9618_" class="st3" d="M931.25,992.96c-24.18-1.21-47.91-3.03-70.89-5.42c-2.32,22.63-4.02,45.24-5.09,67.73
		c23.79,2.48,48.37,4.36,73.4,5.62C929.22,1038.36,930.08,1015.68,931.25,992.96"/>
	<path id="XMLID_9610_" class="st3" d="M946.33,819.6c-19-0.95-37.65-2.38-55.71-4.26c-5.26,20.45-10,41.57-14.2,63.23
		c20.37,2.12,41.41,3.73,62.85,4.81C941.36,861.55,943.71,840.26,946.33,819.6"/>
	<path id="XMLID_9590_" class="st3" d="M937.71,1416.98c-8.6-1.05-16.87-2.32-24.7-3.8c2.8,0.75,5.62,1.4,8.46,1.94
		c4.06,0.72,9.46,1.68,13.53,2.33c4.05,0.58,9.46,1.36,13.52,1.88C944.88,1418.89,941.28,1418.1,937.71,1416.98"/>
	<path id="XMLID_9566_" class="st3" d="M832.26,1073.81c-23.4-2.86-45.91-6.32-67.21-10.33c-0.53,11.18-0.81,22.34-0.83,33.46
		c-0.02,11.1,0.21,22.03,0.71,32.77c21.3,4.01,43.81,7.47,67.21,10.33c-0.34-10.72-0.51-21.63-0.49-32.73
		C831.67,1096.18,831.88,1085.01,832.26,1073.81"/>
	<path id="XMLID_9558_" class="st3" d="M853.16,896.84c-20.53-2.51-40.28-5.54-58.97-9.06c-4.1,14.3-7.82,28.85-11.14,43.61
		c-1.71,7.59-3.3,15.19-4.78,22.8c20.12,3.79,41.38,7.05,63.48,9.76c1.06-7.67,2.2-15.34,3.42-23.01
		C847.57,926.03,850.23,911.32,853.16,896.84"/>
	<path id="XMLID_9542_" class="st3" d="M965.22,626.05c-4.97-0.61-9.75-1.34-14.27-2.19c-12.42,9.7-24.61,21.04-36.51,33.98
		c7.83,1.47,16.1,2.74,24.7,3.8C947.64,648.17,956.35,636.29,965.22,626.05"/>
	<path id="XMLID_9522_" class="st3" d="M782.76,1293.56c-17.47-3.71-33.83-7.89-48.81-12.51c8.89,16.31,18.94,31.36,30.1,45.1
		c13.27,4.1,27.77,7.8,43.26,11.09C798.21,1324.03,790.01,1309.45,782.76,1293.56"/>
	<path id="XMLID_9514_" class="st3" d="M746.64,1145.75c-20.4-4.33-39.51-9.22-57-14.61c2.16,21.16,5.67,41.64,10.52,61.33
		c16.89,5.21,35.34,9.92,55.04,14.11C751.26,1187.12,748.4,1166.81,746.64,1145.75"/>
	<path id="XMLID_9498_" class="st3" d="M808.33,802.68c-15.49-3.29-29.98-6.99-43.26-11.09c-11.22,19.33-21.34,39.42-30.3,60.19
		c14.97,4.62,31.33,8.8,48.8,12.51C790.9,843.11,799.16,822.54,808.33,802.68"/>
	<path id="XMLID_9438_" class="st3" d="M864.87,660.54c-6.85-2.38-12.99-4.97-18.28-7.76c-18.45,11.76-36.09,24.96-52.83,39.51
		c7.1,3.74,15.33,7.22,24.53,10.42C833.06,687.31,848.61,673.23,864.87,660.54"/>
	<path id="XMLID_9426_" class="st3" d="M723.4,1316.74c-6.04-3.71-11.03-7.47-15.02-11.27l5.14,4.82
		c8.78,7.94,8.78,7.94,13.37,11.84c9.14,7.6,9.14,7.6,13.94,11.33c9.52,7.25,9.52,7.25,14.53,10.83c3.64,2.54,8.51,5.9,12.2,8.37
		c0.88,0.58,1.8,1.16,2.74,1.74c-15.05-9.95-29.31-21.2-42.73-33.71C726.17,1319.39,724.78,1318.07,723.4,1316.74"/>
	<path id="XMLID_9422_" class="st3" d="M673.13,1255.16c-9.61-5.9-16.99-11.93-22.23-18.02c6.3,9.37,14.13,21.04,28.64,37.98
		c2.7,3.07,6.3,7.15,9.04,10.17l3.46,3.72c4.5,4.79,10.52,9.53,18.1,14.18C696.42,1288.37,684.06,1272.33,673.13,1255.16"/>
	<path id="XMLID_9418_" class="st3" d="M637.64,1181.99c-10.66-6.55-18.85-13.23-24.66-19.98c2.54,6.86,5.29,13.66,8.24,20.39
		c5.71,13.02,12.11,25.62,19.18,37.77c5.4,6.27,13,12.48,22.91,18.56c-6.61-11.78-12.6-24.05-17.95-36.77
		C642.59,1195.38,640.02,1188.73,637.64,1181.99"/>
	<path id="XMLID_9386_" class="st3" d="M919.46,613.45c-2.4-1.47-4.24-2.98-5.54-4.49c-21.62,5.99-42.84,13.7-63.56,23.1
		c2.26,2.62,5.44,5.23,9.59,7.77C879.34,629.37,899.21,620.56,919.46,613.45"/>
	<path id="XMLID_9362_" class="st3" d="M636.74,820.32c-4.03-6.29-5.88-12.61-5.65-18.89c-7.33,12.59-13.96,25.6-19.89,38.98
		c-3.05,6.88-5.89,13.82-8.52,20.82c-0.24,6.75,1.75,13.56,6.09,20.34c2.59-7.13,5.39-14.22,8.39-21.25
		C622.99,846.63,629.53,833.29,636.74,820.32"/>
	<path id="XMLID_9358_" class="st3" d="M687.66,747.61c-3.47-5.41-5.06-10.85-4.87-16.25c-15.13,16.46-28.77,33.98-40.85,52.47
		c-0.22,6.09,1.58,12.23,5.49,18.33C659.33,783.06,672.76,764.85,687.66,747.61"/>
	<path id="XMLID_9318_" class="st3" d="M911.67,601.54c0.37-1.51,1.23-3,2.57-4.46c-21.54,3.04-42.68,7.86-63.33,14.42
		c-2.31,2.52-3.8,5.1-4.44,7.71C867.73,611.59,889.49,605.69,911.67,601.54"/>
	<path id="XMLID_9306_" class="st3" d="M834.44,615.53c3.18-2.79,7.27-5.5,12.22-8.1c-14.59,5.02-28.67,11.08-42.2,18.17l-0.05,0.03
		c-4.38,2.35-10.19,5.54-14.53,7.98c-3.84,2.44-8.85,5.88-12.43,8.69C795.51,631.78,814.54,622.84,834.44,615.53"/>
	<path id="XMLID_9230_" class="st3" d="M1000.91,594.26L1000.91,594.26c17.6-4.14,34.98-6.47,52.06-6.98
		c-2.77-0.91-5.82-1.73-9.09-2.47C1029.78,586.14,1015.44,589.29,1000.91,594.26"/>
</g>
<g id="yellow">
	<path id="XMLID_10066_" class="st4" d="M1243.69,656.22c15.97,10.66,31.11,22.58,45.36,35.73c1.47,1.36,2.93,2.72,4.37,4.1
		c-0.5-0.51-1.02-1.03-1.56-1.54l-5.08-4.77c-7.92-7.16-9.57-8.66-17.85-15.59c-9.26-7.49-9.26-7.49-14.13-11.17
		c-9.64-7.14-9.64-7.14-14.73-10.66l-7.42-5.01C1237.1,650.25,1240.77,653.22,1243.69,656.22"/>
	<path id="XMLID_10018_" class="st4" d="M1349.7,1236.95c-6.41,9.68-13.28,19.05-20.59,28.1l4.04-5.09
		c6.98-9.11,6.98-9.11,10.37-13.83c2.72-3.87,6.31-9.05,8.95-12.97C1351.64,1234.43,1350.71,1235.69,1349.7,1236.95"/>
	<path id="XMLID_9950_" class="st4" d="M1389.36,913.77c-6.7,6.53-15.52,12.89-26.36,18.98c5.87,21.74,10.13,43.7,12.76,65.79
		c11.22-6.31,20.36-12.89,27.3-19.65C1400.24,956.93,1395.67,935.2,1389.36,913.77"/>
	<path id="XMLID_9890_" class="st4" d="M1277.19,776.7c-9.5,4.65-20.56,9.08-33.1,13.21c11.54,19.25,21.92,39.27,31.11,59.97
		c14.14-4.66,26.62-9.65,37.34-14.9C1302.1,814.78,1290.29,795.32,1277.19,776.7"/>
	<path id="XMLID_9886_" class="st4" d="M1219.7,708.86c-7.52,3.68-16.28,7.19-26.2,10.46c12.67,14.81,24.68,30.67,35.97,47.53
		c1.17,1.74,2.32,3.49,3.47,5.24c11.96-3.94,22.51-8.16,31.58-12.6c-1.3-1.69-2.61-3.38-3.94-5.05
		C1247.74,738.2,1234.1,722.99,1219.7,708.86"/>
	<path id="XMLID_9838_" class="st4" d="M1269.3,873.88c-15.63,4.58-32.95,8.79-51.86,12.56c4.26,14.27,8.12,28.8,11.56,43.54
		c1.77,7.58,3.42,15.17,4.94,22.77c20.36-4.06,39-8.59,55.83-13.52c-1.89-7.51-3.94-15.01-6.14-22.48
		C1279.38,902.21,1274.59,887.91,1269.3,873.88"/>
	<path id="XMLID_9834_" class="st4" d="M1231.9,793.69c-13.45,3.94-28.35,7.56-44.62,10.8c8.84,19.94,16.79,40.59,23.83,61.84
		c18.35-3.66,35.17-7.75,50.34-12.19C1252.72,833.3,1242.86,813.12,1231.9,793.69"/>
	<path id="XMLID_9830_" class="st4" d="M1183.85,722.32c-10.65,3.12-22.45,5.99-35.33,8.55c9.71,15.57,18.91,32.16,27.56,49.69
		c0.89,1.81,1.78,3.63,2.66,5.45c15.52-3.09,29.74-6.55,42.57-10.31c-1.09-1.77-2.19-3.54-3.29-5.29
		C1207.29,753.37,1195.88,737.32,1183.85,722.32"/>
	<path id="XMLID_9782_" class="st4" d="M1199.24,889.84c-11.52,2.02-23.56,3.88-36.11,5.56c-9.12,1.23-18.34,2.34-27.63,3.34
		c2.64,14.52,5.04,29.26,7.17,44.2c1.1,7.68,2.12,15.37,3.06,23.05c10-1.08,19.93-2.27,29.75-3.6c13.51-1.82,26.47-3.82,38.88-5.99
		c-1.4-7.62-2.91-15.24-4.53-22.85C1206.68,918.77,1203.15,904.18,1199.24,889.84"/>
	<path id="XMLID_9690_" class="st4" d="M1024.32,1314.05c-22.01,0.38-43.99,0.19-65.65-0.55c1.34,15.22,2.87,29.05,4.57,41.41
		c19.2,0.65,38.68,0.82,58.19,0.49C1022.5,1343.05,1023.46,1329.24,1024.32,1314.05"/>
	<path id="XMLID_9674_" class="st4" d="M1028.08,994.54c-24.82,0.43-49.6,0.21-74.03-0.62c-0.79,22.74-1.38,45.42-1.76,67.96
		c25.3,0.86,50.96,1.08,76.66,0.64C1028.78,1039.98,1028.49,1017.29,1028.08,994.54"/>
	<path id="XMLID_9638_" class="st4" d="M947.79,1365.36c-18.13-0.91-35.93-2.27-53.16-4.07c0.52,1.11,1.05,2.2,1.58,3.28
		c5.09,10.34,10.49,19.29,16.2,26.81c14.3,1.49,29.07,2.62,44.12,3.38c-2.81-7.3-5.46-16.03-7.96-26.18
		C948.31,1367.52,948.05,1366.45,947.79,1365.36"/>
	<path id="XMLID_9506_" class="st4" d="M755.66,971.44c-19.7-4.19-38.15-8.9-55.04-14.11c-4.93,22.14-8.52,44.39-10.77,66.66
		c17.49,5.4,36.59,10.28,56.99,14.61C748.69,1016.23,751.63,993.81,755.66,971.44"/>
	<path id="XMLID_9490_" class="st4" d="M895.25,668.8c-8.5-1.81-16.46-3.84-23.75-6.09c-15.47,12.95-30.26,27.28-44.31,42.91
		c9.78,3.02,20.46,5.75,31.87,8.17C870.54,697.5,882.62,682.48,895.25,668.8"/>
	<path id="XMLID_9474_" class="st4" d="M763.32,1334.86c-11.91-4.14-22.57-8.64-31.76-13.49c1.34,1.31,2.68,2.6,4.04,3.88
		c13.02,12.29,26.87,23.3,41.47,32.99c7.63,4.02,16.48,7.76,26.36,11.2c-12.87-8.96-25.07-19.27-36.55-30.9
		C765.68,1337.33,764.49,1336.1,763.32,1334.86"/>
	<path id="XMLID_9470_" class="st4" d="M720.33,1276.59c-14.08-4.89-26.69-10.22-37.56-15.96c10.61,16.99,22.6,32.82,35.91,47.42
		c9.63,5.08,20.81,9.8,33.29,14.14C740.24,1308.27,729.68,1293.04,720.33,1276.59"/>
	<path id="XMLID_9462_" class="st4" d="M673.73,1125.93c-16.45-5.72-31.17-11.94-43.86-18.63c2.59,21.33,6.78,42.08,12.57,62.15
		c12.26,6.47,26.48,12.47,42.36,17.99C679.7,1167.66,676.01,1147.13,673.73,1125.93"/>
	<path id="XMLID_9442_" class="st4" d="M804.68,717.52c-9.88-3.43-18.73-7.17-26.36-11.2c-14.67,13.95-28.58,29.01-41.67,45.1
		c-1.35,1.66-2.69,3.33-4.02,5.01c9.19,4.85,19.85,9.35,31.76,13.49c1.17-1.74,2.35-3.48,3.54-5.21
		C779.49,747.97,791.75,732.22,804.68,717.52"/>
	<path id="XMLID_9406_" class="st4" d="M632.03,928.13c-10.84-6.66-19.17-13.46-25.07-20.32c-6.45,21.33-11.16,43-14.09,64.9
		c6.12,7.1,14.74,14.15,25.97,21.04C621.57,971.7,625.98,949.79,632.03,928.13"/>
	<path id="XMLID_9398_" class="st4" d="M711.17,768.65c-8.52-5.23-15.06-10.58-19.71-15.97c-14.72,17.48-27.99,35.91-39.73,55.2
		c5.24,6.08,12.62,12.11,22.23,18.01C684.96,806,697.39,786.88,711.17,768.65"/>
	<path id="XMLID_9354_" class="st4" d="M752.96,685.83c-2.74-4.29-4.01-8.59-3.85-12.87c-16.59,11.76-32.32,24.73-47.13,38.86
		c-1.53,1.46-3.04,2.93-4.55,4.4c-0.19,5.15,1.34,10.34,4.64,15.5c1.48-1.55,2.97-3.1,4.48-4.64
		C721.13,712.21,736.62,698.44,752.96,685.83"/>
	<path id="XMLID_9290_" class="st4" d="M924.4,590.36c2.81-1.29,6.06-2.51,9.71-3.64c-16.6,0.47-32.9,2.75-48.81,6.85
		c-6.33,1.96-11.94,4.08-16.81,6.31C886.71,594.9,905.38,591.73,924.4,590.36"/>
	<path id="XMLID_9286_" class="st4" d="M1000.9,594.26C1000.9,594.26,1000.9,594.26,1000.9,594.26c-17.28-4.3-34.35-6.79-51.14-7.46
		c-2.8,0.87-5.29,1.8-7.44,2.79C961.56,589.35,981.11,590.9,1000.9,594.26"/>
	<path id="XMLID_9242_" class="st4" d="M1038.89,580.93c4.91,0.65,9.61,1.42,14.06,2.31c10.33-0.32,20.51,0.54,30.5,2.56
		c-5.45-1.03-12.73-2.34-18.21-3.25l-9.59-1.38C1048.95,580.44,1045.5,580.39,1038.89,580.93"/>
</g>
<g id="blue">
	<path id="XMLID_9366_" class="st5" d="M602.12,901.36c-4.41-6.89-6.44-13.81-6.19-20.68c-6.63,20.89-11.47,42.24-14.48,63.94
		c-0.26,7.11,1.84,14.28,6.41,21.41C590.82,944.18,595.58,922.59,602.12,901.36"/>
	<path id="XMLID_10050_" class="st5" d="M1421.22,965.28c0.14,1.68,0.26,3.37,0.38,5.06l-0.37-4.95l-0.04-0.53
		C1421.2,965,1421.21,965.14,1421.22,965.28"/>
	<path id="XMLID_10042_" class="st5" d="M1369.9,801.62c7.28,12.6,13.86,25.6,19.74,38.99c3.02,6.88,5.84,13.82,8.45,20.82
		c-0.21-3.08-0.89-6.17-2.05-9.26l-2.39-6.23c-4.41-10.92-4.41-10.92-6.82-16.36c-4.71-10.39-4.71-10.39-7.24-15.54
		c-5.12-10.18-5.12-10.18-7.85-15.22c-1.93-3.49-4.53-8.13-6.51-11.58C1368.03,792.03,1369.57,796.83,1369.9,801.62"/>
	<path id="XMLID_10022_" class="st5" d="M1000.91,594.26L1000.91,594.26c23.13-0.09,45.98,1.59,68.44,5.02
		c-0.08-1.17-0.55-2.34-1.42-3.5C1045.93,593.5,1023.56,592.99,1000.91,594.26"/>
	<path id="XMLID_9998_" class="st5" d="M1369.69,807.5c-0.87,6.26-3.8,12.45-8.7,18.51c7.1,13.08,13.53,26.52,19.27,40.3
		c2.95,7.08,5.7,14.21,8.24,21.38c5.27-6.52,8.43-13.2,9.36-19.93c-2.61-7.04-5.42-14.03-8.44-20.96
		C1383.55,833.32,1376.97,820.21,1369.69,807.5"/>
	<path id="XMLID_9946_" class="st5" d="M1355.83,831.65c-6.12,5.97-14.18,11.77-24.08,17.34c6.52,13.53,12.43,27.39,17.7,41.53
		c2.71,7.27,5.23,14.58,7.57,21.91c10.66-5.99,19.33-12.24,25.92-18.66c-2.51-7.21-5.22-14.38-8.12-21.51
		C1369.17,858.39,1362.83,844.85,1355.83,831.65"/>
	<path id="XMLID_9934_" class="st5" d="M1168.68,643.92c-2.89,2.82-6.7,5.56-11.37,8.19c18.68,11.68,36.53,24.8,53.47,39.28
		c6.28-3.53,11.39-7.21,15.27-10.99C1207.87,666.8,1188.72,654.62,1168.68,643.92"/>
	<path id="XMLID_9918_" class="st5" d="M1263.51,1324.43c-9.07,4.44-19.62,8.66-31.58,12.6c-1.16,1.23-2.34,2.44-3.52,3.65
		c-11.34,11.53-23.38,21.73-36.07,30.57c9.93-3.27,18.69-6.77,26.21-10.46c14.42-9.53,28.09-20.38,40.97-32.52
		C1260.85,1327,1262.18,1325.72,1263.51,1324.43"/>
	<path id="XMLID_9910_" class="st5" d="M1345.96,1192.08c-11.89,5.82-25.73,11.36-41.42,16.53c-2.03,6.56-4.21,13.02-6.56,19.39
		c-4.54,12.33-9.62,24.15-15.23,35.45c14.57-4.8,27.43-9.94,38.47-15.35c6.36-11.6,12.13-23.7,17.29-36.27
		C1341.18,1205.32,1343.66,1198.74,1345.96,1192.08"/>
	<path id="XMLID_9870_" class="st5" d="M1090.33,1412.63c-2.22,0.58-4.46,1.1-6.7,1.56c3.56-0.76,8.31-1.75,11.86-2.57l8.61-2.09
		C1099.77,1410.63,1095.18,1411.66,1090.33,1412.63"/>
	<path id="XMLID_9826_" class="st5" d="M1127.8,663.87c-7.38,2.16-15.57,4.15-24.5,5.93c12.23,13.8,23.91,28.93,35,45.33
		c11.99-2.39,22.97-5.06,32.88-7.96C1157.44,691.41,1142.96,676.95,1127.8,663.87"/>
	<path id="XMLID_9814_" class="st5" d="M1082.71,1414.05c-4.83,0.84-9.87,1.62-15.13,2.33c-3.82,0.51-7.68,0.98-11.58,1.4
		c-3.44,1.12-6.92,1.88-10.43,2.28c3.28-0.39,7.67-0.89,10.95-1.33c5.25-0.77,12.24-1.85,17.48-2.72
		C1076.92,1415.47,1079.82,1414.82,1082.71,1414.05"/>
	<path id="XMLID_9802_" class="st5" d="M1192.67,1298.91c-11.18,1.96-22.87,3.76-35.05,5.4c-8.86,1.19-17.8,2.27-26.82,3.24
		c-4.43,15.42-9.44,29.47-14.98,42.09c7.99-0.86,15.93-1.82,23.78-2.87c10.8-1.45,21.16-3.05,31.07-4.79
		C1178.81,1329,1186.16,1314.62,1192.67,1298.91"/>
	<path id="XMLID_9730_" class="st5" d="M1125.37,989.45c-24.42,2.17-49.19,3.66-74.01,4.49c0.79,22.74,1.36,45.43,1.69,67.96
		c25.71-0.86,51.36-2.4,76.64-4.65C1128.82,1034.75,1127.37,1012.12,1125.37,989.45"/>
	<path id="XMLID_9682_" class="st5" d="M1028.74,1169.67c-25.71,0.44-51.37,0.22-76.66-0.64c0.3,20.89,0.81,40.94,1.53,60.04
		c24.43,0.83,49.21,1.05,74.04,0.62C1028.13,1210.6,1028.5,1190.56,1028.74,1169.67"/>
	<path id="XMLID_9678_" class="st5" d="M1029.06,1083.61c-25.85,0.45-51.64,0.22-77.07-0.64c-0.13,11.23-0.2,22.4-0.22,33.52
		c-0.02,11.1,0.01,22,0.1,32.7c25.43,0.86,51.23,1.09,77.08,0.64c0.08-10.7,0.13-21.6,0.16-32.7
		C1029.11,1106.01,1029.1,1094.83,1029.06,1083.61"/>
	<path id="XMLID_9666_" class="st5" d="M1022.42,820.84c-19.51,0.34-38.98,0.17-58.18-0.49c-1.76,20.69-3.35,42.02-4.77,63.87
		c21.66,0.74,43.63,0.93,65.64,0.55C1024.32,862.9,1023.43,841.55,1022.42,820.84"/>
	<path id="XMLID_9658_" class="st5" d="M1012.79,678.77c-10.71,0.18-21.4,0.09-31.94-0.27c-2.41,14.84-4.71,30.97-6.9,48.31
		c14.15,0.48,28.5,0.61,42.87,0.36C1015.55,709.8,1014.2,693.64,1012.79,678.77"/>
	<path id="XMLID_9642_" class="st5" d="M959.49,1401.79c-14.01-0.7-27.75-1.76-41.06-3.14c6.53,7.21,13.41,12.67,20.61,16.34
		c9.92,1.03,20.16,1.82,30.6,2.34C966.08,1413.94,962.7,1408.75,959.49,1401.79"/>
	<path id="XMLID_9634_" class="st5" d="M938.46,1312.65c-21.44-1.07-42.48-2.69-62.86-4.81c4.13,15.41,8.81,29.45,14.01,42.06
		c18.06,1.88,36.71,3.31,55.72,4.26C942.78,1341.75,940.48,1327.89,938.46,1312.65"/>
	<path id="XMLID_9594_" class="st5" d="M1000.9,594.27L1000.9,594.27c-8.01,6.01-15.92,13.72-23.71,23.07
		c3.89,0.41,7.91,0.71,12,0.92C993.04,608.6,996.95,600.59,1000.9,594.27"/>
	<path id="XMLID_9550_" class="st5" d="M900.38,737.95c-13.98-1.71-27.44-3.78-40.17-6.17c-9.27,15.63-18.07,32.27-26.36,49.86
		c-0.85,1.82-1.7,3.64-2.54,5.46c15.34,2.89,31.55,5.38,48.4,7.44c0.6-1.86,1.21-3.72,1.82-5.58
		C887.46,771.02,893.75,753.99,900.38,737.95"/>
	<path id="XMLID_9546_" class="st5" d="M931.23,674.71c-9.7-1.19-19.03-2.62-27.85-4.28c-11.66,13.87-22.81,29.08-33.4,45.55
		c11.85,2.23,24.37,4.15,37.38,5.74C914.93,704.79,922.9,689.09,931.23,674.71"/>
	<path id="XMLID_9530_" class="st5" d="M857.78,1389.33c-11.41-2.42-22.1-5.15-31.88-8.17c14,8.62,28.75,15.57,44.19,20.8
		c7.29,2.25,15.25,4.28,23.76,6.09C881.24,1403.54,869.2,1397.29,857.78,1389.33"/>
	<path id="XMLID_9502_" class="st5" d="M776.99,884.33c-18-3.82-34.85-8.13-50.27-12.89c-5.43,13.98-10.36,28.23-14.76,42.74
		c-2.26,7.46-4.37,14.93-6.33,22.43c16.61,5.12,34.75,9.76,54.13,13.88c1.6-7.58,3.32-15.16,5.17-22.72
		C768.53,913.05,772.55,898.56,776.99,884.33"/>
	<path id="XMLID_9494_" class="st5" d="M848.49,729.43c-12.26-2.6-23.74-5.54-34.25-8.78c-12.3,14.9-23.97,30.84-34.95,47.78
		c-1.13,1.75-2.26,3.5-3.37,5.26c12.66,3.91,26.49,7.44,41.27,10.58c0.91-1.81,1.83-3.62,2.75-5.42
		C828.92,761.4,838.45,744.91,848.49,729.43"/>
	<path id="XMLID_9458_" class="st5" d="M672.15,1039.63c-16.53-5.75-31.34-12-44.1-18.73c-0.83,11.09-1.26,22.2-1.28,33.32
		c-0.02,11.1,0.36,22.07,1.15,32.91c12.76,6.73,27.56,12.99,44.1,18.73c-0.69-10.79-1.03-21.75-1.01-32.85
		C671.03,1061.89,671.41,1050.76,672.15,1039.63"/>
	<path id="XMLID_9430_" class="st5" d="M1000.9,594.27C1000.9,594.27,1000.9,594.27,1000.9,594.27
		c-20.45,2.97-40.65,7.67-60.52,14.06c2.07,1.09,4.48,2.11,7.17,3.05C965.07,603.98,982.88,598.26,1000.9,594.27"/>
	<path id="XMLID_9390_" class="st5" d="M841.91,650.11c-4.68-2.87-8.27-5.81-10.82-8.77c-20.3,10.4-39.71,22.28-58.13,35.6
		c3.42,3.97,8.24,7.91,14.52,11.77C804.72,674.45,822.9,661.56,841.91,650.11"/>
	<path id="XMLID_9330_" class="st5" d="M683.5,726.31c1.3-5.37,4.37-10.67,9.12-15.85c-1.39,1.46-2.76,2.93-4.12,4.42
		c-3.14,3.49-7.3,8.18-10.37,11.73c-7.38,8.85-7.38,8.85-10.99,13.46c-6.98,9.11-6.98,9.11-10.37,13.83
		c-2.71,3.85-6.28,9.01-8.91,12.91c-2.48,3.73-4.19,7.51-5.12,11.32C654.8,759.84,668.4,742.54,683.5,726.31"/>
	<path id="XMLID_9270_" class="st5" d="M1000.9,594.26L1000.9,594.26L1000.9,594.26c-7.8-6.06-15.5-10.28-23.08-12.66
		c-2.38,0.23-4.74,0.51-7.06,0.82c-1.69,0.23-3.33,0.47-4.92,0.73C977.35,585.02,989.06,588.72,1000.9,594.26"/>
	<path id="XMLID_9246_" class="st5" d="M1000.91,594.26L1000.91,594.26c8.63-5.95,17.15-10.05,25.52-12.32
		c-3.85-0.44-7.83-0.77-11.9-1.01C1010.06,583.53,1005.51,587.98,1000.91,594.26"/>
	<path id="XMLID_9238_" class="st5" d="M1000.91,594.26C1000.91,594.26,1000.91,594.26,1000.91,594.26
		c13.47-5.2,26.77-8.57,39.85-10.11c-3.4-0.68-7-1.27-10.76-1.77C1020.45,584.5,1010.74,588.47,1000.91,594.26"/>
	<path id="XMLID_9234_" class="st5" d="M1057.03,584.11c4.27,0.96,8.25,2.04,11.87,3.23c16.89,0.62,33.46,3.06,49.64,7.3
		c-4.22-1.38-8.72-2.68-13.47-3.89c-3.53-0.86-8.22-2.03-11.76-2.84C1081.45,585.22,1069.35,583.95,1057.03,584.11"/>
	<g id="XMLID_846_">
		<path id="XMLID_848_" class="st5" d="M1000,593.73c-36.71,0-66.57-29.86-66.57-66.57c0-36.71,29.86-66.57,66.57-66.57
			c36.71,0,66.57,29.86,66.57,66.57C1066.57,563.86,1036.71,593.73,1000,593.73z M1000,484.09c-23.75,0-43.06,19.32-43.06,43.07
			c0,23.75,19.32,43.06,43.06,43.06s43.06-19.32,43.06-43.06C1043.06,503.41,1023.75,484.09,1000,484.09z"/>
		<path id="XMLID_847_" class="st5" d="M1000.9,507.42c-6.02,0-10.91-4.88-10.91-10.91V37.01c0-6.02,4.88-10.91,10.91-10.91
			c6.02,0,10.91,4.88,10.91,10.91v459.51C1011.81,502.54,1006.92,507.42,1000.9,507.42z"/>
	</g>
</g>
<g id="stars">
	<path id="XMLID_630_" class="st6" d="M1428.36,650.75c-1.47,32.65-2.66,33.84-35.31,35.31c32.65,1.47,33.84,2.66,35.31,35.31
		c1.47-32.65,2.66-33.84,35.31-35.31C1431.01,684.59,1429.82,683.4,1428.36,650.75z"/>
	<path id="XMLID_571_" class="st6" d="M1644.83,709.61c1.19-26.43,2.15-27.39,28.58-28.58c-26.43-1.19-27.39-2.15-28.58-28.58
		c-1.19,26.43-2.15,27.39-28.58,28.58C1642.68,682.22,1643.64,683.18,1644.83,709.61z"/>
	<path id="XMLID_572_" class="st6" d="M528.89,1067.84c4.06,0.18,4.2,0.33,4.39,4.39c0.18-4.06,0.33-4.2,4.39-4.39
		c-4.06-0.18-4.2-0.33-4.39-4.39C533.1,1067.51,532.95,1067.65,528.89,1067.84z"/>
	<path id="XMLID_573_" class="st6" d="M858.46,1541.21c-2.16,48-3.91,49.75-51.91,51.91c48,2.16,49.75,3.91,51.91,51.91
		c2.16-48,3.91-49.75,51.91-51.91C862.37,1590.97,860.62,1589.22,858.46,1541.21z"/>
	<path id="XMLID_574_" class="st6" d="M561.36,566.68c-3.12,69.49-5.66,72.03-75.15,75.15c69.49,3.12,72.03,5.66,75.15,75.15
		c3.12-69.49,5.66-72.03,75.15-75.15C567.02,638.7,564.48,636.17,561.36,566.68z"/>
	<path id="XMLID_577_" class="st6" d="M1526.54,1028.21c-2.66,59.2-4.82,61.36-64.02,64.02c59.2,2.66,61.36,4.82,64.02,64.02
		c2.66-59.2,4.82-61.36,64.02-64.02C1531.36,1089.57,1529.2,1087.41,1526.54,1028.21z"/>
	<path id="XMLID_579_" class="st6" d="M406.3,918.07c1.64-36.52,2.97-37.85,39.49-39.49c-36.52-1.64-37.85-2.97-39.49-39.49
		c-1.64,36.52-2.97,37.85-39.49,39.49C403.33,880.22,404.66,881.55,406.3,918.07z"/>
	<path id="XMLID_580_" class="st6" d="M411.06,984.27c-1.84,40.92-3.33,42.41-44.25,44.25c40.92,1.84,42.41,3.33,44.25,44.25
		c1.84-40.92,3.33-42.41,44.25-44.25C414.39,1026.68,412.9,1025.19,411.06,984.27z"/>
	<path id="XMLID_582_" class="st6" d="M551.13,816.58c0.74-16.51,1.34-17.11,17.86-17.86c-16.51-0.74-17.11-1.34-17.86-17.86
		c-0.74,16.51-1.34,17.11-17.86,17.86C549.79,799.47,550.39,800.07,551.13,816.58z"/>
	<path id="XMLID_583_" class="st6" d="M537.66,1226.28c-2.93,65.23-5.31,67.61-70.54,70.54c65.23,2.93,67.61,5.31,70.54,70.54
		c2.93-65.23,5.31-67.61,70.54-70.54C542.97,1293.89,540.6,1291.51,537.66,1226.28z"/>
	<path id="XMLID_584_" class="st6" d="M537.35,1186.35c0.57-12.75,1.04-13.21,13.79-13.79c-12.75-0.57-13.21-1.04-13.79-13.79
		c-0.57,12.75-1.04,13.21-13.79,13.79C536.31,1173.14,536.78,1173.6,537.35,1186.35z"/>
	<path id="XMLID_585_" class="st6" d="M1158.92,1451.8c-0.8,17.81-1.45,18.46-19.26,19.26c17.81,0.8,18.46,1.45,19.26,19.26
		c0.8-17.81,1.45-18.46,19.26-19.26C1160.37,1470.26,1159.72,1469.61,1158.92,1451.8z"/>
	<path id="XMLID_586_" class="st6" d="M1316.17,1340.1c-1.51,33.62-2.74,34.84-36.35,36.35c33.62,1.51,34.84,2.74,36.35,36.35
		c1.51-33.62,2.74-34.84,36.35-36.35C1318.91,1374.94,1317.69,1373.71,1316.17,1340.1z"/>
	<path id="XMLID_587_" class="st6" d="M1359.51,1271.95c-0.98,21.84-1.78,22.64-23.62,23.62c21.84,0.98,22.64,1.78,23.62,23.62
		c0.98-21.84,1.78-22.64,23.62-23.62C1361.29,1294.59,1360.49,1293.8,1359.51,1271.95z"/>
	<path id="XMLID_588_" class="st6" d="M1526.54,1228.08c-1.82,40.57-3.3,42.05-43.88,43.88c40.57,1.82,42.05,3.3,43.88,43.88
		c1.82-40.57,3.3-42.05,43.88-43.88C1529.84,1270.13,1528.37,1268.65,1526.54,1228.08z"/>
	<path id="XMLID_589_" class="st6" d="M1644.83,892.89c-2.44,54.21-4.41,56.19-58.62,58.62c54.21,2.44,56.19,4.41,58.62,58.62
		c2.44-54.21,4.41-56.19,58.62-58.62C1649.24,949.08,1647.27,947.1,1644.83,892.89z"/>
</g>
</svg>
