<?xml version="1.0" encoding="utf-8"?>
<!-- Generator: Adobe Illustrator 28.1.0, SVG Export Plug-In . SVG Version: 6.00 Build 0)  -->
<svg version="1.1" id="Layer_1" xmlns="http://www.w3.org/2000/svg" xmlns:xlink="http://www.w3.org/1999/xlink" x="0px" y="0px"
	 viewBox="0 0 542.8 389.3" style="enable-background:new 0 0 542.8 389.3;" xml:space="preserve">
<style type="text/css">
	.st0{fill:#FFFFFF;}
	.st1{fill:none;stroke:#FFFFFF;stroke-width:14;stroke-linecap:round;stroke-linejoin:round;stroke-miterlimit:3.86;}
	.st2{fill-rule:evenodd;clip-rule:evenodd;fill:#00529B;}
	.st3{fill:#00529B;}
	.st4{fill:#231F20;stroke:#00529B;stroke-width:2;stroke-miterlimit:3.86;}
	.st5{fill:#FFD520;stroke:#FFFFFF;stroke-width:0.5;stroke-miterlimit:3.86;}
</style>
<g>
	
		<image style="overflow:visible;opacity:0.3;" width="486" height="322" xlink:href="1521BD21AB485EE5.png"  transform="matrix(1 0 0 1 41 36.3)">
	</image>
	<g>
		<g>
			<g>
				<g>
					<path class="st0" d="M508.1,322.1h-6.6c-0.2-2.7-4.5-3.7-9.1-3.7s-10.6,0.9-10.6,3.8s3.7,2.9,7.6,3.7
						c8.4,1.5,19.7,1.5,19.7,7.6c0,5.5-9.2,7.5-18.4,7.5s-16.4-2.2-16.1-7.6h6.6v0c0.1,3.4,3.8,4.7,9.9,4.7c5.1,0,11.4-0.8,11.4-4.2
						c0-2.4-3.7-3.3-7.4-3.8c-7.5-0.9-19.9-1.8-19.9-7.2c0-5.5,9-7.2,17.5-7.2C500.5,315.6,508.1,317.4,508.1,322.1z"/>
					<polygon class="st0" points="503.6,192.4 503.6,220.2 502.9,220.5 502.9,192.6 485.2,180 485.2,179.2 					"/>
					<path class="st0" d="M503.6,117.7v23.4l-0.6-0.3V118l-15-27.9c0,0-18.9-7.6-22.9-9.2c-3.7-1.5-20.8-6.4-23.1-7l0.4-0.4
						c0,0,19.5,5.5,23.4,7.1c3.9,1.6,22.9,9.2,22.9,9.2L503.6,117.7z"/>
					<polygon class="st0" points="502.9,140.7 502.9,141.4 483.5,131.1 483.5,115.3 476.4,103.2 453,95.2 453.4,94.8 477,102.9 
						484.1,115 484.1,130.8 					"/>
					<path class="st0" d="M502.9,118v22.8l-18.8-9.9V115l-7.1-12.1l-23.7-8.1l-0.4,0.4l-0.3-0.1l-7.6,7.4v69.2l7.6,11.1l23.7,15
						l0.6-0.3l0.1,0l8.2-4.5V180l17.8,12.7v27.9l-14.6,5.8c0,0-8.9-6.8-23.7-16.4c-15.5-10.1-23.9-14.6-23.9-14.6l-14.5-21.6v-85h0
						l15.7-14.9c2.3,0.7,19.5,5.6,23.1,7c3.9,1.6,22.9,9.2,22.9,9.2L502.9,118z"/>
					<path class="st0" d="M502.9,220.5L502.9,220.5l-15.3,6.1c0,0-8.9-6.8-23.7-16.4c-15.5-10.1-23.9-14.6-23.9-14.6L425.6,174V89
						l0,0l16-15.3c0,0,0.1,0,0.3,0.1l-15.7,14.9h0v85l14.5,21.6c0,0,8.4,4.5,23.9,14.6c14.7,9.6,23.7,16.4,23.7,16.4L502.9,220.5z"
						/>
					<polygon class="st0" points="485.2,180 485.2,192.9 477,197.4 477,197.3 484.5,193.2 484.5,179.5 					"/>
					<polygon class="st0" points="477,197.3 476.4,197.6 452.7,182.7 445.1,171.6 445.1,102.4 452.7,95.1 453,95.2 445.7,102.2 
						445.7,171.3 453.4,182.4 					"/>
					<path class="st0" d="M441.5,315.6c13.4,0.3,19.7,5.7,19.7,12.7s-6.2,12.4-19.7,12.7l0-2.9c10.6-0.3,13.1-4.7,13.1-9.8
						c0-5-2.5-9.5-13.1-9.8L441.5,315.6z"/>
					<path class="st0" d="M441.5,315.6l0,2.9c-0.3,0-0.7,0-1,0c-11.5,0-14.2,4.6-14.2,9.8c0,5.1,2.7,9.8,14.2,9.8c0.4,0,0.7,0,1,0
						l0,2.9c-0.4,0-0.7,0-1.1,0c-14.2,0-20.8-5.6-20.8-12.7s6.6-12.7,20.8-12.7C440.8,315.6,441.1,315.6,441.5,315.6z"/>
					<path class="st0" d="M409,276.4c6.5,0,12,5,12,11.9s-5.5,11.9-12,11.9c-6.6,0-12.1-5-12.1-11.9S402.5,276.4,409,276.4z
						 M418.6,288.2c0-5.7-4.2-9.9-9.6-9.9s-9.8,4.2-9.8,9.9c0,5.7,4.4,10,9.8,10C414.4,298.2,418.6,293.9,418.6,288.2z"/>
					<path class="st0" d="M410.9,289.1l3.9,6h-2.3l-3.6-5.9h-2.4v0v6h-2.1v-13.8h5.2c3.2,0,4.9,1.2,4.9,3.9
						C414.5,287.8,412.9,288.9,410.9,289.1z M412.3,285.2c0-1.7-1.5-2-3-2h-2.8v4.3v0h2.5C410.7,287.4,412.3,287.3,412.3,285.2z"/>
					<path class="st0" d="M403.1,63.2l0,17.1l-0.6-0.1l0-16.8c-13.1-2.2-28.1-4.3-41.7-5.7v-0.3C370.7,58.4,393,61.5,403.1,63.2z"/>
					<path class="st0" d="M402.6,160V179c-0.2-0.1-0.4-0.2-0.6-0.3v-18.3l-7.9-2.9l-35.2-52l32.3-26.1l0.3,0l-32,25.8l35.2,52
						L402.6,160z"/>
					<path class="st0" d="M402.4,63.5l0,16.8L391.8,79l-0.4,0.3l-0.3,0l-32.3,26.1l35.2,52l7.9,2.9v18.3
						c-11.8-6.1-33.5-13.5-41.2-15.4v-15.8l10.4,3l-0.4-0.6l1,0.3l-23.7-36.3l-0.5,0.4l-0.1-0.2l-13.1,10.8v16.3l7.1,1.6v16.4
						c-12.5-2.9-17.8-3.7-31.7-5.6v-14.9l5.9,0.7v-0.4l0.6,0.1V69l-6.6-0.3V53c7.4,0.2,21.8,1.7,31.2,2.6v15.2l-5.9-0.7v0.4
						l-0.6-0.1v36.6l0.6-0.5v0.3l38.1-31.3l-12.4-1.6v-16C374.3,59.2,389.3,61.3,402.4,63.5z"/>
					<polygon class="st0" points="391.8,79 402.4,80.3 402.4,80.6 391.4,79.3 					"/>
					<path class="st0" d="M401.9,178.6v0.6c0,0-11.3-5.5-21.6-9.5c-6.3-2.4-20.2-6.3-20.2-6.3v-16.3l0.6,0.2v15.8
						C368.4,165.1,390.1,172.5,401.9,178.6z"/>
					<path class="st0" d="M386.3,315.6c13.4,0.3,19.6,5.7,19.6,12.7s-6.2,12.4-19.7,12.7l0-2.9c10.6-0.3,13.1-4.7,13.1-9.8
						c0-5-2.5-9.5-13.1-9.8L386.3,315.6z"/>
					<path class="st0" d="M391.1,222.9c-0.2,0.4-2.3,3.7-6.4,4.8l-10.3-2.4l-5.2-1.4c-2.8,0.3-22.4,7.8-22.4,12.1
						c0,1.7,6.8,4.9,6.8,7.6c0,2.9-5.7,8.6-7.5,12.1c-3.7-0.6-4.4-3.1-4.4-5.9c0-3.9,1.7-4,1.7-5.2c0-1-2.9-2-4.3-2.3
						c0,0-6.6,1.6-8.9,2.2c-0.7-1.6-2-5.1-3-6.8l-3.6-0.2c5.9,10.1,5.4,23.7,17.4,40.7c13.7,19.2,34.9,9.8,37.8,22.1l-30.4-1.1
						c-5.3-3.2-19.2-16.8-22-16.8H300c0,0-0.7,0-0.7-0.7c0-0.6,0.7-0.7,0.7-0.7H333c0.1,0,1.1-0.1,1.1-1.3c0-0.9-1.2-1.1-1.2-1.1
						h-10.5c0,0-18.4-9.7-23-9.7h-38.3c-0.9,0-2.5,0-2.5-1.6c0-1.8,1.3-1.9,2.4-1.9l52.2,0.1c1.1,0,2.5-0.3,2.6-2.5
						c0.1-2-1.9-2.1-2.9-2.1h-27.3c-1.9,0.6-9.3-3.9-11.9-6.9h26.8c0,0,1.4,0,1.4-1.1c0-1.3-1.3-1.3-1.4-1.3H177.1c0,0-0.9,0-0.9-1
						c0-0.9,0.8-0.9,0.8-0.9l91.4,0c0,0-6.6-7.4-7.9-7.4c-9.8-0.3-7.5-0.1-12.4-0.5c-7-0.6-17.8-2.9-17.8-2.9h-39.9
						c-0.9,0-2-0.2-2-1.7s1.1-1.8,1.9-1.8l107.9,0c0,0,1.9,0,1.9-2c0-2-1.7-2.1-1.9-2.1h-87.6l-12.5-6.2h-47.8
						c-0.4,0-1.6-0.3-1.7-1.6c0-1.5,1.3-1.5,1.7-1.5h42c-0.1-0.1-13.3-11.7-28.1-12.4c-5.2-0.2-6.6,0.6-9.5,0
						c-1.7-0.3-2.7-1.2-2.7-3.4c0-2.9,4.5-3.6,9.5-3.8c9-0.3,11.5-0.6,22.9,2.9c13.4,4.2,30.7,20.2,46.5,20.2h3.1
						c4,0,16.3-3.2,18.3-6.6h-14.6c0,0-0.8,0-0.8-0.9s0.8-0.9,0.8-0.9h88c0.2,0,1.2,0,1.2-1.4c0-1.3-1.2-1.4-1.2-1.4h-67.4l12-9.1
						h-56.9c0,0-1-0.1-1-1.1c0-0.9,0.8-0.9,0.8-0.9h92.1c0.1,0,1.5,0,1.7-1.4c0-1.4-1.5-1.4-1.7-1.4H278c2.4-0.4,10.4-4.5,18-4.8
						c2.9-0.1,3.1,0,4.7,0c18.5,0,36.1,14.5,45.4,14.5h5.8c0.7,0,11.2-3,11.2-5.2c0-1.2-2.6-1.7-2.6-8c0-1.1,0.4-3.7,0.8-5.1
						c0.2-0.9-0.2-3.4-0.2-3.4c0.6,0.2,1.1,0.4,2,0.8c4.4,3.8,13.3,12.3,18.7,21.5c0.6,1-0.3,0.2,0.6,2.6
						C383.3,215.7,391.1,220.5,391.1,222.9z"/>
					<path class="st0" d="M386.3,315.6l0,2.9c-0.3,0-0.7,0-1.1,0c-11.5,0-14.2,4.6-14.2,9.8c0,5.1,2.6,9.8,14.2,9.8
						c0.4,0,0.7,0,1.1,0l0,2.9c-0.4,0-0.7,0-1.1,0c-14.2,0-20.7-5.6-20.7-12.7s6.6-12.7,20.7-12.7
						C385.5,315.6,385.9,315.6,386.3,315.6z"/>
					<path class="st0" d="M373.1,75.3L335,106.6v-0.3l37.5-30.8L360.1,74V57.7c0.2,0,0.4,0,0.6,0.1v16L373.1,75.3z"/>
					<polygon class="st0" points="348.1,113.8 371.8,150.1 370.8,149.8 347.6,114.2 					"/>
					<polygon class="st0" points="370.8,149.8 371.1,150.3 360.7,147.3 360.7,146.9 					"/>
					<path class="st0" d="M350.7,340.5H344c-0.6-1.4-1.3-3-1.6-4.5c-0.5-2.2-0.5-4.2-2.6-5.4c-1.8-1.1-4.3-1-6.8-1.1h0h-8.8v11h-6.3
						v-24.3h16.2c7.6,0,15.5,1.3,15.5,6.1c0,2.9-3.2,5.2-8.6,5.9v0.1c5.5,0.7,6.2,2.2,6.9,5C348.6,335.6,349.1,338.2,350.7,340.5z
						 M343,322.8c0-1.9-1.6-3.6-8.6-3.8H324v7.6h10.4C341.4,326.4,343,324.7,343,322.8z"/>
					<path class="st0" d="M347.5,114l0.1,0.2L335,124.5v16.3l7.1,1.6v16.8c-0.2-0.1-0.4-0.1-0.6-0.2v-16.4l-7.1-1.6v-16.3L347.5,114
						z"/>
					<path class="st0" d="M341.5,55.3v15.5l-0.6-0.1V55.6c-9.4-0.9-23.8-2.4-31.2-2.6v-0.3C326.2,53.7,326.5,53.7,341.5,55.3z"/>
					<path class="st0" d="M341.4,159.1v0.4c0,0-10.2-2.4-16-3.2c-5.8-0.8-16.3-2.6-16.3-2.6v-15.3l0.6,0.1v14.9
						C323.6,155.4,328.9,156.2,341.4,159.1z"/>
					<polygon class="st0" points="340.9,70.8 340.9,71.1 335,70.4 335,70.1 					"/>
					<polygon class="st0" points="335,70.4 335,106.4 334.3,106.9 334.3,70.3 					"/>
					<path class="st0" d="M316.3,69v70l-0.6-0.1V69.3l-6.6-0.3V53c0.2,0,0.4,0,0.6,0v15.7L316.3,69z"/>
					<polygon class="st0" points="315.7,138.9 315.7,139.2 309.7,138.5 309.7,138.2 					"/>
					<path class="st0" d="M309.7,52.7L309.7,52.7C309.7,52.7,309.7,52.7,309.7,52.7L309.7,52.7z"/>
					<path class="st0" d="M287.2,316.1l18.4,24.3h-6.9l-4.9-6.3h-21.1l-4.9,6.3h-6.5l19.1-24.3H287.2z M291.7,331.3l-8.2-11.8h0
						l-8.7,11.8H291.7z"/>
					<path class="st0" d="M283.7,135.6v17.1c0,0-0.2,0-0.6,0v-16.8l-7.1,0.3V68.2l0.6-0.1v67.6L283.7,135.6z"/>
					<path class="st0" d="M283,152.6v0.3c0,0-12.6,0-16.6,0.3c-3.9,0.3-15.8,1.6-15.8,1.6v-17.6l0.7-0.1v17.4c0,0,11.8-1.3,15.8-1.6
						C270.5,152.7,280.4,152.6,283,152.6z"/>
					<path class="st0" d="M283,135.8v16.8c-2.6,0-12.5,0-15.9,0.3c-3.9,0.3-15.8,1.6-15.8,1.6v-17.4l5.7-0.7v-0.2l0.7-0.1V87.9
						l-0.7,1.1v-0.8l-30,51.9l-28.8-46.4v1.3l-0.7-1.1v52.6l6.8-1.3V162c-2.4,0.7-10.5,2.9-14.1,4c-4.2,1.3-18.4,6.3-18.4,6.3v-17.9
						l5.1-1.9v0l0.7-0.2V76.6l-6.3,1V61.3l25.1-3.6l29.8,49.9l0.4-0.7l0.3,0.4l30.5-54.7l24.8-0.5v15.3l-5.7,0.5v0.2l-0.6,0.1v67.9
						L283,135.8z"/>
					<polygon class="st0" points="282.9,51.9 282.9,67.4 282.2,67.5 282.2,52.2 257.5,52.7 257.6,52.4 					"/>
					<polygon class="st0" points="282.2,67.5 282.2,67.7 276.6,68.2 276.6,67.9 					"/>
					<polygon class="st0" points="257.6,87.9 257.6,136.1 257,136.2 257,89.1 					"/>
					<polygon class="st0" points="257.5,52.7 227,107.4 226.7,106.9 257,52.7 					"/>
					<polygon class="st0" points="257,136.2 257,136.4 251.3,137.1 251.3,136.9 					"/>
					<polygon class="st0" points="257,88.2 257,89.1 227.2,140.5 227,140.1 					"/>
					<path class="st0" d="M248.8,327.5v12.1c-5.2,0.8-10.4,1.4-15.6,1.4c-6.4,0-11.6-0.4-16.6-2.8c-5-2.4-6.8-6.5-6.8-9.9
						c0-2.5,1.6-5.3,3.9-7.5c3.9-3.7,10.6-5.2,18.4-5.2s16.2,1.9,16.6,6.6H242h0c-1.1-2.9-5.9-3.7-10.7-3.7
						c-11.1,0-15.2,5.2-14.9,9.8c0.5,6.3,4,9.7,17.1,9.8c3.1,0,6.2-0.3,9.1-0.8v-6.9h-10.3v-2.9H248.8z"/>
					<polygon class="st0" points="242,322.2 242,322.2 241.9,322.2 					"/>
					<polygon class="st0" points="198.2,93.7 227,140.1 226.6,140.8 198.2,95.1 					"/>
					<polygon class="st0" points="197.1,57.4 226.7,106.9 226.3,107.7 196.5,57.7 171.4,61.3 171.4,61.1 171.4,61.1 					"/>
					<path class="st0" d="M205,145v16.8c0,0-0.2,0.1-0.6,0.2v-16.7l-6.8,1.3V94l0.7,1.1v51.3L205,145z"/>
					<path class="st0" d="M204.4,162v0.1c0,0-10.5,2.9-14.7,4.2c-4.2,1.3-18.4,6.3-18.4,6.3v-17.9l0.6-0.2v17.9c0,0,14.2-5,18.4-6.3
						C193.9,164.9,202,162.7,204.4,162z"/>
					<polygon class="st0" points="193,316.1 193,340.5 185.2,340.5 162.2,319.8 162.1,319.8 162.1,340.5 156.5,340.5 156.5,316.1 
						165.1,316.1 187.2,336.2 187.4,336.2 187.4,316.1 					"/>
					<polygon class="st0" points="177.7,76.6 177.7,152.4 177,152.6 177,76.9 170.7,78 170.7,61.4 170.7,61.4 171.4,61.3 
						171.4,77.7 					"/>
					<polygon class="st0" points="177,152.6 177,152.7 171.9,154.5 171.9,154.5 					"/>
					<path class="st0" d="M148,66.1v17.6l-0.6,0.1V66.4c0,0-12.9,2.6-17.1,3.9c-3.6,1.1-12.4,3.4-14.9,4v-0.1c0,0,11.3-2.9,15.5-4.2
						C135.1,68.7,148,66.1,148,66.1z"/>
					<polygon class="st0" points="147.3,83.9 147.3,84 141.6,85.2 141.6,85 					"/>
					<path class="st0" d="M147.3,66.4v17.5l-5.7,1.2v0.1l-0.6,0.1v87.8l-15.5,22.4c0,0-15.8,10-21,13.7c-4.8,3.3-21,15.3-24,17.5
						L64.3,220V111.6l-0.6,0.3v0l-6.2,3.1V96.1v0c0.1,0,0.7-0.3,1.6-0.7c0.3-0.1,0.6-0.2,0.9-0.4c0.4-0.2,0.8-0.3,1.2-0.5
						c0.4-0.2,0.9-0.4,1.3-0.6c2.9-1.2,6.5-2.7,9.2-3.9c0.4-0.2,0.7-0.3,1-0.4c0.1,0,0.1-0.1,0.2-0.1c0.7-0.3,1.4-0.6,1.9-0.8
						c0.3-0.1,0.6-0.2,0.9-0.4c1-0.4,2.1-0.9,3.4-1.4c0.4-0.2,0.9-0.3,1.3-0.5h0c0.4-0.2,0.8-0.3,1.2-0.5c0.1,0,0.2-0.1,0.2-0.1
						c0.6-0.3,1.3-0.5,1.9-0.8c0,0,0,0,0,0c0.4-0.2,0.9-0.4,1.3-0.5c0.4-0.2,0.9-0.3,1.3-0.5c0.4-0.1,0.7-0.3,1-0.4c0,0,0.1,0,0.1,0
						c1.2-0.5,2-0.8,2.5-1c0.1-0.1,0.2-0.1,0.3-0.1v19.2l-5.9,2.4v0l-0.7,0.3v88.1l7.6,3.4l0.5-0.3l0.1,0.1l23.4-14.7l6.3-10v-81
						l-6.3,1.8V74.4c2.5-0.6,11.3-2.9,14.9-4C134.4,69,147.3,66.4,147.3,66.4z"/>
					<path class="st0" d="M125,316.1l18.4,24.3h-6.8l-4.9-6.3h-21.1l-4.9,6.3h0h-6.5l19.1-24.3H125z M129.6,331.3l-8.2-11.8h0
						l-8.7,11.8H129.6z"/>
					<path class="st0" d="M141.6,85.2v87.7l-15.5,22.4c0,0-15.8,10-21,13.7c-5.3,3.7-24.5,17.9-24.5,17.9l-0.2-0.1
						c3-2.2,19.2-14.2,24-17.5c5.3-3.7,21-13.7,21-13.7l15.5-22.4V85.3L141.6,85.2z"/>
					<path class="st0" d="M121.6,89.8v81l-6.3,10l-23.4,14.7l-0.1-0.1l22.9-14.4l6.3-10v-81l-6.3,1.8V74.5c0,0,0.2-0.1,0.7-0.2v17.2
						L121.6,89.8z"/>
					<polygon class="st0" points="92.2,340.5 83.4,340.5 62.4,327.6 62.4,326.7 81.3,316.1 90,316.1 69.6,327 					"/>
					<polygon class="st0" points="84.3,192.1 91.8,195.5 91.3,195.8 83.6,192.4 83.6,104.3 84.3,104 					"/>
					<path class="st0" d="M90.9,82.2v19.2l-0.7,0.3V82.4C90.6,82.3,90.9,82.2,90.9,82.2z"/>
					<polygon class="st0" points="90.2,101.6 90.2,101.6 84.3,104 84.3,104 					"/>
					<path class="st0" d="M87.5,83.5c1-0.4,1.9-0.8,2.5-1C89.5,82.7,88.6,83.1,87.5,83.5z"/>
					<path class="st0" d="M86.3,84c0.4-0.1,0.7-0.3,1-0.4C87,83.7,86.7,83.9,86.3,84z"/>
					<path class="st0" d="M83.8,85c0.4-0.2,0.9-0.4,1.3-0.5C84.6,84.7,84.2,84.9,83.8,85z"/>
					<path class="st0" d="M83.8,85c-0.6,0.2-1.2,0.5-1.9,0.8C82.5,85.5,83.1,85.3,83.8,85z"/>
					<path class="st0" d="M81.6,85.9c-0.4,0.2-0.8,0.3-1.2,0.5C80.8,86.2,81.2,86.1,81.6,85.9z"/>
					<path class="st0" d="M64.3,220l16.1,6.8c-0.3,0.2-0.5,0.4-0.5,0.4l-16.3-6.8V111.9l0.6-0.3V220z"/>
					<path class="st0" d="M80.4,86.4c-0.4,0.2-0.9,0.4-1.3,0.5C79.5,86.8,80,86.6,80.4,86.4z"/>
					<path class="st0" d="M75.7,88.4c-0.3,0.1-0.6,0.3-0.9,0.4c-0.5,0.2-1.2,0.5-1.9,0.8c0.5-0.2,0.9-0.4,1.2-0.6
						C74.6,88.8,75.1,88.6,75.7,88.4z"/>
					<path class="st0" d="M72.8,89.6c-0.3,0.1-0.7,0.3-1,0.4C72.1,89.9,72.4,89.8,72.8,89.6z"/>
					<polygon class="st0" points="63.7,111.9 63.7,111.9 57.5,115 57.5,115 					"/>
					<polygon class="st0" points="62.4,316.1 62.4,326.7 62.4,327.6 62.4,340.5 56.1,340.5 56.1,316.1 					"/>
					<path class="st0" d="M61.2,94.5c0.4-0.2,0.9-0.4,1.3-0.6C62,94.2,61.6,94.4,61.2,94.5z"/>
					<path class="st0" d="M60,95c-0.3,0.1-0.6,0.3-0.9,0.4C59.4,95.3,59.7,95.2,60,95z"/>
					<path class="st0" d="M57.5,96.1V115l-0.7,0.3V96.4C56.9,96.3,57.1,96.3,57.5,96.1C57.5,96.1,57.5,96.1,57.5,96.1z"/>
					<path class="st0" d="M57.5,96.1L57.5,96.1C57.5,96.1,57.5,96.1,57.5,96.1C57.5,96.1,57.5,96.1,57.5,96.1z"/>
				</g>
				<g>
					<path class="st1" d="M391.1,222.9c-0.2,0.4-2.3,3.7-6.4,4.8l-10.3-2.4l-5.2-1.4c-2.8,0.3-22.4,7.8-22.4,12.1
						c0,1.7,6.8,4.9,6.8,7.6c0,2.9-5.7,8.6-7.5,12.1c-3.7-0.6-4.4-3.1-4.4-5.9c0-3.9,1.7-4,1.7-5.2c0-1-2.9-2-4.3-2.3
						c0,0-6.6,1.6-8.9,2.2c-0.7-1.6-2-5.1-3-6.8l-3.6-0.2c5.9,10.1,5.4,23.7,17.4,40.7c13.7,19.2,34.9,9.8,37.8,22.1l-30.4-1.1
						c-5.3-3.2-19.2-16.8-22-16.8H300c0,0-0.7,0-0.7-0.7c0-0.6,0.7-0.7,0.7-0.7H333c0.1,0,1.1-0.1,1.1-1.3c0-0.9-1.2-1.1-1.2-1.1
						h-10.5c0,0-18.4-9.7-23-9.7h-38.3c-0.9,0-2.5,0-2.5-1.6c0-1.8,1.3-1.9,2.4-1.9l52.2,0.1c1.1,0,2.5-0.3,2.6-2.5
						c0.1-2-1.9-2.1-2.9-2.1h-27.3c-1.9,0.6-9.3-3.9-11.9-6.9h26.8c0,0,1.4,0,1.4-1.1c0-1.3-1.3-1.3-1.4-1.3H177.1c0,0-0.9,0-0.9-1
						c0-0.9,0.8-0.9,0.8-0.9l91.4,0c0,0-6.6-7.4-7.9-7.4c-9.8-0.3-7.5-0.1-12.4-0.5c-7-0.6-17.8-2.9-17.8-2.9h-39.9
						c-0.9,0-2-0.2-2-1.7s1.1-1.8,1.9-1.8l107.9,0c0,0,1.9,0,1.9-2c0-2-1.7-2.1-1.9-2.1h-87.6l-12.5-6.2h-47.8
						c-0.4,0-1.6-0.3-1.7-1.6c0-1.5,1.3-1.5,1.7-1.5h42c-0.1-0.1-13.3-11.7-28.1-12.4c-5.2-0.2-6.6,0.6-9.5,0
						c-1.7-0.3-2.7-1.2-2.7-3.4c0-2.9,4.5-3.6,9.5-3.8c9-0.3,11.5-0.6,22.9,2.9c13.4,4.2,30.7,20.2,46.5,20.2h3.1
						c4,0,16.3-3.2,18.3-6.6h-14.6c0,0-0.8,0-0.8-0.9s0.8-0.9,0.8-0.9h88c0.2,0,1.2,0,1.2-1.4c0-1.3-1.2-1.4-1.2-1.4h-67.4l12-9.1
						h-56.9c0,0-1-0.1-1-1.1c0-0.9,0.8-0.9,0.8-0.9h92.1c0.1,0,1.5,0,1.7-1.4c0-1.4-1.5-1.4-1.7-1.4H278c2.4-0.4,10.4-4.5,18-4.8
						c2.9-0.1,3.1,0,4.7,0c18.5,0,36.1,14.5,45.4,14.5h5.8c0.7,0,11.2-3,11.2-5.2c0-1.2-2.6-1.7-2.6-8c0-1.1,0.4-3.7,0.8-5.1
						c0.2-0.9-0.2-3.4-0.2-3.4c0.6,0.2,1.1,0.4,2,0.8c4.4,3.8,13.3,12.3,18.7,21.5c0.6,1-0.3,0.2,0.6,2.6
						C383.3,215.7,391.1,220.5,391.1,222.9z"/>
					<line class="st1" x1="391.2" y1="222.9" x2="391.1" y2="222.9"/>
					<polyline class="st1" points="56.1,340.5 56.1,340.5 56.1,316.1 62.4,316.1 62.4,326.7 81.3,316.1 90,316.1 69.6,327 
						92.2,340.5 83.4,340.5 62.4,327.6 62.4,340.5 56.1,340.5 					"/>
					<polygon class="st1" points="121.3,319.5 129.6,331.3 112.7,331.3 121.3,319.5 					"/>
					<polygon class="st1" points="105.6,340.5 110.5,334.2 131.6,334.2 136.5,340.5 143.3,340.5 125,316.1 118.3,316.1 99.2,340.5 
						105.6,340.5 					"/>
					<polygon class="st1" points="193,316.1 193,340.5 185.2,340.5 162.2,319.8 162.1,319.8 162.1,340.5 156.5,340.5 156.5,316.1 
						165.1,316.1 187.2,336.2 187.4,336.2 187.4,316.1 					"/>
					<path class="st1" d="M241.9,322.2L241.9,322.2L241.9,322.2L241.9,322.2c-1.1-2.9-5.9-3.7-10.7-3.7c-11.1,0-15.2,5.2-14.9,9.8
						c0.5,6.3,4,9.7,17.1,9.8c3.1,0,6.2-0.3,9.1-0.8v-6.9h-10.3v-2.9h16.6v12.1c-5.2,0.8-10.4,1.4-15.6,1.4
						c-6.4,0-11.6-0.4-16.6-2.8c-5-2.4-6.8-6.5-6.8-9.9c0-2.5,1.6-5.3,3.9-7.5c3.9-3.7,10.6-5.2,18.4-5.2s16.2,1.9,16.6,6.6H241.9"
						/>
					<polygon class="st1" points="283.5,319.5 291.7,331.3 274.8,331.3 283.5,319.5 					"/>
					<polygon class="st1" points="267.8,340.5 272.7,334.2 293.8,334.2 298.7,340.5 305.5,340.5 287.2,316.1 280.4,316.1 
						261.3,340.5 					"/>
					<path class="st1" d="M332.9,329.5c2.5,0.1,5,0,6.8,1.1c2.1,1.2,2.1,3.2,2.6,5.4c0.3,1.4,1.1,3,1.6,4.5h6.7
						c-1.6-2.3-2.1-4.9-2.8-7.3c-0.7-2.7-1.4-4.3-6.9-5v-0.1c5.3-0.7,8.6-2.9,8.6-5.9c0-4.8-7.8-6.1-15.5-6.1h-16.2v24.3h6.3v-11
						H332.9L332.9,329.5z"/>
					<path class="st1" d="M386.2,338.1c-0.3,0-0.7,0-1.1,0c-11.5,0-14.2-4.7-14.2-9.8c0-5.2,2.6-9.8,14.2-9.8c0.4,0,0.7,0,1.1,0
						c10.6,0.3,13.1,4.7,13.1,9.8C399.4,333.4,396.9,337.8,386.2,338.1z"/>
					<path class="st1" d="M386.3,315.6c-0.4,0-0.7,0-1.1,0c-14.2,0-20.7,5.6-20.7,12.7S371,341,385.2,341c0.4,0,0.7,0,1.1,0
						c13.4-0.3,19.7-5.7,19.7-12.7S399.7,315.9,386.3,315.6z"/>
					<path class="st1" d="M441.5,338.1c-0.3,0-0.7,0-1,0c-11.5,0-14.2-4.7-14.2-9.8c0-5.2,2.6-9.8,14.2-9.8c0.4,0,0.7,0,1,0
						c10.6,0.3,13.1,4.7,13.1,9.8C454.6,333.4,452.1,337.8,441.5,338.1z"/>
					<path class="st1" d="M441.5,315.6c-0.4,0-0.7,0-1.1,0c-14.2,0-20.8,5.6-20.8,12.7s6.6,12.7,20.8,12.7c0.4,0,0.7,0,1.1,0
						c13.4-0.3,19.7-5.7,19.7-12.7S454.9,315.9,441.5,315.6z"/>
					<path class="st1" d="M481.3,333.4c0.1,3.4,3.8,4.7,9.9,4.7c5.1,0,11.4-0.8,11.4-4.2c0-2.4-3.7-3.3-7.4-3.8
						c-7.5-0.9-19.9-1.8-19.9-7.2c0-5.5,9-7.2,17.5-7.2c7.8,0,15.3,1.9,15.3,6.6h-6.6c-0.2-2.7-4.5-3.7-9.1-3.7s-10.6,0.9-10.6,3.8
						s3.7,2.9,7.6,3.7c8.4,1.5,19.7,1.5,19.7,7.6c0,5.5-9.2,7.5-18.4,7.5s-16.4-2.2-16.1-7.6L481.3,333.4L481.3,333.4z"/>
					<polyline class="st1" points="56.8,96.4 56.8,96.4 56.8,115.3 57.5,115 					"/>
					<path class="st1" d="M57.5,96.1C57.5,96.1,57.5,96.1,57.5,96.1c-0.4,0.2-0.6,0.2-0.7,0.3"/>
					<path class="st1" d="M60,95c-0.3,0.1-0.6,0.3-0.9,0.4"/>
					<path class="st1" d="M62.5,94c-0.5,0.2-0.9,0.4-1.3,0.6"/>
					<path class="st1" d="M72.8,89.6c-0.3,0.1-0.7,0.3-1,0.4"/>
					<path class="st1" d="M75.7,88.4c-0.6,0.2-1.1,0.5-1.5,0.7c-0.4,0.2-0.8,0.3-1.2,0.6"/>
					<polyline class="st1" points="84.3,104 90.2,101.6 90.2,101.6 					"/>
					<path class="st1" d="M115.3,74.4c-0.4,0.1-0.7,0.2-0.7,0.2v17.4l6.3-1.8v81l-6.3,10l-22.9,14.4"/>
					<polyline class="st1" points="141.6,85.2 147.3,84 147.3,83.9 					"/>
					<path class="st1" d="M63.7,111.9v108.3l16.3,6.8c0,0,0.2-0.1,0.5-0.4"/>
					<polyline class="st1" points="257.5,52.7 257,52.7 226.7,106.9 					"/>
					<polyline class="st1" points="276.6,68.2 282.2,67.7 282.2,67.5 					"/>
					<path class="st1" d="M251.3,137.1l-0.7,0.1v17.6c0,0,11.8-1.3,15.8-1.6c4-0.3,16.6-0.3,16.6-0.3v-0.3"/>
					<line class="st1" x1="257" y1="89.1" x2="257" y2="136.2"/>
					<polyline class="st1" points="198.2,95.1 226.6,140.8 227,140.1 					"/>
					<path class="st1" d="M171.9,154.5l-0.6,0.2v17.9c0,0,14.2-5,18.4-6.3c4.2-1.3,14.7-4.2,14.7-4.2V162"/>
					<polyline class="st1" points="171.4,61.3 170.7,61.4 170.7,61.4 170.7,78 177,76.9 177,152.6 					"/>
					<polyline class="st1" points="453,95.2 476.4,103.2 483.5,115.3 483.5,131.1 502.9,141.4 502.9,140.7 					"/>
					<polyline class="st1" points="485.2,180 484.5,179.5 484.5,193.2 477,197.3 					"/>
					<path class="st1" d="M441.9,73.8c-0.2-0.1-0.3-0.1-0.3-0.1l-16,15.3l0,0v85l14.5,21.6c0,0,8.4,4.5,23.9,14.6
						c14.7,9.6,23.7,16.4,23.7,16.4l15.3-6.1v0"/>
					<path class="st1" d="M309.7,53c-0.2,0-0.4,0-0.6,0h0"/>
					<polyline class="st1" points="335,70.4 340.9,71.1 340.9,70.8 					"/>
					<path class="st1" d="M360.7,57.8c-0.2,0-0.4,0-0.6-0.1V74l12.4,1.6L335,106.4"/>
					<polyline class="st1" points="391.4,79.3 402.4,80.6 402.4,80.3 					"/>
					<path class="st1" d="M360.7,147.3l-0.6-0.2v16.3c0,0,14,3.9,20.2,6.3c10.3,4,21.6,9.5,21.6,9.5v-0.6"/>
					<line class="st1" x1="347.6" y1="114.2" x2="370.8" y2="149.8"/>
					<path class="st1" d="M309.7,138.5l-0.6-0.1v15.3c0,0,10.5,1.8,16.3,2.6c5.8,0.8,16,3.2,16,3.2v-0.4"/>
					<polyline class="st1" points="309.1,53 309.1,69 315.7,69.3 315.7,138.9 					"/>
					<line class="st1" x1="309.1" y1="53" x2="309.1" y2="53"/>
					<path class="st1" d="M309.7,52.7V53v15.7l6.6,0.3v70l-0.6-0.1l-5.9-0.7v0.3v14.9c13.9,2,19.2,2.8,31.7,5.6
						c0.2,0.1,0.4,0.1,0.6,0.2v-16.8l-7.1-1.6v-16.3l12.6-10.3l0.5-0.4l23.7,36.3l-1-0.3l-10-2.9v0.5v15.8c7.7,2,29.4,9.3,41.2,15.4
						c0.2,0.1,0.4,0.2,0.6,0.3V160l-7.9-2.9l-35.2-52l32-25.8l0.4-0.3l10.6,1.2l0.6,0.1l0-17.1c-10.1-1.7-32.4-4.8-42.3-5.8v0.3v16
						l12.4,1.6L335,106.6v-0.3V70.4v-0.4l5.9,0.7l0.6,0.1V55.3C326.5,53.7,326.2,53.7,309.7,52.7"/>
					<path class="st1" d="M309.7,52.7C309.7,52.7,309.7,52.7,309.7,52.7L309.7,52.7L309.7,52.7z"/>
					<path class="st1" d="M57.5,96.1C57.5,96.1,57.5,96.1,57.5,96.1"/>
					<path class="st1" d="M57.5,96.1V115v0l6.2-3.1l0.6-0.3V220l16.1,6.8l0.2,0.1c0,0,19.2-14.2,24.5-17.9c5.3-3.7,21-13.7,21-13.7
						l15.5-22.4V85.2V85l5.7-1.2l0.6-0.1V66.1c0,0-12.9,2.6-17.1,3.9c-4.2,1.3-15.5,4.2-15.5,4.2v0.1v17.2l6.3-1.8v81l-6.3,10
						l-23.4,14.7l-0.1-0.1l-7.5-3.4V104v0l5.9-2.4l0.7-0.3V82.2c0,0-0.2,0.1-0.7,0.3c-0.1,0-0.2,0.1-0.3,0.1c-0.6,0.2-1.4,0.6-2.5,1
						c0,0-0.1,0-0.1,0c-0.3,0.1-0.7,0.3-1,0.4c-0.4,0.2-0.8,0.3-1.3,0.5c-0.4,0.2-0.8,0.3-1.3,0.5c0,0,0,0,0,0
						c-0.6,0.2-1.2,0.5-1.9,0.8c-0.1,0-0.2,0.1-0.2,0.1c-0.4,0.2-0.8,0.3-1.2,0.5h0c-0.4,0.2-0.9,0.4-1.3,0.5
						c-1.3,0.5-2.5,1-3.4,1.4c-0.3,0.1-0.6,0.3-0.9,0.4c-0.5,0.2-1.2,0.5-1.9,0.8c0,0-0.1,0-0.2,0.1c-0.3,0.1-0.7,0.3-1,0.4
						c-2.8,1.2-6.3,2.7-9.2,3.9c-0.5,0.2-0.9,0.4-1.3,0.6c-0.4,0.2-0.8,0.3-1.2,0.5c-0.3,0.1-0.6,0.3-0.9,0.4
						C58.2,95.8,57.6,96.1,57.5,96.1"/>
					<line class="st1" x1="57.5" y1="96.1" x2="57.5" y2="96.1"/>
					<path class="st1" d="M226.7,106.9l-29.6-49.5l-25.8,3.7l0,0v0.2v16.4l6.3-1v75.8l-0.7,0.2l-5.1,1.9v0v17.9c0,0,14.2-5,18.4-6.3
						c3.6-1.1,11.7-3.4,14.1-4c0.4-0.1,0.6-0.2,0.6-0.2V145l-6.8,1.3V95.1v-1.3l28.8,46.4l0.2,0.4L257,89.1l0.7-1.1v48.1l-0.7,0.1
						l-5.7,0.7v0.2v17.4c0,0,11.8-1.3,15.8-1.6c3.4-0.2,13.3-0.3,15.9-0.3c0.4,0,0.6,0,0.6,0v-17.1l-7.1,0.3V68.2v-0.2l5.7-0.5
						l0.7,0V51.9l-25.2,0.5l-0.2,0.3L227,107.4L226.7,106.9z"/>
					<path class="st1" d="M441.9,73.8l-15.7,14.9h0v85l14.5,21.6c0,0,8.4,4.5,23.9,14.6c14.7,9.6,23.7,16.4,23.7,16.4l14.6-5.8
						l0.7-0.3v-27.9l-18.4-13.1v0.8v12.9l-8.2,4.5l-0.1,0l-23.6-14.9l-7.6-11.1v-69.2l7.2-7l0.4-0.4l23.7,8.1l7.1,12.1v15.8
						l18.8,9.9l0.6,0.3v-23.4l-15-27.9c0,0-18.9-7.6-22.9-9.2c-4-1.6-23.4-7.1-23.4-7.1L441.9,73.8z"/>
					<path class="st1" d="M406.5,289.2h2.4l3.6,5.9h2.3l-3.9-6c2-0.2,3.6-1.3,3.6-3.8c0-2.7-1.6-3.9-4.9-3.9h-5.2v13.8h2.1V289.2
						L406.5,289.2z"/>
				</g>
			</g>
		</g>
	</g>
</g>
<g>
	<path class="st2" d="M391.2,222.9c0,0-2,3.7-6.4,4.8l-10.3-2.4l-5.2-1.4c-2.8,0.3-22.4,7.8-22.4,12.1c0,1.7,6.8,4.9,6.8,7.6
		c0,2.9-5.7,8.6-7.5,12.1c-3.7-0.6-4.4-3.1-4.4-5.9c0-3.9,1.7-4,1.7-5.2c0-1-2.9-2-4.3-2.3c0,0-6.6,1.6-8.9,2.2
		c-0.7-1.6-2-5.1-3-6.8l-3.6-0.2c5.9,10.1,5.4,23.7,17.4,40.7c13.7,19.2,34.9,9.8,37.8,22.1l-30.4-1.1c-5.3-3.2-19.2-16.8-22-16.8
		H300c0,0-0.7,0-0.7-0.7c0-0.6,0.7-0.7,0.7-0.7H333c0.1,0,1.1-0.1,1.1-1.3c0-1-1.2-1.1-1.2-1.1h-10.5c0,0-18.4-9.7-23-9.7h-38.3
		c-1,0-2.5,0-2.5-1.6c0-1.8,1.3-1.9,2.5-1.9l52.2,0.1c1.1,0,2.5-0.3,2.6-2.5c0.1-2-1.9-2.1-2.9-2.1h-27.3c-1.9,0.6-9.3-3.9-11.9-6.9
		h26.8c0,0,1.4,0,1.4-1.1c0-1.3-1.4-1.3-1.4-1.3H177.1c0,0-0.9,0-0.9-1c0-0.9,0.8-0.9,0.8-0.9l91.4,0c0,0-6.6-7.4-7.9-7.4
		c-9.8-0.3-7.6-0.1-12.4-0.5c-7-0.6-17.8-2.9-17.8-2.9h-39.9c-0.9,0-2-0.2-2-1.7s1.1-1.8,1.9-1.8l107.9-0.1c0,0,1.9,0,1.9-2
		s-1.7-2.1-1.9-2.1h-87.6l-12.5-6.2h-47.8c-0.4,0-1.6-0.3-1.7-1.6c0-1.5,1.3-1.6,1.7-1.6h42c-0.1-0.1-13.3-11.7-28.1-12.4
		c-5.2-0.2-6.6,0.6-9.5,0c-1.7-0.3-2.7-1.2-2.7-3.4c0-2.9,4.5-3.6,9.5-3.8c9-0.3,11.5-0.6,22.9,2.9c13.4,4.2,30.7,20.2,46.5,20.2
		h3.1c4,0,16.3-3.2,18.3-6.6h-14.6c0,0-0.8,0-0.8-0.9s0.8-0.9,0.8-0.9h88c0.2,0,1.2,0,1.2-1.4c0-1.3-1.2-1.4-1.2-1.4h-67.4l12-9.1
		h-56.9c0,0-1-0.1-1-1.1c0-0.9,0.8-0.9,0.8-0.9h92.1c0.1,0,1.5,0,1.7-1.4c0-1.4-1.5-1.4-1.7-1.4H278c2.4-0.4,10.4-4.5,18-4.8
		c2.9-0.1,3.1,0,4.7,0c18.5,0,36.1,14.5,45.4,14.5h5.8c0.7,0,11.2-3,11.2-5.2c0-1.2-2.6-1.7-2.6-8c0-1.1,0.4-3.7,0.8-5.1
		c0.2-0.9-0.2-3.4-0.2-3.4c0.6,0.2,1.1,0.4,2,0.8c4.4,3.8,13.3,12.3,18.7,21.5c0.6,1-0.3,0.2,0.6,2.6
		C383.3,215.7,391.1,220.5,391.2,222.9L391.2,222.9L391.2,222.9z"/>
	<path class="st3" d="M56.1,340.5v-24.3h6.3v10.5l18.9-10.5H90L69.6,327l22.6,13.5h-8.9l-21-12.9v12.9L56.1,340.5L56.1,340.5z"/>
	<path class="st3" d="M121.3,319.5l8.2,11.8h-16.9L121.3,319.5L121.3,319.5z M105.6,340.5l4.9-6.3h21.1l4.9,6.3h6.9L125,316.1h-6.7
		l-19.1,24.3H105.6L105.6,340.5z"/>
	<path class="st3" d="M193,316.1v24.3h-7.8l-22.9-20.7h-0.1v20.7h-5.6v-24.3h8.6l22.1,20.1h0.1v-20.1H193z"/>
	<path class="st3" d="M242,322.2c-1.1-2.9-5.9-3.7-10.7-3.7c-11.1,0-15.2,5.2-14.9,9.8c0.5,6.3,4,9.7,17.1,9.8
		c3.1,0,6.2-0.3,9.1-0.8v-6.9h-10.3v-2.9h16.6v12.1c-5.2,0.8-10.4,1.4-15.6,1.4c-6.4,0-11.6-0.4-16.6-2.8c-5-2.4-6.8-6.5-6.8-9.9
		c0-2.5,1.6-5.3,3.9-7.5c3.9-3.7,10.6-5.2,18.4-5.2s16.2,1.9,16.6,6.6L242,322.2L242,322.2z"/>
	<path class="st3" d="M283.5,319.5l8.2,11.8h-16.9L283.5,319.5L283.5,319.5z M267.8,340.5l4.9-6.3h21.1l4.9,6.3h6.9l-18.4-24.3h-6.7
		l-19.1,24.3H267.8z"/>
	<path class="st3" d="M324,319h10.4c7,0.2,8.6,1.9,8.6,3.8s-1.6,3.6-8.6,3.8H324V319z M332.9,329.5c2.5,0.1,5,0,6.8,1.1
		c2.1,1.2,2.1,3.2,2.6,5.4c0.3,1.5,1.1,3,1.6,4.5h6.7c-1.6-2.3-2.1-4.9-2.8-7.3c-0.7-2.7-1.4-4.3-6.9-5v-0.1
		c5.3-0.7,8.5-2.9,8.5-5.9c0-4.8-7.8-6.1-15.5-6.1h-16.2v24.3h6.3v-11L332.9,329.5L332.9,329.5z"/>
	<path class="st3" d="M371,328.3c0-5.2,2.6-9.8,14.2-9.8s14.2,4.6,14.2,9.8s-2.6,9.8-14.2,9.8S371,333.4,371,328.3z M364.4,328.3
		c0,7.1,6.6,12.7,20.7,12.7s20.8-5.6,20.8-12.7s-6.6-12.7-20.8-12.7S364.4,321.2,364.4,328.3z"/>
	<path class="st3" d="M426.2,328.3c0-5.2,2.6-9.8,14.2-9.8s14.2,4.6,14.2,9.8s-2.6,9.8-14.2,9.8S426.2,333.4,426.2,328.3z
		 M419.7,328.3c0,7.1,6.6,12.7,20.8,12.7s20.8-5.6,20.8-12.7s-6.6-12.7-20.8-12.7S419.7,321.2,419.7,328.3z"/>
	<path class="st3" d="M481.3,333.4c0.1,3.4,3.8,4.7,9.9,4.7c5.1,0,11.4-0.8,11.4-4.2c0-2.4-3.6-3.3-7.4-3.8
		c-7.5-0.9-19.9-1.8-19.9-7.2s9-7.2,17.5-7.2c7.8,0,15.3,1.9,15.3,6.6h-6.6c-0.2-2.7-4.5-3.7-9.1-3.7s-10.6,0.9-10.6,3.8
		s3.7,2.9,7.6,3.7c8.4,1.5,19.7,1.5,19.7,7.6c0,5.5-9.2,7.5-18.4,7.5s-16.4-2.2-16.1-7.6L481.3,333.4L481.3,333.4z"/>
	<path class="st4" d="M56.8,96.4v18.9l6.8-3.4v108.4l16.3,6.8c0,0,19.2-14.2,24.5-17.9c5.3-3.7,21-13.7,21-13.7l15.5-22.4V85.3
		l6.3-1.3V66.4c0,0-12.9,2.6-17.1,3.9c-4.2,1.3-15.5,4.2-15.5,4.2v17.4l6.3-1.8v81l-6.3,10l-23.4,14.7l-7.6-3.4v-88.1l6.6-2.6V82.4
		c0,0-11.8,4.7-16,6.6C70,90.9,56.8,96.4,56.8,96.4L56.8,96.4z"/>
	<path class="st4" d="M170.7,61.4V78l6.3-1.1v75.8l-5.8,2.1v17.9c0,0,14.2-5,18.4-6.3c4.2-1.3,14.7-4.2,14.7-4.2v-16.8l-6.8,1.3V94
		l29,46.8L257,88.2v48.1l-6.3,0.8v17.6c0,0,11.8-1.3,15.8-1.6c4-0.3,16.6-0.3,16.6-0.3v-17.1l-7.1,0.3V68.2l6.3-0.5V52.2L257,52.7
		l-30.7,54.9l-29.8-50L170.7,61.4L170.7,61.4z"/>
	<path class="st4" d="M425.6,89v85l14.5,21.6c0,0,8.4,4.5,23.9,14.6c14.7,9.6,23.7,16.4,23.7,16.4l15.3-6.1v-27.9l-18.4-13.1v13.7
		l-8.1,4.5l-23.7-15l-7.6-11.1v-69.2l7.6-7.4l23.7,8.2l7.1,12.1v15.8l19.5,10.3V118l-15-27.9c0,0-18.9-7.6-22.9-9.2
		c-4-1.6-23.4-7.1-23.4-7.1L425.6,89L425.6,89z"/>
	<path class="st4" d="M309.1,53v16l6.6,0.3v70l-6.6-0.8v15.3c0,0,10.5,1.8,16.3,2.6c5.8,0.8,16,3.2,16,3.2v-16.8l-7.1-1.6v-16.3
		l13.1-10.8l23.7,36.3l-11-3.2v16.3c0,0,14,3.9,20.2,6.3c10.3,4,21.6,9.5,21.6,9.5v-18.9l-7.9-2.9l-35.2-52l32.3-26.1l11.3,1.3
		l0-17.1c-13.4-2.2-28.6-4.3-42.4-5.8V74l12.4,1.6l-38.1,31.3V70.4l6.6,0.8V55.6C331.2,54.7,316.2,53.1,309.1,53L309.1,53z"/>
	<path class="st5" d="M309.7,52.7v16.1l6.6,0.3v70l-6.6-0.8v15.3c14.1,2,19.4,2.8,32.4,5.8v-16.8l-7.1-1.6v-16.3l13.1-10.8
		l23.7,36.3l-11-3.2v16.3c7.8,2,30.2,9.6,41.8,15.8V160l-7.9-2.9l-35.2-52L391.8,79l11.3,1.3l0-17.1c-10.1-1.7-32.4-4.8-42.4-5.8
		v16.3l12.4,1.6L335,106.6V70.1l6.6,0.8V55.4C326.5,53.7,326.2,53.7,309.7,52.7L309.7,52.7z"/>
	<path class="st5" d="M57.5,96.1V115l6.8-3.4V220l16.3,6.8c0,0,19.2-14.2,24.5-17.9c5.3-3.7,21-13.7,21-13.7l15.5-22.4V85l6.3-1.3
		V66.1c0,0-12.9,2.6-17.1,3.9c-4.2,1.3-15.5,4.2-15.5,4.2v17.4l6.3-1.8v81l-6.3,10l-23.4,14.7l-7.6-3.4V104l6.6-2.6V82.2
		c0,0-11.8,4.7-16,6.6C70.6,90.6,57.5,96.1,57.5,96.1L57.5,96.1z"/>
	<path class="st5" d="M171.4,61.1v16.6l6.3-1.1v75.8l-5.8,2.1v17.9c0,0,14.2-5,18.4-6.3c4.2-1.3,14.7-4.2,14.7-4.2V145l-6.8,1.3
		V93.7l29,46.8l30.4-52.6v48.1l-6.3,0.8v17.6c0,0,11.8-1.3,15.8-1.6s16.6-0.3,16.6-0.3v-17.1l-7.1,0.3V67.9l6.3-0.5V51.9l-25.2,0.5
		L227,107.4l-29.8-50L171.4,61.1L171.4,61.1z"/>
	<path class="st5" d="M426.3,88.7v85l14.5,21.6c0,0,8.4,4.5,23.9,14.6c14.7,9.6,23.7,16.4,23.7,16.4l15.3-6.1v-27.9l-18.4-13.1v13.7
		l-8.2,4.5l-23.7-15l-7.6-11.1v-69.2l7.6-7.4l23.7,8.2l7.1,12.1v15.8l19.5,10.3v-23.4l-15-27.9c0,0-18.9-7.6-22.9-9.2
		c-4-1.6-23.4-7.1-23.4-7.1L426.3,88.7L426.3,88.7z"/>
	<path class="st3" d="M399.2,288.2c0-5.7,4.3-9.9,9.8-9.9s9.6,4.2,9.6,9.9s-4.2,10-9.6,10S399.2,294,399.2,288.2z M409,300.2
		c6.5,0,12-5,12-11.9s-5.5-11.9-12-11.9s-12.1,5-12.1,11.9S402.4,300.2,409,300.2z M406.5,289.2h2.4l3.6,6h2.3l-3.9-6
		c2-0.2,3.6-1.3,3.6-3.8c0-2.7-1.6-3.9-4.9-3.9h-5.2v13.8h2.1V289.2L406.5,289.2z M406.5,287.4v-4.3h2.8c1.5,0,3,0.3,3,2
		c0,2.1-1.6,2.2-3.4,2.2L406.5,287.4L406.5,287.4z"/>
</g>
</svg>
