<?xml version="1.0" encoding="UTF-8"?>
<svg id="Layer_1" data-name="Layer 1" xmlns="http://www.w3.org/2000/svg" viewBox="0 0 96 96">
  <path d="M82.22,25.34H15.37c-.66,0-1.2.54-1.2,1.2v43.98c0,.66.54,1.2,1.2,1.2h66.84c.66,0,1.2-.54,1.2-1.2V26.54c0-.66-.54-1.2-1.2-1.2ZM31.32,38.04l-4.16-10.29h43.23l-3.39,10.29H31.32ZM81.01,69.32H16.58V27.74h7.98l4.16,10.29h-9.07c-.66,0-1.2.54-1.2,1.2v26.07c0,.66.54,1.2,1.2,1.2h57.62c.66,0,1.2-.54,1.2-1.2v-26.07c0-.66-.54-1.2-1.2-1.2h-7.74l3.39-10.29h8.09v41.58Z" fill="#06c" stroke-width="0"/>
  <circle cx="34.42" cy="50.72" r="5.04" fill="#ffd52e" stroke-width="0"/>
  <circle cx="63.57" cy="50.72" r="5.04" fill="#ffd52e" stroke-width="0"/>
  <path d="M33.02,59.56h31.82c4.2,0,7.62-3.42,7.62-7.62v-2.01c0-4.2-3.42-7.62-7.62-7.62h-31.82c-4.2,0-7.62,3.42-7.62,7.62v2.01c0,4.2,3.42,7.62,7.62,7.62ZM27.8,49.93c0-2.87,2.34-5.21,5.21-5.21h31.82c2.87,0,5.21,2.34,5.21,5.21v2.01c0,2.87-2.34,5.21-5.21,5.21h-31.82c-2.87,0-5.21-2.34-5.21-5.21v-2.01Z" fill="#fff" stroke-width="0"/>
  <path d="M34.42,56.89c3.28,0,5.95-2.67,5.95-5.95s-2.67-5.95-5.95-5.95-5.95,2.67-5.95,5.95,2.67,5.95,5.95,5.95ZM34.42,47.39c1.95,0,3.54,1.59,3.54,3.54s-1.59,3.54-3.54,3.54-3.54-1.59-3.54-3.54,1.59-3.54,3.54-3.54Z" fill="#06c" stroke-width="0"/>
  <path d="M63.57,56.89c3.28,0,5.95-2.67,5.95-5.95s-2.67-5.95-5.95-5.95-5.95,2.67-5.95,5.95,2.67,5.95,5.95,5.95ZM63.57,47.39c1.95,0,3.54,1.59,3.54,3.54s-1.59,3.54-3.54,3.54-3.54-1.59-3.54-3.54,1.59-3.54,3.54-3.54Z" fill="#06c" stroke-width="0"/>
</svg>