<?xml version="1.0" encoding="UTF-8"?>
<svg id="Layer_1" data-name="Layer 1" xmlns="http://www.w3.org/2000/svg" viewBox="0 0 96 96">
  <path d="M82.92,53.88c-5.28-2.02-9.64-.45-12.62.62-2.81,1.01-3.87,1.31-5.58.44-1.71-.87-2.08-1.91-2.92-4.78-.98-3.35-2.45-8.4-8.45-11.46-6.01-3.06-10.96-1.28-14.24-.11-2.81,1.01-3.87,1.31-5.58.44-1.71-.87-2.08-1.91-2.92-4.78-.87-3-2.15-7.38-6.74-10.46l-5.12,10.04c.53.76.86,1.81,1.35,3.48.98,3.35,2.45,8.4,8.45,11.46,6.01,3.06,10.96,1.28,14.24.11,2.81-1.01,3.87-1.31,5.58-.44,1.71.87,2.08,1.91,2.92,4.78.98,3.35,2.45,8.4,8.45,11.46,6.01,3.06,10.96,1.28,14.24.11,1.78-.64,2.86-.99,3.84-.95l5.08-9.97Z" fill="#1a1a1a" stroke-width="0"/>
</svg>