<?xml version="1.0" encoding="utf-8"?>
<!-- Generator: Adobe Illustrator 28.1.0, SVG Export Plug-In . SVG Version: 6.00 Build 0)  -->
<svg version="1.1" id="Layer_1" xmlns="http://www.w3.org/2000/svg" xmlns:xlink="http://www.w3.org/1999/xlink" x="0px" y="0px"
	 viewBox="0 0 96 96" style="enable-background:new 0 0 96 96;" xml:space="preserve">
<style type="text/css">
	.st0{fill:#7ACBF2;}
	.st1{fill:#FAA61C;}
</style>
<path class="st0" d="M60.7,30.08c-8.83,3.59-11.51,10.53-13.29,15.13c-1.52,3.94-2.18,5.36-4.69,6.38s-3.96,0.46-7.81-1.3
	c-4.02-1.84-9.88-4.52-17.41-2.46l6,14.76c1.3,0.13,2.73,0.75,4.97,1.77c4.48,2.05,11.25,5.15,20.08,1.56
	c8.83-3.59,11.51-10.53,13.29-15.13c1.52-3.94,2.18-5.36,4.69-6.38s3.97-0.46,7.81,1.3c1.68,0.77,3.67,1.68,5.98,2.34V31.43
	C75.84,29.39,69.24,26.61,60.7,30.08z"/>
<path class="st1" d="M78.96,27.01c-4.48-2.05-11.25-5.15-20.08-1.56S47.37,35.98,45.59,40.58c-1.52,3.94-2.18,5.36-4.69,6.38
	s-3.96,0.46-7.81-1.3c-4.02-1.84-9.88-4.52-17.41-2.46l6,14.76c1.3,0.13,2.73,0.75,4.97,1.77c4.48,2.05,11.25,5.15,20.08,1.56
	c8.83-3.59,11.51-10.53,13.29-15.13c1.52-3.94,2.18-5.36,4.69-6.38s3.97-0.46,7.81,1.3c2.1,0.96,4.71,2.16,7.79,2.78V27.62
	C79.89,27.44,79.45,27.23,78.96,27.01z"/>
</svg>
