<?xml version="1.0" encoding="utf-8"?>
<!-- Generator: Adobe Illustrator 28.1.0, SVG Export Plug-In . SVG Version: 6.00 Build 0)  -->
<svg version="1.1" id="Layer_1" xmlns="http://www.w3.org/2000/svg" xmlns:xlink="http://www.w3.org/1999/xlink" x="0px" y="0px"
	 viewBox="0 0 373 384" style="enable-background:new 0 0 373 384;" xml:space="preserve">
<style type="text/css">
	.st0{fill:#0066CC;}
	.st1{fill:#FFD52E;}
	.st2{fill:#FFFFFF;}
</style>
<path class="st0" d="M258.25,209.1c-10.07,0-18.27,8.04-18.27,17.93c0,9.89,8.2,17.93,18.27,17.93c10.07,0,18.27-8.04,18.27-17.93
	C276.51,217.14,268.32,209.1,258.25,209.1z M258.25,239.63c-7.08,0-12.83-5.61-12.83-12.51c0-6.9,5.76-12.51,12.83-12.51
	c7.08,0,12.83,5.61,12.83,12.51C271.08,234.02,265.32,239.63,258.25,239.63z"/>
<circle class="st1" cx="170.18" cy="214.05" r="37.08"/>
<circle class="st1" cx="258.25" cy="227.03" r="13.8"/>
<circle class="st1" cx="239.64" cy="197.46" r="7.77"/>
<path class="st0" d="M169.37,174.73c-21.68,0-39.31,17.64-39.31,39.31c0,21.68,17.64,39.31,39.31,39.31
	c21.68,0,39.31-17.64,39.31-39.31C208.68,192.37,191.04,174.73,169.37,174.73z M169.37,247.19c-18.27,0-33.14-14.87-33.14-33.14
	c0-18.27,14.87-33.14,33.14-33.14s33.14,14.87,33.14,33.14C202.51,232.32,187.64,247.19,169.37,247.19z"/>
<rect x="126.92" y="152.87" class="st2" width="153.75" height="14.24"/>
<path class="st0" d="M325.24,67.84c-1.33-0.31-2.65,0.54-2.95,1.87l-17.76,78.87v-33.05c0-0.17-0.02-0.34-0.05-0.5
	c-0.26-4.64-4.09-8.35-8.8-8.35H111.29c-4.71,0-8.53,3.71-8.8,8.35c-0.03,0.16-0.05,0.33-0.05,0.5v33.75v11.52v90.13
	c0,8.17,6.65,14.82,14.82,14.82h172.45c8.17,0,14.82-6.65,14.82-14.82v-79.88L327.1,70.79C327.4,69.46,326.57,68.14,325.24,67.84z
	 M299.59,138.26c-2.62-2.36-6.08-3.8-9.88-3.8H117.26c-3.8,0-7.25,1.45-9.88,3.8v-14.84c1.18,0.59,2.5,0.95,3.91,0.95h184.38
	c1.41,0,2.73-0.36,3.91-0.95V138.26z M111.29,111.62h184.38c2.16,0,3.91,1.26,3.91,2.8c0,1.55-1.75,2.8-3.91,2.8H111.29
	c-2.16,0-3.91-1.26-3.91-2.8C107.38,112.87,109.14,111.62,111.29,111.62z M295.89,248.88c0,5.24-4.26,9.5-9.5,9.5H120.58
	c-5.24,0-9.5-4.26-9.5-9.5v-86.67v-11.08c0-5.24,4.26-9.5,9.5-9.5h165.81c5.24,0,9.5,4.26,9.5,9.5v11.08V248.88z"/>
<rect x="126.92" y="149.3" class="st1" width="153.75" height="15.54"/>
<path class="st0" d="M274.1,147.2H133.04c-5.54,0-10.05,4.51-10.05,10.05c0,5.54,4.51,10.05,10.05,10.05H274.1
	c5.54,0,10.05-4.51,10.05-10.05C284.15,151.71,279.64,147.2,274.1,147.2z M279.21,155.02H254v-3.35h20.1
	C276.38,151.67,278.35,153.05,279.21,155.02z M133.04,151.67h116.5v3.35H127.93C128.79,153.05,130.76,151.67,133.04,151.67z
	 M127.93,159.48h121.61v3.35h-116.5C130.76,162.83,128.79,161.45,127.93,159.48z M274.1,162.83H254v-3.35h25.21
	C278.35,161.45,276.38,162.83,274.1,162.83z"/>
<path class="st0" d="M252.27,197.46c0-6.87-5.69-12.45-12.68-12.45c-6.99,0-12.67,5.59-12.67,12.45c0,6.87,5.69,12.45,12.67,12.45
	C246.59,209.92,252.27,204.33,252.27,197.46z M239.6,205.06c-4.31,0-7.81-3.41-7.81-7.6c0-4.19,3.5-7.6,7.81-7.6
	c4.31,0,7.81,3.41,7.81,7.6C247.41,201.65,243.91,205.06,239.6,205.06z"/>
<g id="radio_dial_line_-_small">
	<path class="st0" d="M239.6,201.03c-0.83,0-1.5-0.67-1.5-1.5v-9.83c0-0.83,0.67-1.5,1.5-1.5s1.5,0.67,1.5,1.5v9.83
		C241.1,200.36,240.43,201.03,239.6,201.03z"/>
</g>
<g id="radio_dial_line_-_large">
	<path class="st0" d="M258.86,231.53c-1,0-1.81-0.67-1.81-1.5v-16.92c0-0.83,0.81-1.5,1.81-1.5s1.81,0.67,1.81,1.5v16.92
		C260.67,230.86,259.86,231.53,258.86,231.53z"/>
</g>
<g id="sound_lines_-_left_00000062166597644405156390000004331766088383510934_">
	<g id="radio_dial_line_-_large_00000087392218723829538840000011546514021619143059_">
		<path class="st0" d="M101.8,102.83c-1.21,0.56-2.78-0.27-3.51-1.86L83.4,68.68c-0.73-1.58-0.34-3.31,0.87-3.87
			c1.21-0.56,2.78,0.27,3.51,1.86l14.89,32.3C103.39,100.54,103,102.27,101.8,102.83z"/>
	</g>
	<g id="radio_dial_line_-_large_00000042014816666819801530000004867788330457378705_">
		<path class="st0" d="M111.09,96.71c-1.22,0.29-2.44-0.42-2.71-1.59l-5.54-23.73c-0.27-1.16,0.5-2.34,1.72-2.62
			s2.44,0.42,2.71,1.59l5.54,23.73C113.08,95.25,112.31,96.42,111.09,96.71z"/>
	</g>
	<g id="radio_dial_line_-_large_00000005954670558319605750000010188334458364877502_">
		<path class="st0" d="M94.08,107.09c-0.83,0.86-2.21,0.89-3.06,0.06L73.5,90.21c-0.86-0.83-0.88-2.2-0.04-3.06s2.21-0.89,3.06-0.06
			l17.52,16.94C94.9,104.85,94.92,106.23,94.08,107.09z"/>
	</g>
</g>
<g id="sound_lines_-_right">
	<g id="radio_dial_line_-_large_00000023282326018137061890000002672368992881697424_">
		<path class="st0" d="M291.55,97.7c-1.03-0.41-1.45-1.82-0.92-3.15l10.75-27.1c0.53-1.33,1.79-2.07,2.83-1.66
			c1.03,0.41,1.45,1.82,0.92,3.15l-10.75,27.1C293.85,97.37,292.58,98.11,291.55,97.7z"/>
	</g>
	<g id="radio_dial_line_-_large_00000102518046296597135880000007316854486114255752_">
		<path class="st0" d="M298.91,100.6c-0.93-0.61-1.25-1.77-0.72-2.59l10.95-16.71c0.54-0.82,1.73-0.99,2.66-0.38
			c0.93,0.61,1.25,1.77,0.72,2.59l-10.95,16.71C301.03,101.04,299.84,101.21,298.91,100.6z"/>
	</g>
	<g id="radio_dial_line_-_large_00000084526039994695936250000000490060068400747138_">
		<path class="st0" d="M284.52,95.54c-1.08-0.01-1.95-0.81-1.95-1.79l0.15-19.98c0.01-0.98,0.89-1.76,1.97-1.76s1.95,0.81,1.95,1.79
			l-0.15,19.98C286.48,94.76,285.6,95.55,284.52,95.54z"/>
	</g>
</g>
</svg>
