<?xml version="1.0" encoding="utf-8"?>
<!-- Generator: Adobe Illustrator 28.1.0, SVG Export Plug-In . SVG Version: 6.00 Build 0)  -->
<svg version="1.1" id="Layer_1" xmlns="http://www.w3.org/2000/svg" xmlns:xlink="http://www.w3.org/1999/xlink" x="0px" y="0px"
	 viewBox="0 0 96 96" style="enable-background:new 0 0 96 96;" xml:space="preserve">
<style type="text/css">
	.st0{fill:#FFD52E;}
	.st1{fill:#0066CC;}
	.st2{fill:none;stroke:#0066CC;stroke-width:3;stroke-linecap:round;stroke-linejoin:round;}
</style>
<rect x="52.45" y="20.79" class="st0" width="11.16" height="6.15"/>
<rect x="53.8" y="28.21" transform="matrix(0.0724 -0.9974 0.9974 0.0724 19.4571 87.7068)" class="st0" width="6.15" height="10.37"/>
<path class="st0" d="M28.05,46.93c0-0.65-0.33-1.19-0.73-1.19l0,0l-16.81,0.02c-0.4,0-0.73,0.53-0.73,1.19
	c0,0.65,0.33,1.19,0.73,1.19l0,0l16.81-0.02C27.72,48.12,28.05,47.59,28.05,46.93z"/>
<path class="st0" d="M19.66,37.56c-0.4,0-0.73,0.53-0.73,1.19s0.33,1.19,0.73,1.19H30.5c0.4,0,0.73-0.53,0.73-1.19
	s-0.33-1.19-0.73-1.19H19.66z"/>
<path class="st0" d="M14.24,33.08l18.5,0.09l0,0c0.4,0,0.73-0.51,0.73-1.14c0-0.63-0.32-1.15-0.73-1.15l-18.5-0.09l0,0
	c-0.4,0-0.73,0.51-0.73,1.14S13.83,33.08,14.24,33.08z"/>
<path class="st1" d="M34.78,56.25c21.54,3.64,27.12,4.53,48.93,7.63c0.03,0,0.07,0,0.1,0c0.17,0,0.33-0.06,0.46-0.17
	c0.16-0.13,0.25-0.32,0.26-0.53c0.05-0.99,0.14-1.91,0.24-2.79c0.09-0.91,0.19-1.84,0.24-2.88c0-0.01,0-0.03,0-0.04
	c0,0,0-0.01,0-0.02l0,0l0,0c-0.12-2.87-0.93-5.77-2.34-8.38c-1.41-2.61-3.4-4.88-5.75-6.55c-0.93-0.67-1.95-1.27-3.03-1.79
	c-0.02,0-0.1-0.05-0.12-0.06c-1.64-0.79-3.4-1.41-5.16-1.8c-2.81-0.62-5.55-0.66-7.99-0.11c0.02-0.27,0.04-0.53,0.07-0.8
	c0.03,0,0.07,0,0.1,0c0.55,0,1.18-0.08,1.72-0.43c0.86-0.55,1.03-1.51,1.16-2.27c0.03-0.16,0.05-0.31,0.08-0.45
	c0.23-1.07,0.22-2.26-0.03-3.35c-0.28-1.23-1.11-1.73-2.21-1.97c0.04-0.36,0.08-0.73,0.11-1.09c0.4-0.03,0.8-0.11,1.17-0.27
	c1.36-0.57,1.67-1.86,1.92-2.89c0.03-0.12,0.06-0.24,0.09-0.36c0.19-0.73,0.54-2.57-0.31-3.83c-0.54-0.8-0.26-1.04-1.05-1.16
	c0.05-0.63,0.1-2.19,0.14-2.71c0.03-0.39-1.25-0.73-1.63-0.78c-6.98-0.9-13.96-1.79-20.95-2.69c-0.4-0.05-0.76,0.23-0.81,0.63
	c-0.73,5.5-1.65,12.36-2.53,18.03c-0.89,5.67-1.81,11.54-2.54,17.05c-0.2,1.14-0.35,2.09-0.49,3.01c-0.14,0.91-0.28,1.86-0.48,2.99
	c-0.03,0.19,0,0.39,0.12,0.55c0.11,0.16,0.28,0.27,0.47,0.3L34.78,56.25z M72.86,42.34c0.77,0.41,2.74,1.65,3.45,2.15
	c3.39,2.85,5.21,5.86,6.19,11.14c-4.19-0.66-7.48-1.36-11.77-2.08C70.98,49.37,71.06,46.17,72.86,42.34L72.86,42.34z M61.92,31.83
	c0.18,0.81,0.19,1.73,0.02,2.52c-0.03,0.16-0.06,0.32-0.09,0.47c-0.11,0.63-0.19,1.02-0.47,1.2c-0.35,0.23-0.89,0.2-1.49,0.15
	l-6.05-0.51c-0.63-0.05-1.28-0.13-1.59-0.49c-0.37-0.41-0.29-1.19-0.18-1.89c0.16-1.06,0.41-2.09,1.11-2.47
	c0.57-0.3,1.08-0.41,1.72-0.41c0.53,0,1.15,0.07,1.98,0.17c0.35,0.04,0.75,0.09,1.18,0.13c0.39,0.04,0.75,0.07,1.1,0.1
	c1.94,0.16,2.58,0.27,2.75,1.02L61.92,31.83z M61.34,21.35c0.93,0.09,1.33,0.15,1.61,0.58c0.39,0.58,0.31,1.65,0.1,2.46
	c-0.03,0.12-0.06,0.23-0.09,0.35c-0.23,0.93-0.4,1.51-1,1.76c-0.33,0.14-0.74,0.17-1.16,0.16c0,0-0.02,0-0.03,0
	c-0.32,0-0.64-0.04-0.92-0.07l-4.11-0.43c-0.9-0.09-1.74-0.21-2.23-0.64c-0.41-0.36-0.53-0.92-0.62-1.51
	c-0.15-0.9,0.04-2.1,0.29-2.41c0.33-0.42,1.08-0.65,2.07-0.65c0.06,0,0.13,0,0.19,0c1.11,0.03,4.51,0.27,5.86,0.4H61.34L61.34,21.35
	z M40.13,32.58c0.85-5.43,1.73-11.04,2.44-16.35c6.51,0.84,12.03,1.67,18.54,2.51c-0.02,0.31-0.05,0.63-0.08,0.98
	c-1.58-0.13-4.74-0.35-5.73-0.38c-1.17-0.04-2.75,0.15-3.62,1.25c-0.62,0.79-0.8,2.55-0.61,3.73c0.14,0.83,0.35,1.78,1.15,2.49
	c0.85,0.74,2,0.92,3.21,1.05l4.41,0.46c0.11,0.01,0.23,0.02,0.35,0.04c-0.03,0.31-0.06,0.61-0.1,0.92
	c-0.21-0.02-0.41-0.04-0.63-0.05c-0.37-0.03-0.75-0.06-1.15-0.1c-0.46-0.05-0.88-0.1-1.25-0.14c-2.08-0.24-3.33-0.39-4.85,0.42
	c-1.51,0.81-1.8,2.71-1.96,3.74c-0.12,0.78-0.34,2.23,0.54,3.22c0.75,0.85,1.96,0.95,2.69,1.01l5.78,0.48
	c-0.05,0.61-0.1,2.22-0.15,2.81c-0.02,0.24,0.08,0.47,0.27,0.62c0.19,0.15,0.44,0.2,0.67,0.13c3.7-1.12,6.37-1.59,10.52,0.28
	c-1.87,3.97-1.99,7.3-2.27,11.62c-3.04-0.51-5.08-1.02-8.08-1.53c-7.78-1.31-14.82-2.67-22.51-3.88c0.71-5.3,1.59-9.9,2.44-15.33
	H40.13z M37.47,50.35c7.69,1.21,14.72,2.56,22.49,3.87c3.27,0.55,6.58,1.11,9.9,1.66c0,0,0,0,0.01,0c4.59,0.76,8.18,1.52,12.66,2.22
	c-0.05,0.75-0.07,0.91-0.14,1.6c-0.07,0.67-0.05,0.95-0.25,1.62c-20.91-2.97-24.71-3.9-45.39-7.39"/>
<g id="wheel_-_back">
	<path class="st0" d="M34.21,62.49c-1.09,0.19-1.93,0.95-2.3,2.09c-0.5,1.51,0.34,3.27,1.83,3.84c0.34,0.13,0.69,0.19,1.05,0.19
		c1.2,0,2.38-0.7,2.88-1.83c0.48-1.1,0.37-2.23-0.31-3.09c-0.72-0.92-1.98-1.4-3.14-1.19L34.21,62.49z M36.32,66.19
		c-0.33,0.74-1.31,1.16-2.07,0.87s-1.22-1.26-0.97-2.03c0.26-0.79,0.78-1.04,1.17-1.11c0.63-0.11,1.35,0.16,1.74,0.66
		c0.35,0.44,0.39,1,0.12,1.61L36.32,66.19z"/>
	<path class="st2" d="M40.51,67.33c-0.32,1.28-1.14,3.01-3.3,3.97c-2.03,0.91-4.56,0.59-6.3-0.79c-1.74-1.38-2.62-3.78-2.19-5.96
		c0.41-2.09,1.96-3.94,4.05-4.82c1-0.42,2.02-0.63,2.96-0.63c0.7,0,1.36,0.12,1.94,0.36c1.06,0.43,1.83,1.24,2.31,2.4
		c0.75,1.81,0.95,3.81,0.53,5.48V67.33z"/>
</g>
<g id="wheel_-_middle">
	<path class="st0" d="M54.83,66.32c-1.09,0.19-1.93,0.95-2.3,2.09c-0.5,1.51,0.34,3.27,1.83,3.84c0.34,0.13,0.69,0.19,1.05,0.19
		c1.2,0,2.38-0.7,2.88-1.83c0.48-1.1,0.37-2.23-0.31-3.09c-0.72-0.92-1.98-1.4-3.14-1.19L54.83,66.32z M56.94,70.02
		c-0.33,0.74-1.31,1.16-2.07,0.87s-1.22-1.26-0.97-2.03c0.26-0.79,0.78-1.04,1.17-1.11c0.63-0.11,1.35,0.16,1.74,0.66
		c0.35,0.44,0.39,1,0.12,1.61L56.94,70.02z"/>
	<path class="st2" d="M61.13,71.16c-0.32,1.28-1.14,3.01-3.3,3.97c-2.03,0.91-4.56,0.59-6.3-0.79c-1.74-1.38-2.62-3.78-2.19-5.96
		c0.41-2.09,1.96-3.94,4.05-4.82c1-0.42,2.02-0.63,2.96-0.63c0.7,0,1.36,0.12,1.94,0.36c1.06,0.43,1.83,1.24,2.31,2.4
		c0.75,1.81,0.95,3.81,0.53,5.48V71.16z"/>
</g>
<g id="wheel_-_front">
	<path class="st0" d="M75,69.76c-1.09,0.19-1.93,0.95-2.3,2.09c-0.5,1.51,0.34,3.27,1.83,3.84c0.34,0.13,0.69,0.19,1.05,0.19
		c1.2,0,2.38-0.7,2.88-1.83c0.48-1.1,0.37-2.23-0.31-3.09c-0.72-0.92-1.98-1.4-3.14-1.19L75,69.76z M77.12,73.47
		c-0.33,0.74-1.31,1.16-2.07,0.87s-1.22-1.26-0.97-2.03c0.26-0.79,0.78-1.04,1.17-1.11c0.63-0.11,1.35,0.16,1.74,0.66
		c0.35,0.44,0.39,1,0.12,1.61L77.12,73.47z"/>
	<path class="st2" d="M81.3,74.6c-0.32,1.28-1.14,3.01-3.3,3.97c-2.03,0.91-4.56,0.59-6.3-0.79c-1.74-1.38-2.62-3.78-2.19-5.96
		c0.41-2.09,1.96-3.94,4.05-4.82c1-0.42,2.02-0.63,2.96-0.63c0.7,0,1.36,0.12,1.94,0.36c1.06,0.43,1.83,1.24,2.31,2.4
		c0.75,1.81,0.95,3.81,0.53,5.48L81.3,74.6z"/>
</g>
</svg>
