<?xml version="1.0" encoding="utf-8"?>
<!-- Generator: Adobe Illustrator 28.1.0, SVG Export Plug-In . SVG Version: 6.00 Build 0)  -->
<svg version="1.1" id="Layer_1" xmlns="http://www.w3.org/2000/svg" xmlns:xlink="http://www.w3.org/1999/xlink" x="0px" y="0px"
	 viewBox="0 0 96 96" style="enable-background:new 0 0 96 96;" xml:space="preserve">
<style type="text/css">
	.st0{fill-rule:evenodd;clip-rule:evenodd;fill:#FFD52E;}
	.st1{fill-rule:evenodd;clip-rule:evenodd;fill:#0066CC;}
</style>
<path id="yellow_disc_thing" class="st0" d="M53.78,20.67v12.97c0,0.25,0.1,0.48,0.27,0.64c0.16,0.16,0.39,0.27,0.64,0.27h5.17
	c0.25,0,0.48-0.1,0.64-0.27c0.16-0.16,0.27-0.39,0.27-0.64V20.67c0-0.25-0.1-0.48-0.27-0.64c-0.16-0.16-0.39-0.27-0.64-0.27h-5.17
	c-0.25,0-0.48,0.1-0.64,0.27C53.89,20.19,53.78,20.42,53.78,20.67z"/>
<path class="st1" d="M25.19,73.43H75.9c1.27,0,2.31-1.04,2.31-2.31V25.04l-6.94-6.94h-7.78v18.13H37.6V18.1H25.19
	c-1.27,0-2.31,1.04-2.31,2.31v50.71C22.88,72.39,23.92,73.43,25.19,73.43C25.19,73.43,25.19,73.43,25.19,73.43z M36.4,48.53h28.28
	c1.17,0,2.12,0.95,2.12,2.12v16.27c0,1.17-0.95,2.12-2.12,2.12H36.4c-1.17,0-2.12-0.95-2.12-2.12V50.65
	C34.28,49.48,35.23,48.53,36.4,48.53z"/>
</svg>
