<?xml version="1.0" encoding="utf-8"?>
<!-- Generator: Adobe Illustrator 28.1.0, SVG Export Plug-In . SVG Version: 6.00 Build 0)  -->
<svg version="1.1" id="Layer_1" xmlns="http://www.w3.org/2000/svg" xmlns:xlink="http://www.w3.org/1999/xlink" x="0px" y="0px"
	 viewBox="0 0 373 384" style="enable-background:new 0 0 373 384;" xml:space="preserve">
<style type="text/css">
	.st0{fill:#FFFFFF;stroke:#0066CC;stroke-width:9.1444;stroke-linecap:round;stroke-linejoin:round;stroke-miterlimit:10;}
	.st1{fill:#FFD52E;}
	.st2{fill:none;}
	.st3{fill:#0066CC;stroke:#0066CC;stroke-width:3.0481;stroke-linecap:round;stroke-linejoin:round;stroke-miterlimit:10;}
	.st4{fill:#0066CC;}
</style>
<path class="st0" d="M293.31,155.32l-0.09-0.08c-6.92-6.92-16.48-11.19-27.05-11.19c-36.84,0-73.67,0-110.51,0
	c-10.57,0-20.13,4.28-27.05,11.19c-6.93,6.93-11.21,16.5-11.21,27.06c0,10.55,4.28,20.12,11.21,27.05
	c6.92,6.92,16.48,11.21,27.05,11.21c6.48,0,12.59-1.61,17.93-4.46c5.06-2.69,9.45-6.49,12.83-11.07c-1-0.78-1.86-1.74-2.51-2.82
	c-0.93-1.57-1.49-3.41-1.49-5.37c0-2.8,1.13-5.35,2.95-7.24l0.09-0.1c1.88-1.88,4.48-3.04,7.35-3.04c2.8,0,5.35,1.11,7.24,2.93
	l0.1,0.1c1.51,1.51,2.56,3.48,2.91,5.7h15.7c0.35-2.18,1.38-4.15,2.87-5.66l0.04-0.04c1.9-1.88,4.48-3.04,7.35-3.04
	s5.46,1.15,7.34,3.04c1.87,1.87,3.04,4.47,3.04,7.34c0,1.96-0.54,3.8-1.49,5.37c-0.65,1.08-1.51,2.04-2.51,2.82
	c3.37,4.55,7.71,8.33,12.72,11l0.11,0.06c5.34,2.84,11.46,4.46,17.93,4.46c10.57,0,20.13-4.29,27.05-11.21
	c6.93-6.93,11.21-16.5,11.21-27.05C304.43,171.78,300.19,162.25,293.31,155.32z"/>
<path class="st1" d="M203.9,155.47h-26.22c-0.86,0-1.58,0.72-1.58,1.57v7.9c0,0.87,0.72,1.58,1.58,1.58h26.22
	c0.87,0,1.57-0.7,1.57-1.58v-7.9C205.48,156.19,204.77,155.47,203.9,155.47z M202.33,163.37h-23.07v-4.75h23.07V163.37z"/>
<path class="st1" d="M244.2,155.47h-26.22c-0.87,0-1.58,0.72-1.58,1.57v7.9c0,0.87,0.7,1.58,1.58,1.58h26.22
	c0.86,0,1.56-0.7,1.56-1.58v-7.9C245.76,156.19,245.05,155.47,244.2,155.47z M242.62,163.37h-23.08v-4.75h23.08V163.37z"/>
<path class="st1" d="M150.82,161.67c-6.15,0-11.69,2.46-15.73,6.46l-0.08,0.08c-4.03,4.05-6.54,9.63-6.54,15.81
	c0,6.17,2.5,11.76,6.53,15.79c4.05,4.05,9.63,6.54,15.82,6.54c6.17,0,11.76-2.5,15.79-6.53c4.05-4.05,6.55-9.63,6.55-15.81
	c0-6.17-2.5-11.76-6.55-15.81C162.58,164.17,157,161.67,150.82,161.67z M160.49,185.58h-8.11v8.1c0,0.87-0.7,1.58-1.56,1.58
	c-0.87,0-1.58-0.7-1.58-1.58v-8.1h-8.11c-0.86,0-1.58-0.7-1.58-1.58c0-0.87,0.72-1.58,1.58-1.58h8.11v-8.11
	c0-0.86,0.7-1.56,1.58-1.56c0.86,0,1.56,0.7,1.56,1.56v8.11h8.11c0.87,0,1.58,0.7,1.58,1.58
	C162.07,184.88,161.36,185.58,160.49,185.58z"/>
<rect x="179.26" y="158.62" class="st1" width="23.07" height="4.75"/>
<rect x="219.54" y="158.62" class="st1" width="23.08" height="4.75"/>
<path class="st2" d="M153.42,97.22c-1.59,0-3.02,0.64-4.07,1.69c-1.04,1.04-1.68,2.47-1.68,4.06c0,1.59,0.64,3.04,1.68,4.07
	c1.05,1.04,2.49,1.69,4.07,1.69c1.59,0,3.02-0.65,4.07-1.69c1.04-1.04,1.68-2.49,1.68-4.07c0-1.59-0.64-3.02-1.68-4.06
	C156.44,97.86,155,97.22,153.42,97.22z M155.26,104.82c-0.47,0.47-1.13,0.77-1.84,0.77c-0.72,0-1.37-0.29-1.84-0.77
	c-0.47-0.46-0.76-1.13-0.76-1.84c0-0.72,0.28-1.37,0.76-1.83c0.47-0.47,1.13-0.77,1.84-0.77c0.72,0,1.37,0.29,1.84,0.77
	c0.47,0.46,0.76,1.11,0.76,1.83C156.02,103.69,155.73,104.36,155.26,104.82z"/>
<path class="st1" d="M153.42,100.37c-0.72,0-1.37,0.29-1.84,0.77c-0.47,0.46-0.76,1.11-0.76,1.83c0,0.72,0.28,1.38,0.76,1.84
	c0.47,0.47,1.13,0.77,1.84,0.77c0.72,0,1.37-0.29,1.84-0.77c0.47-0.46,0.76-1.13,0.76-1.84c0-0.72-0.28-1.37-0.76-1.83
	C154.79,100.67,154.13,100.37,153.42,100.37z"/>
<path class="st3" d="M167.34,89.98H67.46v25.99h99.88V89.98z M157.49,107.04c-1.05,1.04-2.49,1.69-4.07,1.69
	c-1.59,0-3.02-0.65-4.07-1.69c-1.04-1.04-1.68-2.49-1.68-4.07c0-1.59,0.64-3.02,1.68-4.06c1.05-1.05,2.49-1.69,4.07-1.69
	c1.59,0,3.02,0.64,4.07,1.69c1.04,1.04,1.68,2.47,1.68,4.06C159.17,104.56,158.53,106.01,157.49,107.04z"/>
<polygon class="st3" points="162.18,67.03 155.3,42.44 79.5,42.44 67.96,83.78 166.85,83.78 163.05,70.18 "/>
<path class="st4" d="M163.98,81.71v-3.02h76.03c2.82,0,5.38,1.14,7.26,2.97l0.1,0.09c4.07,4.07,4.06,10.68,0,14.74
	c-1.9,1.9-4.51,3.07-7.37,3.07h-21.34l-0.03,18.93h4.76v21.26h-12.63v-21.26h4.71l0.03-20.51c0-0.87,0.7-1.58,1.58-1.58h0.04h22.88
	c1.98,0,3.82-0.82,5.14-2.15c2.84-2.83,2.84-7.44,0.01-10.29l-0.08-0.08c-1.31-1.27-3.11-2.06-5.07-2.06"/>
<polygon class="st3" points="165.48,122.17 69.33,122.17 74.89,128.59 159.92,128.59 "/>
<path id="center_right_btn" class="st1" d="M234.17,193.09c-1.28-1.28-3.06-2.07-5.02-2.07c-1.97,0-3.75,0.78-5.03,2.06l-0.03,0.04
	c-1.27,1.28-2.05,3.05-2.05,4.99c0,0.14-0.03,0.28-0.05,0.41c0.1,1.79,0.85,3.41,2.01,4.6l0.08,0.06c1.29,1.29,3.09,2.1,5.07,2.1
	c1.05,0,2.06-0.23,2.96-0.64c0.06-0.05,0.13-0.1,0.19-0.14l0.22-0.13c1.11-0.6,2.06-1.5,2.71-2.59c0.64-1.08,1.01-2.33,1.01-3.68
	C236.24,196.15,235.45,194.37,234.17,193.09z"/>
<path id="center_left_btn" class="st1" d="M200.03,198.07c-0.01-1.95-0.81-3.7-2.08-4.98l-0.09-0.09c-1.27-1.23-3.01-1.98-4.93-1.98
	c-1.96,0-3.74,0.79-5.02,2.07l-0.09,0.08c-1.24,1.28-2,3.02-2,4.94c0,1.34,0.37,2.6,1.01,3.68c0.68,1.1,1.64,2.01,2.78,2.61
	c0.13,0.08,0.24,0.15,0.33,0.24c0.91,0.41,1.92,0.64,2.98,0.64c1.97,0,3.77-0.81,5.06-2.1c1.2-1.2,1.99-2.84,2.09-4.66
	c-0.02-0.13-0.05-0.27-0.05-0.41V198.07z"/>
<path id="keypad_-_top_right" class="st1" d="M281.01,165.83c-1.06-1.06-2.54-1.72-4.15-1.72c-1.63,0-3.09,0.65-4.15,1.72
	c-1.05,1.05-1.72,2.52-1.72,4.14c0,1.63,0.67,3.1,1.72,4.15c1.06,1.06,2.52,1.72,4.15,1.72c1.61,0,3.09-0.65,4.15-1.72
	c1.05-1.05,1.72-2.52,1.72-4.15C282.72,168.36,282.06,166.88,281.01,165.83z"/>
<path id="keypad_-_top_left" class="st1" d="M260,165.83c-1.06-1.06-2.52-1.72-4.15-1.72c-1.63,0-3.09,0.65-4.15,1.72
	c-1.05,1.05-1.72,2.52-1.72,4.14c0,1.63,0.67,3.1,1.72,4.15c1.06,1.06,2.52,1.72,4.15,1.72c1.63,0,3.09-0.65,4.15-1.72
	c1.05-1.05,1.72-2.52,1.72-4.15C261.72,168.36,261.05,166.88,260,165.83z"/>
<path id="keypad_-_bottom_right" class="st1" d="M281.01,185.98c-1.06-1.06-2.54-1.72-4.15-1.72c-1.63,0-3.09,0.65-4.15,1.72
	c-1.05,1.05-1.72,2.52-1.72,4.15c0,1.56,0.62,2.98,1.63,4.05l0.09,0.09c1.06,1.06,2.52,1.72,4.15,1.72c1.61,0,3.09-0.65,4.15-1.72
	c1.05-1.06,1.72-2.52,1.72-4.14C282.72,188.5,282.06,187.03,281.01,185.98z"/>
<path id="keypad_-_bottom_left" class="st1" d="M260,185.98c-1.06-1.06-2.52-1.72-4.15-1.72c-1.63,0-3.09,0.65-4.15,1.72
	c-1.05,1.05-1.72,2.52-1.72,4.15c0,1.56,0.63,2.98,1.63,4.05l0.09,0.09c1.06,1.06,2.52,1.72,4.15,1.72c1.63,0,3.09-0.65,4.15-1.72
	c1.05-1.06,1.72-2.52,1.72-4.14C261.72,188.5,261.05,187.03,260,185.98z"/>
</svg>
