<?xml version="1.0" encoding="utf-8"?>
<!-- Generator: Adobe Illustrator 28.1.0, SVG Export Plug-In . SVG Version: 6.00 Build 0)  -->
<svg version="1.1" id="Layer_1" xmlns="http://www.w3.org/2000/svg" xmlns:xlink="http://www.w3.org/1999/xlink" x="0px" y="0px"
	 viewBox="0 0 373 384" style="enable-background:new 0 0 373 384;" xml:space="preserve">
<style type="text/css">
	.st0{clip-path:url(#SVGID_00000032645159536635908350000017234939538265957020_);}
	.st1{fill:#0066CC;}
	.st2{fill:#FFD52E;}
	.st3{clip-path:url(#SVGID_00000053505238398247766080000006146487502805223569_);}
	.st4{clip-path:url(#SVGID_00000013902984389696851530000017764289069293759620_);}
</style>
<g id="Group_207" transform="translate(0 17.797)">
	<g>
		<defs>
			<rect id="SVGID_1_" x="149.42" y="154" width="36.81" height="35.59"/>
		</defs>
		<clipPath id="SVGID_00000104708491295313551500000006463464655905180603_">
			<use xlink:href="#SVGID_1_"  style="overflow:visible;"/>
		</clipPath>
		
			<g id="Group_206" transform="translate(0 0)" style="clip-path:url(#SVGID_00000104708491295313551500000006463464655905180603_);">
			<path id="Path_1" class="st1" d="M174.99,189.59c-1.39-0.44-2.75-0.99-4.06-1.62c-2.09-1.18-3.75-1.5-6.08,0.01
				c-4.03,2.61-9.48,1.89-10.78-4.23c-0.31-1.4-0.18-2.85,0.35-4.17c1.16-2.52-0.31-3.7-1.91-5c-2.08-1.7-3.52-3.87-2.99-6.58
				c0.35-2.61,2.32-4.72,4.9-5.24c1.34-0.42,2.72-0.71,4.12-0.85c1.35-0.01,1.77-0.65,2.18-1.7c0.38-0.96,0.97-1.83,1.39-2.77
				c1.15-2.62,3.24-3.46,5.97-3.43c2.45-0.07,4.71,1.35,5.7,3.6c0.41,0.67,0.76,1.38,1.04,2.12c0.59,2.03,1.96,2.53,3.94,2.67
				c2.41,0.17,4.93,0.56,6.38,2.93c1.83,2.68,1.37,6.3-1.07,8.43c-2.66,2.23-3.43,4.45-2.49,7.93
				C182.68,185.74,179.39,189.19,174.99,189.59 M158.02,169.42c4.1,3.07,5.28,6.79,3.68,11.87c4.1-3.39,8.08-2.64,11.9-0.14
				c0-2.51-0.52-4.74,0.14-6.53c0.67-1.82,2.5-3.22,4.12-5.17c-5.18,0.37-8.27-2.05-9.87-7C166.16,167.01,163.4,169.9,158.02,169.42
				"/>
			<path id="Path_2" class="st2" d="M158.01,169.42c5.39,0.48,8.15-2.41,9.98-6.97c1.6,4.96,4.69,7.37,9.87,7
				c-1.63,1.95-3.45,3.35-4.12,5.17c-0.66,1.8-0.14,4.02-0.14,6.53c-3.83-2.5-7.8-3.25-11.9,0.14
				C163.29,176.21,162.11,172.48,158.01,169.42"/>
		</g>
	</g>
</g>
<g id="Group_208" transform="translate(36.813 0)">
	<g>
		<defs>
			<rect id="SVGID_00000039834311367794544250000017965728494452208054_" x="149.42" y="154" width="36.81" height="35.59"/>
		</defs>
		<clipPath id="SVGID_00000101806888132958364510000006691008946395870388_">
			<use xlink:href="#SVGID_00000039834311367794544250000017965728494452208054_"  style="overflow:visible;"/>
		</clipPath>
		
			<g id="Group_206-2" transform="translate(0 0)" style="clip-path:url(#SVGID_00000101806888132958364510000006691008946395870388_);">
			<path id="Path_1-2" class="st1" d="M174.99,189.59c-1.39-0.44-2.75-0.99-4.06-1.62c-2.09-1.18-3.75-1.5-6.08,0.01
				c-4.03,2.61-9.48,1.89-10.78-4.23c-0.31-1.4-0.18-2.85,0.35-4.17c1.16-2.52-0.31-3.7-1.91-5c-2.08-1.7-3.52-3.87-2.99-6.58
				c0.35-2.61,2.32-4.72,4.9-5.24c1.34-0.42,2.72-0.71,4.12-0.85c1.35-0.01,1.77-0.65,2.18-1.7c0.38-0.96,0.97-1.83,1.39-2.77
				c1.15-2.62,3.24-3.46,5.97-3.43c2.45-0.07,4.71,1.35,5.7,3.6c0.41,0.67,0.76,1.38,1.04,2.12c0.59,2.03,1.96,2.53,3.94,2.67
				c2.41,0.17,4.93,0.56,6.38,2.93c1.83,2.68,1.37,6.3-1.07,8.43c-2.66,2.23-3.43,4.45-2.49,7.93
				C182.68,185.74,179.39,189.19,174.99,189.59 M158.02,169.42c4.1,3.07,5.28,6.79,3.67,11.87c4.1-3.39,8.08-2.64,11.91-0.14
				c0-2.51-0.52-4.74,0.14-6.53c0.67-1.82,2.5-3.22,4.12-5.17c-5.18,0.37-8.27-2.05-9.87-7C166.16,167.01,163.4,169.9,158.02,169.42
				"/>
			<path id="Path_2-2" class="st2" d="M158.01,169.42c5.39,0.48,8.15-2.41,9.98-6.97c1.6,4.96,4.69,7.37,9.87,7
				c-1.63,1.95-3.45,3.35-4.12,5.17c-0.66,1.8-0.14,4.02-0.14,6.53c-3.83-2.5-7.8-3.25-11.9,0.14
				C163.29,176.21,162.11,172.48,158.01,169.42"/>
		</g>
	</g>
</g>
<g id="Group_209" transform="translate(36.813 40.297)">
	<g>
		<defs>
			<rect id="SVGID_00000173124729932654296520000007985497598033455512_" x="149.42" y="154" width="36.81" height="35.59"/>
		</defs>
		<clipPath id="SVGID_00000142158951122160997640000011026783456246420414_">
			<use xlink:href="#SVGID_00000173124729932654296520000007985497598033455512_"  style="overflow:visible;"/>
		</clipPath>
		
			<g id="Group_206-3" transform="translate(0 0)" style="clip-path:url(#SVGID_00000142158951122160997640000011026783456246420414_);">
			<path id="Path_1-3" class="st1" d="M174.99,189.59c-1.39-0.44-2.75-0.99-4.06-1.62c-2.09-1.18-3.75-1.5-6.08,0.01
				c-4.03,2.61-9.48,1.89-10.78-4.23c-0.31-1.4-0.18-2.85,0.35-4.17c1.16-2.52-0.31-3.7-1.91-5c-2.08-1.7-3.52-3.87-2.99-6.58
				c0.35-2.61,2.32-4.72,4.9-5.24c1.34-0.42,2.72-0.71,4.12-0.85c1.35-0.01,1.77-0.65,2.18-1.7c0.38-0.96,0.97-1.83,1.39-2.77
				c1.15-2.62,3.24-3.46,5.97-3.43c2.45-0.07,4.71,1.35,5.7,3.6c0.41,0.67,0.76,1.38,1.04,2.12c0.59,2.03,1.96,2.53,3.94,2.67
				c2.41,0.17,4.93,0.56,6.38,2.93c1.83,2.68,1.37,6.3-1.07,8.43c-2.66,2.23-3.43,4.45-2.49,7.93
				C182.68,185.74,179.39,189.19,174.99,189.59 M158.02,169.42c4.1,3.07,5.28,6.79,3.67,11.87c4.1-3.39,8.08-2.64,11.91-0.14
				c0-2.51-0.52-4.74,0.14-6.53c0.67-1.82,2.5-3.22,4.12-5.17c-5.18,0.37-8.27-2.05-9.87-7C166.16,167.01,163.4,169.9,158.02,169.42
				"/>
			<path id="Path_2-3" class="st2" d="M158.01,169.42c5.39,0.48,8.15-2.41,9.98-6.97c1.6,4.96,4.69,7.37,9.87,7
				c-1.63,1.95-3.45,3.35-4.12,5.17c-0.66,1.8-0.14,4.02-0.14,6.53c-3.83-2.5-7.8-3.25-11.9,0.14
				C163.29,176.21,162.11,172.48,158.01,169.42"/>
		</g>
	</g>
</g>
</svg>
