<?xml version="1.0" encoding="utf-8"?>
<!-- Generator: Adobe Illustrator 27.3.1, SVG Export Plug-In . SVG Version: 6.00 Build 0)  -->
<svg version="1.1" id="Layer_1" xmlns="http://www.w3.org/2000/svg" xmlns:xlink="http://www.w3.org/1999/xlink" x="0px" y="0px"
	 viewBox="0 0 96 96" style="enable-background:new 0 0 96 96;" xml:space="preserve">
<style type="text/css">
	.st0{fill:none;stroke:#000000;stroke-width:1.1163;stroke-miterlimit:10;}
	.st1{fill:#FFD52E;}
	.st2{fill:#F6F6F6;}
	.st3{fill:#0066CC;}
	.st4{fill:#04487F;}
	.st5{fill:#01283F;}
	.st6{fill:#3F95DB;}
	.st7{fill:#FFE682;}
	.st8{fill:#C4CACE;}
	.st9{fill:#E5EEF5;}
	.st10{fill:#F2BA08;}
	.st11{fill:#8B8B8B;}
	.st12{fill:#4D4D4D;}
	.st13{fill:#FFFFFF;}
	.st14{fill:#FFD52E;stroke:#0066CC;stroke-width:3;stroke-linecap:round;stroke-linejoin:round;stroke-miterlimit:10;}
	.st15{fill:none;stroke:#0066CC;stroke-width:3;stroke-linecap:round;stroke-linejoin:round;stroke-miterlimit:10;}
	.st16{fill:#FFFFFF;stroke:#0066CC;stroke-width:3;stroke-linecap:round;stroke-linejoin:round;stroke-miterlimit:10;}
	.st17{fill:#F2F2F2;}
	.st18{fill:none;stroke:#0066CC;stroke-width:2.743;stroke-linecap:round;stroke-linejoin:round;stroke-miterlimit:10;}
	.st19{opacity:0.99;}
	.st20{fill:#F6F6F6;stroke:#0066CC;stroke-width:3;stroke-linecap:round;stroke-linejoin:round;stroke-miterlimit:10;}
	.st21{fill:#FFD52E;stroke:#0066CC;stroke-width:2.743;stroke-linecap:round;stroke-linejoin:round;stroke-miterlimit:10;}
	.st22{fill:none;stroke:#0066CC;stroke-width:2;stroke-linecap:round;stroke-linejoin:round;stroke-miterlimit:10;}
	.st23{fill:none;stroke:#04487F;stroke-width:3;stroke-linecap:round;stroke-linejoin:round;stroke-miterlimit:10;}
	.st24{fill:none;stroke:#0066CC;stroke-width:2.9027;stroke-linecap:round;stroke-linejoin:round;stroke-miterlimit:10;}
	.st25{fill:none;stroke:#04487F;stroke-width:2.9027;stroke-linecap:round;stroke-linejoin:round;stroke-miterlimit:10;}
	.st26{fill:#FFFFFF;stroke:#0066CC;stroke-width:2.9027;stroke-linecap:round;stroke-linejoin:round;stroke-miterlimit:10;}
	.st27{fill:none;}
	.st28{fill:none;stroke:#0066CC;stroke-width:2.0379;stroke-linecap:round;stroke-linejoin:round;stroke-miterlimit:10;}
	.st29{fill:#F2CD00;}
	
		.st30{fill-rule:evenodd;clip-rule:evenodd;fill:none;stroke:#0066CC;stroke-width:2.0379;stroke-linecap:round;stroke-linejoin:round;stroke-miterlimit:10;}
	.st31{fill:#FFD52E;stroke:#FFD52E;stroke-width:0.5;stroke-miterlimit:10;}
	.st32{fill:#0066CC;stroke:#0066CC;stroke-width:0.5;stroke-miterlimit:10;}
	
		.st33{fill-rule:evenodd;clip-rule:evenodd;fill:#FFD52E;stroke:#0066CC;stroke-width:3;stroke-linecap:round;stroke-linejoin:round;stroke-miterlimit:10;}
	
		.st34{fill-rule:evenodd;clip-rule:evenodd;fill:none;stroke:#0066CC;stroke-width:3;stroke-linecap:round;stroke-linejoin:round;stroke-miterlimit:10;}
	.st35{fill-rule:evenodd;clip-rule:evenodd;fill:#FFD52E;}
	.st36{fill:none;stroke:#0066CC;stroke-width:3.5;stroke-linecap:round;stroke-linejoin:round;stroke-miterlimit:10;}
	.st37{fill:none;stroke:#0066CC;stroke-width:3;stroke-miterlimit:10;}
	.st38{fill:#FFD52E;stroke:#0066CC;stroke-width:3;stroke-miterlimit:10;}
	.st39{fill:none;stroke:#0066CC;stroke-width:3;stroke-linecap:round;stroke-miterlimit:10;}
	.st40{fill:#E5EEF5;stroke:#0066CC;stroke-width:3;stroke-miterlimit:10;}
	.st41{fill:#FFFFFF;stroke:#0066CC;stroke-width:3;stroke-miterlimit:10;}
	.st42{fill:none;stroke:#FFFFFF;stroke-width:5;stroke-linecap:round;stroke-miterlimit:10;}
	.st43{fill:#FFD52E;stroke:#0066CC;stroke-width:6;stroke-miterlimit:10;}
	.st44{fill:#E8EFF4;}
	.st45{fill:#FFFFFF;stroke:#0066CC;stroke-width:3;stroke-linecap:round;stroke-miterlimit:10;}
	.st46{fill:none;stroke:#FFD52E;stroke-width:3;stroke-linejoin:round;stroke-miterlimit:10;}
</style>
<g>
	<g>
		<path class="st14" d="M82.97,55.93c-4.22,0-10.04,0.19-17.53,0.19c-8.2,0-13.77,2.08-17.43,4.67c-0.05-14.65,0.03-16.65-0.02-31.3
			c4.63-2.69,9.65-5.4,15.06-8.04c6.92-3.38,13.56-6.2,19.77-8.56C82.87,27.53,82.92,41.28,82.97,55.93z"/>
		<path class="st14" d="M13.18,56.16c4.17,0,11.78,0.29,20.37,0.29c6.99,0,11.45,1.91,14.45,4.33c-0.05-14.65,0.03-16.65-0.02-31.3
			c-4.55-3-9.94-6.16-16.18-9.12c-6.81-3.24-13.18-5.56-18.77-7.24C13.08,27.77,13.13,41.51,13.18,56.16z"/>
	</g>
	<g>
		<path class="st20" d="M76.31,48.74c-3.89,0.59-8.62,1.63-13.8,3.53c-6.02,2.2-10.87,4.89-14.51,7.27c0-11.89,0-23.77,0-35.66
			c3.77-2.17,7.85-4.35,12.24-6.48c5.63-2.72,11.02-4.99,16.07-6.89C76.31,22.39,76.31,36.85,76.31,48.74z"/>
		<path class="st20" d="M19.69,48.74L19.69,48.74c0,0,8.56,1.27,14.56,3.24c3.62,1.19,8.45,3.34,13.75,7.55c0-11.89,0-23.77,0-35.66
			c-3.68-2.45-8.05-5.02-13.1-7.45c-5.52-2.65-10.68-4.55-15.21-5.93C19.69,22.39,19.69,36.85,19.69,48.74z"/>
	</g>
	<g>
		<path class="st15" d="M25.91,21.7c0.96,0.21,1.93,0.45,2.9,0.72"/>
		<path class="st15" d="M32.91,23.77c2.74,1.03,5.48,2.33,8.2,3.9"/>
		<path class="st15" d="M25.85,28.44c3.95,0.84,11.16,3.52,15.25,5.8"/>
		<path class="st15" d="M25.8,34.92c3.95,0.83,12.05,3.6,15.62,5.82"/>
		<path class="st15" d="M32.74,42.78c3.42,1.28,6.86,2.97,10.23,5.09"/>
		<path class="st15" d="M25.74,40.74c0.96,0.2,1.93,0.44,2.9,0.71"/>
	</g>
	<g>
		<path class="st15" d="M70.57,21.51c-0.96,0.21-1.93,0.45-2.91,0.72"/>
		<path class="st15" d="M63.57,23.58c-2.74,1.03-5.49,2.33-8.2,3.9"/>
		<path class="st15" d="M70.63,28.25c-3.95,0.84-11.16,3.66-15.26,6.22"/>
		<path class="st15" d="M70.68,34.73c-3.95,0.83-11.21,4-15.31,6.53"/>
		<path class="st15" d="M63.74,43.84c-3.42,1.28-6.86,2.97-10.23,5.09"/>
		<path class="st15" d="M70.74,41.8c-0.96,0.2-1.93,0.44-2.9,0.71"/>
	</g>
	<g>
		<circle class="st16" cx="47.79" cy="70.3" r="15.2"/>
		<polygon class="st14" points="56.77,78.28 38.81,78.28 38.81,65.54 47.79,60.9 56.77,65.54 		"/>
		<path class="st3" d="M48.64,68.14h-1.71c-0.33,0-0.6-0.27-0.6-0.6V67c0-0.33,0.27-0.6,0.6-0.6h1.71c0.33,0,0.6,0.27,0.6,0.6v0.55
			C49.23,67.88,48.97,68.14,48.64,68.14z"/>
		<path class="st3" d="M44,68.14H42.3c-0.33,0-0.6-0.27-0.6-0.6V67c0-0.33,0.27-0.6,0.6-0.6H44c0.33,0,0.6,0.27,0.6,0.6v0.55
			C44.6,67.88,44.33,68.14,44,68.14z"/>
		<path class="st3" d="M53.27,68.14h-1.71c-0.33,0-0.6-0.27-0.6-0.6V67c0-0.33,0.27-0.6,0.6-0.6h1.71c0.33,0,0.6,0.27,0.6,0.6v0.55
			C53.87,67.88,53.6,68.14,53.27,68.14z"/>
		<path class="st3" d="M48.64,71.62h-1.71c-0.33,0-0.6-0.27-0.6-0.6v-0.55c0-0.33,0.27-0.6,0.6-0.6h1.71c0.33,0,0.6,0.27,0.6,0.6
			v0.55C49.23,71.35,48.97,71.62,48.64,71.62z"/>
		<path class="st3" d="M44,71.62H42.3c-0.33,0-0.6-0.27-0.6-0.6v-0.55c0-0.33,0.27-0.6,0.6-0.6H44c0.33,0,0.6,0.27,0.6,0.6v0.55
			C44.6,71.35,44.33,71.62,44,71.62z"/>
		<path class="st3" d="M53.27,71.62h-1.71c-0.33,0-0.6-0.27-0.6-0.6v-0.55c0-0.33,0.27-0.6,0.6-0.6h1.71c0.33,0,0.6,0.27,0.6,0.6
			v0.55C53.87,71.35,53.6,71.62,53.27,71.62z"/>
		<path class="st3" d="M44,75.1H42.3c-0.33,0-0.6-0.27-0.6-0.6v-0.55c0-0.33,0.27-0.6,0.6-0.6H44c0.33,0,0.6,0.27,0.6,0.6v0.55
			C44.6,74.83,44.33,75.1,44,75.1z"/>
		<path class="st3" d="M53.27,75.1h-1.71c-0.33,0-0.6-0.27-0.6-0.6v-0.55c0-0.33,0.27-0.6,0.6-0.6h1.71c0.33,0,0.6,0.27,0.6,0.6
			v0.55C53.87,74.83,53.6,75.1,53.27,75.1z"/>
		<path class="st3" d="M48.72,77.41h-1.87c-0.28,0-0.51-0.23-0.51-0.51v-3.03c0-0.28,0.23-0.51,0.51-0.51h1.87
			c0.28,0,0.51,0.23,0.51,0.51v3.03C49.23,77.18,49,77.41,48.72,77.41z"/>
	</g>
</g>
</svg>
