<?xml version="1.0" encoding="utf-8"?>
<!-- Generator: Adobe Illustrator 27.3.1, SVG Export Plug-In . SVG Version: 6.00 Build 0)  -->
<svg version="1.1" id="Layer_1" xmlns="http://www.w3.org/2000/svg" xmlns:xlink="http://www.w3.org/1999/xlink" x="0px" y="0px"
	 viewBox="0 0 96 96" style="enable-background:new 0 0 96 96;" xml:space="preserve">
<style type="text/css">
	.st0{fill:none;stroke:#000000;stroke-width:1.1163;stroke-miterlimit:10;}
	.st1{fill:#FFD52E;}
	.st2{fill:#F6F6F6;}
	.st3{fill:#0066CC;}
	.st4{fill:#04487F;}
	.st5{fill:#01283F;}
	.st6{fill:#3F95DB;}
	.st7{fill:#FFE682;}
	.st8{fill:#C4CACE;}
	.st9{fill:#E5EEF5;}
	.st10{fill:#F2BA08;}
	.st11{fill:#8B8B8B;}
	.st12{fill:#4D4D4D;}
	.st13{fill:#FFFFFF;}
	.st14{fill:#FFD52E;stroke:#0066CC;stroke-width:3;stroke-linecap:round;stroke-linejoin:round;stroke-miterlimit:10;}
	.st15{fill:none;stroke:#0066CC;stroke-width:3;stroke-linecap:round;stroke-linejoin:round;stroke-miterlimit:10;}
	.st16{fill:#FFFFFF;stroke:#0066CC;stroke-width:3;stroke-linecap:round;stroke-linejoin:round;stroke-miterlimit:10;}
	.st17{fill:#F2F2F2;}
	.st18{fill:none;stroke:#0066CC;stroke-width:2.743;stroke-linecap:round;stroke-linejoin:round;stroke-miterlimit:10;}
	.st19{opacity:0.99;}
	.st20{fill:#F6F6F6;stroke:#0066CC;stroke-width:3;stroke-linecap:round;stroke-linejoin:round;stroke-miterlimit:10;}
	.st21{fill:#FFD52E;stroke:#0066CC;stroke-width:2.743;stroke-linecap:round;stroke-linejoin:round;stroke-miterlimit:10;}
	.st22{fill:none;stroke:#0066CC;stroke-width:2;stroke-linecap:round;stroke-linejoin:round;stroke-miterlimit:10;}
	.st23{fill:none;stroke:#04487F;stroke-width:3;stroke-linecap:round;stroke-linejoin:round;stroke-miterlimit:10;}
	.st24{fill:none;stroke:#0066CC;stroke-width:2.9027;stroke-linecap:round;stroke-linejoin:round;stroke-miterlimit:10;}
	.st25{fill:none;stroke:#04487F;stroke-width:2.9027;stroke-linecap:round;stroke-linejoin:round;stroke-miterlimit:10;}
	.st26{fill:#FFFFFF;stroke:#0066CC;stroke-width:2.9027;stroke-linecap:round;stroke-linejoin:round;stroke-miterlimit:10;}
	.st27{fill:none;}
	.st28{fill:none;stroke:#0066CC;stroke-width:2.0379;stroke-linecap:round;stroke-linejoin:round;stroke-miterlimit:10;}
	.st29{fill:#F2CD00;}
	
		.st30{fill-rule:evenodd;clip-rule:evenodd;fill:none;stroke:#0066CC;stroke-width:2.0379;stroke-linecap:round;stroke-linejoin:round;stroke-miterlimit:10;}
	.st31{fill:#FFD52E;stroke:#FFD52E;stroke-width:0.5;stroke-miterlimit:10;}
	.st32{fill:#0066CC;stroke:#0066CC;stroke-width:0.5;stroke-miterlimit:10;}
	
		.st33{fill-rule:evenodd;clip-rule:evenodd;fill:#FFD52E;stroke:#0066CC;stroke-width:3;stroke-linecap:round;stroke-linejoin:round;stroke-miterlimit:10;}
	
		.st34{fill-rule:evenodd;clip-rule:evenodd;fill:none;stroke:#0066CC;stroke-width:3;stroke-linecap:round;stroke-linejoin:round;stroke-miterlimit:10;}
	.st35{fill-rule:evenodd;clip-rule:evenodd;fill:#FFD52E;}
	.st36{fill:none;stroke:#0066CC;stroke-width:3.5;stroke-linecap:round;stroke-linejoin:round;stroke-miterlimit:10;}
	.st37{fill:none;stroke:#0066CC;stroke-width:3;stroke-miterlimit:10;}
	.st38{fill:#FFD52E;stroke:#0066CC;stroke-width:3;stroke-miterlimit:10;}
	.st39{fill:none;stroke:#0066CC;stroke-width:3;stroke-linecap:round;stroke-miterlimit:10;}
	.st40{fill:#E5EEF5;stroke:#0066CC;stroke-width:3;stroke-miterlimit:10;}
	.st41{fill:#FFFFFF;stroke:#0066CC;stroke-width:3;stroke-miterlimit:10;}
	.st42{fill:none;stroke:#FFFFFF;stroke-width:5;stroke-linecap:round;stroke-miterlimit:10;}
	.st43{fill:#FFD52E;stroke:#0066CC;stroke-width:6;stroke-miterlimit:10;}
	.st44{fill:#E8EFF4;}
	.st45{fill:#FFFFFF;stroke:#0066CC;stroke-width:3;stroke-linecap:round;stroke-miterlimit:10;}
	.st46{fill:none;stroke:#FFD52E;stroke-width:3;stroke-linejoin:round;stroke-miterlimit:10;}
</style>
<g>
	<rect x="32.5" y="67.5" class="st2" width="19" height="19"/>
	<g>
		<g>
			<g>
				<g>
					<path class="st3" d="M62.5,15c2.76,0,5,2.24,5,5v60.5c0,2.76-2.24,5-5,5H21c-2.76,0-5-2.24-5-5V20c0-2.76,2.24-5,5-5H62.5
						 M62.5,12H21c-4.4,0-8,3.6-8,8v60.5c0,4.4,3.6,8,8,8h41.5c4.4,0,8-3.6,8-8V20C70.5,15.6,66.9,12,62.5,12L62.5,12z"/>
				</g>
			</g>
		</g>
		<g>
			<g>
				<g>
					<path class="st1" d="M77,46c-0.83,0-1.5-0.67-1.5-1.5v-27c0-0.83,0.67-1.5,1.5-1.5h9.5c0.83,0,1.5,0.67,1.5,1.5v27
						c0,0.83-0.67,1.5-1.5,1.5H77z"/>
					<path class="st3" d="M86.5,17.5v27H77v-27H86.5 M86.5,14.5H77c-1.65,0-3,1.35-3,3v27c0,1.65,1.35,3,3,3h9.5c1.65,0,3-1.35,3-3
						v-27C89.5,15.85,88.15,14.5,86.5,14.5L86.5,14.5z"/>
				</g>
			</g>
		</g>
		<g>
			<g>
				<g>
					<path class="st3" d="M61.5,8.5v2.75H22.75V8.5H61.5 M62.5,5.5H21.75c-1.1,0-2,0.9-2,2v4.75c0,1.1,0.9,2,2,2H62.5
						c1.1,0,2-0.9,2-2V7.5C64.5,6.4,63.6,5.5,62.5,5.5L62.5,5.5z"/>
				</g>
			</g>
		</g>
		<g>
			<g>
				<g>
					<path class="st1" d="M21.75,30c-0.27,0-0.5-0.23-0.5-0.5v-9c0-0.27,0.23-0.5,0.5-0.5h8.75c0.27,0,0.5,0.23,0.5,0.5v9
						c0,0.27-0.23,0.5-0.5,0.5H21.75z"/>
					<path class="st3" d="M29.5,21.5v7h-6.75v-7H29.5 M30.5,18.5h-8.75c-1.1,0-2,0.9-2,2v9c0,1.1,0.9,2,2,2h8.75c1.1,0,2-0.9,2-2v-9
						C32.5,19.4,31.6,18.5,30.5,18.5L30.5,18.5z"/>
				</g>
			</g>
		</g>
		<g>
			<g>
				<g>
					<path class="st1" d="M37.75,30c-0.27,0-0.5-0.23-0.5-0.5v-9c0-0.27,0.23-0.5,0.5-0.5h8.75c0.27,0,0.5,0.23,0.5,0.5v9
						c0,0.27-0.23,0.5-0.5,0.5H37.75z"/>
					<path class="st3" d="M45.5,21.5v7h-6.75v-7H45.5 M46.5,18.5h-8.75c-1.1,0-2,0.9-2,2v9c0,1.1,0.9,2,2,2h8.75c1.1,0,2-0.9,2-2v-9
						C48.5,19.4,47.6,18.5,46.5,18.5L46.5,18.5z"/>
				</g>
			</g>
		</g>
		<g>
			<g>
				<g>
					<path class="st2" d="M53.75,30c-0.27,0-0.5-0.23-0.5-0.5v-9c0-0.27,0.23-0.5,0.5-0.5h8.75c0.27,0,0.5,0.23,0.5,0.5v9
						c0,0.27-0.23,0.5-0.5,0.5H53.75z"/>
					<path class="st3" d="M61.5,21.5v7h-6.75v-7H61.5 M62.5,18.5h-8.75c-1.1,0-2,0.9-2,2v9c0,1.1,0.9,2,2,2h8.75c1.1,0,2-0.9,2-2v-9
						C64.5,19.4,63.6,18.5,62.5,18.5L62.5,18.5z"/>
				</g>
			</g>
		</g>
		<g>
			<g>
				<g>
					<path class="st2" d="M21.75,46c-0.27,0-0.5-0.23-0.5-0.5v-9c0-0.27,0.23-0.5,0.5-0.5h8.75c0.27,0,0.5,0.23,0.5,0.5v9
						c0,0.27-0.23,0.5-0.5,0.5H21.75z"/>
					<path class="st3" d="M29.5,37.5v7h-6.75v-7H29.5 M30.5,34.5h-8.75c-1.1,0-2,0.9-2,2v9c0,1.1,0.9,2,2,2h8.75c1.1,0,2-0.9,2-2v-9
						C32.5,35.4,31.6,34.5,30.5,34.5L30.5,34.5z"/>
				</g>
			</g>
		</g>
		<g>
			<g>
				<g>
					<path class="st2" d="M37.75,46c-0.27,0-0.5-0.23-0.5-0.5v-9c0-0.27,0.23-0.5,0.5-0.5h8.75c0.27,0,0.5,0.23,0.5,0.5v9
						c0,0.27-0.23,0.5-0.5,0.5H37.75z"/>
					<path class="st3" d="M45.5,37.5v7h-6.75v-7H45.5 M46.5,34.5h-8.75c-1.1,0-2,0.9-2,2v9c0,1.1,0.9,2,2,2h8.75c1.1,0,2-0.9,2-2v-9
						C48.5,35.4,47.6,34.5,46.5,34.5L46.5,34.5z"/>
				</g>
			</g>
		</g>
		<g>
			<g>
				<g>
					<path class="st2" d="M53.75,46c-0.27,0-0.5-0.23-0.5-0.5v-9c0-0.27,0.23-0.5,0.5-0.5h8.75c0.27,0,0.5,0.23,0.5,0.5v9
						c0,0.27-0.23,0.5-0.5,0.5H53.75z"/>
					<path class="st3" d="M61.5,37.5v7h-6.75v-7H61.5 M62.5,34.5h-8.75c-1.1,0-2,0.9-2,2v9c0,1.1,0.9,2,2,2h8.75c1.1,0,2-0.9,2-2v-9
						C64.5,35.4,63.6,34.5,62.5,34.5L62.5,34.5z"/>
				</g>
			</g>
		</g>
		<g>
			<g>
				<g>
					<path class="st2" d="M21.75,62c-0.27,0-0.5-0.23-0.5-0.5v-9c0-0.27,0.23-0.5,0.5-0.5h8.75c0.27,0,0.5,0.23,0.5,0.5v9
						c0,0.27-0.23,0.5-0.5,0.5H21.75z"/>
					<path class="st3" d="M29.5,53.5v7h-6.75v-7H29.5 M30.5,50.5h-8.75c-1.1,0-2,0.9-2,2v9c0,1.1,0.9,2,2,2h8.75c1.1,0,2-0.9,2-2v-9
						C32.5,51.4,31.6,50.5,30.5,50.5L30.5,50.5z"/>
				</g>
			</g>
		</g>
		<g>
			<g>
				<g>
					<path class="st1" d="M37.75,62c-0.27,0-0.5-0.23-0.5-0.5v-9c0-0.27,0.23-0.5,0.5-0.5h8.75c0.27,0,0.5,0.23,0.5,0.5v9
						c0,0.27-0.23,0.5-0.5,0.5H37.75z"/>
					<path class="st3" d="M45.5,53.5v7h-6.75v-7H45.5 M46.5,50.5h-8.75c-1.1,0-2,0.9-2,2v9c0,1.1,0.9,2,2,2h8.75c1.1,0,2-0.9,2-2v-9
						C48.5,51.4,47.6,50.5,46.5,50.5L46.5,50.5z"/>
				</g>
			</g>
		</g>
		<g>
			<g>
				<g>
					<path class="st1" d="M53.75,62c-0.27,0-0.5-0.23-0.5-0.5v-9c0-0.27,0.23-0.5,0.5-0.5h8.75c0.27,0,0.5,0.23,0.5,0.5v9
						c0,0.27-0.23,0.5-0.5,0.5H53.75z"/>
					<path class="st3" d="M61.5,53.5v7h-6.75v-7H61.5 M62.5,50.5h-8.75c-1.1,0-2,0.9-2,2v9c0,1.1,0.9,2,2,2h8.75c1.1,0,2-0.9,2-2v-9
						C64.5,51.4,63.6,50.5,62.5,50.5L62.5,50.5z"/>
				</g>
			</g>
		</g>
		<g>
			<path class="st3" d="M82.5,42.5c-0.83,0-1.5-0.67-1.5-1.5V21.5c0-0.83,0.67-1.5,1.5-1.5s1.5,0.67,1.5,1.5V41
				C84,41.83,83.33,42.5,82.5,42.5z"/>
		</g>
		<path class="st3" d="M54.08,67H29.17c-1.06,0-1.92,0.67-1.92,1.5s0.86,1.5,1.92,1.5H31v17.13c0,0.75,0.67,1.37,1.5,1.37
			s1.5-0.61,1.5-1.37V70h6v17.13c0,0.75,0.67,1.37,1.5,1.37s1.5-0.61,1.5-1.37V70h7v17.13c0,0.75,0.67,1.37,1.5,1.37
			s1.5-0.61,1.5-1.37V70h1.08c1.06,0,1.92-0.67,1.92-1.5S55.14,67,54.08,67z"/>
		<g>
			<path class="st3" d="M77,20.5c0,0.83-0.26,1.5-0.58,1.5h-7.58c-0.32,0-0.58-0.67-0.58-1.5s0.26-1.5,0.58-1.5h7.58
				C76.74,19,77,19.67,77,20.5z"/>
		</g>
		<g>
			<path class="st3" d="M77,26.5c0,0.83-0.26,1.5-0.58,1.5h-7.58c-0.32,0-0.58-0.67-0.58-1.5s0.26-1.5,0.58-1.5h7.58
				C76.74,25,77,25.67,77,26.5z"/>
		</g>
		<line class="st36" x1="88.5" y1="87.5" x2="8.5" y2="87.5"/>
	</g>
</g>
</svg>
