<?xml version="1.0" encoding="utf-8"?>
<!-- Generator: Adobe Illustrator 27.3.1, SVG Export Plug-In . SVG Version: 6.00 Build 0)  -->
<svg version="1.1" id="Layer_1" xmlns="http://www.w3.org/2000/svg" xmlns:xlink="http://www.w3.org/1999/xlink" x="0px" y="0px"
	 viewBox="0 0 96 96" style="enable-background:new 0 0 96 96;" xml:space="preserve">
<style type="text/css">
	.st0{fill:none;stroke:#000000;stroke-width:1.1163;stroke-miterlimit:10;}
	.st1{fill:#FFD52E;}
	.st2{fill:#F6F6F6;}
	.st3{fill:#0066CC;}
	.st4{fill:#04487F;}
	.st5{fill:#01283F;}
	.st6{fill:#3F95DB;}
	.st7{fill:#FFE682;}
	.st8{fill:#C4CACE;}
	.st9{fill:#E5EEF5;}
	.st10{fill:#F2BA08;}
	.st11{fill:#8B8B8B;}
	.st12{fill:#4D4D4D;}
	.st13{fill:#FFFFFF;}
	.st14{fill:#FFD52E;stroke:#0066CC;stroke-width:3;stroke-linecap:round;stroke-linejoin:round;stroke-miterlimit:10;}
	.st15{fill:none;stroke:#0066CC;stroke-width:3;stroke-linecap:round;stroke-linejoin:round;stroke-miterlimit:10;}
	.st16{fill:#FFFFFF;stroke:#0066CC;stroke-width:3;stroke-linecap:round;stroke-linejoin:round;stroke-miterlimit:10;}
	.st17{fill:#F2F2F2;}
	.st18{fill:none;stroke:#0066CC;stroke-width:2.743;stroke-linecap:round;stroke-linejoin:round;stroke-miterlimit:10;}
	.st19{opacity:0.99;}
	.st20{fill:#F6F6F6;stroke:#0066CC;stroke-width:3;stroke-linecap:round;stroke-linejoin:round;stroke-miterlimit:10;}
	.st21{fill:#FFD52E;stroke:#0066CC;stroke-width:2.743;stroke-linecap:round;stroke-linejoin:round;stroke-miterlimit:10;}
	.st22{fill:none;stroke:#0066CC;stroke-width:2;stroke-linecap:round;stroke-linejoin:round;stroke-miterlimit:10;}
	.st23{fill:none;stroke:#04487F;stroke-width:3;stroke-linecap:round;stroke-linejoin:round;stroke-miterlimit:10;}
	.st24{fill:none;stroke:#0066CC;stroke-width:2.9027;stroke-linecap:round;stroke-linejoin:round;stroke-miterlimit:10;}
	.st25{fill:none;stroke:#04487F;stroke-width:2.9027;stroke-linecap:round;stroke-linejoin:round;stroke-miterlimit:10;}
	.st26{fill:#FFFFFF;stroke:#0066CC;stroke-width:2.9027;stroke-linecap:round;stroke-linejoin:round;stroke-miterlimit:10;}
	.st27{fill:none;}
	.st28{fill:none;stroke:#0066CC;stroke-width:2.0379;stroke-linecap:round;stroke-linejoin:round;stroke-miterlimit:10;}
	.st29{fill:#F2CD00;}
	
		.st30{fill-rule:evenodd;clip-rule:evenodd;fill:none;stroke:#0066CC;stroke-width:2.0379;stroke-linecap:round;stroke-linejoin:round;stroke-miterlimit:10;}
	.st31{fill:#FFD52E;stroke:#FFD52E;stroke-width:0.5;stroke-miterlimit:10;}
	.st32{fill:#0066CC;stroke:#0066CC;stroke-width:0.5;stroke-miterlimit:10;}
	
		.st33{fill-rule:evenodd;clip-rule:evenodd;fill:#FFD52E;stroke:#0066CC;stroke-width:3;stroke-linecap:round;stroke-linejoin:round;stroke-miterlimit:10;}
	
		.st34{fill-rule:evenodd;clip-rule:evenodd;fill:none;stroke:#0066CC;stroke-width:3;stroke-linecap:round;stroke-linejoin:round;stroke-miterlimit:10;}
	.st35{fill-rule:evenodd;clip-rule:evenodd;fill:#FFD52E;}
	.st36{fill:none;stroke:#0066CC;stroke-width:3.5;stroke-linecap:round;stroke-linejoin:round;stroke-miterlimit:10;}
	.st37{fill:none;stroke:#0066CC;stroke-width:3;stroke-miterlimit:10;}
	.st38{fill:#FFD52E;stroke:#0066CC;stroke-width:3;stroke-miterlimit:10;}
	.st39{fill:none;stroke:#0066CC;stroke-width:3;stroke-linecap:round;stroke-miterlimit:10;}
	.st40{fill:#E5EEF5;stroke:#0066CC;stroke-width:3;stroke-miterlimit:10;}
	.st41{fill:#FFFFFF;stroke:#0066CC;stroke-width:3;stroke-miterlimit:10;}
	.st42{fill:none;stroke:#FFFFFF;stroke-width:5;stroke-linecap:round;stroke-miterlimit:10;}
	.st43{fill:#FFD52E;stroke:#0066CC;stroke-width:6;stroke-miterlimit:10;}
	.st44{fill:#E8EFF4;}
	.st45{fill:#FFFFFF;stroke:#0066CC;stroke-width:3;stroke-linecap:round;stroke-miterlimit:10;}
	.st46{fill:none;stroke:#FFD52E;stroke-width:3;stroke-linejoin:round;stroke-miterlimit:10;}
</style>
<g>
	<path class="st1" d="M46.65,78.97c0.4-3.15,1.61-7.62,4.74-8.7s32.07-18.23,32.95-20.4c0.87-2.17-35.41-21.23-35.41-21.23
		L12.07,50.15l-2.28,3.16l1.02,4.63C10.81,57.94,45.81,79.21,46.65,78.97z"/>
	<path class="st44" d="M77.95,39.72l7.78,5.07L51.7,64.93c0,0-4.63,0.69-4.62-1.78c0.01-2.47,0.39-5.64,2.01-6.87
		C50.7,55.05,77.95,39.72,77.95,39.72z"/>
	<path class="st44" d="M77.95,54.89l7.78,5.07L66.3,71.47v7.68l-5.77,3.46l-0.66-6.83L51.7,80.1c0,0-4.63,0.69-4.62-1.78
		c0.01-2.47,0.39-5.64,2.01-6.87C50.7,70.22,77.95,54.89,77.95,54.89z"/>
	<path class="st13" d="M46.65,63.33c0.4-3.15,1.61-7.62,4.74-8.7s32.07-18.23,32.95-20.4C85.2,32.06,48.92,13,48.92,13L12.07,34.51
		l-2.28,3.16l1.02,4.63C10.81,42.3,45.81,63.57,46.65,63.33z"/>
	<g>
		<path class="st15" d="M48.68,64.51l-36.56-21.1c-1.04-0.6-1.85-1.56-2.17-2.71c-0.2-0.71-0.17-1.23-0.16-1.2
			c0-2.92,1.38-4.71,4.3-6.4L48.92,13l34.47,19.9c1.25,0.72,1.25,2.53,0,3.25L51.38,54.63c-2.92,1.69-4.3,3.48-4.3,6.4l0,0
			c0,2.92,2.5,5.21,5.42,3.53l33.7-19.46l-8.26-5.38"/>
		<polyline class="st39" points="66.3,72 86.21,60.5 78.03,54.89 		"/>
		<path class="st15" d="M48.68,79.91l-36.56-21.1c-1.04-0.6-1.85-1.56-2.17-2.71c-0.2-0.71-0.17-1.23-0.16-1.2
			c0-2.92,1.38-4.71,4.3-6.4l3.56-1.87"/>
		<path class="st39" d="M81.97,47.55c0.12,0.07,1.66,0.91,1.76,1c0.91,0.82,0.8,2.36-0.33,3.01L51.38,70.04
			c-2.92,1.69-4.3,3.48-4.3,6.4l0,0c0,2.92,2.5,5.21,5.42,3.53l7.35-4.19V83l6.44-3.85V72c0-1.58-0.82-3.05-2.15-3.89
			c-0.06-0.03-0.11-0.07-0.17-0.1l0,0"/>
		<line class="st39" x1="14.1" y1="33.11" x2="43.04" y2="49.16"/>
	</g>
</g>
</svg>
