<?xml version="1.0" encoding="utf-8"?>
<!-- Generator: Adobe Illustrator 27.3.1, SVG Export Plug-In . SVG Version: 6.00 Build 0)  -->
<svg version="1.1" id="Layer_1" xmlns="http://www.w3.org/2000/svg" xmlns:xlink="http://www.w3.org/1999/xlink" x="0px" y="0px"
	 viewBox="0 0 96 96" style="enable-background:new 0 0 96 96;" xml:space="preserve">
<style type="text/css">
	.st0{fill:none;stroke:#000000;stroke-width:1.1163;stroke-miterlimit:10;}
	.st1{fill:#FFD52E;}
	.st2{fill:#F6F6F6;}
	.st3{fill:#0066CC;}
	.st4{fill:#04487F;}
	.st5{fill:#01283F;}
	.st6{fill:#3F95DB;}
	.st7{fill:#FFE682;}
	.st8{fill:#C4CACE;}
	.st9{fill:#E5EEF5;}
	.st10{fill:#F2BA08;}
	.st11{fill:#8B8B8B;}
	.st12{fill:#4D4D4D;}
	.st13{fill:#FFFFFF;}
	.st14{fill:#FFD52E;stroke:#0066CC;stroke-width:3;stroke-linecap:round;stroke-linejoin:round;stroke-miterlimit:10;}
	.st15{fill:none;stroke:#0066CC;stroke-width:3;stroke-linecap:round;stroke-linejoin:round;stroke-miterlimit:10;}
	.st16{fill:#FFFFFF;stroke:#0066CC;stroke-width:3;stroke-linecap:round;stroke-linejoin:round;stroke-miterlimit:10;}
	.st17{fill:#F2F2F2;}
	.st18{fill:none;stroke:#0066CC;stroke-width:2.743;stroke-linecap:round;stroke-linejoin:round;stroke-miterlimit:10;}
	.st19{opacity:0.99;}
	.st20{fill:#F6F6F6;stroke:#0066CC;stroke-width:3;stroke-linecap:round;stroke-linejoin:round;stroke-miterlimit:10;}
	.st21{fill:#FFD52E;stroke:#0066CC;stroke-width:2.743;stroke-linecap:round;stroke-linejoin:round;stroke-miterlimit:10;}
	.st22{fill:none;stroke:#0066CC;stroke-width:2;stroke-linecap:round;stroke-linejoin:round;stroke-miterlimit:10;}
	.st23{fill:none;stroke:#04487F;stroke-width:3;stroke-linecap:round;stroke-linejoin:round;stroke-miterlimit:10;}
	.st24{fill:none;stroke:#0066CC;stroke-width:2.9027;stroke-linecap:round;stroke-linejoin:round;stroke-miterlimit:10;}
	.st25{fill:none;stroke:#04487F;stroke-width:2.9027;stroke-linecap:round;stroke-linejoin:round;stroke-miterlimit:10;}
	.st26{fill:#FFFFFF;stroke:#0066CC;stroke-width:2.9027;stroke-linecap:round;stroke-linejoin:round;stroke-miterlimit:10;}
	.st27{fill:none;}
	.st28{fill:none;stroke:#0066CC;stroke-width:2.0379;stroke-linecap:round;stroke-linejoin:round;stroke-miterlimit:10;}
	.st29{fill:#F2CD00;}
	
		.st30{fill-rule:evenodd;clip-rule:evenodd;fill:none;stroke:#0066CC;stroke-width:2.0379;stroke-linecap:round;stroke-linejoin:round;stroke-miterlimit:10;}
	.st31{fill:#FFD52E;stroke:#FFD52E;stroke-width:0.5;stroke-miterlimit:10;}
	.st32{fill:#0066CC;stroke:#0066CC;stroke-width:0.5;stroke-miterlimit:10;}
	
		.st33{fill-rule:evenodd;clip-rule:evenodd;fill:#FFD52E;stroke:#0066CC;stroke-width:3;stroke-linecap:round;stroke-linejoin:round;stroke-miterlimit:10;}
	
		.st34{fill-rule:evenodd;clip-rule:evenodd;fill:none;stroke:#0066CC;stroke-width:3;stroke-linecap:round;stroke-linejoin:round;stroke-miterlimit:10;}
	.st35{fill-rule:evenodd;clip-rule:evenodd;fill:#FFD52E;}
	.st36{fill:none;stroke:#0066CC;stroke-width:3.5;stroke-linecap:round;stroke-linejoin:round;stroke-miterlimit:10;}
	.st37{fill:none;stroke:#0066CC;stroke-width:3;stroke-miterlimit:10;}
	.st38{fill:#FFD52E;stroke:#0066CC;stroke-width:3;stroke-miterlimit:10;}
	.st39{fill:none;stroke:#0066CC;stroke-width:3;stroke-linecap:round;stroke-miterlimit:10;}
	.st40{fill:#E5EEF5;stroke:#0066CC;stroke-width:3;stroke-miterlimit:10;}
	.st41{fill:#FFFFFF;stroke:#0066CC;stroke-width:3;stroke-miterlimit:10;}
	.st42{fill:none;stroke:#FFFFFF;stroke-width:5;stroke-linecap:round;stroke-miterlimit:10;}
	.st43{fill:#FFD52E;stroke:#0066CC;stroke-width:6;stroke-miterlimit:10;}
	.st44{fill:#E8EFF4;}
	.st45{fill:#FFFFFF;stroke:#0066CC;stroke-width:3;stroke-linecap:round;stroke-miterlimit:10;}
	.st46{fill:none;stroke:#FFD52E;stroke-width:3;stroke-linejoin:round;stroke-miterlimit:10;}
</style>
<g>
	<g>
		<rect x="16.83" y="22.5" class="st13" width="62.33" height="40"/>
		<g>
			<path class="st3" d="M77.67,24v37H18.33V24H77.67 M80.67,21H15.33v43h65.33V21L80.67,21z"/>
		</g>
	</g>
	<g>
		<g>
			<rect x="33.5" y="32.5" class="st1" width="29" height="21"/>
			<g>
				<path class="st3" d="M61,34v18H35V34H61 M64,31H32v24h32V31L64,31z"/>
			</g>
		</g>
		<polyline class="st14" points="49.17,48.1 54,43.28 49.07,38.34 		"/>
		<line class="st14" x1="41.5" y1="43.22" x2="50.5" y2="43.22"/>
	</g>
	<polyline class="st14" points="57,69 57,73 39,73 39,69 	"/>
	<g>
		<path class="st3" d="M79,18c2.76,0,5,2.24,5,5v39c0,2.76-2.24,5-5,5H17c-2.76,0-5-2.24-5-5V23c0-2.76,2.24-5,5-5H79 M79,15H17
			c-4.4,0-8,3.6-8,8v39c0,4.4,3.6,8,8,8h62c4.4,0,8-3.6,8-8V23C87,18.6,83.4,15,79,15L79,15z"/>
	</g>
	<g>
		<path class="st3" d="M87.92,70.05L87.92,70.05 M87.92,70.05C87.3,73.49,84.8,76,81.9,76H13.1c-2.9,0-5.4-2.51-6.02-5.95H87.92
			 M87.93,67.05L87.93,67.05H7.08c-0.89,0-1.73,0.39-2.3,1.08c-0.57,0.68-0.81,1.58-0.65,2.46C5.01,75.46,8.79,79,13.1,79H81.9
			c4.27,0,8.01-3.46,8.95-8.26c0.05-0.22,0.08-0.45,0.08-0.69C90.92,68.4,89.58,67.05,87.93,67.05L87.93,67.05z M87.92,73.05
			L87.92,73.05L87.92,73.05L87.92,73.05z"/>
	</g>
	<line class="st15" x1="48.5" y1="19.5" x2="48.5" y2="19.5"/>
</g>
</svg>
